<svg width="64" height="64" viewBox="0 0 64 64" fill="none" xmlns="http://www.w3.org/2000/svg">
<path d="M64 32.0001C64 14.3269 49.6731 0 32 0C14.3269 0 0 14.3269 0 32.0001C0 47.9722 11.7019 61.2108 27 63.6114V41.2501H18.875V32.0001H27V24.9501C27 16.93 31.7774 12.5 39.0869 12.5C42.588 12.5 46.25 13.125 46.25 13.125V21H42.2149C38.2397 21 37 23.4668 37 25.9974V32.0001H45.875L44.4563 41.2501H37V63.6114C52.2981 61.2108 64 47.9722 64 32.0001Z" fill="#1877F2"/>
<path d="M44.4562 41.2501L45.875 32H37V25.9973C37 23.4667 38.2397 21 42.2149 21H46.25V13.125C46.25 13.125 42.5879 12.5 39.0869 12.5C31.7773 12.5 27 16.93 27 24.95V32H18.875V41.2501H27V63.6114C28.654 63.8706 30.3258 64.0005 32 64.0001C33.701 64.0001 35.3708 63.867 37 63.6114V41.2501H44.4562Z" fill="white"/>
</svg>
