<svg width="64" height="64" viewBox="0 0 64 64" fill="none" xmlns="http://www.w3.org/2000/svg">
<circle cx="32" cy="32" r="32" fill="url(#paint0_linear_13341_2789)"/>
<g filter="url(#filter0_i_13341_2789)">
<path d="M43.8352 49.1188C46.2592 48.1823 48.1756 46.2659 49.1122 43.8419C49.5555 42.6936 49.8659 41.3835 49.9501 39.4671C49.9701 39.0182 49.9856 38.6414 50 38.2634V25.4595C49.99 25.1924 49.9789 24.9142 49.9645 24.6016C49.8803 22.6852 49.57 21.3685 49.1266 20.2268C48.6688 19.0154 47.9639 17.9303 47.0417 17.0292C46.1395 16.1126 45.0478 15.401 43.8496 14.951C42.7014 14.5076 41.3913 14.1973 39.4749 14.1131C37.5441 14.0211 36.9312 14 32.0355 14C27.1398 14 26.5257 14.0211 24.6027 14.1053C22.6863 14.1895 21.3696 14.4999 20.228 14.9432C19.0165 15.401 17.9314 16.1059 17.0292 17.0292C16.1137 17.9314 15.4021 19.0232 14.951 20.2202C14.5076 21.3685 14.1973 22.6786 14.1131 24.595C14.0211 26.5257 14 27.1387 14 32.0355C14 36.9323 14.0211 37.5452 14.1053 39.4682C14.1895 41.3846 14.4999 42.7025 14.9443 43.843C15.4021 45.0544 16.1137 46.1395 17.0292 47.0417C17.9314 47.9573 19.0231 48.6699 20.2213 49.1199C21.3696 49.5633 22.6797 49.8736 24.5961 49.9579C26.5191 50.0432 27.132 50.0643 32.0288 50.0643C36.9256 50.0643 37.5374 50.0432 39.4616 49.9579C41.378 49.8736 42.6947 49.5633 43.8363 49.1199L43.8352 49.1188ZM32.0421 46.8223C27.2296 46.8223 26.6521 46.8012 24.7568 46.717C22.9956 46.6394 22.0446 46.3435 21.4106 46.0974C20.6292 45.8081 19.9176 45.3504 19.339 44.7518C18.7405 44.1666 18.2817 43.4628 17.9935 42.6803C17.7474 42.0463 17.4515 41.0876 17.3739 39.3341C17.2897 37.4321 17.2686 36.8613 17.2686 32.0488C17.2686 27.2362 17.2897 26.6587 17.3739 24.7645C17.4515 23.0033 17.7474 22.0523 17.9935 21.4184C18.2828 20.6358 18.7405 19.9243 19.3468 19.3468C19.9309 18.7483 20.6358 18.2905 21.4172 18.0012C22.0512 17.7552 23.01 17.4592 24.7634 17.3817C26.6654 17.2974 27.2362 17.2764 32.0477 17.2764C36.8591 17.2764 37.4377 17.2974 39.333 17.3817C41.0942 17.4592 42.0452 17.7552 42.6792 18.0012C43.4606 18.2905 44.1722 18.7483 44.7496 19.3468C45.3482 19.932 45.807 20.6358 46.0952 21.4184C46.3413 22.0523 46.6372 23.01 46.7148 24.7645C46.799 26.6665 46.8201 27.2373 46.8201 32.0488C46.8201 36.8602 46.799 37.4244 46.7148 39.3264C46.6372 41.0876 46.3413 42.0385 46.0952 42.6725C45.4889 44.2442 44.242 45.4911 42.6714 46.0963C42.0374 46.3424 41.0798 46.6383 39.3252 46.7159C37.4233 46.8001 36.8525 46.8212 32.041 46.8212L32.0421 46.8223Z" fill="white"/>
<path d="M32.0403 22.7695C26.9251 22.7695 22.7754 26.9193 22.7754 32.0344C22.7754 37.1496 26.9251 41.2993 32.0403 41.2993C37.1554 41.2993 41.3041 37.1496 41.3041 32.0344C41.3041 26.9193 37.1543 22.7695 32.0403 22.7695ZM32.0403 38.0429C28.7218 38.0429 26.0307 35.3518 26.0307 32.0333C26.0307 28.7148 28.7218 26.0237 32.0403 26.0237C35.3588 26.0237 38.0499 28.7148 38.0499 32.0333C38.0499 35.3518 35.3588 38.0429 32.0403 38.0429Z" fill="white"/>
<path d="M43.8279 22.4027C43.8279 21.2078 42.8592 20.2402 41.6644 20.2402C40.4696 20.2402 39.502 21.209 39.502 22.4027C39.502 23.5964 40.4707 24.5651 41.6644 24.5651C42.8581 24.5651 43.8279 23.5975 43.8279 22.4027Z" fill="white"/>
</g>
<defs>
<filter id="filter0_i_13341_2789" x="14" y="14" width="36" height="36.5645" filterUnits="userSpaceOnUse" color-interpolation-filters="sRGB">
<feFlood flood-opacity="0" result="BackgroundImageFix"/>
<feBlend mode="normal" in="SourceGraphic" in2="BackgroundImageFix" result="shape"/>
<feColorMatrix in="SourceAlpha" type="matrix" values="0 0 0 0 0 0 0 0 0 0 0 0 0 0 0 0 0 0 127 0" result="hardAlpha"/>
<feOffset dy="0.5"/>
<feGaussianBlur stdDeviation="1.25"/>
<feComposite in2="hardAlpha" operator="arithmetic" k2="-1" k3="1"/>
<feColorMatrix type="matrix" values="0 0 0 0 0 0 0 0 0 0 0 0 0 0 0 0 0 0 0.1 0"/>
<feBlend mode="normal" in2="shape" result="effect1_innerShadow_13341_2789"/>
</filter>
<linearGradient id="paint0_linear_13341_2789" x1="32" y1="-1.99417" x2="32" y2="67.354" gradientUnits="userSpaceOnUse">
<stop stop-color="#FCA759"/>
<stop offset="0.19" stop-color="#E82D56"/>
<stop offset="0.74" stop-color="#A22DB4"/>
<stop offset="1" stop-color="#643DCE"/>
</linearGradient>
</defs>
</svg>
