<svg width="64" height="64" viewBox="0 0 64 64" fill="none" xmlns="http://www.w3.org/2000/svg">
<circle cx="32" cy="32" r="32" fill="url(#paint0_linear_13341_2764)"/>
<g filter="url(#filter0_i_13341_2764)">
<path fill-rule="evenodd" clip-rule="evenodd" d="M31.9999 14.9004C41.9411 14.9004 50 21.3593 50 29.3268C50 32.1099 49.0161 34.7083 47.3127 36.912C47.2284 37.0375 47.1183 37.1761 46.9795 37.3292L46.9689 37.3406C46.3871 38.0374 45.7318 38.6915 45.0114 39.2953C40.0337 43.9003 31.8406 49.3829 30.7592 48.537C29.8192 47.8018 32.3075 44.2055 29.4367 43.607C29.2364 43.584 29.0367 43.5593 28.8386 43.5313L28.8348 43.531V43.5307C20.4031 42.3318 14 36.4287 14 29.3268C13.9997 21.3593 22.0587 14.9004 31.9999 14.9004Z" fill="white"/>
<path fill-rule="evenodd" clip-rule="evenodd" d="M21.5559 33.9283H25.1863C25.7027 33.9283 26.125 33.5054 26.125 32.9886V32.9102C26.125 32.3933 25.7027 31.9706 25.1863 31.9706H22.573V26.0197C22.573 25.5028 22.1506 25.0801 21.6343 25.0801H21.5559C21.0395 25.0801 20.6172 25.5028 20.6172 26.0197V32.9884C20.6172 33.5054 21.0395 33.9283 21.5559 33.9283ZM44.0513 29.5601V29.4818C44.0513 28.9649 43.6288 28.5422 43.1124 28.5422H40.4993V27.0544H43.1124C43.6288 27.0544 44.0513 26.6317 44.0513 26.1148V26.0364C44.0513 25.5196 43.6288 25.0968 43.1124 25.0968H39.4821C38.9657 25.0968 38.5434 25.5196 38.5434 26.0364V33.0052C38.5434 33.5221 38.9657 33.9449 39.4821 33.9449H43.1124C43.6288 33.9449 44.0513 33.5221 44.0513 33.0052V32.9268C44.0513 32.41 43.6288 31.9872 43.1124 31.9872H40.4993V30.4995H43.1124C43.6288 30.4997 44.0513 30.0769 44.0513 29.5601ZM37.0698 33.6482L37.07 33.6478C37.2437 33.4725 37.3413 33.2356 37.3415 32.9887V26.0199C37.3415 25.5031 36.9191 25.0803 36.4026 25.0803H36.3243C35.8079 25.0803 35.3855 25.5031 35.3855 26.0199V30.1107L31.9923 25.5555C31.8303 25.2722 31.525 25.0803 31.1772 25.0803H31.0989C30.5825 25.0803 30.16 25.5031 30.16 26.0199V32.9887C30.16 33.5056 30.5824 33.9284 31.0989 33.9284H31.1772C31.6936 33.9284 32.116 33.5056 32.116 32.9887V28.8214L35.5336 33.4935C35.5546 33.5262 35.5776 33.5577 35.6024 33.5876L35.6025 33.5878C35.6964 33.716 35.8249 33.8039 35.968 33.8576C36.078 33.9031 36.1983 33.9283 36.3241 33.9283H36.4025C36.5554 33.9284 36.7061 33.8907 36.8411 33.8186C36.935 33.7739 37.014 33.7161 37.0698 33.6482ZM27.8215 33.9283H27.8998C28.4162 33.9283 28.8385 33.5054 28.8385 32.9886V26.0198C28.8385 25.5029 28.4162 25.0802 27.8998 25.0802H27.8215C27.3051 25.0802 26.8826 25.5029 26.8826 26.0198V32.9886C26.8826 33.5054 27.3051 33.9283 27.8215 33.9283Z" fill="#3ACE01"/>
</g>
<defs>
<filter id="filter0_i_13341_2764" x="14" y="14" width="36" height="36.5" filterUnits="userSpaceOnUse" color-interpolation-filters="sRGB">
<feFlood flood-opacity="0" result="BackgroundImageFix"/>
<feBlend mode="normal" in="SourceGraphic" in2="BackgroundImageFix" result="shape"/>
<feColorMatrix in="SourceAlpha" type="matrix" values="0 0 0 0 0 0 0 0 0 0 0 0 0 0 0 0 0 0 127 0" result="hardAlpha"/>
<feOffset dy="0.5"/>
<feGaussianBlur stdDeviation="1.25"/>
<feComposite in2="hardAlpha" operator="arithmetic" k2="-1" k3="1"/>
<feColorMatrix type="matrix" values="0 0 0 0 0 0 0 0 0 0 0 0 0 0 0 0 0 0 0.1 0"/>
<feBlend mode="normal" in2="shape" result="effect1_innerShadow_13341_2764"/>
</filter>
<linearGradient id="paint0_linear_13341_2764" x1="5.63692" y1="4.76971" x2="58.9709" y2="62.4398" gradientUnits="userSpaceOnUse">
<stop stop-color="#3ACE01"/>
<stop offset="1" stop-color="#36C400"/>
</linearGradient>
</defs>
</svg>
