<svg width="64" height="64" viewBox="0 0 64 64" fill="none" xmlns="http://www.w3.org/2000/svg">
<g clip-path="url(#clip0_13341_2755)">
<path d="M32 64C49.6731 64 64 49.6731 64 32C64 14.3269 49.6731 0 32 0C14.3269 0 0 14.3269 0 32C0 49.6731 14.3269 64 32 64Z" fill="#2A67BC"/>
<path d="M23.1995 46.534H17.0661V26.8007H23.1995V46.534ZM19.8661 24.2673C17.5995 24.2673 16.1328 22.8007 16.1328 20.8007C16.1328 18.8007 17.5995 17.334 19.8661 17.334C22.1328 17.334 23.5995 18.8007 23.5995 20.8007C23.5995 22.8007 22.2661 24.2673 19.8661 24.2673ZM47.8661 46.534H40.7995V36.2673C40.7995 33.6007 39.7328 31.734 37.3328 31.734C35.4661 31.734 34.5328 32.934 33.9995 34.134C33.8661 34.534 33.8661 35.2006 33.8661 35.734V46.4006H26.9328C26.9328 46.4006 27.0661 28.2673 26.9328 26.6673H33.8661V29.734C34.2661 28.4006 36.5328 26.4006 39.9995 26.4006C44.3995 26.4006 47.8661 29.2007 47.8661 35.334V46.534Z" fill="white"/>
</g>
<defs>
<clipPath id="clip0_13341_2755">
<rect width="64" height="64" fill="white"/>
</clipPath>
</defs>
</svg>
