<svg width="64" height="64" viewBox="0 0 64 64" fill="none" xmlns="http://www.w3.org/2000/svg">
<path d="M32 64C49.6731 64 64 49.6731 64 32C64 14.3269 49.6731 0 32 0C14.3269 0 0 14.3269 0 32C0 49.6731 14.3269 64 32 64Z" fill="url(#paint0_linear_13341_2825)"/>
<path d="M13.3175 31.7224L34.8666 22.8438C36.9938 21.9189 44.2077 18.9594 44.2077 18.9594C44.2077 18.9594 47.5372 17.6646 47.2597 20.8091C47.1672 22.1039 46.4273 26.6357 45.6874 31.5374L43.3753 46.0577C43.3753 46.0577 43.1903 48.1848 41.6181 48.5548C40.0458 48.9247 37.4562 47.26 36.9938 46.89C36.6239 46.6126 30.0574 42.4507 27.6528 40.416C27.0054 39.8611 26.2655 38.7513 27.7452 37.4565C31.0747 34.4045 35.0516 30.6126 37.4562 28.2079C38.5661 27.0981 39.6759 24.5085 35.0516 27.653L22.0111 36.4392C22.0111 36.4392 20.5314 37.364 17.7568 36.5316C14.9822 35.6993 11.7452 34.5895 11.7452 34.5895C11.7452 34.5895 9.52559 33.2022 13.3175 31.7224Z" fill="white"/>
<defs>
<linearGradient id="paint0_linear_13341_2825" x1="42.6691" y1="10.6691" x2="26.6691" y2="48" gradientUnits="userSpaceOnUse">
<stop stop-color="#37AEE2"/>
<stop offset="1" stop-color="#1E96C8"/>
</linearGradient>
</defs>
</svg>
