<svg width="64" height="64" viewBox="0 0 64 64" fill="none" xmlns="http://www.w3.org/2000/svg">
<circle cx="32" cy="32" r="32" fill="black"/>
<path d="M39.3537 30.7304C39.2056 30.6586 39.0553 30.5895 38.903 30.5233C38.6377 25.5764 35.9671 22.7443 31.4828 22.7154C31.4625 22.7152 31.4423 22.7152 31.422 22.7152C28.7398 22.7152 26.5091 23.874 25.1361 25.9827L27.6023 27.695C28.628 26.1199 30.2377 25.7842 31.4232 25.7842C31.4369 25.7842 31.4506 25.7842 31.4642 25.7843C32.9407 25.7938 34.0549 26.2283 34.776 27.0757C35.3008 27.6926 35.6517 28.5451 35.8255 29.6209C34.5165 29.3957 33.1007 29.3265 31.5872 29.4143C27.3238 29.6629 24.5829 32.1796 24.767 35.6768C24.8604 37.4507 25.7335 38.9768 27.2254 39.9737C28.4867 40.8164 30.1113 41.2286 31.7997 41.1353C34.0294 41.0116 35.7786 40.1505 36.999 38.576C37.9257 37.3804 38.5119 35.8309 38.7707 33.8786C39.8333 34.5277 40.6209 35.3818 41.0558 36.4086C41.7954 38.1541 41.8385 41.0224 39.5262 43.3608C37.5003 45.4094 35.065 46.2956 31.3847 46.323C27.3022 46.2923 24.2147 44.9672 22.2072 42.3842C20.3274 39.9655 19.356 36.4721 19.3197 32.0007C19.356 27.5293 20.3274 24.0358 22.2072 21.6171C24.2147 19.0342 27.3021 17.709 31.3846 17.6783C35.4967 17.7092 38.6381 19.0408 40.7224 21.6362C41.7443 22.9089 42.5149 24.5095 43.0228 26.3757L45.9129 25.5953C45.2972 23.2982 44.3283 21.3187 43.0099 19.6771C40.3379 16.3497 36.43 14.6447 31.3947 14.6094H31.3746C26.3495 14.6446 22.4854 16.3561 19.8894 19.6962C17.5794 22.6685 16.3878 26.8042 16.3478 31.9885L16.3477 32.0007L16.3478 32.0129C16.3878 37.1971 17.5794 41.3329 19.8894 44.3052C22.4854 47.6452 26.3495 49.3568 31.3746 49.392H31.3947C35.8622 49.3606 39.0113 48.1768 41.6055 45.5534C44.9995 42.1213 44.8973 37.8193 43.7787 35.1784C42.9761 33.2846 41.446 31.7464 39.3537 30.7304ZM31.6401 38.0708C29.7715 38.1773 27.8302 37.3284 27.7345 35.5101C27.6636 34.1619 28.6824 32.6576 31.7548 32.4784C32.1066 32.4578 32.4519 32.4478 32.7911 32.4478C33.907 32.4478 34.951 32.5575 35.9002 32.7675C35.5461 37.2425 33.4696 37.9692 31.6401 38.0708Z" fill="white"/>
</svg>
