<svg width="28" height="28" viewBox="0 0 28 28" fill="none" xmlns="http://www.w3.org/2000/svg">
<path d="M20.2254 14.3192C23.23 14.3192 25.6669 11.8973 25.6669 8.91111C25.6669 5.92494 23.23 3.5 20.2254 3.5C17.2208 3.5 14.7839 5.92194 14.7839 8.9081C14.7839 11.8943 17.2208 14.3162 20.2254 14.3162V14.3192Z" fill="#275CFD"/>
<path d="M7.77551 25.6636C10.7808 25.6636 13.217 23.2423 13.217 20.2555C13.217 17.2687 10.7808 14.8474 7.77551 14.8474C4.77024 14.8474 2.33398 17.2687 2.33398 20.2555C2.33398 23.2423 4.77024 25.6636 7.77551 25.6636Z" fill="#275CFD"/>
<path d="M13.0605 3.5H2.49453C2.40696 3.5 2.33751 3.57503 2.33751 3.66206C2.33751 3.70108 2.35563 3.74009 2.38281 3.77011L12.9488 13.761C13.0122 13.821 13.1149 13.818 13.1753 13.755C13.2024 13.725 13.2175 13.689 13.2206 13.6499V3.65906C13.2206 3.57203 13.1481 3.5 13.0605 3.5Z" fill="#275CFD"/>
<path d="M15.0651 15.4027C15.0107 15.3336 14.9081 15.3216 14.8416 15.3757C14.7994 15.4087 14.7782 15.4597 14.7813 15.5137V25.5076C14.7813 25.5946 14.8537 25.6667 14.9413 25.6667H25.5043C25.5918 25.6667 25.6643 25.5976 25.6673 25.5076C25.6673 25.4656 25.6522 25.4266 25.622 25.3966L15.0651 15.4027Z" fill="#275CFD"/>
</svg>
