<svg width="64" height="64" viewBox="0 0 64 64" fill="none" xmlns="http://www.w3.org/2000/svg">
<path d="M32 64C49.6731 64 64 49.6731 64 32C64 14.3269 49.6731 0 32 0C14.3269 0 0 14.3269 0 32C0 49.6731 14.3269 64 32 64Z" fill="#FF0000"/>
<path fill-rule="evenodd" clip-rule="evenodd" d="M47.7215 21.3958C48.2768 21.9511 48.6769 22.6421 48.882 23.4002C50.0631 28.1543 49.7901 35.6627 48.9049 40.6003C48.6998 41.3584 48.2997 42.0494 47.7444 42.6047C47.1891 43.1599 46.4981 43.5601 45.7401 43.7652C42.9651 44.522 31.7965 44.522 31.7965 44.522C31.7965 44.522 20.6278 44.522 17.8528 43.7652C17.0948 43.5601 16.4038 43.1599 15.8485 42.6047C15.2932 42.0494 14.8931 41.3584 14.688 40.6003C13.5001 35.8669 13.8257 28.3538 14.6651 23.4231C14.8702 22.6651 15.2703 21.974 15.8256 21.4188C16.3808 20.8635 17.0719 20.4634 17.8299 20.2583C20.6049 19.5014 31.7735 19.4785 31.7735 19.4785C31.7735 19.4785 42.9422 19.4785 45.7171 20.2353C46.4752 20.4404 47.1662 20.8406 47.7215 21.3958ZM37.484 32.0002L28.2188 37.3667V26.6338L37.484 32.0002Z" fill="white"/>
</svg>
