<svg preserveAspectRatio="none" width="100%" height="100%" overflow="visible" style="display: block;" viewBox="0 0 15 11.5385" fill="none" xmlns="http://www.w3.org/2000/svg">
<g id="Vector">
<path d="M8.9818 7.17893C8.52628 7.17893 8.16836 7.55435 8.16836 8.03215V10.6852C8.16836 11.163 8.52628 11.5385 8.9818 11.5385H10.1043C10.5599 11.5385 10.9178 11.163 10.9178 10.6852V8.03215C10.9178 7.55435 10.5599 7.17893 10.1043 7.17893H8.9818Z" fill="white"/>
<path d="M4.89702 5.77064C4.44149 5.77064 4.08358 6.14606 4.08358 6.62387V10.6852C4.08358 11.163 4.44149 11.5385 4.89702 11.5385H6.01956C6.47509 11.5385 6.833 11.163 6.833 10.6852V6.62387C6.833 6.14606 6.47509 5.77064 6.01956 5.77064H4.89702Z" fill="white"/>
<path d="M0.813439 1.40828C0.357913 1.40828 0 1.7837 0 2.26151V10.6824C0 11.1602 0.357913 11.5356 0.813439 11.5356H1.93599C2.39151 11.5356 2.74942 11.1602 2.74942 10.6824V2.26151C2.74942 1.7837 2.39151 1.40828 1.93599 1.40828H0.813439Z" fill="white"/>
<path d="M13.064 0C12.6085 0 12.2506 0.37542 12.2506 0.853227V10.6824C12.2506 11.1602 12.6085 11.5356 13.064 11.5356H14.1866C14.6421 11.5356 15 11.1602 15 10.6824V0.853227C15 0.37542 14.6421 0 14.1866 0H13.064Z" fill="white"/>
</g>
</svg>
