<svg preserveAspectRatio="none" width="100%" height="100%" overflow="visible" style="display: block;" viewBox="0 0 13.6364 15" fill="none" xmlns="http://www.w3.org/2000/svg">
<g id="Vector">
<path d="M10.1442 5.25259C10.1442 5.25259 9.7365 4.83123 9.16579 4.83123H4.44339C3.88627 4.83123 3.47862 5.25259 3.47862 5.25259C3.47862 5.25259 0 8.3285 0 11.9241C0 13.9747 1.49472 15 2.48667 15H11.1497C12.1416 15 13.6364 13.9747 13.6364 11.9241C13.6228 8.3285 10.1442 5.25259 10.1442 5.25259Z" fill="var(--fill-0, white)"/>
<path d="M9.91751 0.636919C9.85397 0.615027 9.79043 0.593135 9.70571 0.593135H8.11723C7.48183 -0.151191 6.38048 -0.194975 5.66037 0.461783C5.61801 0.505567 5.57565 0.549351 5.53329 0.593135H3.94481C3.62711 0.593135 3.37295 0.855838 3.37295 1.18422C3.37295 1.24989 3.39413 1.33746 3.41531 1.40314L3.94481 2.97936H3.98716L3.94481 3.00125C3.94481 3.00125 4.11424 3.48287 4.3684 3.48287H9.30329C9.53627 3.48287 9.72689 3.00125 9.72689 3.00125L9.55745 2.97936H9.74807L10.2564 1.40314C10.3623 1.09665 10.214 0.76827 9.91751 0.636919Z" fill="var(--fill-0, white)"/>
</g>
</svg>
