<svg preserveAspectRatio="none" width="100%" height="100%" overflow="visible" style="display: block;" viewBox="0 0 16.8762 16.8762" fill="none" xmlns="http://www.w3.org/2000/svg">
<g id="Vector">
<path fill-rule="evenodd" clip-rule="evenodd" d="M16.8762 8.43811C16.8762 13.0984 13.0984 16.8762 8.43811 16.8762C3.77787 16.8762 0 13.0984 0 8.43811C0 3.77787 3.77787 0 8.43811 0C13.0984 0 16.8762 3.77787 16.8762 8.43811ZM8.43811 15.2096C12.1779 15.2096 15.2096 12.1779 15.2096 8.43811C15.2096 4.69835 12.1779 1.66667 8.43811 1.66667C4.69835 1.66667 1.66667 4.69835 1.66667 8.43811C1.66667 12.1779 4.69835 15.2096 8.43811 15.2096Z" fill="var(--fill-0, white)"/>
<path d="M3.64998 13.2262C4.43739 14.0137 5.40684 14.5947 6.47246 14.918C7.53809 15.2412 8.66698 15.2967 9.75915 15.0794C10.8513 14.8622 11.8731 14.3789 12.7339 13.6725C13.5947 12.9661 14.268 12.0582 14.6941 11.0294C15.1203 10.0006 15.2861 8.8826 15.1769 7.77439C15.0678 6.66618 14.687 5.602 14.0684 4.6761C13.4497 3.7502 12.6122 2.99116 11.6301 2.46623C10.6481 1.9413 9.55168 1.66667 8.43811 1.66667L8.43811 8.43811L3.64998 13.2262Z" fill="var(--fill-0, white)"/>
</g>
</svg>
