<svg preserveAspectRatio="none" width="100%" height="100%" overflow="visible" style="display: block;" viewBox="0 0 13.1243 18.3152" fill="none" xmlns="http://www.w3.org/2000/svg">
<g id="Vector">
<path fill-rule="evenodd" clip-rule="evenodd" d="M3.24044 13.6343C3.14599 13.6343 3.05238 13.6276 2.96022 13.6147V18.1175C2.96022 18.2769 3.1393 18.3705 3.27016 18.2796L6.44944 16.0714C6.51713 16.0243 6.60692 16.0243 6.67461 16.0714L9.85389 18.2796C9.98475 18.3705 10.1638 18.2769 10.1638 18.1175V13.6144C9.98233 13.6399 9.79507 13.6411 9.60676 13.6155L8.63118 13.4831L7.92811 14.1357C7.54268 14.4935 7.04967 14.6702 6.56211 14.6702C6.07424 14.6702 5.58145 14.4935 5.19604 14.1357L4.49294 13.4831L3.51736 13.6155C3.42471 13.6281 3.33214 13.6343 3.24044 13.6343Z" fill="var(--fill-0, white)"/>
<path fill-rule="evenodd" clip-rule="evenodd" d="M3.4113 12.0768L4.56143 11.9207C4.68546 11.9038 4.8083 11.9422 4.89838 12.0258L5.73322 12.8007C5.96569 13.0165 6.26388 13.1244 6.56217 13.1243C6.86038 13.1243 7.15875 13.0164 7.39111 12.8007L8.22598 12.0258C8.31606 11.9422 8.43884 11.904 8.56293 11.9207L9.71306 12.0768C10.3536 12.1638 10.9426 11.753 11.0543 11.1417L11.255 10.0439C11.2767 9.92552 11.3526 9.82527 11.4633 9.7689L12.4894 9.2465C13.0607 8.95566 13.2857 8.29107 13.0017 7.73352L12.4916 6.73217C12.4365 6.62412 12.4365 6.50021 12.4916 6.39219L13.0017 5.39083C13.2857 4.83329 13.0607 4.16875 12.4894 3.87789L11.4633 3.35548C11.3526 3.29914 11.2767 3.19886 11.255 3.08046L11.0543 1.98262C10.9426 1.37137 10.3533 0.960626 9.71306 1.04755L8.56293 1.20365C8.43879 1.22047 8.31604 1.18217 8.22598 1.09858L7.39113 0.323641C6.92628 -0.107868 6.19805 -0.107893 5.73322 0.323641L4.89835 1.09866C4.80827 1.18228 4.68552 1.22049 4.5614 1.20373L3.41128 1.04762C2.7708 0.960651 2.18175 1.37145 2.07001 1.9827L1.86933 3.08049C1.84766 3.19891 1.77177 3.29917 1.66109 3.35553L0.634998 3.87794C0.063687 4.16877 -0.161354 4.83336 0.122672 5.39091L0.632781 6.39224C0.687812 6.50029 0.687812 6.6242 0.632781 6.73222L0.122645 7.73355C-0.161381 8.2911 0.0636602 8.95564 0.634971 9.2465L1.66107 9.7689C1.77177 9.82524 1.84766 9.92552 1.86933 10.0439L2.07001 11.1418C2.14973 11.5778 2.47238 11.9118 2.88331 12.0359C2.99673 12.0702 3.11687 12.0884 3.24049 12.0884C3.29678 12.0884 3.35389 12.0846 3.4113 12.0768ZM7.48334 5.11693L6.80614 3.0327C6.72938 2.79647 6.39518 2.79647 6.31843 3.0327L5.64122 5.11693C5.6069 5.22257 5.50845 5.2941 5.39737 5.2941H3.20588C2.9575 5.2941 2.85423 5.61194 3.05517 5.75794L4.82812 7.04606C4.91799 7.11135 4.95559 7.22708 4.92127 7.33273L4.24406 9.41695C4.16731 9.65318 4.43768 9.84961 4.63862 9.70362L6.41157 8.4155C6.50144 8.3502 6.62313 8.3502 6.71299 8.4155L8.48594 9.70362C8.68689 9.84961 8.95726 9.65318 8.8805 9.41695L8.2033 7.33273C8.16897 7.22708 8.20658 7.11135 8.29644 7.04606L10.0694 5.75794C10.2703 5.61194 10.1671 5.2941 9.91868 5.2941H7.7272C7.61612 5.2941 7.51767 5.22257 7.48334 5.11693Z" fill="var(--fill-0, white)"/>
</g>
</svg>
