<svg preserveAspectRatio="none" width="100%" height="100%" overflow="visible" style="display: block;" viewBox="0 0 19.2459 18.5" fill="none" xmlns="http://www.w3.org/2000/svg">
<g id="Group 9705">
<path id="Vector" d="M0.731219 15.8734H1.75035V17.7688C1.75035 18.171 2.0794 18.5 2.48157 18.5C2.88374 18.5 3.21278 18.171 3.21278 17.7688V15.8734H4.23191C4.63408 15.8734 4.96313 15.5443 4.96313 15.1422V12.2163C4.96313 11.8142 4.63408 11.4851 4.23191 11.4851H3.21278V9.54401C3.21278 9.14184 2.88374 8.81279 2.48157 8.81279C2.0794 8.81279 1.75035 9.14184 1.75035 9.54401V11.4851H0.731219C0.32905 11.4851 2.68629e-06 11.8142 2.68629e-06 12.2163V15.1422C2.68629e-06 15.5489 0.32448 15.8734 0.731219 15.8734Z" fill="var(--fill-0, white)"/>
<path id="Vector_2" d="M7.87259 14.7953H8.89172V16.6907C8.89172 17.0929 9.22077 17.4219 9.62294 17.4219C10.0251 17.4219 10.3542 17.0929 10.3542 16.6907V14.7953H11.3733C11.7755 14.7953 12.1045 14.4663 12.1045 14.0641V9.17985C12.1045 8.77768 11.7755 8.44864 11.3733 8.44864H10.3542V6.50297C10.3542 6.1008 10.0251 5.77175 9.62294 5.77175C9.22077 5.77175 8.89172 6.1008 8.89172 6.50297V8.44407H7.87259C7.47042 8.44407 7.14137 8.77311 7.14137 9.17528V14.0595C7.14137 14.4663 7.47042 14.7953 7.87259 14.7953Z" fill="var(--fill-0, white)"/>
<path id="Vector_3" d="M15.014 11.952H16.0331V13.8474C16.0331 14.2496 16.3621 14.5786 16.7643 14.5786C17.1665 14.5786 17.4955 14.2496 17.4955 13.8474V11.952H18.5147C18.9168 11.952 19.2459 11.623 19.2459 11.2208V3.40353C19.2459 3.00136 18.9168 2.67231 18.5147 2.67231H17.4955V0.731216C17.4955 0.329047 17.1665 0 16.7643 0C16.3621 0 16.0331 0.329047 16.0331 0.731216V2.67231H15.014C14.6118 2.67231 14.2828 3.00136 14.2828 3.40353V11.2254C14.2828 11.6275 14.6118 11.952 15.014 11.952Z" fill="var(--fill-0, white)"/>
</g>
</svg>
