<svg preserveAspectRatio="none" width="100%" height="100%" overflow="visible" style="display: block;" viewBox="0 0 13.125 15" fill="none" xmlns="http://www.w3.org/2000/svg">
<path id="Vector" d="M9.47917 8.25H7.29167C6.89063 8.25 6.5625 8.5875 6.5625 9V11.25C6.5625 11.6625 6.89063 12 7.29167 12H9.47917C9.88021 12 10.2083 11.6625 10.2083 11.25V9C10.2083 8.5875 9.88021 8.25 9.47917 8.25ZM9.47917 0.75V1.5H3.64583V0.75C3.64583 0.3375 3.31771 0 2.91667 0C2.51563 0 2.1875 0.3375 2.1875 0.75V1.5H1.45833C0.648958 1.5 0.00729166 2.175 0.00729166 3L0 13.5C0 14.325 0.648958 15 1.45833 15H11.6667C12.4688 15 13.125 14.325 13.125 13.5V3C13.125 2.175 12.4688 1.5 11.6667 1.5H10.9375V0.75C10.9375 0.3375 10.6094 0 10.2083 0C9.80729 0 9.47917 0.3375 9.47917 0.75ZM10.9375 13.5H2.1875C1.78646 13.5 1.45833 13.1625 1.45833 12.75V5.25H11.6667V12.75C11.6667 13.1625 11.3385 13.5 10.9375 13.5Z" fill="var(--fill-0, white)"/>
</svg>
