<svg width="362" height="285" viewBox="0 0 362 285" fill="none" xmlns="http://www.w3.org/2000/svg">
<path d="M87.7578 146.078L361.046 146.078" stroke="#9B9C9C" stroke-dasharray="2 2"/>
<path d="M16.8377 146.227L1.04688 146.227" stroke="#9B9C9C" stroke-dasharray="2 2"/>
<rect x="18.0469" y="136.5" width="70" height="20" rx="10" fill="white" fill-opacity="0.25"/>
<path d="M27.8569 151.68C27.2969 151.68 26.7929 151.548 26.3449 151.284C25.8969 151.016 25.5409 150.65 25.2769 150.186C25.0169 149.722 24.8869 149.194 24.8869 148.602V145.848C24.8869 145.22 25.0169 144.668 25.2769 144.192C25.5409 143.716 25.9049 143.346 26.3689 143.082C26.8369 142.818 27.3749 142.686 27.9829 142.686C28.4389 142.686 28.8669 142.772 29.2669 142.944C29.6669 143.116 30.0129 143.372 30.3049 143.712L29.3869 144.57C29.2229 144.358 29.0169 144.19 28.7689 144.066C28.5249 143.938 28.2629 143.874 27.9829 143.874C27.6229 143.874 27.3069 143.96 27.0349 144.132C26.7629 144.3 26.5489 144.522 26.3929 144.798C26.2409 145.074 26.1649 145.37 26.1649 145.686V147.27L25.9189 146.994C26.1669 146.67 26.4749 146.414 26.8429 146.226C27.2109 146.038 27.6049 145.944 28.0249 145.944C28.5609 145.944 29.0389 146.07 29.4589 146.322C29.8829 146.57 30.2149 146.908 30.4549 147.336C30.6989 147.764 30.8209 148.246 30.8209 148.782C30.8209 149.322 30.6849 149.812 30.4129 150.252C30.1449 150.688 29.7849 151.036 29.3329 151.296C28.8849 151.552 28.3929 151.68 27.8569 151.68ZM27.8569 150.474C28.1689 150.474 28.4529 150.398 28.7089 150.246C28.9649 150.094 29.1689 149.89 29.3209 149.634C29.4729 149.378 29.5489 149.094 29.5489 148.782C29.5489 148.47 29.4729 148.186 29.3209 147.93C29.1729 147.674 28.9709 147.47 28.7149 147.318C28.4589 147.166 28.1749 147.09 27.8629 147.09C27.5509 147.09 27.2649 147.166 27.0049 147.318C26.7489 147.47 26.5449 147.674 26.3929 147.93C26.2409 148.186 26.1649 148.47 26.1649 148.782C26.1649 149.09 26.2409 149.372 26.3929 149.628C26.5449 149.884 26.7489 150.09 27.0049 150.246C27.2609 150.398 27.5449 150.474 27.8569 150.474ZM35.31 151.68C34.75 151.68 34.246 151.548 33.798 151.284C33.35 151.016 32.994 150.65 32.73 150.186C32.47 149.722 32.34 149.194 32.34 148.602V145.848C32.34 145.22 32.47 144.668 32.73 144.192C32.994 143.716 33.358 143.346 33.822 143.082C34.29 142.818 34.828 142.686 35.436 142.686C35.892 142.686 36.32 142.772 36.72 142.944C37.12 143.116 37.466 143.372 37.758 143.712L36.84 144.57C36.676 144.358 36.47 144.19 36.222 144.066C35.978 143.938 35.716 143.874 35.436 143.874C35.076 143.874 34.76 143.96 34.488 144.132C34.216 144.3 34.002 144.522 33.846 144.798C33.694 145.074 33.618 145.37 33.618 145.686V147.27L33.372 146.994C33.62 146.67 33.928 146.414 34.296 146.226C34.664 146.038 35.058 145.944 35.478 145.944C36.014 145.944 36.492 146.07 36.912 146.322C37.336 146.57 37.668 146.908 37.908 147.336C38.152 147.764 38.274 148.246 38.274 148.782C38.274 149.322 38.138 149.812 37.866 150.252C37.598 150.688 37.238 151.036 36.786 151.296C36.338 151.552 35.846 151.68 35.31 151.68ZM35.31 150.474C35.622 150.474 35.906 150.398 36.162 150.246C36.418 150.094 36.622 149.89 36.774 149.634C36.926 149.378 37.002 149.094 37.002 148.782C37.002 148.47 36.926 148.186 36.774 147.93C36.626 147.674 36.424 147.47 36.168 147.318C35.912 147.166 35.628 147.09 35.316 147.09C35.004 147.09 34.718 147.166 34.458 147.318C34.202 147.47 33.998 147.674 33.846 147.93C33.694 148.186 33.618 148.47 33.618 148.782C33.618 149.09 33.694 149.372 33.846 149.628C33.998 149.884 34.202 150.09 34.458 150.246C34.714 150.398 34.998 150.474 35.31 150.474ZM39.6731 152.934L39.7511 152.376C39.9231 152.388 40.0571 152.356 40.1531 152.28C40.2491 152.204 40.3131 152.098 40.3451 151.962C40.3771 151.826 40.3831 151.672 40.3631 151.5H39.6731V150.054H40.9991V151.62C40.9991 152.092 40.8851 152.448 40.6571 152.688C40.4331 152.928 40.1051 153.01 39.6731 152.934ZM43.7236 151.5L46.7596 144.054H42.9136V142.86H48.1096V144.054L45.0796 151.5H43.7236ZM52.3208 151.68C51.7568 151.68 51.2568 151.568 50.8208 151.344C50.3888 151.116 50.0488 150.8 49.8008 150.396C49.5568 149.992 49.4348 149.524 49.4348 148.992C49.4348 148.496 49.5508 148.042 49.7828 147.63C50.0148 147.218 50.3608 146.894 50.8208 146.658L50.7968 147.09C50.4288 146.862 50.1448 146.578 49.9448 146.238C49.7488 145.894 49.6508 145.51 49.6508 145.086C49.6508 144.594 49.7648 144.168 49.9928 143.808C50.2208 143.448 50.5348 143.17 50.9348 142.974C51.3388 142.778 51.8008 142.68 52.3208 142.68C52.8408 142.68 53.3008 142.778 53.7008 142.974C54.1008 143.17 54.4148 143.448 54.6428 143.808C54.8708 144.168 54.9848 144.594 54.9848 145.086C54.9848 145.51 54.8908 145.892 54.7028 146.232C54.5148 146.572 54.2268 146.858 53.8388 147.09L53.8208 146.67C54.2768 146.894 54.6228 147.214 54.8588 147.63C55.0948 148.042 55.2128 148.496 55.2128 148.992C55.2128 149.524 55.0888 149.992 54.8408 150.396C54.5928 150.8 54.2508 151.116 53.8148 151.344C53.3788 151.568 52.8808 151.68 52.3208 151.68ZM52.3208 150.486C52.7848 150.486 53.1608 150.36 53.4488 150.108C53.7368 149.852 53.8808 149.48 53.8808 148.992C53.8808 148.504 53.7368 148.132 53.4488 147.876C53.1648 147.616 52.7888 147.486 52.3208 147.486C51.8528 147.486 51.4748 147.616 51.1868 147.876C50.9028 148.132 50.7608 148.504 50.7608 148.992C50.7608 149.48 50.9048 149.852 51.1928 150.108C51.4808 150.36 51.8568 150.486 52.3208 150.486ZM52.3208 146.286C52.7168 146.286 53.0368 146.188 53.2808 145.992C53.5288 145.792 53.6528 145.49 53.6528 145.086C53.6528 144.682 53.5288 144.38 53.2808 144.18C53.0368 143.976 52.7168 143.874 52.3208 143.874C51.9248 143.874 51.6028 143.976 51.3548 144.18C51.1068 144.38 50.9828 144.682 50.9828 145.086C50.9828 145.49 51.1068 145.792 51.3548 145.992C51.6028 146.188 51.9248 146.286 52.3208 146.286ZM59.1916 151.662C58.7636 151.662 58.3616 151.582 57.9856 151.422C57.6096 151.258 57.2836 151.026 57.0076 150.726C56.7356 150.426 56.5376 150.072 56.4136 149.664L57.6256 149.328C57.7416 149.7 57.9436 149.986 58.2316 150.186C58.5196 150.382 58.8396 150.478 59.1916 150.474C59.5076 150.47 59.7856 150.396 60.0256 150.252C60.2656 150.108 60.4536 149.914 60.5896 149.67C60.7256 149.422 60.7936 149.138 60.7936 148.818C60.7936 148.338 60.6436 147.942 60.3436 147.63C60.0476 147.318 59.6596 147.162 59.1796 147.162C59.0436 147.162 58.9036 147.182 58.7596 147.222C58.6196 147.262 58.4876 147.314 58.3636 147.378L57.7756 146.388L60.8236 143.694L60.9556 144.054H56.7556V142.86H61.9516V144.054L59.4196 146.49L59.4076 146.082C59.9516 146.082 60.4236 146.204 60.8236 146.448C61.2236 146.688 61.5316 147.016 61.7476 147.432C61.9676 147.844 62.0776 148.306 62.0776 148.818C62.0776 149.37 61.9476 149.86 61.6876 150.288C61.4316 150.716 61.0856 151.052 60.6496 151.296C60.2176 151.54 59.7316 151.662 59.1916 151.662ZM63.8568 151.5V150.174H65.1828V151.5H63.8568ZM69.8824 142.686C70.4384 142.686 70.9404 142.82 71.3884 143.088C71.8364 143.352 72.1924 143.716 72.4564 144.18C72.7204 144.644 72.8524 145.174 72.8524 145.77V148.518C72.8524 149.15 72.7204 149.704 72.4564 150.18C72.1964 150.652 71.8324 151.02 71.3644 151.284C70.9004 151.548 70.3644 151.68 69.7564 151.68C69.3004 151.68 68.8724 151.594 68.4724 151.422C68.0724 151.25 67.7244 150.994 67.4284 150.654L68.3524 149.796C68.5164 150.008 68.7224 150.178 68.9704 150.306C69.2184 150.434 69.4804 150.498 69.7564 150.498C70.1124 150.498 70.4264 150.412 70.6984 150.24C70.9744 150.068 71.1884 149.844 71.3404 149.568C71.4924 149.292 71.5684 148.996 71.5684 148.68V147.096L71.8204 147.372C71.5724 147.696 71.2644 147.952 70.8964 148.14C70.5284 148.328 70.1344 148.422 69.7144 148.422C69.1744 148.422 68.6944 148.298 68.2744 148.05C67.8544 147.802 67.5224 147.464 67.2784 147.036C67.0344 146.608 66.9124 146.124 66.9124 145.584C66.9124 145.044 67.0484 144.556 67.3204 144.12C67.5924 143.684 67.9524 143.336 68.4004 143.076C68.8484 142.816 69.3424 142.686 69.8824 142.686ZM69.8824 143.898C69.5704 143.898 69.2844 143.974 69.0244 144.126C68.7684 144.274 68.5644 144.476 68.4124 144.732C68.2604 144.988 68.1844 145.272 68.1844 145.584C68.1844 145.896 68.2604 146.182 68.4124 146.442C68.5644 146.698 68.7684 146.902 69.0244 147.054C69.2804 147.206 69.5644 147.282 69.8764 147.282C70.1884 147.282 70.4724 147.206 70.7284 147.054C70.9844 146.902 71.1884 146.698 71.3404 146.442C71.4924 146.182 71.5684 145.896 71.5684 145.584C71.5684 145.276 71.4924 144.994 71.3404 144.738C71.1924 144.482 70.9904 144.278 70.7344 144.126C70.4784 143.974 70.1944 143.898 69.8824 143.898ZM77.4975 151.68C76.9375 151.68 76.4335 151.548 75.9855 151.284C75.5375 151.016 75.1815 150.65 74.9175 150.186C74.6575 149.722 74.5275 149.194 74.5275 148.602V145.848C74.5275 145.22 74.6575 144.668 74.9175 144.192C75.1815 143.716 75.5455 143.346 76.0095 143.082C76.4775 142.818 77.0155 142.686 77.6235 142.686C78.0795 142.686 78.5075 142.772 78.9075 142.944C79.3075 143.116 79.6535 143.372 79.9455 143.712L79.0275 144.57C78.8635 144.358 78.6575 144.19 78.4095 144.066C78.1655 143.938 77.9035 143.874 77.6235 143.874C77.2635 143.874 76.9475 143.96 76.6755 144.132C76.4035 144.3 76.1895 144.522 76.0335 144.798C75.8815 145.074 75.8055 145.37 75.8055 145.686V147.27L75.5595 146.994C75.8075 146.67 76.1155 146.414 76.4835 146.226C76.8515 146.038 77.2455 145.944 77.6655 145.944C78.2015 145.944 78.6795 146.07 79.0995 146.322C79.5235 146.57 79.8555 146.908 80.0955 147.336C80.3395 147.764 80.4615 148.246 80.4615 148.782C80.4615 149.322 80.3255 149.812 80.0535 150.252C79.7855 150.688 79.4255 151.036 78.9735 151.296C78.5255 151.552 78.0335 151.68 77.4975 151.68ZM77.4975 150.474C77.8095 150.474 78.0935 150.398 78.3495 150.246C78.6055 150.094 78.8095 149.89 78.9615 149.634C79.1135 149.378 79.1895 149.094 79.1895 148.782C79.1895 148.47 79.1135 148.186 78.9615 147.93C78.8135 147.674 78.6115 147.47 78.3555 147.318C78.0995 147.166 77.8155 147.09 77.5035 147.09C77.1915 147.09 76.9055 147.166 76.6455 147.318C76.3895 147.47 76.1855 147.674 76.0335 147.93C75.8815 148.186 75.8055 148.47 75.8055 148.782C75.8055 149.09 75.8815 149.372 76.0335 149.628C76.1855 149.884 76.3895 150.09 76.6455 150.246C76.9015 150.398 77.1855 150.474 77.4975 150.474Z" fill="white"/>
<path d="M242.883 147.646L261.062 207.291C261.463 208.608 263.044 209.135 264.156 208.323L279.545 197.072C280.674 196.246 282.281 196.805 282.653 198.154L296.332 247.72C296.895 249.761 299.828 249.642 300.224 247.562L319.25 147.646" stroke="#EB5347" stroke-width="1.5" stroke-linecap="round" stroke-linejoin="round"/>
<circle opacity="0.15" cx="341.884" cy="70.3408" r="13.1064" fill="white"/>
<path d="M0.75 149.236L20.8019 118.018C21.3989 117.088 22.6362 116.819 23.5656 117.416L40.8122 128.494C41.4655 128.913 42.3025 128.917 42.9593 128.503L60.3437 117.549C61.2163 116.999 62.3639 117.203 62.9937 118.02L80.299 140.462C81.0996 141.5 82.666 141.5 83.4666 140.462L101.055 117.652C101.555 117.004 102.399 116.726 103.187 116.95L120.652 121.922C121.402 122.136 122.208 121.894 122.717 121.302L141.569 99.3461C141.775 99.1058 141.922 98.8198 141.996 98.5118L159.638 25.3102C160.146 23.2031 163.174 23.296 163.552 25.4302L181.74 128.195C181.832 128.712 182.122 129.172 182.55 129.476L201.038 142.635C201.568 143.012 202.248 143.108 202.861 142.892L221.071 136.497C221.589 136.315 222.159 136.354 222.648 136.605L241.883 146.489M341.883 69.7528L319.25 146.489" stroke="#5AC47D" stroke-width="1.5" stroke-linecap="round" stroke-linejoin="round"/>
<circle cx="341.883" cy="70.3398" r="6" fill="white" stroke="#0D0E0F" stroke-width="2"/>
<path d="M20.2288 282.002V274.346L18.6028 275.324V274.334L20.2288 273.362H21.1228V282.002H20.2288ZM26.3206 282.182C25.7806 282.182 25.2886 282.052 24.8446 281.792C24.4046 281.528 24.0526 281.172 23.7886 280.724C23.5286 280.272 23.3986 279.764 23.3986 279.2V276.206C23.3986 275.626 23.5286 275.11 23.7886 274.658C24.0486 274.202 24.4026 273.844 24.8506 273.584C25.3026 273.32 25.8146 273.188 26.3866 273.188C26.8786 273.188 27.3346 273.296 27.7546 273.512C28.1786 273.728 28.5246 274.03 28.7926 274.418L28.1146 274.976C27.9306 274.688 27.6866 274.458 27.3826 274.286C27.0786 274.114 26.7466 274.028 26.3866 274.028C25.9826 274.028 25.6226 274.126 25.3066 274.322C24.9906 274.518 24.7426 274.776 24.5626 275.096C24.3826 275.412 24.2926 275.756 24.2926 276.128V278.012L24.0706 277.76C24.3226 277.364 24.6526 277.044 25.0606 276.8C25.4726 276.556 25.9206 276.434 26.4046 276.434C26.9406 276.434 27.4226 276.562 27.8506 276.818C28.2786 277.07 28.6186 277.412 28.8706 277.844C29.1226 278.276 29.2486 278.76 29.2486 279.296C29.2486 279.828 29.1146 280.312 28.8466 280.748C28.5826 281.184 28.2286 281.532 27.7846 281.792C27.3446 282.052 26.8566 282.182 26.3206 282.182ZM26.3206 281.324C26.6966 281.324 27.0386 281.234 27.3466 281.054C27.6586 280.874 27.9046 280.63 28.0846 280.322C28.2686 280.014 28.3606 279.672 28.3606 279.296C28.3606 278.92 28.2686 278.578 28.0846 278.27C27.9046 277.958 27.6606 277.712 27.3526 277.532C27.0446 277.348 26.7026 277.256 26.3266 277.256C25.9506 277.256 25.6086 277.348 25.3006 277.532C24.9926 277.712 24.7466 277.958 24.5626 278.27C24.3826 278.578 24.2926 278.92 24.2926 279.296C24.2926 279.668 24.3826 280.008 24.5626 280.316C24.7426 280.624 24.9866 280.87 25.2946 281.054C25.6026 281.234 25.9446 281.324 26.3206 281.324ZM31.32 281.042V280.016H32.346V281.042H31.32ZM31.326 277.508V276.482H32.352V277.508H31.326ZM36.7479 282.176C36.3199 282.176 35.9259 282.1 35.5659 281.948C35.2059 281.796 34.8959 281.58 34.6359 281.3C34.3759 281.016 34.1859 280.678 34.0659 280.286L34.9059 280.034C35.0499 280.462 35.2859 280.786 35.6139 281.006C35.9459 281.226 36.3199 281.332 36.7359 281.324C37.1199 281.316 37.4499 281.23 37.7259 281.066C38.0059 280.902 38.2199 280.674 38.3679 280.382C38.5159 280.09 38.5899 279.752 38.5899 279.368C38.5899 278.78 38.4179 278.308 38.0739 277.952C37.7339 277.592 37.2839 277.412 36.7239 277.412C36.5679 277.412 36.4039 277.434 36.2319 277.478C36.0599 277.518 35.8999 277.576 35.7519 277.652L35.3079 276.95L38.6679 273.848L38.8119 274.208H34.4079V273.362H39.3999V274.22L36.4719 277.016L36.4599 276.668C37.0599 276.592 37.5879 276.66 38.0439 276.872C38.4999 277.084 38.8559 277.408 39.1119 277.844C39.3719 278.276 39.5019 278.784 39.5019 279.368C39.5019 279.92 39.3819 280.408 39.1419 280.832C38.9059 281.252 38.5799 281.582 38.1639 281.822C37.7479 282.058 37.2759 282.176 36.7479 282.176ZM43.8788 282.182C43.3468 282.182 42.8668 282.058 42.4388 281.81C42.0148 281.562 41.6788 281.226 41.4308 280.802C41.1828 280.374 41.0588 279.894 41.0588 279.362V276.002C41.0588 275.47 41.1828 274.992 41.4308 274.568C41.6788 274.14 42.0148 273.802 42.4388 273.554C42.8668 273.306 43.3468 273.182 43.8788 273.182C44.4108 273.182 44.8888 273.306 45.3128 273.554C45.7408 273.802 46.0788 274.14 46.3268 274.568C46.5748 274.992 46.6988 275.47 46.6988 276.002V279.362C46.6988 279.894 46.5748 280.374 46.3268 280.802C46.0788 281.226 45.7408 281.562 45.3128 281.81C44.8888 282.058 44.4108 282.182 43.8788 282.182ZM43.8788 281.33C44.2348 281.33 44.5588 281.244 44.8508 281.072C45.1428 280.896 45.3748 280.662 45.5468 280.37C45.7188 280.078 45.8048 279.756 45.8048 279.404V275.96C45.8048 275.604 45.7188 275.28 45.5468 274.988C45.3748 274.696 45.1428 274.464 44.8508 274.292C44.5588 274.116 44.2348 274.028 43.8788 274.028C43.5228 274.028 43.1988 274.116 42.9068 274.292C42.6148 274.464 42.3828 274.696 42.2108 274.988C42.0388 275.28 41.9528 275.604 41.9528 275.96V279.404C41.9528 279.756 42.0388 280.078 42.2108 280.37C42.3828 280.662 42.6148 280.896 42.9068 281.072C43.1988 281.244 43.5228 281.33 43.8788 281.33Z" fill="#9B9C9C"/>
<path d="M192.75 281.502C192.218 281.502 191.738 281.378 191.31 281.13C190.886 280.882 190.55 280.546 190.302 280.122C190.054 279.694 189.93 279.214 189.93 278.682V275.322C189.93 274.79 190.054 274.312 190.302 273.888C190.55 273.46 190.886 273.122 191.31 272.874C191.738 272.626 192.218 272.502 192.75 272.502C193.282 272.502 193.76 272.626 194.184 272.874C194.612 273.122 194.95 273.46 195.198 273.888C195.446 274.312 195.57 274.79 195.57 275.322V278.682C195.57 279.214 195.446 279.694 195.198 280.122C194.95 280.546 194.612 280.882 194.184 281.13C193.76 281.378 193.282 281.502 192.75 281.502ZM192.75 280.65C193.106 280.65 193.43 280.564 193.722 280.392C194.014 280.216 194.246 279.982 194.418 279.69C194.59 279.398 194.676 279.076 194.676 278.724V275.28C194.676 274.924 194.59 274.6 194.418 274.308C194.246 274.016 194.014 273.784 193.722 273.612C193.43 273.436 193.106 273.348 192.75 273.348C192.394 273.348 192.07 273.436 191.778 273.612C191.486 273.784 191.254 274.016 191.082 274.308C190.91 274.6 190.824 274.924 190.824 275.28V278.724C190.824 279.076 190.91 279.398 191.082 279.69C191.254 279.982 191.486 280.216 191.778 280.392C192.07 280.564 192.394 280.65 192.75 280.65Z" fill="#9B9C9C"/>
<path d="M185.425 281.502C184.893 281.502 184.413 281.378 183.985 281.13C183.561 280.882 183.225 280.546 182.977 280.122C182.729 279.694 182.605 279.214 182.605 278.682V275.322C182.605 274.79 182.729 274.312 182.977 273.888C183.225 273.46 183.561 273.122 183.985 272.874C184.413 272.626 184.893 272.502 185.425 272.502C185.957 272.502 186.435 272.626 186.859 272.874C187.287 273.122 187.625 273.46 187.873 273.888C188.121 274.312 188.245 274.79 188.245 275.322V278.682C188.245 279.214 188.121 279.694 187.873 280.122C187.625 280.546 187.287 280.882 186.859 281.13C186.435 281.378 185.957 281.502 185.425 281.502ZM185.425 280.65C185.781 280.65 186.105 280.564 186.397 280.392C186.689 280.216 186.921 279.982 187.093 279.69C187.265 279.398 187.351 279.076 187.351 278.724V275.28C187.351 274.924 187.265 274.6 187.093 274.308C186.921 274.016 186.689 273.784 186.397 273.612C186.105 273.436 185.781 273.348 185.425 273.348C185.069 273.348 184.745 273.436 184.453 273.612C184.161 273.784 183.929 274.016 183.757 274.308C183.585 274.6 183.499 274.924 183.499 275.28V278.724C183.499 279.076 183.585 279.398 183.757 279.69C183.929 279.982 184.161 280.216 184.453 280.392C184.745 280.564 185.069 280.65 185.425 280.65Z" fill="#9B9C9C"/>
<path d="M179.496 280.363V279.337H180.522V280.363H179.496ZM179.502 276.829V275.803H180.528V276.829H179.502Z" fill="#9B9C9C"/>
<path d="M173.455 281.322L176.635 273.54H172.633V272.682H177.577V273.54L174.403 281.322H173.455Z" fill="#9B9C9C"/>
<path d="M169.825 281.322V273.666L168.199 274.644V273.654L169.825 272.682H170.719V281.322H169.825Z" fill="#9B9C9C"/>
<path d="M319.985 282.002V274.346L318.359 275.324V274.334L319.985 273.362H320.879V282.002H319.985ZM323.617 282.002L326.797 274.22H322.795V273.362H327.739V274.22L324.565 282.002H323.617ZM329.658 281.042V280.016H330.684V281.042H329.658ZM329.664 277.508V276.482H330.69V277.508H329.664ZM335.086 282.176C334.658 282.176 334.264 282.1 333.904 281.948C333.544 281.796 333.234 281.58 332.974 281.3C332.714 281.016 332.524 280.678 332.404 280.286L333.244 280.034C333.388 280.462 333.624 280.786 333.952 281.006C334.284 281.226 334.658 281.332 335.074 281.324C335.458 281.316 335.788 281.23 336.064 281.066C336.344 280.902 336.558 280.674 336.706 280.382C336.854 280.09 336.928 279.752 336.928 279.368C336.928 278.78 336.756 278.308 336.412 277.952C336.072 277.592 335.622 277.412 335.062 277.412C334.906 277.412 334.742 277.434 334.57 277.478C334.398 277.518 334.238 277.576 334.09 277.652L333.646 276.95L337.006 273.848L337.15 274.208H332.746V273.362H337.738V274.22L334.81 277.016L334.798 276.668C335.398 276.592 335.926 276.66 336.382 276.872C336.838 277.084 337.194 277.408 337.45 277.844C337.71 278.276 337.84 278.784 337.84 279.368C337.84 279.92 337.72 280.408 337.48 280.832C337.244 281.252 336.918 281.582 336.502 281.822C336.086 282.058 335.614 282.176 335.086 282.176ZM342.217 282.182C341.685 282.182 341.205 282.058 340.777 281.81C340.353 281.562 340.017 281.226 339.769 280.802C339.521 280.374 339.397 279.894 339.397 279.362V276.002C339.397 275.47 339.521 274.992 339.769 274.568C340.017 274.14 340.353 273.802 340.777 273.554C341.205 273.306 341.685 273.182 342.217 273.182C342.749 273.182 343.227 273.306 343.651 273.554C344.079 273.802 344.417 274.14 344.665 274.568C344.913 274.992 345.037 275.47 345.037 276.002V279.362C345.037 279.894 344.913 280.374 344.665 280.802C344.417 281.226 344.079 281.562 343.651 281.81C343.227 282.058 342.749 282.182 342.217 282.182ZM342.217 281.33C342.573 281.33 342.897 281.244 343.189 281.072C343.481 280.896 343.713 280.662 343.885 280.37C344.057 280.078 344.143 279.756 344.143 279.404V275.96C344.143 275.604 344.057 275.28 343.885 274.988C343.713 274.696 343.481 274.464 343.189 274.292C342.897 274.116 342.573 274.028 342.217 274.028C341.861 274.028 341.537 274.116 341.245 274.292C340.953 274.464 340.721 274.696 340.549 274.988C340.377 275.28 340.291 275.604 340.291 275.96V279.404C340.291 279.756 340.377 280.078 340.549 280.37C340.721 280.662 340.953 280.896 341.245 281.072C341.537 281.244 341.861 281.33 342.217 281.33Z" fill="#9B9C9C"/>
</svg>
