<svg preserveAspectRatio="none" width="100%" height="100%" overflow="visible" style="display: block;" viewBox="0 0 20 20" fill="none" xmlns="http://www.w3.org/2000/svg">
<g id="Icon/fire burn">
<path id="Vector" d="M15.601 10.6852C14.2855 7.26163 9.39586 7.222 11.2503 1.66667C7.70786 3.25957 4.90246 7.35673 7.67616 12.7694C3.75335 11.121 5.47305 6.99218 5.47305 6.99218C5.47305 6.99218 3.33333 8.30771 3.33333 12.286C3.63448 16.7239 7.38294 18.087 8.73017 18.2614C10.6559 18.507 12.7402 18.1504 14.238 16.7794C15.8863 15.2499 16.4886 12.809 15.601 10.6852ZM8.24675 14.6714C9.38794 14.394 9.97438 13.5698 10.1329 12.8407C10.3944 11.7075 9.37209 10.598 10.0616 8.80698C10.3231 10.2889 12.653 11.2161 12.653 12.8328C12.7164 14.8378 10.545 16.5575 8.24675 14.6714Z" fill="var(--fill-0, #8FB8FF)"/>
</g>
</svg>
