<svg preserveAspectRatio="none" width="100%" height="100%" overflow="visible" style="display: block;" viewBox="0 0 20 20" fill="none" xmlns="http://www.w3.org/2000/svg">
<g id="Icon/security">
<path id="Vector" d="M16.4846 5.2998C16.3936 5.1634 16.2571 5.11793 16.0751 5.11793H13.2082C12.7986 5.11793 12.4346 4.98153 12.116 4.75419L10.3413 3.43564C10.1593 3.29923 9.88623 3.29923 9.6587 3.43564L7.92947 4.75419C7.61092 4.98153 7.20137 5.11793 6.83731 5.11793H3.87941C3.74289 5.11793 3.56086 5.1634 3.46985 5.2998C3.37884 5.39074 3.33333 5.52714 3.33333 5.70901C3.51536 7.70958 4.10694 9.71014 5.06257 11.7107C5.9727 13.5749 7.24687 15.1208 8.83959 16.3029C9.15813 16.5303 9.56769 16.6667 9.97725 16.6667C10.3868 16.6667 10.7509 16.5303 11.1149 16.3029C12.7531 15.1662 14.0273 13.6203 14.9374 11.7107C15.8931 9.71014 16.4846 7.66411 16.6667 5.70901C16.6667 5.52714 16.6212 5.39074 16.4846 5.2998ZM12.7531 8.57346L9.06712 12.0745C9.02162 12.1199 8.97611 12.1199 8.9306 12.1199C8.8851 12.1199 8.79408 12.0745 8.79408 12.0745L7.29238 10.3467C7.20136 10.2558 7.24687 10.1194 7.29238 10.0739L7.70193 9.71015C7.74744 9.66468 7.79295 9.66468 7.88396 9.66468C7.92947 9.66468 7.97497 9.71015 8.02048 9.71015L9.02162 10.8014L12.116 7.84598C12.1615 7.80051 12.2071 7.80051 12.2526 7.80051C12.2981 7.80051 12.3436 7.84598 12.3891 7.84598L12.7531 8.25519C12.8441 8.39159 12.8441 8.52799 12.7531 8.57346Z" fill="var(--fill-0, #8FB8FF)"/>
</g>
</svg>
