<svg preserveAspectRatio="none" width="100%" height="100%" overflow="visible" style="display: block;" viewBox="0 0 16 16" fill="none" xmlns="http://www.w3.org/2000/svg">
<g id="Icon/pass-success-circle">
<circle id="white" cx="8" cy="8" r="6.66667" fill="var(--fill-0, white)"/>
<path id="Subtract" d="M8 1.33301C11.6819 1.33301 14.667 4.3181 14.667 8C14.667 11.6819 11.6819 14.667 8 14.667C4.3181 14.667 1.33301 11.6819 1.33301 8C1.33301 4.3181 4.3181 1.33301 8 1.33301ZM11.2529 5.32812C11.1432 5.32786 11.0375 5.37062 10.96 5.44824L6.70215 9.82422L5.04004 8.16016C4.96269 8.08276 4.85746 8.03998 4.74805 8.04004C4.63855 8.04015 4.53329 8.08352 4.45605 8.16113L4.16992 8.44824C4.00998 8.60917 4.01061 8.86963 4.1709 9.03027L6.41016 11.2744C6.48744 11.3519 6.59273 11.3955 6.70215 11.3955C6.81158 11.3955 6.91683 11.3519 6.99414 11.2744L11.8291 6.32031C11.9891 6.16002 11.9903 5.90036 11.8311 5.73926L11.5449 5.4502C11.4678 5.37217 11.3627 5.32841 11.2529 5.32812Z" fill="var(--fill-0, #275CFD)"/>
</g>
</svg>
