<svg preserveAspectRatio="none" width="100%" height="100%" overflow="visible" style="display: block;" viewBox="0 0 20 20" fill="none" xmlns="http://www.w3.org/2000/svg">
<g id="Icon/star-on">
<path id="Vector" d="M9.66683 14.925L6.65531 16.5805C6.30536 16.7729 5.87253 16.6322 5.68855 16.2663C5.61529 16.1206 5.59001 15.9537 5.61662 15.7914L6.19177 12.2849C6.2316 12.0421 6.15461 11.7943 5.98589 11.6223L3.54952 9.139C3.2664 8.85043 3.26061 8.37651 3.53658 8.08047C3.64647 7.96258 3.79046 7.88586 3.94626 7.86219L7.31325 7.3506C7.54641 7.31517 7.74797 7.16204 7.85225 6.94111L9.35801 3.75077C9.53298 3.38005 9.96224 3.22784 10.3168 3.4108C10.4579 3.48366 10.5722 3.60315 10.6419 3.75077L12.1477 6.94111C12.2519 7.16204 12.4535 7.31517 12.6867 7.3506L16.0536 7.86219C16.4449 7.92164 16.716 8.30149 16.6591 8.71061C16.6365 8.87352 16.5631 9.02409 16.4504 9.139L14.014 11.6223C13.8453 11.7943 13.7683 12.0421 13.8081 12.2849L14.3833 15.7914C14.4501 16.1989 14.1884 16.5859 13.7987 16.6557C13.6436 16.6836 13.484 16.6571 13.3446 16.5805L10.3331 14.925C10.1245 14.8103 9.87538 14.8103 9.66683 14.925Z" fill="var(--fill-0, #8FB8FF)"/>
</g>
</svg>
