<svg preserveAspectRatio="none" width="100%" height="100%" overflow="visible" style="display: block;" viewBox="0 0 20 20" fill="none" xmlns="http://www.w3.org/2000/svg">
<g id="Icon/bubble-support">
<g id="Vector">
<path d="M14.4607 17.15L14.3541 17.0269C14.3889 17.0674 14.4245 17.1085 14.4607 17.15Z" fill="var(--fill-0, #FCD536)"/>
<path fill-rule="evenodd" clip-rule="evenodd" d="M11.2309 2.5H7.93573C5.39769 2.5 3.33333 4.64356 3.33333 7.27898V10.4742C3.33333 13.1096 5.39769 15.2532 7.93573 15.2532H10.876C12.6847 15.2532 13.07 15.4782 13.9168 16.5047L13.9238 16.5132C14.0534 16.6701 14.1964 16.8434 14.3541 17.0269C14.6181 17.3188 14.8123 17.5 15.1976 17.5C15.5828 17.5 15.7946 17.2016 15.8297 16.8116L15.8333 16.8103V7.27898C15.8333 4.64356 13.769 2.5 11.2309 2.5ZM7.97671 5.9894C8.3317 5.60284 8.8751 5.33595 9.62579 5.33595C10.5281 5.33595 11.0691 5.68484 11.3695 6.14032C11.6557 6.57424 11.6896 7.05429 11.6896 7.26994C11.6896 7.72222 11.5074 8.0994 11.2709 8.40863C11.0371 8.71428 10.736 8.97187 10.469 9.18813L10.4649 9.19146C10.2842 9.33277 10.2062 9.43694 10.1719 9.50079C10.1415 9.55739 10.1389 9.59363 10.1389 9.62422V9.92106C10.1389 10.2859 9.8409 10.5551 9.51132 10.5551C9.18174 10.5551 8.8837 10.2859 8.8837 9.92106V9.62422C8.8837 9.07218 9.17673 8.6004 9.67831 8.19675L9.67955 8.19575C9.89787 8.02192 10.0911 7.85749 10.2298 7.69022C10.3688 7.52265 10.4239 7.38686 10.4239 7.26994C10.4239 6.99507 10.3526 6.85231 10.2596 6.76933C10.1569 6.67775 9.96738 6.604 9.62579 6.604C9.12393 6.604 8.92544 6.79527 8.83684 6.93424C8.7399 7.0863 8.73403 7.2413 8.73403 7.2413L8.73401 7.24007V7.46443C8.73401 7.82931 8.43597 8.09845 8.10639 8.09845C7.77681 8.09845 7.47877 7.82931 7.47877 7.46443V7.23924C7.47877 6.84475 7.62849 6.36861 7.97671 5.9894ZM8.77462 12.0625C8.77462 11.5975 9.15287 11.2495 9.5842 11.2495C10.0155 11.2495 10.3938 11.5975 10.3938 12.0625C10.3938 12.5275 10.0155 12.8755 9.5842 12.8755C9.15287 12.8755 8.77462 12.5275 8.77462 12.0625Z" fill="var(--fill-0, #FCD536)"/>
</g>
</g>
</svg>
