<svg width="32" height="32" viewBox="0 0 32 32" fill="none" xmlns="http://www.w3.org/2000/svg">
<path d="M16 29.3337C23.3638 29.3337 29.3333 23.3641 29.3333 16.0003C29.3333 8.63653 23.3638 2.66699 16 2.66699C8.63616 2.66699 2.66663 8.63653 2.66663 16.0003C2.66663 23.3641 8.63616 29.3337 16 29.3337Z" fill="#0184FF"/>
<path d="M16 6V13.3932L22.664 16.1855L16 6Z" fill="white" fill-opacity="0.602"/>
<path d="M15.9983 6L9.33337 16.1855L15.9983 13.3932V6Z" fill="white"/>
<path d="M16 20.977V26.0006L22.6684 17.3496L16 20.977Z" fill="white" fill-opacity="0.602"/>
<path d="M15.9983 26.0006V20.9762L9.33337 17.3496L15.9983 26.0006Z" fill="white"/>
<path d="M16 19.8143L22.664 16.1861L16 13.3955V19.8143Z" fill="white" fill-opacity="0.2"/>
<path d="M9.33337 16.1851L15.9983 19.8134V13.3945L9.33337 16.1851Z" fill="white" fill-opacity="0.602"/>
</svg>
