<svg width="20" height="20" viewBox="0 0 20 20" fill="none" xmlns="http://www.w3.org/2000/svg">
<path d="M16.9757 3.54663C15.0493 5.51377 11.3409 8.73284 5.89827 11.0352C4.35522 11.688 2.94942 12.2 1.68359 12.601L1.33203 11.4885C2.56204 11.0988 3.93297 10.5999 5.44336 9.96102C10.7051 7.73521 14.2897 4.62141 16.1424 2.72957L16.9757 3.54663Z" fill="white"/>
<path d="M16.9724 4.24316C17.8097 4.24316 18.4885 3.56438 18.4885 2.72705C18.4885 1.88972 17.8097 1.21094 16.9724 1.21094C16.1351 1.21094 15.4563 1.88972 15.4563 2.72705C15.4563 3.56438 16.1351 4.24316 16.9724 4.24316Z" fill="white"/>
<path d="M9.7616 13.9525C10.9812 13.9525 11.9699 13.6619 11.9699 13.3034V12.5492H7.55328V13.3034C7.55328 13.6619 8.54198 13.9525 9.7616 13.9525Z" fill="white"/>
<path d="M11.9699 12.521C11.9699 12.8795 10.9812 13.1701 9.7616 13.1701C8.54198 13.1701 7.55328 12.8795 7.55328 12.521C7.55328 12.1625 8.54198 11.8718 9.7616 11.8718C10.9812 11.8718 11.9699 12.1625 11.9699 12.521Z" fill="white"/>
<path d="M9.7616 15.1444C10.9812 15.1444 11.9699 14.8537 11.9699 14.4952V13.741H11.9679C11.9176 14.0864 10.9491 14.3619 9.7616 14.3619C8.57413 14.3619 7.60557 14.0864 7.55533 13.741H7.55328V14.4952C7.55328 14.8537 8.54198 15.1444 9.7616 15.1444Z" fill="white"/>
<path d="M9.7616 16.3361C10.9812 16.3361 11.9699 16.0455 11.9699 15.687V14.9327H11.9679C11.9176 15.2782 10.9491 15.5537 9.7616 15.5537C8.57413 15.5537 7.60557 15.2782 7.55533 14.9327H7.55328V15.687C7.55328 16.0455 8.54198 16.3361 9.7616 16.3361Z" fill="white"/>
<path d="M9.7616 17.5279C10.9812 17.5279 11.9699 17.2373 11.9699 16.8787V16.1245H11.9679C11.9176 16.4699 10.9491 16.7455 9.7616 16.7455C8.57413 16.7455 7.60557 16.4699 7.55533 16.1245H7.55328V16.8787C7.55328 17.2373 8.54198 17.5279 9.7616 17.5279Z" fill="white"/>
<path d="M9.7616 18.7197C10.9812 18.7197 11.9699 18.4291 11.9699 18.0706V17.3164H11.9679C11.9176 17.6618 10.9491 17.9373 9.7616 17.9373C8.57413 17.9373 7.60557 17.6618 7.55533 17.3164H7.55328V18.0706C7.55328 18.4291 8.54198 18.7197 9.7616 18.7197Z" fill="white"/>
<path d="M15.7183 10.4455C16.9379 10.4455 17.9266 10.1549 17.9266 9.79636V9.04213H13.5099V9.79636C13.5099 10.1549 14.4986 10.4455 15.7183 10.4455Z" fill="white"/>
<path d="M17.9266 9.01393C17.9266 9.37244 16.9379 9.66307 15.7183 9.66307C14.4986 9.66307 13.5099 9.37244 13.5099 9.01393C13.5099 8.65541 14.4986 8.36478 15.7183 8.36478C16.9379 8.36478 17.9266 8.65541 17.9266 9.01393Z" fill="white"/>
<path d="M15.7183 11.6373C16.9379 11.6373 17.9266 11.3467 17.9266 10.9882V10.2339H17.9245C17.8743 10.5794 16.9057 10.8549 15.7183 10.8549C14.5308 10.8549 13.5622 10.5794 13.512 10.2339H13.5099V10.9882C13.5099 11.3467 14.4986 11.6373 15.7183 11.6373Z" fill="white"/>
<path d="M15.7183 12.8291C16.9379 12.8291 17.9266 12.5384 17.9266 12.1799V11.4257H17.9245C17.8743 11.7711 16.9057 12.0466 15.7183 12.0466C14.5308 12.0466 13.5622 11.7711 13.512 11.4257H13.5099V12.1799C13.5099 12.5384 14.4986 12.8291 15.7183 12.8291Z" fill="white"/>
<path d="M15.7183 14.0208C16.9379 14.0208 17.9266 13.7302 17.9266 13.3717V12.6175H17.9245C17.8743 12.9629 16.9057 13.2384 15.7183 13.2384C14.5308 13.2384 13.5622 12.9629 13.512 12.6175H13.5099V13.3717C13.5099 13.7302 14.4986 14.0208 15.7183 14.0208Z" fill="white"/>
<path d="M15.7183 15.2127C16.9379 15.2127 17.9266 14.9221 17.9266 14.5636V13.8093H17.9245C17.8743 14.1548 16.9057 14.4303 15.7183 14.4303C14.5308 14.4303 13.5622 14.1548 13.512 13.8093H13.5099V14.5636C13.5099 14.9221 14.4986 15.2127 15.7183 15.2127Z" fill="white"/>
<path d="M15.7183 16.4043C16.9379 16.4043 17.9266 16.1136 17.9266 15.7551V15.0009H17.9245C17.8743 15.3463 16.9057 15.6218 15.7183 15.6218C14.5308 15.6218 13.5622 15.3463 13.512 15.0009H13.5099V15.7551C13.5099 16.1136 14.4986 16.4043 15.7183 16.4043Z" fill="white"/>
<path d="M15.7183 17.596C16.9379 17.596 17.9266 17.3054 17.9266 16.9469V16.1927H17.9245C17.8743 16.5381 16.9057 16.8136 15.7183 16.8136C14.5308 16.8136 13.5622 16.5381 13.512 16.1927H13.5099V16.9469C13.5099 17.3054 14.4986 17.596 15.7183 17.596Z" fill="white"/>
<path d="M15.7183 18.7879C16.9379 18.7879 17.9266 18.4973 17.9266 18.1388V17.3845H17.9245C17.8743 17.73 16.9057 18.0055 15.7183 18.0055C14.5308 18.0055 13.5622 17.73 13.512 17.3845H13.5099V18.1388C13.5099 18.4973 14.4986 18.7879 15.7183 18.7879Z" fill="white"/>
<path d="M3.8051 16.3362C5.02472 16.3362 6.01342 16.0455 6.01342 15.687V14.9328H1.59678V15.687C1.59678 16.0455 2.58548 16.3362 3.8051 16.3362Z" fill="white"/>
<path d="M6.01342 14.9046C6.01342 15.2631 5.02472 15.5537 3.8051 15.5537C2.58548 15.5537 1.59678 15.2631 1.59678 14.9046C1.59678 14.5461 2.58548 14.2554 3.8051 14.2554C5.02472 14.2554 6.01342 14.5461 6.01342 14.9046Z" fill="white"/>
<path d="M3.8051 17.528C5.02472 17.528 6.01342 17.2373 6.01342 16.8788V16.1246H6.01137C5.96113 16.47 4.99256 16.7456 3.8051 16.7456C2.61763 16.7456 1.64907 16.47 1.59883 16.1246H1.59678V16.8788C1.59678 17.2373 2.58548 17.528 3.8051 17.528Z" fill="white"/>
<path d="M3.8051 18.7197C5.02472 18.7197 6.01342 18.4291 6.01342 18.0706V17.3164H6.01137C5.96113 17.6618 4.99256 17.9373 3.8051 17.9373C2.61763 17.9373 1.64907 17.6618 1.59883 17.3164H1.59678V18.0706C1.59678 18.4291 2.58548 18.7197 3.8051 18.7197Z" fill="white"/>
</svg>
