<svg preserveAspectRatio="none" width="100%" height="100%" overflow="visible" style="display: block;" viewBox="0 0 16 16" fill="none" xmlns="http://www.w3.org/2000/svg">
<g id="Icon/edit">
<g id="Vector">
<path d="M2.66667 11.298C2.66667 11.1601 2.72142 11.0279 2.81889 10.9305L8.60073 5.14863C8.80369 4.94567 9.13276 4.94567 9.33572 5.14863L10.8514 6.66428C11.0543 6.86724 11.0543 7.19631 10.8514 7.39927L5.06952 13.1811C4.97205 13.2786 4.83986 13.3333 4.70203 13.3333H3.18638C2.89935 13.3333 2.66667 13.1006 2.66667 12.8136V11.298Z" fill="var(--fill-0, #9B9C9C)"/>
<path d="M10.0726 4.41173C9.86966 4.20877 9.86966 3.8797 10.0726 3.67674L10.8123 2.93711C11.1728 2.57652 11.7565 2.57652 12.1171 2.93711L13.0629 3.88287C13.4235 4.24346 13.4235 4.82715 13.0629 5.18774L12.3233 5.92738C12.2258 6.02484 12.0936 6.0796 11.9558 6.0796C11.8179 6.0796 11.6857 6.02484 11.5883 5.92738L10.0726 4.41173Z" fill="var(--fill-0, #9B9C9C)"/>
</g>
</g>
</svg>
