<svg width="46" height="46" viewBox="0 0 46 46" fill="none" xmlns="http://www.w3.org/2000/svg">
<path fill-rule="evenodd" clip-rule="evenodd" d="M20.6994 34.58C20.6994 34.9301 20.9831 35.2138 21.3331 35.2138H24.6661C25.0161 35.2138 25.2998 34.9301 25.2998 34.58V28.2354C25.2998 27.8854 25.5836 27.6017 25.9336 27.6017H29.0847C29.6494 27.6017 29.9321 26.9188 29.5326 26.5197L23.458 20.4485C23.21 20.2007 22.8078 20.2013 22.5606 20.45L16.516 26.5211C16.1186 26.9209 16.4017 27.6017 16.9655 27.6017H20.0656C20.4156 27.6017 20.6994 27.8854 20.6994 28.2354V34.58ZM9.83299 17.2065C9.48297 17.2065 9.19922 17.4902 9.19922 17.8402V37.9522C9.19922 39.223 10.2297 40.25 11.5004 40.25H34.5017C35.7729 40.25 36.801 39.223 36.801 37.9522V8.05045C36.801 6.78047 35.7728 5.75003 34.5017 5.75003L21.3331 5.75C20.6994 5.75 20.6994 6.03374 20.6994 6.38375V15.0672C20.6994 16.1733 19.7098 17.2068 18.5598 17.2068L9.83299 17.2065ZM17.2519 7.27937C17.2519 6.7148 16.5693 6.43202 16.1701 6.83119L10.2814 12.7184C9.8821 13.1176 10.1648 13.8003 10.7295 13.8003H16.6181C16.9682 13.8003 17.2519 13.5166 17.2519 13.1666V7.27937Z" fill="#8FB8FF"/>
</svg>
