<svg width="20" height="20" viewBox="0 0 20 20" fill="none" xmlns="http://www.w3.org/2000/svg">
<path fill-rule="evenodd" clip-rule="evenodd" d="M4.16797 5.09615C4.16797 3.66234 5.26292 2.5 6.61362 2.5L15.8527 2.5C16.303 2.5 16.668 2.88745 16.668 3.36538V13.1731C16.668 13.2057 16.6663 13.238 16.6629 13.2697C16.6663 13.3001 16.668 13.331 16.668 13.3624C16.668 13.7856 16.3571 14.1286 15.9735 14.1286L6.39019 14.1286C5.92995 14.1286 5.55686 14.5403 5.55686 15.0481C5.55686 15.5559 5.92995 15.9675 6.39019 15.9675L15.9735 15.9675C16.3571 15.9675 16.668 16.3106 16.668 16.7338C16.668 17.1569 16.3571 17.5 15.9735 17.5H6.39019C5.24786 17.5 4.30684 16.549 4.18202 15.3254L4.16797 15.3365L4.16797 5.09615ZM9.86177 9.17095C9.81558 9.38671 9.79248 9.60248 9.79248 9.81825H11.1229C11.1229 9.63518 11.1322 9.49623 11.1506 9.40143C11.1691 9.30662 11.2215 9.18402 11.3077 9.03364C11.3539 8.95845 11.4062 8.88652 11.4648 8.81787C11.5264 8.74595 11.5941 8.67075 11.668 8.59229C11.745 8.51056 11.8312 8.41575 11.9267 8.30787C12.1485 8.05614 12.3348 7.78479 12.4857 7.49383C12.6366 7.20287 12.712 6.87922 12.712 6.52287C12.712 6.30056 12.6751 6.07989 12.6012 5.86085C12.5273 5.63854 12.4226 5.44402 12.287 5.27729C12.0838 5.01248 11.8266 4.82287 11.5156 4.70845C11.2045 4.59075 10.8735 4.53191 10.5224 4.53191C10.3099 4.53191 10.0974 4.5646 9.88487 4.62998C9.67237 4.69537 9.47835 4.79018 9.3028 4.91441C9.06259 5.08114 8.86702 5.30998 8.71612 5.60095C8.56521 5.89191 8.47128 6.21229 8.43433 6.5621H9.76476C9.76168 6.4346 9.78016 6.31854 9.8202 6.21393C9.86331 6.10931 9.92799 6.02268 10.0142 5.95402C10.0851 5.89518 10.1697 5.85268 10.2683 5.82652C10.3699 5.80037 10.4731 5.78729 10.5778 5.78729C10.7164 5.78729 10.8457 5.81181 10.9658 5.86085C11.089 5.90662 11.1876 5.98345 11.2615 6.09133C11.3077 6.15345 11.3385 6.22537 11.3539 6.3071C11.3724 6.38883 11.3816 6.47383 11.3816 6.5621C11.3816 6.7321 11.3601 6.88902 11.3169 7.03287C11.2769 7.17345 11.1937 7.31729 11.0675 7.46441C10.9043 7.64748 10.7626 7.7897 10.6425 7.89104C10.5254 7.99239 10.4207 8.0921 10.3283 8.19018C10.239 8.28499 10.1559 8.41575 10.0789 8.58249C9.98342 8.75902 9.91105 8.95518 9.86177 9.17095ZM9.80172 10.3184L9.80172 11.7308H11.1229L11.1229 10.3184H9.80172Z" fill="#3F78FF"/>
</svg>
