<svg width="20" height="20" viewBox="0 0 20 20" fill="none" xmlns="http://www.w3.org/2000/svg">
<path d="M2.58982 15.5186H3.43909V17.0981C3.43909 17.4332 3.7133 17.7074 4.04844 17.7074C4.38358 17.7074 4.65779 17.4332 4.65779 17.0981V15.5186H5.50706C5.8422 15.5186 6.11641 15.2444 6.11641 14.9092V12.471C6.11641 12.1359 5.8422 11.8617 5.50706 11.8617H4.65779V10.2441C4.65779 9.90897 4.38358 9.63477 4.04844 9.63477C3.7133 9.63477 3.43909 9.90897 3.43909 10.2441V11.8617H2.58982C2.25467 11.8617 1.98047 12.1359 1.98047 12.471V14.9092C1.98047 15.2482 2.25087 15.5186 2.58982 15.5186Z" fill="white"/>
<path d="M8.54294 14.6212H9.39222V16.2007C9.39222 16.5358 9.66642 16.81 10.0016 16.81C10.3367 16.81 10.6109 16.5358 10.6109 16.2007V14.6212H11.4602C11.7953 14.6212 12.0695 14.347 12.0695 14.0118V9.94165C12.0695 9.6065 11.7953 9.3323 11.4602 9.3323H10.6109V7.71091C10.6109 7.37577 10.3367 7.10156 10.0016 7.10156C9.66642 7.10156 9.39222 7.37577 9.39222 7.71091V9.32849H8.54294C8.2078 9.32849 7.93359 9.6027 7.93359 9.93784V14.008C7.93359 14.347 8.2078 14.6212 8.54294 14.6212Z" fill="white"/>
<path d="M14.4922 12.251H15.3414V13.8305C15.3414 14.1657 15.6156 14.4399 15.9508 14.4399C16.2859 14.4399 16.5601 14.1657 16.5601 13.8305V12.251H17.4094C17.7445 12.251 18.0188 11.9768 18.0188 11.6417V5.12729C18.0188 4.79215 17.7445 4.51794 17.4094 4.51794H16.5601V2.90036C16.5601 2.56522 16.2859 2.29102 15.9508 2.29102C15.6156 2.29102 15.3414 2.56522 15.3414 2.90036V4.51794H14.4922C14.157 4.51794 13.8828 4.79215 13.8828 5.12729V11.6455C13.8828 11.9806 14.157 12.251 14.4922 12.251Z" fill="white"/>
</svg>
