<svg width="20" height="20" viewBox="0 0 20 20" fill="none" xmlns="http://www.w3.org/2000/svg">
<path d="M13.3277 7.75259C13.3277 7.75259 12.9201 7.33123 12.3494 7.33123H7.62699C7.06987 7.33123 6.66221 7.75259 6.66221 7.75259C6.66221 7.75259 3.18359 10.8285 3.18359 14.4241C3.18359 16.4747 4.67831 17.5 5.67026 17.5H14.3333C15.3252 17.5 16.82 16.4747 16.82 14.4241C16.8064 10.8285 13.3277 7.75259 13.3277 7.75259Z" fill="white"/>
<path d="M13.1011 3.13692C13.0376 3.11503 12.974 3.09313 12.8893 3.09313H11.3008C10.6654 2.34881 9.56408 2.30502 8.84396 2.96178C8.8016 3.00557 8.75924 3.04935 8.71688 3.09313H7.1284C6.8107 3.09313 6.55654 3.35584 6.55654 3.68422C6.55654 3.74989 6.57772 3.83746 6.5989 3.90314L7.1284 5.47936H7.17076L7.1284 5.50125C7.1284 5.50125 7.29784 5.98287 7.552 5.98287H12.4869C12.7199 5.98287 12.9105 5.50125 12.9105 5.50125L12.741 5.47936H12.9317L13.44 3.90314C13.5459 3.59665 13.3976 3.26827 13.1011 3.13692Z" fill="white"/>
</svg>
