<svg width="36" height="36" viewBox="0 0 36 36" fill="none" xmlns="http://www.w3.org/2000/svg">
<g clip-path="url(#clip0_13273_9884)">
<rect width="36" height="36" rx="18" fill="#592812"/>
<path d="M20.4765 22.0673C19.7227 21.6378 18.8698 21.4123 18.0022 21.4132C17.1346 21.4123 16.2818 21.6377 15.528 22.0673L12.4401 23.8316C11.9459 24.114 11.3862 24.2616 10.817 24.2598C10.2478 24.2579 9.68905 24.1065 9.19672 23.8208C8.70439 23.5351 8.29575 23.1251 8.01169 22.6318C7.72763 22.1386 7.57812 21.5793 7.57813 21.0101V13.9504C7.57813 12.9563 8.38401 12.1504 9.37812 12.1504H26.6262C27.6204 12.1504 28.4262 12.9563 28.4262 13.9504V21.0101C28.4263 21.5793 28.2768 22.1386 27.9928 22.6319C27.7088 23.1252 27.3001 23.5352 26.8078 23.8209C26.3155 24.1067 25.7568 24.2581 25.1876 24.2599C24.6183 24.2618 24.0586 24.1142 23.5644 23.8318L20.4765 22.0673Z" fill="#FF9E85"/>
<path d="M20.4744 22.0673C19.7205 21.6378 18.8676 21.4123 18 21.4132L21.6 12.1504H26.658C27.6333 12.1504 28.4241 12.9411 28.4241 13.9165V21.0101C28.4241 21.5793 28.2747 22.1386 27.9906 22.6319C27.7066 23.1252 27.298 23.5352 26.8056 23.8209C26.3133 24.1067 25.7546 24.258 25.1854 24.2599C24.6162 24.2618 24.0564 24.1142 23.5622 23.8318L20.4744 22.0673Z" fill="white"/>
<path d="M5.85938 15.7285H7.57729V20.4361H5.85938V15.7285Z" fill="#E46444"/>
<path d="M28.4258 15.7285H30.1437V20.4361H28.4258V15.7285Z" fill="#E46444"/>
</g>
<defs>
<clipPath id="clip0_13273_9884">
<rect width="36" height="36" fill="white"/>
</clipPath>
</defs>
</svg>
