<svg width="36" height="36" viewBox="0 0 36 36" fill="none" xmlns="http://www.w3.org/2000/svg">
<g clip-path="url(#clip0_13273_9693)">
<rect width="36" height="36" rx="18" fill="#1B1D1D"/>
<path d="M12.4863 10.125H20.3302L22.7813 17.4186H10.0352L12.4863 10.125Z" fill="#47494A"/>
<path d="M6.35744 17.418H26.4572L28.9084 24.7116H3.90625L6.35744 17.418Z" fill="#47494A"/>
<path d="M24.7403 17.418H29.6426L32.0938 24.7116H22.2891L24.7403 17.418Z" fill="#696A6A"/>
<path d="M19.7793 10.125H24.6817L27.1329 17.4186H17.3281L19.7793 10.125Z" fill="#696A6A"/>
<path d="M14.9356 17.418H19.8379L22.2891 24.7116H12.4844L14.9356 17.418Z" fill="#696A6A"/>
<path fill-rule="evenodd" clip-rule="evenodd" d="M19.8405 17.418H14.9382L14.1211 19.8492H20.6576L19.8405 17.418Z" fill="#7C7C7C"/>
<path fill-rule="evenodd" clip-rule="evenodd" d="M14.9382 17.418H19.8405L20.6576 19.8492H14.1211L14.9382 17.418Z" fill="#7C7C7C"/>
<path fill-rule="evenodd" clip-rule="evenodd" d="M29.6452 17.418H24.7428L23.9258 19.8492H30.4623L29.6452 17.418Z" fill="#7C7C7C"/>
<path fill-rule="evenodd" clip-rule="evenodd" d="M24.7428 17.418H29.6452L30.4623 19.8492H23.9258L24.7428 17.418Z" fill="#7C7C7C"/>
<path fill-rule="evenodd" clip-rule="evenodd" d="M24.6804 10.125H19.778L18.9609 12.5562H25.4974L24.6804 10.125Z" fill="#7C7C7C"/>
<path fill-rule="evenodd" clip-rule="evenodd" d="M19.778 10.125H24.6804L25.4974 12.5562H18.9609L19.778 10.125Z" fill="#7C7C7C"/>
</g>
<defs>
<clipPath id="clip0_13273_9693">
<rect width="36" height="36" fill="white"/>
</clipPath>
</defs>
</svg>
