<svg width="36" height="36" viewBox="0 0 36 36" fill="none" xmlns="http://www.w3.org/2000/svg">
<g clip-path="url(#clip0_13273_9702)">
<rect width="36" height="36" rx="18" fill="#1B1D1D"/>
<path d="M9.55 8.56836H26.4508C27.4449 8.56836 28.2508 9.37425 28.2508 10.3684V25.6302C28.2508 26.6301 27.4358 27.4384 26.4359 27.4301L9.53513 27.2905C8.54685 27.2823 7.75 26.4789 7.75 25.4906V10.3684C7.75 9.37425 8.55589 8.56836 9.55 8.56836Z" fill="#47494A"/>
<circle cx="14.6902" cy="13.8015" r="2.45579" fill="#797A7B"/>
<path d="M7.75 25.5633C7.75 26.5574 8.55589 27.3633 9.55 27.3633H26.4508C27.4449 27.3633 28.2508 26.5574 28.2508 25.5633V24.4661L20.0425 16.2578L15.9172 20.3831L13.7904 18.2563L7.75 24.2967V25.5633Z" fill="#696A6A"/>
</g>
<defs>
<clipPath id="clip0_13273_9702">
<rect width="36" height="36" fill="white"/>
</clipPath>
</defs>
</svg>
