<svg width="20" height="20" viewBox="0 0 20 20" fill="none" xmlns="http://www.w3.org/2000/svg">
<path d="M12.8112 10.75H10.6237C10.2227 10.75 9.89453 11.0875 9.89453 11.5V13.75C9.89453 14.1625 10.2227 14.5 10.6237 14.5H12.8112C13.2122 14.5 13.5404 14.1625 13.5404 13.75V11.5C13.5404 11.0875 13.2122 10.75 12.8112 10.75ZM12.8112 3.25V4H6.97786V3.25C6.97786 2.8375 6.64974 2.5 6.2487 2.5C5.84766 2.5 5.51953 2.8375 5.51953 3.25V4H4.79036C3.98099 4 3.33932 4.675 3.33932 5.5L3.33203 16C3.33203 16.825 3.98099 17.5 4.79036 17.5H14.9987C15.8008 17.5 16.457 16.825 16.457 16V5.5C16.457 4.675 15.8008 4 14.9987 4H14.2695V3.25C14.2695 2.8375 13.9414 2.5 13.5404 2.5C13.1393 2.5 12.8112 2.8375 12.8112 3.25ZM14.2695 16H5.51953C5.11849 16 4.79036 15.6625 4.79036 15.25V7.75H14.9987V15.25C14.9987 15.6625 14.6706 16 14.2695 16Z" fill="white"/>
</svg>
