<svg width="32" height="32" viewBox="0 0 32 32" fill="none" xmlns="http://www.w3.org/2000/svg">
<circle cx="16" cy="16" r="16" fill="white" fill-opacity="0.08"/>
<path d="M16.0015 16.794C12.7262 16.794 9.60156 18.399 9.60156 20.394V21.194C9.60156 21.914 10.0815 22.394 10.8015 22.394H21.2015C21.9215 22.394 22.4014 21.914 22.4014 21.194L22.4015 20.394C22.4015 18.399 19.2768 16.794 16.0015 16.794Z" fill="#F5F9FF"/>
<path d="M19.056 12.6074C19.056 14.2643 17.6885 15.6074 16.0015 15.6074C14.3145 15.6074 12.947 14.2643 12.947 12.6074C12.947 10.9506 14.3145 9.60742 16.0015 9.60742C17.6885 9.60742 19.056 10.9506 19.056 12.6074Z" fill="#F5F9FF"/>
</svg>
