<svg width="36" height="36" viewBox="0 0 36 36" fill="none" xmlns="http://www.w3.org/2000/svg">
<g clip-path="url(#clip0_13273_9879)">
<rect width="36" height="36" rx="18" fill="#3B2F06"/>
<path d="M10.8781 18.8792C13.57 18.8792 15.7522 16.6969 15.7522 14.005C15.7522 11.3131 13.57 9.13086 10.8781 9.13086C8.18614 9.13086 6.00391 11.3131 6.00391 14.005C6.00391 16.6969 8.18614 18.8792 10.8781 18.8792Z" fill="#FDE16D"/>
<path d="M10.8781 9.13086C8.18614 9.13086 6.00391 11.3131 6.00391 14.005H15.7522C15.7522 11.3131 13.57 9.13086 10.8781 9.13086Z" fill="white"/>
<rect x="10.8789" y="11.5273" width="3.50439" height="3.50439" transform="rotate(45 10.8789 11.5273)" fill="#A08722"/>
<path d="M25.1241 18.8792C27.8161 18.8792 29.9983 16.6969 29.9983 14.005C29.9983 11.3131 27.8161 9.13086 25.1241 9.13086C22.4322 9.13086 20.25 11.3131 20.25 14.005C20.25 16.6969 22.4322 18.8792 25.1241 18.8792Z" fill="#FDE16D"/>
<path d="M25.1241 9.13086C22.4322 9.13086 20.25 11.3131 20.25 14.005H29.9983C29.9983 11.3131 27.8161 9.13086 25.1241 9.13086Z" fill="white"/>
<rect x="25.125" y="11.5273" width="3.50439" height="3.50439" transform="rotate(45 25.125 11.5273)" fill="#A08722"/>
<path d="M19.0577 20.7455L23.4178 26.7391C23.8506 27.3339 23.4256 28.1685 22.69 28.1685H13.3127C12.5771 28.1685 12.1522 27.3339 12.5849 26.7391L16.945 20.7455L19.0577 20.7455Z" fill="#A08722"/>
<path d="M5.95703 18.8789H30.045V21.129H5.95703V18.8789Z" fill="#A08722"/>
</g>
<defs>
<clipPath id="clip0_13273_9879">
<rect width="36" height="36" fill="white"/>
</clipPath>
</defs>
</svg>
