<svg width="20" height="20" viewBox="0 0 20 20" fill="none" xmlns="http://www.w3.org/2000/svg">
<path d="M6.54118 7.71349L7.05733 9.41142H6.03294L6.54118 7.71349Z" fill="white"/>
<path d="M9.4214 8.98634C9.379 9.11907 9.35781 9.27332 9.35781 9.44909C9.35781 9.62486 9.379 9.77911 9.4214 9.91183C9.46379 10.0446 9.53268 10.1477 9.62807 10.2212C9.72522 10.2948 9.85417 10.3315 10.0149 10.3315C10.1704 10.3315 10.2975 10.2921 10.3965 10.2132C10.4954 10.1342 10.5687 10.0284 10.6164 9.89569C10.6641 9.76117 10.6879 9.6123 10.6879 9.44909C10.6879 9.28766 10.6632 9.14059 10.6137 9.00787C10.5643 8.87335 10.4874 8.76663 10.3832 8.68771C10.2808 8.607 10.1492 8.56665 9.98841 8.56665C9.83827 8.56665 9.71639 8.60341 9.62277 8.67695C9.53092 8.75049 9.46379 8.85362 9.4214 8.98634Z" fill="white"/>
<path fill-rule="evenodd" clip-rule="evenodd" d="M11.2296 2.5H7.93443C5.39639 2.5 3.33203 4.64356 3.33203 7.27898V10.4742C3.33203 13.1096 5.39639 15.2532 7.93443 15.2532H10.8747C12.6834 15.2532 13.0687 15.4782 13.9155 16.5047L13.9227 16.5134C14.0522 16.6703 14.1951 16.8434 14.3528 17.0269C14.3876 17.0675 14.4232 17.1085 14.4594 17.15L14.3528 17.0269C14.6168 17.3188 14.811 17.5 15.1963 17.5C15.5815 17.5 15.7933 17.2016 15.8284 16.8116L15.832 16.8103V7.27898C15.832 4.64356 13.7677 2.5 11.2296 2.5ZM4.8449 10.9019L6.01073 7.02775H7.08647L8.2523 10.9019H7.51041L7.26506 10.0948H5.82839L5.58679 10.9019H4.8449ZM10.1315 10.9826C9.8471 10.9826 9.60952 10.9153 9.41875 10.7808C9.39788 10.7661 9.37756 10.7508 9.35781 10.7349V10.9019H8.7219V7.02775H9.4479V8.08999C9.62599 7.97371 9.84149 7.91558 10.0944 7.91558C10.3682 7.91558 10.6067 7.98194 10.8098 8.11466C11.0129 8.24739 11.1701 8.42944 11.2814 8.66081C11.3945 8.89039 11.451 9.15315 11.451 9.44909C11.451 9.73965 11.3954 10.0006 11.2841 10.232C11.1746 10.4634 11.0209 10.6463 10.823 10.7808C10.6252 10.9153 10.3947 10.9826 10.1315 10.9826ZM12.5322 10.7808C12.7441 10.9153 12.9985 10.9826 13.2953 10.9826C13.6273 10.9826 13.9064 10.8992 14.1325 10.7324C14.3586 10.5656 14.5123 10.3279 14.5936 10.0194L13.857 9.8634C13.8146 10.0033 13.751 10.1109 13.6662 10.1862C13.5814 10.2616 13.4578 10.2992 13.2953 10.2992C13.078 10.2992 12.9137 10.2212 12.8024 10.0652C12.6929 9.90735 12.6381 9.70198 12.6381 9.44909C12.6381 9.28766 12.6611 9.14328 12.707 9.01594C12.753 8.8868 12.8245 8.78546 12.9217 8.71193C13.0188 8.6366 13.1433 8.59893 13.2953 8.59893C13.4277 8.59893 13.5461 8.64108 13.6503 8.72538C13.7563 8.80968 13.8305 8.92716 13.8729 9.07782L14.5936 8.88411C14.53 8.58458 14.3834 8.34873 14.1537 8.17654C13.9259 8.00256 13.6432 7.91558 13.3058 7.91558C13.0144 7.91558 12.7618 7.98194 12.5481 8.11466C12.3343 8.24739 12.1683 8.42944 12.0499 8.66081C11.9334 8.89218 11.8751 9.15494 11.8751 9.44909C11.8751 9.73965 11.9316 10.0006 12.0446 10.232C12.1577 10.4634 12.3202 10.6463 12.5322 10.7808Z" fill="white"/>
</svg>
