<svg width="20" height="20" viewBox="0 0 20 20" fill="none" xmlns="http://www.w3.org/2000/svg">
<path fill-rule="evenodd" clip-rule="evenodd" d="M6.86675 3.80005C7.6044 3.03098 8.7336 2.5 10.2935 2.5C12.1685 2.5 13.2927 3.19411 13.917 4.1003C14.5117 4.96359 14.582 5.91864 14.582 6.3477C14.582 7.24751 14.2035 7.99791 13.712 8.61312C13.2262 9.22123 12.6006 9.73369 12.0458 10.1639L12.0372 10.1706C11.6616 10.4517 11.4995 10.659 11.4283 10.786C11.3652 10.8986 11.3598 10.9707 11.3598 11.0316V11.6221C11.3598 12.3481 10.7405 12.8835 10.0557 12.8835C9.37079 12.8835 8.75146 12.3481 8.75146 11.6221V11.0316C8.75146 9.93326 9.36039 8.99464 10.4027 8.19159L10.4052 8.18961C10.8589 7.84376 11.2604 7.51663 11.5487 7.18385C11.8375 6.85046 11.952 6.58031 11.952 6.3477C11.952 5.80084 11.8038 5.51681 11.6105 5.35171C11.3972 5.16952 11.0033 5.0228 10.2935 5.0228C9.25066 5.0228 8.83819 5.40332 8.65409 5.67981C8.45266 5.98233 8.44045 6.2907 8.44045 6.2907L8.44041 6.28827V6.73463C8.44041 7.46056 7.82108 7.99602 7.13622 7.99602C6.45136 7.99602 5.83203 7.46056 5.83203 6.73463V6.28661C5.83203 5.50178 6.14314 4.55448 6.86675 3.80005Z" fill="white"/>
<path fill-rule="evenodd" clip-rule="evenodd" d="M8.5248 15.8825C8.5248 14.9575 9.3108 14.2651 10.2071 14.2651C11.1034 14.2651 11.8894 14.9575 11.8894 15.8825C11.8894 16.8076 11.1034 17.5 10.2071 17.5C9.3108 17.5 8.5248 16.8076 8.5248 15.8825Z" fill="white"/>
</svg>
