<svg width="28" height="28" viewBox="0 0 28 28" fill="none" xmlns="http://www.w3.org/2000/svg">
<path d="M10.968 10.1105C10.968 9.68091 11.3075 9.33268 11.7263 9.33268L16.2763 9.33268C16.6951 9.33268 17.0346 9.68091 17.0346 10.1105V11.666C17.0346 12.0956 16.6951 12.4438 16.2763 12.4438L11.7263 12.4438C11.3075 12.4438 10.968 12.0956 10.968 11.666V10.1105Z" fill="#9B9C9C"/>
<path d="M10.968 15.9438C10.968 15.5142 11.3075 15.166 11.7263 15.166C11.7263 15.166 15.8575 15.166 16.2763 15.166C16.6951 15.166 17.0346 15.5142 17.0346 15.9438C17.0346 16.3733 16.6951 16.7216 16.2763 16.7216H11.7263C11.3075 16.7216 10.968 16.3733 10.968 15.9438Z" fill="#9B9C9C"/>
<path fill-rule="evenodd" clip-rule="evenodd" d="M6.41797 7.77713C6.41797 6.05891 7.77604 4.66602 9.45131 4.66602L18.5513 4.66602C20.2266 4.66602 21.5846 6.05891 21.5846 7.77713L21.5846 18.8605C21.5846 20.5787 20.2266 21.9716 18.5513 21.9716L9.4513 21.9716C7.77604 21.9716 6.41797 20.5787 6.41797 18.8605L6.41797 7.77713ZM9.45131 6.22157L18.5513 6.22157C19.3889 6.22157 20.068 6.91802 20.068 7.77713L20.068 18.8605C20.068 19.7196 19.3889 20.416 18.5513 20.416H9.4513C8.61367 20.416 7.93464 19.7196 7.93464 18.8605L7.93464 7.77713C7.93464 6.91802 8.61367 6.22157 9.45131 6.22157Z" fill="#9B9C9C"/>
</svg>
