<svg width="20" height="20" viewBox="0 0 20 20" fill="none" xmlns="http://www.w3.org/2000/svg">
<g clip-path="url(#clip0_13308_3900)">
<path fill-rule="evenodd" clip-rule="evenodd" d="M6.88888 14.478C6.79443 14.478 6.70081 14.4714 6.60866 14.4585V18.9613C6.60866 19.1206 6.78773 19.2143 6.9186 19.1234L10.0979 16.9151C10.1656 16.8681 10.2554 16.8681 10.323 16.9151L13.5023 19.1234C13.6332 19.2143 13.8123 19.1206 13.8123 18.9613V14.4582C13.6308 14.4836 13.4435 14.4848 13.2552 14.4592L12.2796 14.3268L11.5766 14.9794C11.1911 15.3373 10.6981 15.5139 10.2106 15.5139C9.72268 15.514 9.22989 15.3372 8.84448 14.9795L8.14137 14.3268L7.16579 14.4592C7.07315 14.4718 6.98058 14.478 6.88888 14.478Z" fill="white"/>
<path fill-rule="evenodd" clip-rule="evenodd" d="M7.05974 12.9206L8.20987 12.7645C8.3339 12.7476 8.45673 12.7859 8.54681 12.8695L9.38166 13.6445C9.61413 13.8602 9.91231 13.9681 10.2106 13.9681C10.5088 13.9681 10.8072 13.8602 11.0395 13.6445L11.8744 12.8695C11.9645 12.7859 12.0873 12.7477 12.2114 12.7645L13.3615 12.9206C14.002 13.0075 14.591 12.5967 14.7028 11.9855L14.9035 10.8877C14.9251 10.7693 15.001 10.669 15.1117 10.6127L16.1378 10.0902C16.7091 9.79941 16.9341 9.13482 16.6501 8.57727L16.14 7.57592C16.085 7.46787 16.085 7.34396 16.14 7.23594L16.6501 6.23458C16.9341 5.67704 16.7091 5.0125 16.1378 4.72164L15.1117 4.19923C15.001 4.14289 14.9251 4.04261 14.9034 3.92421L14.7028 2.82637C14.591 2.21512 14.0018 1.80438 13.3615 1.8913L12.2114 2.0474C12.0872 2.06422 11.9645 2.02592 11.8744 1.94233L11.0396 1.16739C10.5747 0.735882 9.84649 0.735857 9.38166 1.16739L8.54679 1.94241C8.45671 2.02603 8.33396 2.06424 8.20984 2.04748L7.05971 1.89137C6.41924 1.8044 5.83019 2.2152 5.71844 2.82645L5.51777 3.92424C5.4961 4.04267 5.42021 4.14292 5.30953 4.19928L4.28344 4.72169C3.71212 5.01252 3.48708 5.67711 3.77111 6.23466L4.28122 7.23599C4.33625 7.34404 4.33625 7.46795 4.28122 7.57597L3.77108 8.5773C3.48706 9.13485 3.7121 9.79939 4.28341 10.0902L5.3095 10.6127C5.42021 10.669 5.4961 10.7693 5.51777 10.8877L5.71844 11.9855C5.79817 12.4216 6.12082 12.7556 6.53175 12.8797C6.64517 12.9139 6.76531 12.9322 6.88893 12.9321C6.94522 12.9321 7.00233 12.9284 7.05974 12.9206ZM11.1318 5.96068L10.4546 3.87645C10.3778 3.64022 10.0436 3.64022 9.96686 3.87645L9.28966 5.96068C9.25533 6.06632 9.15689 6.13785 9.0458 6.13785H6.85432C6.60594 6.13785 6.50266 6.45569 6.70361 6.60169L8.47656 7.88981C8.56643 7.9551 8.60403 8.07083 8.5697 8.17648L7.8925 10.2607C7.81574 10.4969 8.08611 10.6934 8.28706 10.5474L10.06 9.25925C10.1499 9.19395 10.2716 9.19395 10.3614 9.25925L12.1344 10.5474C12.3353 10.6934 12.6057 10.4969 12.5289 10.2607L11.8517 8.17648C11.8174 8.07083 11.855 7.9551 11.9449 7.88981L13.7178 6.60169C13.9188 6.45569 13.8155 6.13785 13.5671 6.13785H11.3756C11.2646 6.13785 11.1661 6.06632 11.1318 5.96068Z" fill="white"/>
</g>
<defs>
<clipPath id="clip0_13308_3900">
<rect width="20" height="20" fill="white"/>
</clipPath>
</defs>
</svg>
