<svg width="32" height="32" viewBox="0 0 32 32" fill="none" xmlns="http://www.w3.org/2000/svg">
  <circle cx="16" cy="16" r="13.3333" fill="#2775CA"/>
  <path d="M19.2 16.08C18.64 15.48 17.88 15.16 17.04 15.16H14.96C14.24 15.16 13.64 14.54 13.64 13.8C13.64 13.44 13.76 13.12 14 12.88C14.24 12.64 14.52 12.52 14.84 12.52H17.04C17.56 12.52 18.04 12.84 18.22 13.36C18.4 13.84 18.88 14.08 19.36 13.92C19.8 13.76 20.04 13.28 19.9 12.84C19.5 11.68 18.48 10.88 17.24 10.84V9.6C17.24 9.12 16.84 8.72 16.36 8.72C15.88 8.72 15.48 9.12 15.48 9.6V10.82C14.76 10.86 14.12 11.18 13.6 11.72C13.04 12.32 12.76 13.08 12.76 13.8C12.76 15.44 14.08 16.72 15.72 16.72H17.92C18.24 16.72 18.52 16.84 18.74 17.08C18.96 17.32 19.08 17.64 19.08 17.96C19.08 18.64 18.52 19.2 17.84 19.2H15.72C15.2 19.2 14.76 18.88 14.6 18.4C14.44 17.94 13.96 17.72 13.5 17.9C13.04 18.08 12.82 18.6 13 19.04C13.4 20.2 14.4 20.96 15.64 21V22.24C15.64 22.72 16.04 23.12 16.52 23.12C17 23.12 17.4 22.72 17.4 22.24V21C18.96 20.92 20.24 19.56 20.24 17.96C20.24 17.12 19.92 16.4 19.2 16.08Z" fill="white"/>
</svg>
