<svg width="36" height="36" viewBox="0 0 36 36" fill="none" xmlns="http://www.w3.org/2000/svg">
<g clip-path="url(#clip0_13273_9697)">
<rect width="36" height="36" rx="18" fill="#1B1D1D"/>
<path fill-rule="evenodd" clip-rule="evenodd" d="M9.35626 19.1368L12.7193 15.0828C12.7714 15.0842 13.0816 14.9373 13.4883 14.7356L11.2409 7.62109C10.9916 7.65021 10.7681 7.79319 10.3952 8.14618C9.52325 8.97152 8.76381 10.1529 8.45096 11.5496C8.11161 13.0647 8.11804 13.48 8.13527 14.5918C8.13977 14.8822 8.145 15.2202 8.145 15.6377C8.145 17.6536 9.35626 19.1368 9.35626 19.1368Z" fill="#696A6A"/>
<path fill-rule="evenodd" clip-rule="evenodd" d="M26.6464 19.1368L23.2834 15.0828C23.2312 15.0842 22.9211 14.9373 22.5144 14.7356L24.7618 7.62109C25.0111 7.65021 25.2345 7.79319 25.6075 8.14618C26.4794 8.97152 27.2389 10.1529 27.5517 11.5496C27.8911 13.0647 27.8846 13.48 27.8674 14.5918C27.8629 14.8822 27.8577 15.2202 27.8577 15.6377C27.8577 17.6536 26.6464 19.1368 26.6464 19.1368Z" fill="#696A6A"/>
<path d="M23.7375 8.14617C22.9749 8.76553 20.7392 11.8132 20.1935 12.937C19.8353 13.6744 19.8789 13.6639 20.0524 13.6219C20.0803 13.6151 20.1117 13.6076 20.1452 13.6022C20.2317 13.5883 21.05 14.0005 21.83 14.3934C22.0685 14.5135 22.3033 14.6318 22.5126 14.7356L24.76 7.62108C24.4507 7.58495 24.1597 7.80323 23.7375 8.14617Z" fill="#47494A"/>
<path d="M15.8087 12.937C15.263 11.8132 13.0273 8.76553 12.2647 8.14617C11.8425 7.80323 11.5515 7.58495 11.2422 7.62108L13.4896 14.7356C13.6989 14.6318 13.9338 14.5135 14.1722 14.3934C14.9522 14.0005 15.7705 13.5883 15.857 13.6022C15.8906 13.6076 15.9219 13.6151 15.9498 13.6219C16.1233 13.6639 16.1669 13.6744 15.8087 12.937Z" fill="#47494A"/>
<path d="M27.8738 20.3601C27.8738 25.8125 22.5537 28.3018 18.0014 28.3018C13.449 28.3018 8.12891 25.8125 8.12891 20.3601C8.12891 14.9077 12.549 11.4629 18.0014 11.4629C23.4538 11.4629 27.8738 14.9077 27.8738 20.3601Z" fill="#696A6A"/>
<path d="M8.12891 13.5002H9.7603V20.8449H8.12891V13.5002Z" fill="#696A6A"/>
<path d="M26.2425 13.5002H27.8739V20.8449H26.2425V13.5002Z" fill="#696A6A"/>
<path d="M18.0022 28.3838C21.352 28.3838 25.8749 27.1448 27.266 23.3782L18.0022 18.0059L8.73828 23.3782C10.1295 27.1448 14.6523 28.3838 18.0022 28.3838Z" fill="#797A7B"/>
<path d="M18.0029 26.2705C19.1803 26.2705 20.1348 25.316 20.1348 24.1386V23.0332H15.8711V24.1386C15.8711 25.316 16.8256 26.2705 18.0029 26.2705Z" fill="#47494A"/>
<path d="M17.9941 21.8262C17.636 22.4575 16.9595 22.8809 16.185 22.8809C15.4105 22.8809 14.734 22.4575 14.3759 21.8262L13.1719 22.5091C13.7658 23.5561 14.8921 24.2651 16.185 24.2651C17.1388 24.2651 18.002 23.8792 18.6276 23.2564C18.85 23.035 18.1935 23.0156 18.3492 22.741L17.9941 21.8262Z" fill="#202326"/>
<path d="M21.6248 21.8262C21.2667 22.4575 20.5902 22.8809 19.8157 22.8809C19.0412 22.8809 18.3647 22.4575 18.0066 21.8262L17.6527 22.8809C17.8084 23.1554 17.1507 23.035 17.373 23.2564C17.9987 23.8792 18.8619 24.2651 19.8157 24.2651C21.1085 24.2651 22.2348 23.5561 22.8287 22.5091L21.6248 21.8262Z" fill="#202326"/>
<path d="M21.3319 19.8631L18 23.195L14.6681 19.8631H21.3319Z" fill="#202326"/>
<path d="M22.8046 16.2324C21.7907 16.2324 20.9688 17.0543 20.9688 18.0682H24.6404C24.6404 17.0543 23.8185 16.2324 22.8046 16.2324Z" fill="#202326"/>
<path d="M13.1991 16.2324C12.1852 16.2324 11.3633 17.0543 11.3633 18.0682H15.0349C15.0349 17.0543 14.213 16.2324 13.1991 16.2324Z" fill="#202326"/>
</g>
<defs>
<clipPath id="clip0_13273_9697">
<rect width="36" height="36" fill="white"/>
</clipPath>
</defs>
</svg>
