<svg width="20" height="20" viewBox="0 0 20 20" fill="none" xmlns="http://www.w3.org/2000/svg">
<g clip-path="url(#clip0_7645_9163)">
<mask id="mask0_7645_9163" style="mask-type:alpha" maskUnits="userSpaceOnUse" x="0" y="0" width="20" height="20">
<circle cx="10" cy="10" r="10" fill="#D9D9D9"/>
</mask>
<g mask="url(#mask0_7645_9163)">
<circle cx="10" cy="10" r="10" fill="#1F3A71"/>
<path d="M5.05371 10.0004L9.99889 5.05518H5.05371V10.0004Z" fill="#1F3A71"/>
<path d="M9.99889 14.9452L5.05371 10V14.9452H9.99889Z" fill="#1F3A71"/>
<path d="M9.99902 14.9452L14.9442 10V14.9452H9.99902Z" fill="#1F3A71"/>
<path d="M14.9442 9.99987L9.99902 5.05469H14.9442V9.99987Z" fill="#57B14B"/>
<path d="M9.99889 5.05518L5.05371 10.0004H9.99889V5.05518Z" fill="url(#paint0_linear_7645_9163)"/>
<path d="M5.05371 10L9.99889 14.9452V10H5.05371Z" fill="url(#paint1_linear_7645_9163)"/>
<path d="M14.9442 10L9.99902 14.9452V10H14.9442Z" fill="white"/>
<path d="M14.9442 9.99987L9.99902 5.05469V9.99987H14.9442Z" fill="url(#paint2_linear_7645_9163)"/>
<path fill-rule="evenodd" clip-rule="evenodd" d="M4.85645 4.85742H15.1424V15.1434H4.85645V4.85742ZM5.05425 5.05523V14.9456H14.9446V5.05523H5.05425Z" fill="white"/>
</g>
</g>
<defs>
<linearGradient id="paint0_linear_7645_9163" x1="7.53786" y1="7.54151" x2="10.0655" y2="10.0692" gradientUnits="userSpaceOnUse">
<stop stop-color="#E84726"/>
<stop offset="0.2" stop-color="#EB5B25"/>
<stop offset="0.52" stop-color="#F18422"/>
<stop offset="1" stop-color="#FFE301"/>
</linearGradient>
<linearGradient id="paint1_linear_7645_9163" x1="7.53769" y1="12.4618" x2="10.0655" y2="9.93405" gradientUnits="userSpaceOnUse">
<stop stop-color="#E84726"/>
<stop offset="0.2" stop-color="#EB5B25"/>
<stop offset="0.52" stop-color="#F18422"/>
<stop offset="1" stop-color="#FFE301"/>
</linearGradient>
<linearGradient id="paint2_linear_7645_9163" x1="12.486" y1="7.50396" x2="9.99345" y2="9.99655" gradientUnits="userSpaceOnUse">
<stop stop-color="#1C3F81"/>
<stop offset="0.2" stop-color="#174286"/>
<stop offset="0.52" stop-color="#0763AC"/>
<stop offset="1" stop-color="#28ABE3"/>
</linearGradient>
<clipPath id="clip0_7645_9163">
<rect width="20" height="20" fill="white"/>
</clipPath>
</defs>
</svg>
