<svg width="36" height="36" viewBox="0 0 36 36" fill="none" xmlns="http://www.w3.org/2000/svg">
<g clip-path="url(#clip0_13273_9873)">
<rect width="36" height="36" rx="18" fill="#3E2A74"/>
<rect x="7.34766" y="16.4492" width="21.3074" height="4.44634" fill="#6D4CBF"/>
<rect x="19.875" y="9.19336" width="15.3421" height="1.38947" transform="rotate(90 19.875 9.19336)" fill="#6D4CBF"/>
<rect x="10.9102" y="12.002" width="16.5419" height="13.339" fill="#9673F5"/>
<rect x="27.4531" y="12.002" width="2.26738" height="14.8666" transform="rotate(90 27.4531 12.002)" fill="white"/>
<rect x="12.5859" y="25.3418" width="3.71441" height="13.339" transform="rotate(-180 12.5859 25.3418)" fill="#6D4CBF"/>
<path d="M25.1793 17.0501C25.1793 17.807 24.5658 18.4205 23.8089 18.4205C23.0521 18.4205 22.4385 17.807 22.4385 17.0501C22.4385 16.2932 23.0521 15.6797 23.8089 15.6797C24.5658 15.6797 25.1793 16.2932 25.1793 17.0501Z" fill="#3E2A74"/>
<path d="M18.4674 17.0501C18.4674 17.807 17.8538 18.4205 17.097 18.4205C16.3401 18.4205 15.7266 17.807 15.7266 17.0501C15.7266 16.2932 16.3401 15.6797 17.097 15.6797C17.8538 15.6797 18.4674 16.2932 18.4674 17.0501Z" fill="#3E2A74"/>
<path d="M22.483 20.5446C22.081 21.2533 21.3216 21.7286 20.4522 21.7286C19.5828 21.7286 18.8234 21.2533 18.4215 20.5446L17.0699 21.3113C17.7366 22.4866 19.001 23.2824 20.4522 23.2824C21.9035 23.2824 23.1678 22.4866 23.8345 21.3113L22.483 20.5446Z" fill="#3E2A74"/>
<circle cx="19.1805" cy="8.04768" r="2.2469" fill="#6D4CBF"/>
<circle cx="19.8262" cy="7.40428" r="1.33787" fill="white"/>
</g>
<defs>
<clipPath id="clip0_13273_9873">
<rect width="36" height="36" fill="white"/>
</clipPath>
</defs>
</svg>
