<svg width="16" height="16" viewBox="0 0 16 16" fill="none" xmlns="http://www.w3.org/2000/svg">
<path fill-rule="evenodd" clip-rule="evenodd" d="M8.0013 1.33268C4.31941 1.33268 1.33464 4.31745 1.33464 7.99935C1.33464 11.6812 4.3194 14.666 8.0013 14.666C11.6832 14.666 14.668 11.6812 14.668 7.99935C14.668 4.31745 11.6832 1.33268 8.0013 1.33268ZM8.00249 12.04C7.45302 12.04 7.00759 11.5945 7.00759 11.0451L7.00759 7.63638C7.00759 7.08691 7.45302 6.64148 8.00249 6.64148C8.55196 6.64148 8.9974 7.08691 8.9974 7.63638L8.9974 11.0451C8.9974 11.5945 8.55196 12.04 8.00249 12.04ZM7.09878 4.86524C7.09878 4.36316 7.5058 3.95615 8.00787 3.95615C8.50995 3.95615 8.91696 4.36316 8.91696 4.86524C8.91696 5.36732 8.50995 5.77433 8.00787 5.77433C7.5058 5.77433 7.09878 5.36732 7.09878 4.86524Z" fill="#9B9C9C"/>
</svg>
