<svg width="20" height="20" viewBox="0 0 20 20" fill="none" xmlns="http://www.w3.org/2000/svg">
<path fill-rule="evenodd" clip-rule="evenodd" d="M10 3.4375C9.48223 3.4375 9.0625 3.85723 9.0625 4.375V9.0625H4.375C3.85723 9.0625 3.4375 9.48223 3.4375 10C3.4375 10.5178 3.85723 10.9375 4.375 10.9375H9.0625V15.625C9.0625 16.1428 9.48223 16.5625 10 16.5625C10.5178 16.5625 10.9375 16.1428 10.9375 15.625V10.9375H15.625C16.1428 10.9375 16.5625 10.5178 16.5625 10C16.5625 9.48223 16.1428 9.0625 15.625 9.0625H10.9375V4.375C10.9375 3.85723 10.5178 3.4375 10 3.4375Z" fill="white"/>
</svg>
