<svg preserveAspectRatio="none" width="100%" height="100%" overflow="visible" style="display: block;" viewBox="0 0 13.125 13.125" fill="none" xmlns="http://www.w3.org/2000/svg">
<path id="Vector" fill-rule="evenodd" clip-rule="evenodd" d="M6.5625 0C6.04473 0 5.625 0.419734 5.625 0.9375V5.625H0.9375C0.419733 5.625 0 6.04473 0 6.5625C0 7.08027 0.419734 7.5 0.9375 7.5H5.625V12.1875C5.625 12.7053 6.04473 13.125 6.5625 13.125C7.08027 13.125 7.5 12.7053 7.5 12.1875V7.5H12.1875C12.7053 7.5 13.125 7.08027 13.125 6.5625C13.125 6.04473 12.7053 5.625 12.1875 5.625H7.5V0.9375C7.5 0.419733 7.08027 0 6.5625 0Z" fill="var(--fill-0, white)"/>
</svg>
