<svg width="20" height="20" viewBox="0 0 20 20" fill="none" xmlns="http://www.w3.org/2000/svg">
<path fill-rule="evenodd" clip-rule="evenodd" d="M13.7513 1.66602C11.2201 1.66602 9.16797 3.71813 9.16797 6.24935C9.16797 8.78057 11.2201 10.8327 13.7513 10.8327C16.2825 10.8327 18.3346 8.78057 18.3346 6.24935C18.3346 3.71813 16.2825 1.66602 13.7513 1.66602ZM12.0829 4.70697V3.85324H15.444V4.53219H14.6455C14.6795 4.59055 14.7093 4.65217 14.7348 4.71705C14.7842 4.84104 14.8196 4.97324 14.8411 5.11366H15.4709V5.7926H14.8414C14.802 6.05254 14.7149 6.27998 14.5802 6.47491C14.3897 6.74828 14.0973 6.92642 13.703 7.00933C13.6066 7.02949 13.5259 7.04182 13.461 7.0463C13.4219 7.049 13.3763 7.05088 13.3242 7.05195L15.1684 8.69324H13.8979L12.0829 7.05302V6.1993H13.1719C13.219 6.1993 13.2705 6.19706 13.3265 6.19258C13.3825 6.1881 13.4341 6.17913 13.4811 6.16569C13.6044 6.12984 13.6996 6.0727 13.7668 5.99427C13.8197 5.93259 13.8594 5.86537 13.8859 5.7926H12.1098V5.11366H13.8852C13.8586 5.04032 13.8192 4.97309 13.7668 4.91199C13.6996 4.83133 13.6044 4.77419 13.4811 4.74058C13.4341 4.72713 13.3825 4.71817 13.3265 4.71369C13.2705 4.70921 13.219 4.70697 13.1719 4.70697H12.0829Z" fill="white"/>
<path fill-rule="evenodd" clip-rule="evenodd" d="M6.2513 9.16602C3.72008 9.16602 1.66797 11.2181 1.66797 13.7493C1.66797 16.2806 3.72008 18.3327 6.2513 18.3327C8.78252 18.3327 10.8346 16.2806 10.8346 13.7493C10.8346 11.2181 8.78252 9.16602 6.2513 9.16602ZM7.42312 13.7518C7.19605 13.5086 6.8863 13.3752 6.55079 13.3752H5.95166C5.67067 13.3752 5.4424 13.1401 5.4424 12.8514C5.4424 12.7061 5.49393 12.5751 5.58979 12.481C5.68745 12.3793 5.80727 12.3276 5.94567 12.3276H6.55079C6.75929 12.3276 6.95341 12.4685 7.0241 12.6724C7.0942 12.8664 7.29611 12.9649 7.48843 12.895C7.66996 12.8208 7.76582 12.6057 7.70172 12.4143C7.53336 11.9341 7.09959 11.6055 6.6107 11.5805V11.0679C6.6107 10.8615 6.44954 10.6938 6.25123 10.6938C6.05292 10.6938 5.89175 10.8615 5.89175 11.0679V11.5743C5.585 11.5893 5.30101 11.719 5.08532 11.9435C4.84867 12.1898 4.72345 12.5041 4.72345 12.8514C4.72345 13.556 5.27465 14.1297 5.95166 14.1297H6.55678C6.69638 14.1297 6.8222 14.1834 6.91267 14.2831C7.00793 14.3823 7.06005 14.5139 7.06005 14.6535C7.06005 14.9473 6.83897 15.1774 6.55678 15.1774H5.95166C5.73538 15.1774 5.54965 15.0452 5.47835 14.8375C5.40586 14.6442 5.19736 14.5475 5.01463 14.6224C4.8289 14.6978 4.73603 14.9148 4.80733 15.1031C4.97568 15.5833 5.39747 15.9001 5.89235 15.9238V16.4308C5.89235 16.6372 6.05352 16.8049 6.25183 16.8049C6.45014 16.8049 6.6113 16.6372 6.6113 16.4308V15.9244C7.26016 15.8914 7.779 15.3314 7.779 14.6473C7.779 14.3025 7.65259 13.9844 7.42312 13.7518Z" fill="white"/>
</svg>
