<svg preserveAspectRatio="none" width="100%" height="100%" overflow="visible" style="display: block;" viewBox="0 0 15 15" fill="none" xmlns="http://www.w3.org/2000/svg">
<path id="Vector" d="M13.3333 0H1.66667C0.75 0 0 0.75 0 1.66667V13.3333C0 14.25 0.75 15 1.66667 15H13.3333C14.25 15 15 14.25 15 13.3333V1.66667C15 0.75 14.25 0 13.3333 0ZM8.8 2.94167C9.04167 2.7 9.44167 2.7 9.68333 2.94167L10.4167 3.675L11.15 2.94167C11.3917 2.7 11.7917 2.7 12.0333 2.94167C12.275 3.18333 12.275 3.58333 12.0333 3.825L11.3 4.55833L12.0333 5.29167C12.275 5.53333 12.275 5.93333 12.0333 6.175C11.7917 6.41667 11.3917 6.41667 11.15 6.175L10.4167 5.45L9.68333 6.18333C9.44167 6.425 9.04167 6.425 8.8 6.18333C8.68377 6.06572 8.61858 5.90703 8.61858 5.74167C8.61858 5.57631 8.68377 5.41761 8.8 5.3L9.53333 4.56667L8.8 3.83333C8.55 3.58333 8.55 3.18333 8.8 2.94167ZM3.33333 3.93333H6.25C6.59167 3.93333 6.875 4.21667 6.875 4.55833C6.875 4.9 6.59167 5.18333 6.25 5.18333H3.33333C2.99167 5.18333 2.70833 4.9 2.70833 4.55833C2.70833 4.21667 2.99167 3.93333 3.33333 3.93333ZM6.45833 10.8333H5.41667V11.875C5.41667 12.2167 5.13333 12.5 4.79167 12.5C4.45 12.5 4.16667 12.2167 4.16667 11.875V10.8333H3.125C2.78333 10.8333 2.5 10.55 2.5 10.2083C2.5 9.86667 2.78333 9.58333 3.125 9.58333H4.16667V8.54167C4.16667 8.2 4.45 7.91667 4.79167 7.91667C5.13333 7.91667 5.41667 8.2 5.41667 8.54167V9.58333H6.45833C6.8 9.58333 7.08333 9.86667 7.08333 10.2083C7.08333 10.55 6.8 10.8333 6.45833 10.8333ZM11.875 11.875H8.95833C8.61667 11.875 8.33333 11.5917 8.33333 11.25C8.33333 10.9083 8.61667 10.625 8.95833 10.625H11.875C12.2167 10.625 12.5 10.9083 12.5 11.25C12.5 11.5917 12.2167 11.875 11.875 11.875ZM11.875 9.79167H8.95833C8.61667 9.79167 8.33333 9.50833 8.33333 9.16667C8.33333 8.825 8.61667 8.54167 8.95833 8.54167H11.875C12.2167 8.54167 12.5 8.825 12.5 9.16667C12.5 9.50833 12.2167 9.79167 11.875 9.79167Z" fill="var(--fill-0, white)"/>
</svg>
