<svg width="24" height="24" viewBox="0 0 24 24" fill="none" xmlns="http://www.w3.org/2000/svg">
  <circle cx="12" cy="12" r="12" fill="#2F9752"/>
  <g transform="translate(4.5 4.5) scale(1.5)">
    <path d="M9.86348 1.47485C9.79522 1.37255 9.69283 1.33845 9.55631 1.33845H7.40614C7.09898 1.33845 6.82594 1.23615 6.58703 1.06564L5.25597 0.0767263C5.11945 -0.0255754 4.91468 -0.0255754 4.74403 0.0767263L3.4471 1.06564C3.20819 1.23615 2.90102 1.33845 2.62799 1.33845H0.409556C0.307167 1.33845 0.170648 1.37255 0.102389 1.47485C0.0341297 1.54305 0 1.64535 0 1.78176C0.136519 3.28218 0.580205 4.78261 1.29693 6.28303C1.97952 7.68116 2.93515 8.84058 4.12969 9.7272C4.3686 9.8977 4.67577 10 4.98294 10C5.2901 10 5.56314 9.8977 5.83618 9.7272C7.06485 8.87468 8.02048 7.71526 8.70307 6.28303C9.4198 4.78261 9.86348 3.24808 10 1.78176C10 1.64535 9.96587 1.54305 9.86348 1.47485ZM7.06485 3.93009L4.30034 6.55584C4.26621 6.58994 4.23208 6.58994 4.19795 6.58994C4.16382 6.58994 4.09556 6.55584 4.09556 6.55584L2.96928 5.26002C2.90102 5.19182 2.93515 5.08951 2.96928 5.05541L3.27645 4.78261C3.31058 4.74851 3.34471 4.74851 3.41297 4.74851C3.4471 4.74851 3.48123 4.78261 3.51536 4.78261L4.26621 5.60102L6.58703 3.38448C6.62116 3.35038 6.65529 3.35038 6.68942 3.35038C6.72355 3.35038 6.75768 3.38448 6.79181 3.38448L7.06485 3.69139C7.13311 3.79369 7.13311 3.89599 7.06485 3.93009Z" fill="white"/>
  </g>
</svg>
