<svg width="20" height="20" viewBox="0 0 20 20" fill="none" xmlns="http://www.w3.org/2000/svg">
<g clip-path="url(#clip0_7646_9423)">
<path d="M20.0001 10.4417C19.9274 10.6884 19.8787 10.9449 19.7785 11.1802C19.2745 12.363 18.3789 13.0236 17.0884 13.1495C16.9425 13.1638 16.8855 13.1331 16.8863 12.9769C16.891 12.2682 16.888 11.5596 16.8817 10.851C16.8804 10.7221 16.9223 10.675 17.0512 10.6417C17.3557 10.5638 17.5421 10.2703 17.5062 9.97053C17.469 9.65979 17.236 9.42905 16.9142 9.41768C16.4495 9.40168 15.9844 9.40294 15.5197 9.40042C14.6956 9.39621 13.8711 9.39747 13.047 9.39242C11.5742 9.38315 10.7852 8.4042 10.622 7.08418C10.6161 7.03744 10.6258 6.9886 10.6292 6.91449C10.7121 6.91449 10.7873 6.91449 10.863 6.91449C12.8216 6.91449 14.7806 6.93302 16.7387 6.90944C18.4977 6.88839 19.7654 8.13725 19.9641 9.568C19.9675 9.59368 19.9878 9.61726 20.0001 9.64168V10.4417V10.4417Z" fill="#BF2E1B"/>
<path d="M0 9.68414C0.0600428 9.45508 0.100212 9.21845 0.183511 8.99823C0.633832 7.80201 1.50361 7.114 2.76916 6.92158C2.87191 6.906 2.97888 6.91947 3.10447 6.91947V9.3755C3.07318 9.38434 3.03977 9.39445 3.00594 9.40371C2.66302 9.49929 2.45203 9.78856 2.4977 10.1001C2.54759 10.4387 2.80933 10.6526 3.18396 10.6534C4.26177 10.6559 5.33958 10.6484 6.41697 10.6614C6.82331 10.6665 7.2415 10.6644 7.63262 10.757C8.63221 10.9936 9.1227 11.7183 9.33581 12.6686C9.35864 12.7709 9.36921 12.8758 9.3819 12.9802C9.38697 13.021 9.38274 13.0627 9.38274 13.1254C9.29817 13.1297 9.22291 13.136 9.14807 13.136C7.17596 13.1364 5.203 13.1111 3.23132 13.1444C1.57591 13.1726 0.227486 11.9486 0.0380553 10.4534C0.0338269 10.4206 0.0131079 10.3898 0 10.3582C0 10.1338 0 9.90898 0 9.68456L0 9.68414Z" fill="#BF2E1B"/>
<path d="M9.68277 19.9998C9.33562 19.8933 8.96649 19.831 8.64555 19.6723C7.58762 19.1485 7.00157 18.2845 6.88867 17.1068C6.87218 16.9337 6.92292 16.8743 7.10431 16.8764C7.78043 16.8844 8.45655 16.8798 9.13224 16.8735C9.27516 16.8722 9.35423 16.8962 9.39693 17.0613C9.47643 17.3695 9.7851 17.5362 10.1056 17.484C10.4007 17.4356 10.616 17.1804 10.6185 16.8545C10.6249 16.0411 10.6219 15.2276 10.627 14.4141C10.6303 13.8743 10.6134 13.3324 10.6549 12.7955C10.742 11.6646 11.4693 10.8797 12.5919 10.6625C12.7488 10.6322 12.9086 10.617 13.0921 10.5913C13.098 10.6936 13.1065 10.7682 13.1065 10.8427C13.1069 12.8482 13.112 14.8541 13.1052 16.8596C13.0997 18.4579 11.9822 19.727 10.3936 19.9611C10.353 19.967 10.3145 19.9868 10.2752 19.9998H9.68319H9.68277Z" fill="#BF2E1B"/>
<path d="M10.317 0C10.5411 0.0560006 10.7686 0.101475 10.9885 0.169686C12.1445 0.527585 13.0566 1.69855 13.1043 2.87709C13.1073 2.94572 13.1043 3.01435 13.1043 3.08719C13.065 3.09856 13.0388 3.11204 13.013 3.11204C12.273 3.1154 11.5335 3.11583 10.7935 3.12046C10.6836 3.1213 10.6405 3.08088 10.6088 2.9714C10.5111 2.63666 10.232 2.46277 9.90347 2.5095C9.58169 2.5554 9.37873 2.80424 9.37661 3.16719C9.36942 4.42321 9.36139 5.67922 9.3597 6.93482C9.35716 8.5361 8.24679 9.2519 7.06031 9.38916C7.01296 9.39464 6.96475 9.39 6.8916 9.39C6.8916 9.31253 6.8916 9.24432 6.8916 9.17611C6.8916 7.16219 6.89245 5.14827 6.89202 3.13477C6.89202 1.57012 7.98759 0.289688 9.54109 0.0387373C9.58972 0.0315793 9.63581 0.0134738 9.68274 0C9.89416 0 10.1056 0 10.317 0Z" fill="#BF2E1B"/>
<path d="M13.7682 16.1107C13.764 16.0316 13.7577 15.9625 13.7577 15.8935C13.7577 14.0269 13.7606 12.1604 13.7534 10.2942C13.7526 10.093 13.8071 10.0307 14.0118 10.0349C14.6807 10.0492 15.3505 10.0445 16.0198 10.0479C16.082 10.0479 16.1437 10.0563 16.2228 10.0622C16.227 10.1406 16.2342 10.2083 16.2342 10.2766C16.2342 11.4412 16.2473 12.6063 16.2304 13.7709C16.2084 15.2972 15.0723 16.0278 13.8558 16.1263C13.8359 16.128 13.8147 16.1196 13.7678 16.1111L13.7682 16.1107Z" fill="#BF2E1B"/>
<path d="M6.2356 10.0027H3.76919C3.76919 9.92653 3.76919 9.85284 3.76919 9.77958C3.76919 8.66504 3.76666 7.5505 3.76919 6.43638C3.77173 5.07594 4.54383 4.17867 5.89522 3.96098C6.00304 3.94372 6.11213 3.93362 6.23602 3.91846V10.0027H6.2356Z" fill="#BF2E1B"/>
<path d="M9.97911 16.2097C9.86536 16.2147 9.78206 16.2215 9.69919 16.2215C8.59305 16.2219 7.48733 16.2177 6.38119 16.2223C4.77822 16.229 4.02515 15.1187 3.90252 13.8332C3.90083 13.8139 3.9114 13.7932 3.92071 13.7549C3.99343 13.7511 4.0687 13.7435 4.14439 13.7435C6.00402 13.7431 7.86366 13.7461 9.72329 13.7398C9.92075 13.7389 9.99179 13.7835 9.98714 13.9941C9.97234 14.6463 9.97995 15.2985 9.97911 15.9512C9.97911 16.0274 9.97911 16.1036 9.97911 16.2097Z" fill="#BF2E1B"/>
<path d="M16.1121 6.22829C15.9903 6.23671 15.9011 6.2485 15.8119 6.2485C13.9662 6.24934 12.1205 6.24513 10.2748 6.25313C10.0571 6.25398 10 6.18661 10.0047 5.97776C10.0199 5.30449 10.0186 4.63122 10.0173 3.95753C10.0173 3.82111 10.0655 3.77269 10.2013 3.77311C11.3848 3.77774 12.5687 3.75416 13.7514 3.78616C14.9341 3.81816 15.7239 4.49143 16.0039 5.63544C16.0487 5.81818 16.0719 6.00597 16.1121 6.22787V6.22829Z" fill="#BF2E1B"/>
</g>
<defs>
<clipPath id="clip0_7646_9423">
<rect width="20" height="20" fill="white"/>
</clipPath>
</defs>
</svg>
