<svg width="20" height="20" viewBox="0 0 20 20" fill="none" xmlns="http://www.w3.org/2000/svg">
<path fill-rule="evenodd" clip-rule="evenodd" d="M9.9987 1.66732C5.39633 1.66732 1.66537 5.39828 1.66537 10.0006C1.66537 14.603 5.39633 18.334 9.9987 18.334C14.6011 18.334 18.332 14.603 18.332 10.0007C18.332 5.39828 14.6011 1.66732 9.9987 1.66732ZM10.0002 15.0514C9.31335 15.0514 8.75656 14.4946 8.75656 13.8078L8.75656 9.54694C8.75656 8.8601 9.31335 8.30331 10.0002 8.30331C10.687 8.30331 11.2438 8.8601 11.2438 9.54694L11.2438 13.8078C11.2438 14.4946 10.687 15.0514 10.0002 15.0514ZM8.87055 6.08301C8.87055 5.45542 9.37931 4.94665 10.0069 4.94665C10.6345 4.94665 11.1433 5.45542 11.1433 6.08301C11.1433 6.71061 10.6345 7.21938 10.0069 7.21938C9.37931 7.21938 8.87055 6.71061 8.87055 6.08301Z" fill="white"/>
</svg>
