<svg width="36" height="36" viewBox="0 0 36 36" fill="none" xmlns="http://www.w3.org/2000/svg">
<g clip-path="url(#clip0_13273_9686)">
<rect width="36" height="36" rx="18" fill="#1B1D1D"/>
<path d="M8.24219 20.9532C8.24219 24.7122 11.2894 27.7594 15.0484 27.7594C18.5204 27.7594 21.3851 25.1598 21.8024 21.8009C21.5247 21.8354 21.2418 21.8532 20.9547 21.8532C17.1957 21.8532 14.1484 18.8059 14.1484 15.0469C14.1484 14.7599 14.1662 14.4769 14.2007 14.1992C10.8418 14.6165 8.24219 17.4813 8.24219 20.9532Z" fill="#47494A"/>
<path d="M21.8547 20.9527C21.8547 17.1937 18.8074 14.1465 15.0484 14.1465C14.7614 14.1465 14.4784 14.1643 14.2007 14.1988C14.1662 14.4765 14.1484 14.7594 14.1484 15.0465C14.1484 18.8055 17.1957 21.8527 20.9547 21.8527C21.2418 21.8527 21.5247 21.835 21.8024 21.8005C21.8369 21.5227 21.8547 21.2398 21.8547 20.9527Z" fill="#7C7C7C"/>
<path d="M15.0469 14.1465C18.8059 14.1465 21.8532 17.1937 21.8532 20.9527C21.8532 21.2398 21.8354 21.5227 21.8009 21.8005C25.1598 21.3831 27.7594 18.5184 27.7594 15.0465C27.7594 11.2875 24.7122 8.24023 20.9532 8.24023C17.4813 8.24023 14.6165 10.8398 14.1992 14.1988C14.4769 14.1643 14.7599 14.1465 15.0469 14.1465Z" fill="#696A6A"/>
</g>
<defs>
<clipPath id="clip0_13273_9686">
<rect width="36" height="36" fill="white"/>
</clipPath>
</defs>
</svg>
