<svg width="24" height="24" viewBox="0 0 24 24" fill="none" xmlns="http://www.w3.org/2000/svg">
<path d="M19.7816 6.35976C19.6724 6.19608 19.5085 6.14152 19.2901 6.14152H15.8498C15.3584 6.14152 14.9215 5.97783 14.5392 5.70503L12.4096 4.12276C12.1911 3.95908 11.8635 3.95908 11.5904 4.12276L9.51536 5.70503C9.13311 5.97783 8.64164 6.14152 8.20478 6.14152H4.65529C4.49147 6.14152 4.27304 6.19608 4.16382 6.35976C4.05461 6.46888 4 6.63257 4 6.85081C4.21843 9.25149 4.92833 11.6522 6.07509 14.0529C7.16724 16.2899 8.69625 18.1449 10.6075 19.5635C10.9898 19.8363 11.4812 20 11.9727 20C12.4642 20 12.901 19.8363 13.3379 19.5635C15.3038 18.1995 16.8328 16.3444 17.9249 14.0529C19.0717 11.6522 19.7816 9.19693 20 6.85081C20 6.63257 19.9454 6.46888 19.7816 6.35976Z" fill="white"/>
</svg>
