<svg width="36" height="36" viewBox="0 0 36 36" fill="none" xmlns="http://www.w3.org/2000/svg">
<g clip-path="url(#clip0_13273_9691)">
<rect width="36" height="36" rx="18" fill="#1B1D1D"/>
<path d="M13.0643 10.2559L14.9882 15.455L20.1873 17.3788L14.9882 19.3026L13.0643 24.5017L11.1405 19.3026L5.94141 17.3788L11.1405 15.455L13.0643 10.2559Z" fill="#696A6A"/>
<path d="M11.1405 19.3026L13.0643 24.5017V10.2559L11.1405 15.455L5.94141 17.3788L11.1405 19.3026Z" fill="#47494A"/>
<path d="M23.535 6.88477L24.6797 9.97822L27.7732 11.1229L24.6797 12.2676L23.535 15.361L22.3903 12.2676L19.2969 11.1229L22.3903 9.97822L23.535 6.88477Z" fill="#696A6A"/>
<path d="M22.3903 12.2676L23.535 15.361V6.88477L22.3903 9.97822L19.2969 11.1229L22.3903 12.2676Z" fill="#47494A"/>
<path d="M21.9374 20.6387L23.082 23.7321L26.1755 24.8768L23.082 26.0215L21.9374 29.1149L20.7927 26.0215L17.6992 24.8768L20.7927 23.7321L21.9374 20.6387Z" fill="#696A6A"/>
<path d="M20.7927 26.0215L21.9374 29.1149V20.6387L20.7927 23.7321L17.6992 24.8768L20.7927 26.0215Z" fill="#47494A"/>
</g>
<defs>
<clipPath id="clip0_13273_9691">
<rect width="36" height="36" fill="white"/>
</clipPath>
</defs>
</svg>
