<svg width="20" height="20" viewBox="0 0 20 20" fill="none" xmlns="http://www.w3.org/2000/svg">
<path d="M16.4833 5.29972C16.3923 5.16332 16.2558 5.11785 16.0738 5.11785H13.2069C12.7973 5.11785 12.4333 4.98145 12.1147 4.75411L10.34 3.43555C10.158 3.29915 9.88493 3.29915 9.6574 3.43555L7.92816 4.75411C7.60962 4.98145 7.20006 5.11785 6.83601 5.11785H3.87811C3.74159 5.11785 3.55956 5.16332 3.46855 5.29972C3.37754 5.39065 3.33203 5.52706 3.33203 5.70893C3.51406 7.7095 4.10564 9.71006 5.06127 11.7106C5.97139 13.5748 7.24557 15.1207 8.83829 16.3028C9.15683 16.5302 9.56639 16.6666 9.97594 16.6666C10.3855 16.6666 10.7496 16.5302 11.1136 16.3028C12.7518 15.1662 14.026 13.6203 14.9361 11.7106C15.8918 9.71006 16.4833 7.66403 16.6654 5.70893C16.6654 5.52706 16.6199 5.39065 16.4833 5.29972ZM12.7518 8.57338L9.06582 12.0744C9.02031 12.1198 8.97481 12.1198 8.9293 12.1198C8.88379 12.1198 8.79278 12.0744 8.79278 12.0744L7.29108 10.3466C7.20006 10.2557 7.24557 10.1193 7.29108 10.0738L7.70063 9.71006C7.74614 9.6646 7.79164 9.6646 7.88266 9.6646C7.92816 9.6646 7.97367 9.71006 8.01918 9.71006L9.02031 10.8013L12.1147 7.8459C12.1602 7.80043 12.2058 7.80043 12.2513 7.80043C12.2968 7.80043 12.3423 7.8459 12.3878 7.8459L12.7518 8.2551C12.8428 8.39151 12.8428 8.52791 12.7518 8.57338Z" fill="#9B9C9C"/>
</svg>
