<svg preserveAspectRatio="none" width="100%" height="100%" overflow="visible" style="display: block;" viewBox="0 0 12.5 15" fill="none" xmlns="http://www.w3.org/2000/svg">
<path id="Subtract" fill-rule="evenodd" clip-rule="evenodd" d="M0 2.59615C0 1.16234 1.09496 0 2.44565 0H11.6848C12.135 0 12.5 0.387446 12.5 0.865385V10.6731C12.5 10.7057 12.4983 10.738 12.495 10.7697C12.4983 10.8001 12.5 10.831 12.5 10.8624C12.5 11.2856 12.1891 11.6286 11.8056 11.6286H2.22222C1.76198 11.6286 1.38889 12.0403 1.38889 12.5481C1.38889 13.0559 1.76198 13.4675 2.22222 13.4675H11.8056C12.1891 13.4675 12.5 13.8106 12.5 14.2338C12.5 14.6569 12.1891 15 11.8056 15H2.22222C1.07989 15 0.138868 14.049 0.0140518 12.8254L0 12.8365V2.59615ZM5.6938 6.67095C5.64761 6.88672 5.62451 7.10248 5.62451 7.31825H6.95494C6.95494 7.13518 6.96418 6.99623 6.98266 6.90143C7.00114 6.80662 7.0535 6.68402 7.13973 6.53364C7.18592 6.45845 7.23828 6.38652 7.29679 6.31787C7.35839 6.24595 7.42614 6.17075 7.50005 6.09229C7.57705 6.01056 7.66328 5.91575 7.75875 5.80787C7.98049 5.55614 8.16681 5.28479 8.31772 4.99383C8.46862 4.70287 8.54407 4.37922 8.54407 4.02287C8.54407 3.80056 8.50712 3.57989 8.43321 3.36085C8.35929 3.13854 8.25458 2.94402 8.11908 2.77729C7.91581 2.51248 7.65866 2.32287 7.34761 2.20845C7.03656 2.09075 6.70549 2.03191 6.3544 2.03191C6.1419 2.03191 5.9294 2.0646 5.7169 2.12998C5.5044 2.19537 5.31038 2.29018 5.13484 2.41441C4.89462 2.58114 4.69906 2.80998 4.54815 3.10095C4.39724 3.39191 4.30331 3.71229 4.26636 4.0621H5.59679C5.59371 3.9346 5.61219 3.81854 5.65223 3.71393C5.69534 3.60931 5.76002 3.52268 5.84625 3.45402C5.91708 3.39518 6.00177 3.35268 6.10032 3.32652C6.20196 3.30037 6.30512 3.28729 6.40984 3.28729C6.54842 3.28729 6.67777 3.31181 6.79788 3.36085C6.92107 3.40662 7.01962 3.48345 7.09353 3.59133C7.13973 3.65345 7.17052 3.72537 7.18592 3.8071C7.2044 3.88883 7.21364 3.97383 7.21364 4.0621C7.21364 4.2321 7.19208 4.38902 7.14897 4.53287C7.10893 4.67345 7.02578 4.81729 6.89951 4.96441C6.73628 5.14748 6.59462 5.2897 6.47451 5.39104C6.35748 5.49239 6.25277 5.5921 6.16038 5.69018C6.07107 5.78498 5.98792 5.91575 5.91092 6.08248C5.81545 6.25902 5.74308 6.45518 5.6938 6.67095ZM5.63375 7.81845V9.23075H6.95494V7.81845H5.63375Z" fill="var(--fill-0, white)"/>
</svg>
