<svg width="24" height="24" viewBox="0 0 24 24" fill="none" xmlns="http://www.w3.org/2000/svg">
<path fill-rule="evenodd" clip-rule="evenodd" d="M12.1943 4.8475C11.976 4.73514 11.7135 4.82971 11.6074 5.05388L9.88657 8.69085C9.71136 9.06113 9.37339 9.31655 8.98383 9.37559L5.13586 9.95881C5.04013 9.97332 4.95206 10.0203 4.88514 10.0919C4.71784 10.2709 4.72127 10.5565 4.89302 10.7311L7.67743 13.5621C7.96041 13.8498 8.09015 14.2652 8.02312 14.6728L7.36581 18.6702C7.34975 18.7679 7.36496 18.8684 7.40932 18.9564C7.52092 19.1779 7.78577 19.2653 8.00112 19.1472L11.4428 17.2599C11.7917 17.0686 12.2081 17.0686 12.557 17.2599L15.9987 19.1472C16.084 19.194 16.182 19.2103 16.2774 19.1932C16.5172 19.1503 16.6742 18.9144 16.634 18.6702L15.9767 14.6728C15.9097 14.2652 16.0394 13.8498 16.3224 13.5621L19.1068 10.7311C19.1754 10.6613 19.2198 10.5703 19.2334 10.4722C19.2676 10.2271 19.1049 9.99532 18.864 9.95881L15.016 9.37559C14.6264 9.31655 14.2885 9.06113 14.1133 8.69085L12.3924 5.05388C12.3502 4.96472 12.2807 4.892 12.1943 4.8475ZM10.9251 4.69794C11.219 4.07686 11.9376 3.82439 12.5297 4.12919C12.7659 4.2508 12.9577 4.45052 13.0747 4.69794L14.7956 8.33491C14.8587 8.46834 14.9815 8.56207 15.1248 8.5838L18.9728 9.16702C19.6262 9.26605 20.0831 9.90035 19.9873 10.588C19.9492 10.8614 19.8258 11.1136 19.6368 11.3058L16.8524 14.1368C16.7497 14.2412 16.7035 14.3908 16.7275 14.5367L17.3848 18.5341C17.4974 19.219 17.0562 19.8654 16.4053 19.9818C16.146 20.0282 15.8792 19.9842 15.646 19.8563L12.2043 17.969C12.0764 17.8989 11.9234 17.8989 11.7956 17.969L8.35383 19.8563C7.76931 20.1769 7.04483 19.9435 6.73591 19.3307C6.61281 19.0864 6.57024 18.8064 6.61501 18.5341L7.27233 14.5367C7.29633 14.3908 7.2501 14.2412 7.14743 14.1368L4.36302 11.3058C3.88765 10.8225 3.87784 10.0275 4.34132 9.53159C4.52558 9.33443 4.76663 9.20648 5.02701 9.16702L8.87498 8.5838C9.01835 8.56207 9.1411 8.46834 9.20424 8.3349L10.9251 4.69794Z" fill="white"/>
</svg>
