<svg width="16" height="16" viewBox="0 0 16 16" fill="none" xmlns="http://www.w3.org/2000/svg">
<path d="M10.6622 6.20207C10.6622 6.20207 10.3361 5.86499 9.87951 5.86499H6.10159C5.65589 5.86499 5.32977 6.20207 5.32977 6.20207C5.32977 6.20207 2.54688 8.6628 2.54688 11.5393C2.54688 13.1798 3.74265 14 4.53621 14H11.4666C12.2602 14 13.456 13.1798 13.456 11.5393C13.4451 8.6628 10.6622 6.20207 10.6622 6.20207Z" fill="#4D88FF"/>
<path d="M10.4809 2.50953C10.4301 2.49202 10.3792 2.47451 10.3114 2.47451H9.04066C8.53234 1.87905 7.65126 1.84402 7.07517 2.36943C7.04128 2.40445 7.00739 2.43948 6.97351 2.47451H5.70272C5.44856 2.47451 5.24524 2.68467 5.24524 2.94737C5.24524 2.99991 5.26218 3.06997 5.27912 3.12251L5.70272 4.38348H5.73661L5.70272 4.401C5.70272 4.401 5.83827 4.7863 6.0416 4.7863H9.98951C10.1759 4.7863 10.3284 4.401 10.3284 4.401L10.1928 4.38348H10.3453L10.752 3.12251C10.8367 2.87732 10.7181 2.61462 10.4809 2.50953Z" fill="#4D88FF"/>
</svg>
