<svg width="36" height="36" viewBox="0 0 36 36" fill="none" xmlns="http://www.w3.org/2000/svg">
<g clip-path="url(#clip0_13273_9877)">
<rect width="36" height="36" rx="18" fill="#112C67"/>
<path d="M7.03125 19.6074V22.3699L17.997 29.6433L28.9627 22.3699L28.9627 19.6074L7.03125 19.6074Z" fill="#73A2F5"/>
<path d="M17.9961 19.6074V29.6433L28.9618 22.3699L28.9618 19.6074L17.9961 19.6074Z" fill="white"/>
<path d="M17.997 12.3535L7.03125 19.6269L17.997 26.9003L28.9627 19.6269L17.997 12.3535Z" fill="#3362C2"/>
<path d="M7.03125 13.6094V16.3719L17.997 23.6452L28.9627 16.3719L28.9627 13.6094L7.03125 13.6094Z" fill="#73A2F5"/>
<path d="M17.9961 13.6094V23.6452L28.9618 16.3719L28.9618 13.6094L17.9961 13.6094Z" fill="white"/>
<path d="M17.997 6.35547L7.03125 13.6288L17.997 20.9022L28.9627 13.6288L17.997 6.35547Z" fill="#3362C2"/>
</g>
<defs>
<clipPath id="clip0_13273_9877">
<rect width="36" height="36" fill="white"/>
</clipPath>
</defs>
</svg>
