<svg preserveAspectRatio="none" width="100%" height="100%" overflow="visible" style="display: block;" viewBox="0 0 15.1667 17.3056" fill="none" xmlns="http://www.w3.org/2000/svg">
<g id="Vector">
<path d="M4.55 5.44444C4.55 5.01489 4.88952 4.66667 5.30834 4.66667H9.85834C10.2772 4.66667 10.6167 5.01489 10.6167 5.44444V7C10.6167 7.42956 10.2772 7.77778 9.85834 7.77778H5.30834C4.88952 7.77778 4.55 7.42956 4.55 7V5.44444Z" fill="var(--fill-0, #9B9C9C)"/>
<path d="M4.55 11.2778C4.55 10.8482 4.88952 10.5 5.30834 10.5C5.30834 10.5 9.43952 10.5 9.85834 10.5C10.2772 10.5 10.6167 10.8482 10.6167 11.2778C10.6167 11.7073 10.2772 12.0556 9.85834 12.0556H5.30834C4.88952 12.0556 4.55 11.7073 4.55 11.2778Z" fill="var(--fill-0, #9B9C9C)"/>
<path fill-rule="evenodd" clip-rule="evenodd" d="M3.33786e-06 3.11111C3.33786e-06 1.39289 1.35807 0 3.03334 0H12.1333C13.8086 0 15.1667 1.39289 15.1667 3.11111L15.1667 14.1944C15.1667 15.9127 13.8086 17.3056 12.1333 17.3056H3.03333C1.35807 17.3056 0 15.9127 0 14.1944L3.33786e-06 3.11111ZM3.03334 1.55556H12.1333C12.971 1.55556 13.65 2.252 13.65 3.11111L13.65 14.1944C13.65 15.0536 12.971 15.75 12.1333 15.75H3.03333C2.1957 15.75 1.51667 15.0536 1.51667 14.1944L1.51667 3.11111C1.51667 2.252 2.1957 1.55556 3.03334 1.55556Z" fill="var(--fill-0, #9B9C9C)"/>
</g>
</svg>
