<svg width="36" height="36" viewBox="0 0 36 36" fill="none" xmlns="http://www.w3.org/2000/svg">
<g clip-path="url(#clip0_13273_9881)">
<rect width="36" height="36" rx="18" fill="#3E2A74"/>
<path d="M16.8546 22.7489C17.8604 21.7431 17.8604 20.1124 16.8546 19.1066C15.8489 18.1008 14.2181 18.1008 13.2124 19.1066L9.01759 23.3014C8.0118 24.3071 8.0118 25.9378 9.01759 26.9436C10.0234 27.9494 11.6541 27.9494 12.6599 26.9436L16.8546 22.7489Z" fill="#7560D0"/>
<path d="M9.01842 23.3022L13.2132 19.1074C14.219 18.1016 15.8497 18.1016 16.8555 19.1074L9.01842 26.9445C8.01263 25.9387 8.01263 24.308 9.01842 23.3022Z" fill="#6D4CBF"/>
<path d="M20.7343 7.94147L26.9782 8.98213L15.0365 20.9239L11.3942 17.2816L20.7343 7.94147Z" fill="#9673F5"/>
<path d="M28.0195 15.2247L26.9788 8.98076L15.0371 20.9225L18.6793 24.5648L28.0195 15.2247Z" fill="white"/>
<path d="M9.207 14.916L16.4265 19.5339L21.0444 26.7535L18.8543 28.9436L7.01687 17.1062L9.207 14.916Z" fill="#6D4CBF"/>
</g>
<defs>
<clipPath id="clip0_13273_9881">
<rect width="36" height="36" fill="white"/>
</clipPath>
</defs>
</svg>
