<svg width="20" height="20" viewBox="0 0 20 20" fill="none" xmlns="http://www.w3.org/2000/svg">
<path fill-rule="evenodd" clip-rule="evenodd" d="M18.4387 10.0006C18.4387 14.6609 14.6609 18.4387 10.0006 18.4387C5.34037 18.4387 1.5625 14.6609 1.5625 10.0006C1.5625 5.34037 5.34037 1.5625 10.0006 1.5625C14.6609 1.5625 18.4387 5.34037 18.4387 10.0006ZM10.0006 16.7721C13.7404 16.7721 16.7721 13.7404 16.7721 10.0006C16.7721 6.26085 13.7404 3.22917 10.0006 3.22917C6.26085 3.22917 3.22917 6.26085 3.22917 10.0006C3.22917 13.7404 6.26085 16.7721 10.0006 16.7721Z" fill="white"/>
<path d="M5.21248 14.7887C5.99989 15.5762 6.96934 16.1572 8.03496 16.4805C9.10058 16.8037 10.2295 16.8592 11.3217 16.6419C12.4138 16.4247 13.4356 15.9414 14.2964 15.235C15.1572 14.5286 15.8305 13.6207 16.2566 12.5919C16.6828 11.5631 16.8486 10.4451 16.7394 9.33689C16.6303 8.22868 16.2495 7.1645 15.6309 6.2386C15.0122 5.3127 14.1747 4.55366 13.1926 4.02873C12.2106 3.5038 11.1142 3.22917 10.0006 3.22917L10.0006 10.0006L5.21248 14.7887Z" fill="white"/>
</svg>
