<svg preserveAspectRatio="none" width="100%" height="100%" overflow="visible" style="display: block;" viewBox="0 0 14.8337 16.3148" fill="none" xmlns="http://www.w3.org/2000/svg">
<path id="Vector" d="M0.750193 4.4537L3.34279 5.93519M3.34279 5.93519L7.41686 8.15741M3.34279 5.93519L0.750193 6.67593M3.34279 5.93519L2.97242 3.34259M14.0835 11.8611L11.4909 10.3796M11.4909 10.3796L7.41686 8.15741M11.4909 10.3796L11.8613 12.9722M11.4909 10.3796L14.0835 9.63889M7.41686 8.15741L3.34279 10.3796M7.41686 8.15741V2.97222M7.41686 8.15741V12.9722M7.41686 8.15741L11.4909 5.93519M3.34279 10.3796L0.750193 11.8611M3.34279 10.3796L0.750193 9.63889M3.34279 10.3796L2.97242 12.9722M7.41686 2.97222V0.75M7.41686 2.97222L5.56501 2.23148M7.41686 2.97222L9.26871 2.23148M7.41686 12.9722V15.5648M7.41686 12.9722L9.26871 14.0833M7.41686 12.9722L5.56501 14.0833M11.4909 5.93519L14.0835 4.4537M11.4909 5.93519L14.0835 6.67593M11.4909 5.93519L11.8613 3.34259" stroke="var(--stroke-0, white)" stroke-width="1.5" stroke-linecap="round" stroke-linejoin="round"/>
</svg>
