<svg width="20" height="20" viewBox="0 0 20 20" fill="none" xmlns="http://www.w3.org/2000/svg">
<path d="M11.4818 11.3449C11.0263 11.3449 10.6684 11.7204 10.6684 12.1982V14.8512C10.6684 15.3291 11.0263 15.7045 11.4818 15.7045H12.6043C13.0599 15.7045 13.4178 15.3291 13.4178 14.8512V12.1982C13.4178 11.7204 13.0599 11.3449 12.6043 11.3449H11.4818Z" fill="white"/>
<path d="M7.39702 9.93666C6.94149 9.93666 6.58358 10.3121 6.58358 10.7899V14.8512C6.58358 15.3291 6.94149 15.7045 7.39702 15.7045H8.51956C8.97509 15.7045 9.333 15.3291 9.333 14.8512V10.7899C9.333 10.3121 8.97509 9.93666 8.51956 9.93666H7.39702Z" fill="white"/>
<path d="M3.31344 5.5743C2.85791 5.5743 2.5 5.94972 2.5 6.42753V14.8484C2.5 15.3262 2.85791 15.7016 3.31344 15.7016H4.43599C4.89151 15.7016 5.24942 15.3262 5.24942 14.8484V6.42753C5.24942 5.94972 4.89151 5.5743 4.43599 5.5743H3.31344Z" fill="white"/>
<path d="M15.564 4.16602C15.1085 4.16602 14.7506 4.54144 14.7506 5.01924V14.8484C14.7506 15.3262 15.1085 15.7016 15.564 15.7016H16.6866C17.1421 15.7016 17.5 15.3262 17.5 14.8484V5.01924C17.5 4.54144 17.1421 4.16602 16.6866 4.16602H15.564Z" fill="white"/>
</svg>
