<svg width="37" height="37" viewBox="0 0 37 37" fill="none" xmlns="http://www.w3.org/2000/svg">
<path d="M13.5101 6.28295C12.223 5.86598 10.8234 5.9917 9.62996 6.6314C8.79132 7.10426 8.18143 7.9021 7.94203 8.8394C7.69373 9.89842 7.90723 11.0137 8.52814 11.9037H7.89494C7.40434 11.9053 6.93412 12.1025 6.58721 12.452C6.2403 12.8015 6.04454 13.2751 6.04297 13.7693V16.4556C6.04297 16.8763 6.38155 17.2173 6.79915 17.2173H16.6223C16.9235 17.2026 17.1645 16.9598 17.1791 16.6565V10.7228C17.226 8.81582 15.7487 6.95615 13.5101 6.28295ZM14.8345 10.9058C14.7579 11.1879 14.5661 11.4238 14.307 11.5553C13.7081 11.8529 13.0163 11.8974 12.3847 11.6794C11.0777 11.2838 10.3626 10.2153 10.5385 9.4949C10.6123 9.21182 10.802 8.97355 11.0599 8.83939C11.3847 8.66649 11.7479 8.57924 12.1149 8.58557C12.4106 8.589 12.7045 8.63275 12.9883 8.71551C14.2484 9.11694 14.9811 10.1915 14.8345 10.9058Z" fill="#275CFD"/>
<path d="M16.74 18.9896H7.65564C7.41413 18.9928 7.2192 19.1891 7.21606 19.4324V27.5922C7.21606 28.2859 7.48949 28.9512 7.97646 29.4417C8.4634 29.9322 9.12383 30.2077 9.81249 30.2077H16.7406C16.9821 30.2045 17.1771 30.0082 17.1802 29.7649V19.433C17.1771 19.1898 16.9815 18.9928 16.74 18.9896Z" fill="#275CFD"/>
<path d="M28.5965 18.9896H19.5121C19.2706 18.9928 19.0757 19.1891 19.0726 19.4324V29.7642C19.0757 30.0075 19.2706 30.2039 19.5121 30.207H26.4403C27.1289 30.207 27.7894 29.9316 28.2763 29.4411C28.7632 28.9506 29.0367 28.2853 29.0367 27.5916V19.4318C29.0336 19.1885 28.838 18.9928 28.5965 18.9896Z" fill="#275CFD"/>
<path d="M28.3577 11.9037H27.6952C28.3161 11.0137 28.5296 9.89843 28.2813 8.8394C28.0419 7.9021 27.432 7.10428 26.5934 6.63141C25.4 5.99171 24.0004 5.86597 22.7133 6.28296C20.5039 6.95613 19.0268 8.81592 19.0736 10.7229V16.6566C19.0893 16.971 19.3471 17.2177 19.6597 17.2174H29.4535C29.8711 17.2174 30.2096 16.8764 30.2096 16.4557V13.7694C30.2081 13.2752 30.0123 12.8015 29.6654 12.4521C29.3184 12.1026 28.8483 11.9053 28.3577 11.9037ZM23.8975 11.6852C23.2748 11.8953 22.5948 11.8507 22.0042 11.5613C21.7451 11.4298 21.5533 11.1937 21.4767 10.9119C21.3008 10.1976 22.0159 9.14067 23.3229 8.72738C23.6068 8.64462 23.9006 8.60087 24.1963 8.59744C24.5634 8.59085 24.9265 8.67835 25.2513 8.85126C25.5093 8.98542 25.699 9.22369 25.7728 9.50677C25.9193 10.2211 25.2045 11.3133 23.8975 11.6852Z" fill="#275CFD"/>
</svg>
