<svg width="20" height="20" viewBox="0 0 20 20" fill="none" xmlns="http://www.w3.org/2000/svg">
<path d="M14.4594 17.15L14.3528 17.0269C14.3876 17.0674 14.4232 17.1085 14.4594 17.15Z" fill="#FCD536"/>
<path fill-rule="evenodd" clip-rule="evenodd" d="M11.2296 2.5H7.93443C5.39638 2.5 3.33203 4.64356 3.33203 7.27898V10.4742C3.33203 13.1096 5.39638 15.2532 7.93443 15.2532H10.8747C12.6834 15.2532 13.0687 15.4782 13.9155 16.5047L13.9225 16.5132C14.0521 16.6701 14.1951 16.8434 14.3528 17.0269C14.6168 17.3188 14.811 17.5 15.1963 17.5C15.5815 17.5 15.7933 17.2016 15.8284 16.8116L15.832 16.8103V7.27898C15.832 4.64356 13.7677 2.5 11.2296 2.5ZM7.97541 5.9894C8.3304 5.60284 8.8738 5.33595 9.62449 5.33595C10.5268 5.33595 11.0678 5.68484 11.3682 6.14032C11.6544 6.57424 11.6883 7.05429 11.6883 7.26994C11.6883 7.72222 11.5061 8.0994 11.2696 8.40863C11.0358 8.71428 10.7347 8.97187 10.4677 9.18813L10.4636 9.19146C10.2829 9.33277 10.2049 9.43694 10.1706 9.50079C10.1402 9.55739 10.1376 9.59363 10.1376 9.62422V9.92106C10.1376 10.2859 9.83959 10.5551 9.51002 10.5551C9.18044 10.5551 8.8824 10.2859 8.8824 9.92106V9.62422C8.8824 9.07218 9.17543 8.6004 9.67701 8.19675L9.67825 8.19575C9.89657 8.02192 10.0898 7.85749 10.2285 7.69022C10.3675 7.52265 10.4226 7.38686 10.4226 7.26994C10.4226 6.99507 10.3513 6.85231 10.2583 6.76933C10.1556 6.67775 9.96608 6.604 9.62449 6.604C9.12263 6.604 8.92413 6.79527 8.83554 6.93424C8.7386 7.0863 8.73273 7.2413 8.73273 7.2413L8.73271 7.24007V7.46443C8.73271 7.82931 8.43467 8.09845 8.10509 8.09845C7.77551 8.09845 7.47747 7.82931 7.47747 7.46443V7.23924C7.47747 6.84476 7.62718 6.36861 7.97541 5.9894ZM8.77332 12.0625C8.77332 11.5975 9.15157 11.2495 9.5829 11.2495C10.0142 11.2495 10.3925 11.5975 10.3925 12.0625C10.3925 12.5275 10.0142 12.8755 9.5829 12.8755C9.15157 12.8755 8.77332 12.5275 8.77332 12.0625Z" fill="#FCD536"/>
</svg>
