<svg width="24" height="24" viewBox="0 0 24 24" fill="none" xmlns="http://www.w3.org/2000/svg">
<path d="M11.9992 9.5C12.8276 9.5 13.4992 8.82843 13.4992 8C13.4992 7.17157 12.8276 6.5 11.9992 6.5C11.1708 6.5 10.4992 7.17157 10.4992 8C10.4992 8.82843 11.1708 9.5 11.9992 9.5Z" fill="white"/>
<path fill-rule="evenodd" clip-rule="evenodd" d="M3.5 5.5C3.5 4.11929 4.61929 3 6 3H18C19.3807 3 20.5 4.11929 20.5 5.5C20.5 6.80105 19.5061 7.86998 18.2362 7.98899V19.8724C18.2362 19.9539 18.203 20.032 18.1442 20.0885L16.3665 21.7997C16.2503 21.9116 16.0665 21.9116 15.9504 21.7997L14.2887 20.2003C14.1725 20.0884 13.9888 20.0884 13.8726 20.2003L12.2109 21.7997C12.0947 21.9116 11.911 21.9116 11.7948 21.7997L10.1331 20.2003C10.017 20.0884 9.8332 20.0884 9.71704 20.2003L8.05536 21.7997C7.93919 21.9116 7.75542 21.9116 7.63926 21.7997L5.86148 20.0885C5.80273 20.032 5.76953 19.9539 5.76953 19.8724V4.25506C5.13226 4.31231 4.63281 4.84783 4.63281 5.5V5.61667C4.63281 6.24259 5.14022 6.75 5.76615 6.75V7.98921C4.49509 7.87129 3.5 6.80185 3.5 5.5ZM18.2362 4.25569V6.74999C18.8606 6.74817 19.3661 6.24146 19.3661 5.61667V5.5C19.3661 4.85014 18.8702 4.31611 18.2362 4.25569ZM8.03438 16C8.03438 15.7239 8.25823 15.5 8.53438 15.5H15.4677C15.7439 15.5 15.9677 15.7239 15.9677 16C15.9677 16.2761 15.7439 16.5 15.4677 16.5H8.53437C8.25823 16.5 8.03438 16.2761 8.03438 16ZM8.53438 13.5C8.25823 13.5 8.03438 13.7239 8.03438 14C8.03438 14.2761 8.25823 14.5 8.53437 14.5H13.201C13.4772 14.5 13.701 14.2761 13.701 14C13.701 13.7239 13.4772 13.5 13.201 13.5H8.53438ZM8.03438 12C8.03438 11.7239 8.25823 11.5 8.53438 11.5H10.9344C11.2105 11.5 11.4344 11.7239 11.4344 12C11.4344 12.2761 11.2105 12.5 10.9344 12.5H8.53437C8.25823 12.5 8.03438 12.2761 8.03438 12ZM13.0677 11.5C12.7916 11.5 12.5677 11.7239 12.5677 12C12.5677 12.2761 12.7916 12.5 13.0677 12.5H15.4677C15.7439 12.5 15.9677 12.2761 15.9677 12C15.9677 11.7239 15.7439 11.5 15.4677 11.5H13.0677ZM11.9992 10.5C13.3799 10.5 14.4992 9.38071 14.4992 8C14.4992 6.61929 13.3799 5.5 11.9992 5.5C10.6185 5.5 9.49922 6.61929 9.49922 8C9.49922 9.38071 10.6185 10.5 11.9992 10.5Z" fill="white"/>
</svg>
