<svg width="24" height="24" viewBox="0 0 24 24" fill="none" xmlns="http://www.w3.org/2000/svg">
<path d="M12 1.875C17.5919 1.875 22.125 6.40812 22.125 12C22.125 17.5919 17.5919 22.125 12 22.125C6.40812 22.125 1.875 17.5919 1.875 12C1.875 6.40812 6.40812 1.875 12 1.875ZM12 6.375C11.3787 6.375 10.875 6.87868 10.875 7.5V10.875H7.5C6.87868 10.875 6.375 11.3787 6.375 12C6.375 12.6213 6.87868 13.125 7.5 13.125H10.875V16.5C10.875 17.1213 11.3787 17.625 12 17.625C12.6213 17.625 13.125 17.1213 13.125 16.5V13.125H16.5C17.1213 13.125 17.625 12.6213 17.625 12C17.625 11.3787 17.1213 10.875 16.5 10.875H13.125V7.5C13.125 6.87868 12.6213 6.375 12 6.375Z" fill="white"/>
</svg>
