<svg width="60" height="60" viewBox="0 0 60 60" fill="none" xmlns="http://www.w3.org/2000/svg">
<path d="M7.69473 25.3242C7.56889 25.1145 7.51908 24.8678 7.55367 24.6257L9.69357 9.64644C9.86951 8.41482 10.9243 7.5 12.1684 7.5H22.499L21.3 26.6851C17.5893 30.7942 10.7045 30.3405 7.69473 25.3242Z" fill="#58595A"/>
<path d="M23.8003 26.6804L24.999 7.5H34.999L36.1979 26.6826C32.8173 30.1018 27.1799 30.101 23.8003 26.6804Z" fill="#58595A"/>
<path d="M38.6979 26.6823C42.408 30.7944 49.2952 30.3417 52.3057 25.3242C52.4315 25.1145 52.4813 24.8678 52.4467 24.6257L50.3068 9.64645C50.1309 8.41482 49.0761 7.5 47.832 7.5H37.499L38.6979 26.6823Z" fill="#58595A"/>
<path d="M50.0002 30.669V45C50.0002 49.1421 46.6423 52.5 42.5002 52.5H37.499C36.1183 52.5 34.999 51.3807 34.999 50V45C34.999 43.6193 33.8797 42.5 32.499 42.5H27.499C26.1183 42.5 24.999 43.6193 24.999 45V50C24.999 51.3807 23.8797 52.5 22.499 52.5H17.5002C13.3581 52.5 10.0002 49.1421 10.0002 45V30.669C13.7431 33.7028 19.598 33.1033 22.5002 28.75C26.0681 34.1018 33.9323 34.1018 37.5002 28.75C40.4024 33.1033 46.2573 33.7028 50.0002 30.669Z" fill="#58595A"/>
</svg>
