<svg width="152" height="118" viewBox="0 0 152 118" fill="none" xmlns="http://www.w3.org/2000/svg">
<g opacity="0.5" clip-path="url(#clip0_13293_4409)">
<path d="M140.478 120.544C140.478 122.237 136.118 123.611 130.739 123.611C125.36 123.611 121 122.237 121 120.544C121 118.85 125.36 117.475 130.739 117.475C136.118 117.475 140.478 118.849 140.478 120.544Z" fill="#F0B637"/>
<path d="M130.739 121.234C136.118 121.234 140.478 119.861 140.478 118.167C140.478 116.473 136.118 115.1 130.739 115.1C125.36 115.1 121 116.473 121 118.167C121 119.861 125.36 121.234 130.739 121.234Z" fill="#FFD000"/>
<path d="M130.739 121.234C136.118 121.234 140.478 119.861 140.478 118.167C140.478 116.473 136.118 115.1 130.739 115.1C125.36 115.1 121 116.473 121 118.167C121 119.861 125.36 121.234 130.739 121.234Z" fill="url(#paint0_radial_13293_4409)"/>
<path d="M140.476 114.318H121V116.756H140.476V114.318Z" fill="#F0B637"/>
<path d="M130.739 119.811C136.118 119.811 140.478 118.437 140.478 116.743C140.478 115.049 136.118 113.676 130.739 113.676C125.36 113.676 121 115.049 121 116.743C121 118.437 125.36 119.811 130.739 119.811Z" fill="#F0B637"/>
<path d="M140.478 114.368C140.478 116.061 136.118 117.435 130.739 117.435C125.36 117.435 121 116.061 121 114.368C121 112.675 125.36 111.299 130.739 111.299C136.118 111.299 140.478 112.673 140.478 114.368Z" fill="#FFD000"/>
<path d="M140.478 114.368C140.478 116.061 136.118 117.435 130.739 117.435C125.36 117.435 121 116.061 121 114.368C121 112.675 125.36 111.299 130.739 111.299C136.118 111.299 140.478 112.673 140.478 114.368Z" fill="url(#paint1_radial_13293_4409)"/>
<path d="M140.476 110.693H121V113.131H140.476V110.693Z" fill="#F0B637"/>
<path d="M140.478 113.118C140.478 114.813 136.118 116.187 130.739 116.187C125.36 116.187 121 114.813 121 113.118C121 111.423 125.36 110.051 130.739 110.051C136.118 110.051 140.478 111.425 140.478 113.118Z" fill="#F0B637"/>
<path d="M140.478 110.741C140.478 112.436 136.118 113.81 130.739 113.81C125.36 113.81 121 112.436 121 110.741C121 109.046 125.36 107.674 130.739 107.674C136.118 107.674 140.478 109.048 140.478 110.741Z" fill="#FFD000"/>
<path d="M140.478 110.741C140.478 112.436 136.118 113.81 130.739 113.81C125.36 113.81 121 112.436 121 110.741C121 109.046 125.36 107.674 130.739 107.674C136.118 107.674 140.478 109.048 140.478 110.741Z" fill="url(#paint2_radial_13293_4409)"/>
<path d="M140.476 107.02H121V109.457H140.476V107.02Z" fill="#F0B637"/>
<path d="M140.478 109.444C140.478 111.139 136.118 112.513 130.739 112.513C125.36 112.513 121 111.139 121 109.444C121 107.749 125.36 106.377 130.739 106.377C136.118 106.377 140.478 107.751 140.478 109.444Z" fill="#F0B637"/>
<path d="M130.739 110.135C136.118 110.135 140.478 108.761 140.478 107.067C140.478 105.373 136.118 104 130.739 104C125.36 104 121 105.373 121 107.067C121 108.761 125.36 110.135 130.739 110.135Z" fill="#FFD000"/>
<path d="M130.739 110.135C136.118 110.135 140.478 108.761 140.478 107.067C140.478 105.373 136.118 104 130.739 104C125.36 104 121 105.373 121 107.067C121 108.761 125.36 110.135 130.739 110.135Z" fill="url(#paint3_radial_13293_4409)"/>
<path fill-rule="evenodd" clip-rule="evenodd" d="M131.316 106.765C131.268 106.765 131.018 106.754 130.47 106.72C130.036 106.695 129.732 106.672 129.625 106.663C127.989 106.537 126.865 106.361 126.976 106.239C127.087 106.118 128.338 106.089 129.929 106.155L129.693 106.562C129.8 106.573 130.107 106.598 130.537 106.623C131.053 106.654 131.317 106.661 131.365 106.661L131.541 106.254C133.149 106.372 134.356 106.548 134.339 106.675C134.323 106.803 133.027 106.844 131.317 106.77L131.316 106.765ZM131.556 106.207L131.7 105.872L133.87 105.994L133.963 105.515L128.425 105.219L128.043 105.669L130.149 105.786L129.95 106.116C128.152 106.042 126.712 106.091 126.566 106.245C126.42 106.399 127.687 106.623 129.553 106.769L128.689 108.204L130.635 108.331L131.262 106.876C133.217 106.959 134.71 106.9 134.725 106.727C134.74 106.555 133.363 106.347 131.548 106.213L131.556 106.207Z" fill="#F5AC1B"/>
<path d="M21.5946 123.602C26.9733 123.602 31.3336 122.228 31.3336 120.534C31.3336 118.84 26.9733 117.467 21.5946 117.467C16.2158 117.467 11.8555 118.84 11.8555 120.534C11.8555 122.228 16.2158 123.602 21.5946 123.602Z" fill="#FFD000"/>
<path d="M21.5946 123.602C26.9733 123.602 31.3336 122.228 31.3336 120.534C31.3336 118.84 26.9733 117.467 21.5946 117.467C16.2158 117.467 11.8555 118.84 11.8555 120.534C11.8555 122.228 16.2158 123.602 21.5946 123.602Z" fill="url(#paint4_radial_13293_4409)"/>
<path d="M31.3318 117.021H11.8555V119.459H31.3318V117.021Z" fill="#F0B637"/>
<path d="M21.5946 122.514C26.9733 122.514 31.3336 121.14 31.3336 119.446C31.3336 117.752 26.9733 116.379 21.5946 116.379C16.2158 116.379 11.8555 117.752 11.8555 119.446C11.8555 121.14 16.2158 122.514 21.5946 122.514Z" fill="#F0B637"/>
<path d="M31.3336 117.069C31.3336 118.764 26.9736 120.138 21.5946 120.138C16.2156 120.138 11.8555 118.764 11.8555 117.069C11.8555 115.374 16.2156 114.002 21.5946 114.002C26.9736 114.002 31.3336 115.376 31.3336 117.069Z" fill="#FFD000"/>
<path d="M31.3336 117.069C31.3336 118.764 26.9736 120.138 21.5946 120.138C16.2156 120.138 11.8555 118.764 11.8555 117.069C11.8555 115.374 16.2156 114.002 21.5946 114.002C26.9736 114.002 31.3336 115.376 31.3336 117.069Z" fill="url(#paint5_radial_13293_4409)"/>
<path d="M31.3318 113.396H11.8555V115.834H31.3318V113.396Z" fill="#F0B637"/>
<path d="M31.3336 115.821C31.3336 117.516 26.9736 118.889 21.5946 118.889C16.2156 118.889 11.8555 117.516 11.8555 115.821C11.8555 114.126 16.2156 112.754 21.5946 112.754C26.9736 112.754 31.3336 114.126 31.3336 115.821Z" fill="#F0B637"/>
<path d="M31.3336 113.444C31.3336 115.139 26.9736 116.514 21.5946 116.514C16.2156 116.514 11.8555 115.139 11.8555 113.444C11.8555 111.749 16.2156 110.377 21.5946 110.377C26.9736 110.377 31.3336 111.751 31.3336 113.444Z" fill="#FFD000"/>
<path d="M31.3336 113.444C31.3336 115.139 26.9736 116.514 21.5946 116.514C16.2156 116.514 11.8555 115.139 11.8555 113.444C11.8555 111.749 16.2156 110.377 21.5946 110.377C26.9736 110.377 31.3336 111.751 31.3336 113.444Z" fill="url(#paint6_radial_13293_4409)"/>
<path d="M31.3318 109.723H11.8555V112.16H31.3318V109.723Z" fill="#F0B637"/>
<path d="M31.3336 112.147C31.3336 113.842 26.9736 115.215 21.5946 115.215C16.2156 115.215 11.8555 113.842 11.8555 112.147C11.8555 110.452 16.2156 109.078 21.5946 109.078C26.9736 109.078 31.3336 110.452 31.3336 112.147Z" fill="#F0B637"/>
<path d="M21.5946 112.838C26.9733 112.838 31.3336 111.465 31.3336 109.77C31.3336 108.076 26.9733 106.703 21.5946 106.703C16.2158 106.703 11.8555 108.076 11.8555 109.77C11.8555 111.465 16.2158 112.838 21.5946 112.838Z" fill="#FFD000"/>
<path d="M21.5946 112.838C26.9733 112.838 31.3336 111.465 31.3336 109.77C31.3336 108.076 26.9733 106.703 21.5946 106.703C16.2158 106.703 11.8555 108.076 11.8555 109.77C11.8555 111.465 16.2158 112.838 21.5946 112.838Z" fill="url(#paint7_radial_13293_4409)"/>
<path d="M31.3318 106.098H11.8555V108.535H31.3318V106.098Z" fill="#F0B637"/>
<path d="M31.3336 108.522C31.3336 110.216 26.9736 111.59 21.5946 111.59C16.2156 111.59 11.8555 110.216 11.8555 108.522C11.8555 106.829 16.2156 105.453 21.5946 105.453C26.9736 105.453 31.3336 106.827 31.3336 108.522Z" fill="#F0B637"/>
<path d="M21.5946 109.213C26.9733 109.213 31.3336 107.84 31.3336 106.145C31.3336 104.451 26.9733 103.078 21.5946 103.078C16.2158 103.078 11.8555 104.451 11.8555 106.145C11.8555 107.84 16.2158 109.213 21.5946 109.213Z" fill="#FFD000"/>
<path d="M21.5946 109.213C26.9733 109.213 31.3336 107.84 31.3336 106.145C31.3336 104.451 26.9733 103.078 21.5946 103.078C16.2158 103.078 11.8555 104.451 11.8555 106.145C11.8555 107.84 16.2158 109.213 21.5946 109.213Z" fill="url(#paint8_radial_13293_4409)"/>
<path d="M31.3318 102.297H11.8555V104.735H31.3318V102.297Z" fill="#F0B637"/>
<path d="M21.5946 107.789C26.9733 107.789 31.3336 106.416 31.3336 104.722C31.3336 103.028 26.9733 101.654 21.5946 101.654C16.2158 101.654 11.8555 103.028 11.8555 104.722C11.8555 106.416 16.2158 107.789 21.5946 107.789Z" fill="#F0B637"/>
<path d="M31.3336 102.346C31.3336 104.04 26.9736 105.414 21.5946 105.414C16.2156 105.414 11.8555 104.04 11.8555 102.346C11.8555 100.653 16.2156 99.2773 21.5946 99.2773C26.9736 99.2773 31.3336 100.651 31.3336 102.346Z" fill="#FFD000"/>
<path d="M31.3336 102.346C31.3336 104.04 26.9736 105.414 21.5946 105.414C16.2156 105.414 11.8555 104.04 11.8555 102.346C11.8555 100.653 16.2156 99.2773 21.5946 99.2773C26.9736 99.2773 31.3336 100.651 31.3336 102.346Z" fill="url(#paint9_radial_13293_4409)"/>
<path d="M31.3318 98.6719H11.8555V101.11H31.3318V98.6719Z" fill="#F0B637"/>
<path d="M31.3336 101.097C31.3336 102.792 26.9736 104.166 21.5946 104.166C16.2156 104.166 11.8555 102.792 11.8555 101.097C11.8555 99.4016 16.2156 98.0293 21.5946 98.0293C26.9736 98.0293 31.3336 99.4034 31.3336 101.097Z" fill="#F0B637"/>
<path d="M31.3336 98.7197C31.3336 100.415 26.9736 101.789 21.5946 101.789C16.2156 101.789 11.8555 100.415 11.8555 98.7197C11.8555 97.0246 16.2156 95.6523 21.5946 95.6523C26.9736 95.6523 31.3336 97.0264 31.3336 98.7197Z" fill="#FFD000"/>
<path d="M31.3336 98.7197C31.3336 100.415 26.9736 101.789 21.5946 101.789C16.2156 101.789 11.8555 100.415 11.8555 98.7197C11.8555 97.0246 16.2156 95.6523 21.5946 95.6523C26.9736 95.6523 31.3336 97.0264 31.3336 98.7197Z" fill="url(#paint10_radial_13293_4409)"/>
<path d="M31.3318 94.998H11.8555V97.4358H31.3318V94.998Z" fill="#F0B637"/>
<path d="M31.3336 97.4229C31.3336 99.118 26.9736 100.492 21.5946 100.492C16.2156 100.492 11.8555 99.118 11.8555 97.4229C11.8555 95.7277 16.2156 94.3555 21.5946 94.3555C26.9736 94.3555 31.3336 95.7295 31.3336 97.4229Z" fill="#F0B637"/>
<path d="M21.5946 98.1132C26.9733 98.1132 31.3336 96.7399 31.3336 95.0459C31.3336 93.3518 26.9733 91.9785 21.5946 91.9785C16.2158 91.9785 11.8555 93.3518 11.8555 95.0459C11.8555 96.7399 16.2158 98.1132 21.5946 98.1132Z" fill="#FFD000"/>
<path d="M21.5946 98.1132C26.9733 98.1132 31.3336 96.7399 31.3336 95.0459C31.3336 93.3518 26.9733 91.9785 21.5946 91.9785C16.2158 91.9785 11.8555 93.3518 11.8555 95.0459C11.8555 96.7399 16.2158 98.1132 21.5946 98.1132Z" fill="url(#paint11_radial_13293_4409)"/>
<path fill-rule="evenodd" clip-rule="evenodd" d="M22.1711 94.7435C22.1231 94.7435 21.8739 94.7328 21.3257 94.6987C20.8919 94.6736 20.5873 94.6503 20.4802 94.6413C18.8447 94.5157 17.7206 94.34 17.8313 94.218C17.9421 94.096 19.1936 94.0673 20.7848 94.1337L20.5485 94.5408C20.6556 94.5516 20.962 94.5767 21.3921 94.6018C21.909 94.6323 22.173 94.6395 22.221 94.6395L22.3963 94.2323C24.0041 94.3507 25.2113 94.5265 25.1947 94.6538C25.1781 94.7812 23.8822 94.8225 22.1729 94.749L22.1711 94.7435ZM22.4111 94.1857L22.5551 93.8502L24.7258 93.9722L24.8181 93.4933L19.2804 93.1973L18.8983 93.6476L21.0045 93.7641L20.8052 94.0942C19.0072 94.0206 17.5674 94.0691 17.4216 94.2233C17.2757 94.3776 18.5421 94.6018 20.4083 94.7471L19.5444 96.1821L21.49 96.3095L22.1176 94.8548C24.0724 94.9373 25.5657 94.8781 25.5805 94.7059C25.5953 94.5337 24.2182 94.3256 22.4037 94.191L22.4111 94.1857Z" fill="#F5AC1B"/>
<rect width="30.0194" height="17.4569" transform="matrix(0.993248 0.11601 -0.116744 0.993162 21.9766 45.8418)" fill="#D8FFD5"/>
<path d="M27.9007 57.6465L28.7578 51.75L31.1034 52.0888C31.5033 52.1465 31.8188 52.2743 32.0501 52.4722C32.2845 52.6677 32.4453 52.8986 32.5324 53.1648C32.6223 53.4314 32.648 53.6971 32.6095 53.9619C32.5622 54.2867 32.4441 54.5512 32.2551 54.7552C32.0688 54.9596 31.8371 55.0823 31.5599 55.123L31.5897 54.9183C31.9498 55.0567 32.2063 55.2735 32.3591 55.5688C32.5147 55.8644 32.5676 56.1828 32.518 56.524C32.4673 56.8734 32.3557 57.1695 32.1834 57.4122C32.0111 57.6549 31.7815 57.8307 31.4944 57.9398C31.2101 58.0492 30.8735 58.0759 30.4846 58.0197L27.9007 57.6465ZM29.0381 56.8617L30.4964 57.0724C30.669 57.0973 30.8287 57.0855 30.9755 57.037C31.1228 56.9858 31.2439 56.903 31.3388 56.7885C31.4369 56.6717 31.4986 56.5259 31.524 56.3512C31.547 56.1929 31.5334 56.046 31.4832 55.9105C31.433 55.775 31.3475 55.661 31.2268 55.5683C31.1064 55.4728 30.9545 55.4119 30.771 55.3854L29.284 55.1706L29.0381 56.8617ZM29.4179 54.2493L30.7488 54.4415C30.8913 54.4621 31.0226 54.4532 31.1428 54.4148C31.263 54.3764 31.3637 54.3087 31.4449 54.2118C31.5261 54.1148 31.578 53.9885 31.6007 53.8329C31.6304 53.6282 31.5895 53.4481 31.4779 53.2926C31.3663 53.1371 31.1927 53.0423 30.9572 53.0083L29.6262 52.8161L29.4179 54.2493Z" fill="#78AB72"/>
<path d="M34.729 58.7623C34.4003 58.7149 34.1371 58.6211 33.9394 58.481C33.7417 58.341 33.5921 58.1773 33.4907 57.9898C33.3894 57.8024 33.3224 57.6087 33.29 57.409C33.2575 57.2092 33.244 57.0233 33.2494 56.8512C33.258 56.6769 33.27 56.5365 33.2855 56.43L33.6444 53.9609L34.6467 54.1056L34.3372 56.2349C34.3174 56.3714 34.3045 56.527 34.2987 56.7018C34.2933 56.8738 34.3133 57.0439 34.3587 57.2121C34.4073 57.378 34.4927 57.5214 34.615 57.6421C34.74 57.7633 34.9202 57.8409 35.1557 57.8749C35.2817 57.8931 35.4093 57.8906 35.5385 57.8675C35.6677 57.8443 35.7887 57.7908 35.9016 57.7067C36.0176 57.6203 36.1184 57.4942 36.2041 57.3282C36.2897 57.1621 36.352 56.9454 36.3909 56.6778L36.942 57.0125C36.8872 57.3892 36.7637 57.7197 36.5714 58.0041C36.3818 58.2889 36.1313 58.5022 35.8199 58.6439C35.5089 58.783 35.1452 58.8224 34.729 58.7623ZM36.1975 58.8448L36.3969 57.4731L36.2778 57.4559L36.7212 54.4052L37.7153 54.5488L37.0725 58.9712L36.1975 58.8448Z" fill="#78AB72"/>
<path d="M38.5242 61.1876L39.7185 58.9729L39.635 59.6632L38.3888 54.6461L39.4199 54.795L40.2824 58.4983L40.0195 58.4604L41.8641 55.148L42.8541 55.291L39.4526 61.3217L38.5242 61.1876Z" fill="#78AB72"/>
<path d="M30.9322 73.256C31.1252 74.1178 31.3641 74.9688 31.6479 75.8055C31.9374 76.6593 32.2763 77.4958 32.663 78.3107C33.1514 79.3389 33.6665 80.3495 34.2852 81.3059C34.9038 82.2624 35.6163 83.1234 36.3716 83.9714C36.9613 84.638 37.6108 85.2495 38.312 85.7983C38.8414 86.2065 39.398 86.5786 39.9626 86.9343C40.3408 87.1725 40.7315 87.3904 41.133 87.5869C41.5402 87.7862 41.9584 87.9625 42.3855 88.1148C43.0272 88.3528 43.6818 88.5544 44.3462 88.7185C44.8133 88.8267 45.2861 88.9079 45.7624 88.9616C46.4787 89.0464 47.1991 89.0906 47.9201 89.0942C49.2395 89.0961 50.5389 88.8897 51.8266 88.6182C53.0564 88.3523 54.2594 87.9759 55.4208 87.4935C55.7348 87.3652 56.0473 87.2298 56.3581 87.0872C56.7078 86.9888 57.0246 86.7987 57.2753 86.5367C57.5612 86.3286 57.7862 86.0481 57.927 85.7241C58.2035 85.0913 58.2515 84.3819 58.0629 83.7166L57.7465 83.0706C57.4839 82.6753 57.1201 82.3571 56.6929 82.1491L56.0444 81.9294C55.5901 81.8374 55.1199 81.8648 54.6799 82.0087C53.4361 82.5845 52.1419 83.0456 50.8135 83.3865C50.4715 83.4729 50.1289 83.5482 49.7858 83.6124L50.4699 83.4825C49.4817 83.6727 48.4769 83.7653 47.4701 83.759C47.2013 83.7558 46.9328 83.7445 46.6648 83.7253L47.348 83.7749C46.5237 83.7165 45.7071 83.5766 44.9101 83.3574C44.6912 83.2971 44.4749 83.2296 44.2612 83.155L44.9103 83.3743C44.1289 83.1085 43.3764 82.7643 42.6643 82.3471C42.4657 82.2305 42.2713 82.1087 42.0783 81.9825L42.6591 82.3676C41.8404 81.8219 41.0816 81.1916 40.3952 80.4872C40.2009 80.2885 40.012 80.0849 39.8282 79.8764L40.3037 80.4169C39.4448 79.4312 38.694 78.3568 38.0639 77.2123C37.8834 76.8878 37.7127 76.5577 37.5488 76.2248L37.8652 76.8708C37.2253 75.5517 36.7089 74.1767 36.3229 72.7633C36.2166 72.3774 36.1194 71.9875 36.0312 71.5936C35.9319 71.2457 35.7413 70.9304 35.4791 70.6803C35.2695 70.3945 34.9877 70.1693 34.6625 70.0278C34.0273 69.7504 33.316 69.7008 32.6495 69.8874L32.0026 70.2014C31.6071 70.4627 31.2889 70.8247 31.0811 71.2501L30.8624 71.8964C30.7713 72.3493 30.7998 72.8184 30.9452 73.2576L30.9322 73.256Z" fill="#98D2F3"/>
<path d="M38.3766 64.3771C38.7001 67.579 36.6096 70.4144 33.7051 70.7092C30.8006 71.004 28.1846 68.6488 27.8599 65.4466C27.8142 64.9957 27.8162 64.5412 27.8658 64.0906" stroke="#5E90AD" stroke-width="10" stroke-miterlimit="10"/>
<path d="M121.746 65.3877C121.952 66.2296 122.114 67.0819 122.229 67.9411C122.347 68.8178 122.414 69.7007 122.43 70.5853C122.449 71.7018 122.437 72.8143 122.311 73.9241C122.184 75.034 121.933 76.1005 121.639 77.1741C121.411 78.0164 121.107 78.8362 120.729 79.6232C120.442 80.2119 120.115 80.7808 119.773 81.3386C119.545 81.7123 119.296 82.0734 119.029 82.4204C118.757 82.7725 118.467 83.109 118.157 83.4282C117.697 83.916 117.209 84.3774 116.696 84.8099C116.332 85.1078 115.952 85.3844 115.556 85.6383C114.963 86.0235 114.349 86.375 113.716 86.691C112.556 87.2651 111.323 87.6472 110.071 87.967C108.873 88.2667 107.651 88.4574 106.418 88.5369C106.086 88.5603 105.752 88.5767 105.417 88.5861C105.066 88.6513 104.704 88.6215 104.369 88.4997C104.027 88.4407 103.706 88.2915 103.441 88.0676C102.922 87.6308 102.57 87.0276 102.445 86.3605L102.441 85.655C102.5 85.1933 102.681 84.7555 102.966 84.3872L103.441 83.9126C103.8 83.6346 104.226 83.4546 104.676 83.3904C106.021 83.3573 107.361 83.2015 108.678 82.9251C109.017 82.8526 109.351 82.7703 109.681 82.6779L109.023 82.8604C109.975 82.5991 110.899 82.2446 111.782 81.8023C112.017 81.6828 112.249 81.5564 112.476 81.4233L111.897 81.7633C112.596 81.3542 113.254 80.8769 113.859 80.3383C114.025 80.1903 114.186 80.0371 114.342 79.8788L113.866 80.3533C114.438 79.7804 114.95 79.1512 115.394 78.4752C115.518 78.2865 115.635 78.095 115.75 77.9002L115.407 78.4911C115.889 77.6558 116.282 76.772 116.578 75.8546C116.662 75.5955 116.739 75.3344 116.81 75.0713L116.628 75.7531C116.953 74.5133 117.144 73.2424 117.199 71.9622C117.216 71.5984 117.222 71.234 117.221 70.87L117.225 71.5756C117.212 70.1375 117.066 68.7039 116.788 67.293C116.713 66.9074 116.628 66.5222 116.534 66.1374C116.469 65.7883 116.5 65.4282 116.621 65.0944C116.681 64.7521 116.83 64.4317 117.055 64.1661C117.492 63.6466 118.096 63.2944 118.764 63.1693L119.47 63.1649C119.932 63.2232 120.37 63.4037 120.739 63.6877L121.213 64.1614C121.491 64.5203 121.671 64.9453 121.735 65.3948L121.746 65.3877Z" fill="#98D2F3"/>
<path d="M111.939 59.04C112.713 62.1025 115.593 64.022 118.372 63.3258C121.152 62.6296 122.777 59.5843 122.003 56.5212C121.894 56.0899 121.74 55.6712 121.543 55.2719" stroke="#5E90AD" stroke-width="10" stroke-miterlimit="10"/>
<path d="M46.799 93.0906C45.1704 93.0889 43.6089 92.4403 42.4572 91.2869C41.3056 90.1336 40.6579 88.5697 40.6562 86.9387V84.2183C40.6579 82.5873 41.3056 81.0234 42.4572 79.8701C43.6089 78.7167 45.1704 78.0681 46.799 78.0664H49.9947C50.3202 78.0666 50.6323 78.1963 50.8625 78.4268C51.0927 78.6573 51.2221 78.9699 51.2223 79.2959V91.8611C51.2221 92.1871 51.0927 92.4997 50.8625 92.7302C50.6323 92.9607 50.3202 93.0904 49.9947 93.0906H46.799Z" fill="#5E90AD"/>
<path d="M103.435 93.0906C103.109 93.0904 102.797 92.9607 102.567 92.7302C102.337 92.4997 102.207 92.1871 102.207 91.8611V79.2959C102.207 78.9699 102.337 78.6573 102.567 78.4268C102.797 78.1963 103.109 78.0666 103.435 78.0664H106.63C108.259 78.0681 109.82 78.7167 110.972 79.8701C112.124 81.0234 112.771 82.5873 112.773 84.2183V86.9387C112.771 88.5697 112.124 90.1336 110.972 91.2869C109.82 92.4403 108.259 93.0889 106.63 93.0906H103.435Z" fill="#5E90AD"/>
<path d="M57.4263 73.3661L57.9008 73.5219C59.6815 74.1063 61.601 73.1433 62.1881 71.3708L62.79 69.554C63.3772 67.7816 62.4096 65.871 60.6289 65.2866L60.1544 65.1309C58.3737 64.5464 56.4542 65.5095 55.8671 67.2819L55.2652 69.0987C54.678 70.8711 55.6456 72.7817 57.4263 73.3661Z" fill="#5E90AD"/>
<path d="M98.0698 73.3369L97.5953 73.4926C95.8146 74.077 93.8951 73.114 93.3079 71.3415L92.7061 69.5247C92.1189 67.7523 93.0865 65.8417 94.8672 65.2573L95.3416 65.1016C97.1223 64.5171 99.0419 65.4802 99.629 67.2526L100.231 69.0694C100.818 70.8418 99.8505 72.7524 98.0698 73.3369Z" fill="#5E90AD"/>
<path d="M81.8155 48.5494L80.6289 48.2031L77.0525 60.3453L78.2391 60.6915L81.8155 48.5494Z" fill="#98D2F3"/>
<path d="M77.7196 96.0947C72.342 96.0947 67.2895 94.002 63.4873 90.202C59.6852 86.402 57.5938 81.3519 57.5938 75.979C57.5938 70.6061 59.6868 65.5551 63.4873 61.756C67.2878 57.9569 72.3437 55.8633 77.7196 55.8633C83.0956 55.8633 88.1498 57.956 91.9519 61.756C95.7541 65.556 97.8455 70.6061 97.8455 75.979C97.8455 81.3519 95.7524 86.4029 91.9519 90.202C88.1514 94.0011 83.0973 96.0947 77.7196 96.0947Z" fill="#CAE5F4"/>
<path d="M104.268 75.8379H49.8027C48.5116 75.8379 47.4648 77.0495 47.4648 78.5441V110.235C47.4648 111.73 48.5116 112.941 49.8027 112.941H104.268C105.559 112.941 106.606 111.73 106.606 110.235V78.5441C106.606 77.0495 105.559 75.8379 104.268 75.8379Z" fill="#98D2F3"/>
<rect x="89.3359" y="80.4922" width="14.3955" height="4.21429" rx="2.10714" fill="black"/>
<path d="M81.1577 51.5233C82.7787 51.5233 84.0927 50.178 84.0927 48.5185C84.0927 46.859 82.7787 45.5137 81.1577 45.5137C79.5367 45.5137 78.2227 46.859 78.2227 48.5185C78.2227 50.178 79.5367 51.5233 81.1577 51.5233Z" fill="#5E90AD"/>
<path d="M68.26 64.8637L68.2591 64.8637C67.5874 64.857 67.0375 65.3935 67.0308 66.062L67.0166 67.4751C67.0099 68.1436 67.5489 68.691 68.2205 68.6977L68.2215 68.6977C68.8931 68.7044 69.443 68.1678 69.4497 67.4993L69.4639 66.0863C69.4707 65.4177 68.9316 64.8704 68.26 64.8637Z" fill="#4E7084"/>
<path d="M78.3068 64.7231L78.3059 64.723C77.6343 64.7164 77.0844 65.2529 77.0777 65.9214L77.0635 67.3345C77.0568 68.003 77.5958 68.5504 78.2674 68.5571L78.2683 68.5571C78.94 68.5638 79.4899 68.0272 79.4966 67.3587L79.5108 65.9456C79.5175 65.2771 78.9785 64.7297 78.3068 64.7231Z" fill="#4E7084"/>
<path d="M74.8758 69.3848H70.8427C70.4744 69.3848 70.1758 69.702 70.1758 70.0934V71.0133C70.1758 71.4046 70.4744 71.7219 70.8427 71.7219H74.8758C75.2441 71.7219 75.5427 71.4046 75.5427 71.0133V70.0934C75.5427 69.702 75.2441 69.3848 74.8758 69.3848Z" fill="#4E7084"/>
<rect width="31.5428" height="18.3479" transform="matrix(0.971416 -0.237384 0.238821 0.971064 97.3633 45.1914)" fill="#FFC8C8"/>
<path d="M110.796 55.5031C110.327 55.6187 109.884 55.6416 109.467 55.5718C109.053 55.5013 108.687 55.3452 108.368 55.1035C108.053 54.8581 107.81 54.5349 107.641 54.1339L108.712 53.691C108.901 54.0462 109.168 54.2911 109.513 54.4258C109.861 54.5596 110.228 54.579 110.614 54.484C110.843 54.4276 111.049 54.3391 111.233 54.2184C111.417 54.0976 111.555 53.9539 111.646 53.7871C111.74 53.6196 111.762 53.4367 111.713 53.2386C111.691 53.1498 111.656 53.0721 111.608 53.0055C111.559 52.9359 111.497 52.8789 111.423 52.8343C111.352 52.7891 111.265 52.7541 111.161 52.7295C111.06 52.7011 110.945 52.6838 110.818 52.6776L109.041 52.5978C108.888 52.5915 108.72 52.5748 108.537 52.5477C108.356 52.517 108.177 52.4592 107.998 52.3745C107.822 52.2862 107.663 52.159 107.521 51.9931C107.381 51.8235 107.277 51.5983 107.207 51.3173C107.105 50.9061 107.123 50.5359 107.262 50.2067C107.403 49.8737 107.633 49.5942 107.952 49.3682C108.273 49.1414 108.651 48.9761 109.085 48.8722C109.525 48.7669 109.935 48.7458 110.316 48.8088C110.696 48.8689 111.037 49.0094 111.337 49.2304C111.637 49.4514 111.884 49.7468 112.076 50.1168L110.973 50.6007C110.87 50.3876 110.731 50.2195 110.555 50.0964C110.382 49.9696 110.187 49.8889 109.971 49.8544C109.757 49.8191 109.54 49.8256 109.319 49.8738C109.105 49.9235 108.914 50.005 108.747 50.1184C108.582 50.2281 108.459 50.359 108.377 50.511C108.298 50.6623 108.279 50.8208 108.32 50.9864C108.359 51.1432 108.438 51.2601 108.558 51.3373C108.677 51.4115 108.814 51.461 108.968 51.4858C109.125 51.5068 109.28 51.5187 109.435 51.5213L110.663 51.5576C110.83 51.5603 111.021 51.573 111.234 51.5957C111.448 51.6184 111.661 51.671 111.873 51.7536C112.086 51.8361 112.276 51.9667 112.443 52.1452C112.613 52.323 112.737 52.5716 112.817 52.891C112.899 53.2223 112.901 53.5309 112.824 53.8167C112.75 54.0988 112.615 54.3515 112.422 54.575C112.229 54.7984 111.991 54.9888 111.709 55.1463C111.43 55.303 111.126 55.4219 110.796 55.5031Z" fill="#D99E9E"/>
<path d="M116.46 54.1069C115.973 54.2268 115.52 54.2272 115.1 54.1079C114.68 53.9886 114.32 53.7682 114.019 53.4467C113.722 53.1245 113.513 52.7209 113.393 52.2358C113.263 51.7122 113.251 51.2333 113.358 50.7991C113.463 50.3618 113.669 49.9925 113.976 49.691C114.282 49.3895 114.671 49.1806 115.143 49.0643C115.641 48.9414 116.093 48.954 116.498 49.1021C116.905 49.2465 117.246 49.5093 117.52 49.8906C117.794 50.2719 117.982 50.7546 118.083 51.3386L117.019 51.6009L116.922 51.2104C116.79 50.6906 116.604 50.3332 116.363 50.1382C116.123 49.9433 115.808 49.8937 115.419 49.9895C114.98 50.0978 114.688 50.3143 114.541 50.6391C114.395 50.9609 114.386 51.3821 114.515 51.9027C114.635 52.3878 114.835 52.7371 115.115 52.9507C115.395 53.1642 115.739 53.2205 116.149 53.1195C116.413 53.0544 116.625 52.9408 116.787 52.7786C116.95 52.6128 117.056 52.4061 117.105 52.1587L118.244 52.217C118.167 52.6942 117.965 53.1001 117.639 53.4348C117.316 53.7687 116.923 53.9928 116.46 54.1069ZM114.25 52.2834L114.05 51.4759L117.357 50.6606L117.557 51.4681L114.25 52.2834Z" fill="#D99E9E"/>
<path d="M119.685 53.1704L118.067 46.6484L119.14 46.3839L120.758 52.906L119.685 53.1704Z" fill="#D99E9E"/>
<path d="M122.18 52.5554L120.562 46.0333L121.635 45.7689L123.253 52.2909L122.18 52.5554Z" fill="#D99E9E"/>
<path d="M53.1217 32.0482L56.0359 31.4414L53.1743 30.8431L52.555 27.2305L51.9467 30.7915L49.0312 31.3982L51.8928 31.9965L52.5121 35.6092L53.1217 32.0482Z" fill="#FFF06A"/>
<path d="M4.09041 67.8177L7.00461 67.211L4.14304 66.6127L3.52372 63L2.91543 66.561L0 67.1677L2.86157 67.766L3.48089 71.3787L4.09041 67.8177Z" fill="#FFF06A"/>
<g clip-path="url(#clip1_13293_4409)">
<path d="M146.05 50.9542L146.129 52.1904C145.039 51.7507 143.673 51.5997 142.077 51.7991C136.453 52.5038 130.112 57.302 127.913 62.5169C127.305 63.9626 127.078 65.2857 127.188 66.4303L126.025 66.1132L127.352 67.8528C128.458 69.3931 130.581 70.1628 133.445 69.8057C139.068 69.1008 145.41 64.3028 147.608 59.0877C148.708 56.4804 148.563 54.2626 147.442 52.7843L146.05 50.9542Z" fill="#FF9B1D"/>
<path d="M146.217 57.2577C144.019 62.4727 137.677 67.2708 132.055 67.9756C126.432 68.6805 123.657 65.0245 125.855 59.8094C128.053 54.5944 134.396 49.7965 140.019 49.0916C145.641 48.3868 148.417 52.0428 146.217 57.2577Z" fill="#FFC03D"/>
<path d="M146.217 57.2577C144.019 62.4727 137.677 67.2708 132.055 67.9756C126.432 68.6805 123.657 65.0245 125.855 59.8094C128.053 54.5944 134.396 49.7965 140.019 49.0916C145.641 48.3868 148.417 52.0428 146.217 57.2577Z" fill="url(#paint12_radial_13293_4409)"/>
<path d="M139.846 63.412C137.662 65.0786 135.107 66.2635 132.708 66.5649C130.386 66.8564 128.56 66.2852 127.545 64.9589C126.53 63.6326 126.484 61.7163 127.393 59.5622C129.249 55.161 134.622 51.0942 139.367 50.4996C141.691 50.2083 143.515 50.7775 144.53 52.1056C145.544 53.4337 145.591 55.3482 144.684 57.5025C143.776 59.6568 141.983 61.7777 139.846 63.412ZM132.358 53.819C130.248 55.4302 128.496 57.4965 127.589 59.6436C126.712 61.7243 126.758 63.5591 127.715 64.8299C128.673 66.1008 130.439 66.6344 132.682 66.3545C137.362 65.7673 142.656 61.7609 144.484 57.419C145.361 55.3383 145.316 53.5035 144.356 52.2325C143.397 50.9615 141.634 50.4282 139.391 50.7099C137.031 51.0072 134.509 52.1768 132.358 53.819Z" fill="#FF9B1D"/>
<path d="M144.585 57.4617C142.738 61.8365 137.415 65.8676 132.694 66.4587C127.974 67.0498 125.645 63.9813 127.49 59.6028C129.336 55.2243 134.66 51.1969 139.379 50.6056C144.098 50.0144 146.431 53.0832 144.585 57.4617Z" fill="url(#paint13_radial_13293_4409)"/>
<path d="M127.796 60.0051C129.641 55.6302 134.964 51.599 139.685 51.0079C141.917 50.7271 143.615 51.2678 144.588 52.377C143.69 50.9988 141.859 50.2931 139.379 50.6059C134.66 51.1972 129.336 55.2246 127.49 59.6031C126.517 61.9114 126.705 63.8538 127.791 65.09C126.984 63.8534 126.923 62.0771 127.796 60.0051Z" fill="#FF9B1D"/>
<path d="M145.928 56.8751C143.73 62.0902 137.388 66.8882 131.766 67.5931C129.076 67.9302 127.039 67.2673 125.885 65.9132C126.968 67.5204 129.13 68.3422 132.063 67.9744C137.685 67.2695 144.027 62.4715 146.225 57.2565C147.371 54.5369 147.164 52.2433 145.907 50.7685C146.892 52.2426 146.982 54.378 145.928 56.8751Z" fill="#FFD95B"/>
<path fill-rule="evenodd" clip-rule="evenodd" d="M137.07 57.9893C137.021 58.0287 136.765 58.2321 136.18 58.66C135.718 58.9986 135.386 59.23 135.268 59.3091C133.48 60.5393 132.064 61.2607 131.906 61.0013C131.748 60.7419 132.868 59.6103 134.53 58.299L135.115 59.099C135.234 59.0201 135.574 58.791 136.034 58.4506C136.588 58.0437 136.855 57.8248 136.902 57.7835L136.271 57.0069C138.079 55.7456 139.603 54.9281 139.821 55.1617C140.039 55.3952 138.846 56.6005 137.068 57.9892L137.07 57.9893ZM136.209 56.9275L135.671 56.2618L138.078 54.4579L137.213 53.5334L131.022 58.2261L131.671 59.2542L133.964 57.535L134.463 58.2174C132.592 59.6926 131.34 61.0215 131.537 61.353C131.735 61.6844 133.374 60.9054 135.409 59.5127L137.289 62.0877L139.254 60.6946L137.222 58.1866C139.248 56.603 140.595 55.1841 140.302 54.89C140.009 54.5959 138.257 55.5013 136.202 56.9269L136.209 56.9275Z" fill="#D63E1E" fill-opacity="0.2"/>
</g>
<path d="M9.86322 123.354C14.9244 123.354 19.0272 122.034 19.0272 120.405C19.0272 118.776 14.9244 117.455 9.86322 117.455C4.80208 117.455 0.699219 118.776 0.699219 120.405C0.699219 122.034 4.80208 123.354 9.86322 123.354Z" fill="#FFD000"/>
<path d="M9.86322 123.354C14.9244 123.354 19.0272 122.034 19.0272 120.405C19.0272 118.776 14.9244 117.455 9.86322 117.455C4.80208 117.455 0.699219 118.776 0.699219 120.405C0.699219 122.034 4.80208 123.354 9.86322 123.354Z" fill="url(#paint14_radial_13293_4409)"/>
<path d="M19.0255 116.873H0.699219V119.217H19.0255V116.873Z" fill="#F0B637"/>
<path d="M19.0255 119.206C19.0255 120.836 14.9229 122.157 9.86149 122.157C4.80009 122.157 0.699219 120.836 0.699219 119.206C0.699219 117.575 4.80183 116.256 9.86149 116.256C14.9211 116.256 19.0255 117.577 19.0255 119.206Z" fill="#F0B637"/>
<path d="M9.86322 119.868C14.9244 119.868 19.0272 118.547 19.0272 116.918C19.0272 115.289 14.9244 113.969 9.86322 113.969C4.80208 113.969 0.699219 115.289 0.699219 116.918C0.699219 118.547 4.80208 119.868 9.86322 119.868Z" fill="#FFD000"/>
<path d="M9.86322 119.868C14.9244 119.868 19.0272 118.547 19.0272 116.918C19.0272 115.289 14.9244 113.969 9.86322 113.969C4.80208 113.969 0.699219 115.289 0.699219 116.918C0.699219 118.547 4.80208 119.868 9.86322 119.868Z" fill="url(#paint15_radial_13293_4409)"/>
<path d="M19.0255 113.217H0.699219V115.561H19.0255V113.217Z" fill="#F0B637"/>
<path d="M9.86322 118.499C14.9244 118.499 19.0272 117.178 19.0272 115.549C19.0272 113.92 14.9244 112.6 9.86322 112.6C4.80208 112.6 0.699219 113.92 0.699219 115.549C0.699219 117.178 4.80208 118.499 9.86322 118.499Z" fill="#F0B637"/>
<path d="M19.0255 113.266C19.0255 114.896 14.9229 116.216 9.86149 116.216C4.80009 116.216 0.699219 114.896 0.699219 113.266C0.699219 111.636 4.80183 110.314 9.86149 110.314C14.9211 110.314 19.0255 111.636 19.0255 113.266Z" fill="#FFD000"/>
<path d="M19.0255 113.266C19.0255 114.896 14.9229 116.216 9.86149 116.216C4.80009 116.216 0.699219 114.896 0.699219 113.266C0.699219 111.636 4.80183 110.314 9.86149 110.314C14.9211 110.314 19.0255 111.636 19.0255 113.266Z" fill="url(#paint16_radial_13293_4409)"/>
<path d="M19.0255 109.73H0.699219V112.075H19.0255V109.73Z" fill="#F0B637"/>
<path d="M19.0255 112.065C19.0255 113.693 14.9229 115.014 9.86149 115.014C4.80009 115.014 0.699219 113.693 0.699219 112.065C0.699219 110.436 4.80183 109.113 9.86149 109.113C14.9211 109.113 19.0255 110.435 19.0255 112.065Z" fill="#F0B637"/>
<path d="M19.0255 109.78C19.0255 111.408 14.9229 112.729 9.86149 112.729C4.80009 112.729 0.699219 111.408 0.699219 109.78C0.699219 108.151 4.80183 106.828 9.86149 106.828C14.9211 106.828 19.0255 108.149 19.0255 109.78Z" fill="#FFD000"/>
<path d="M19.0255 109.78C19.0255 111.408 14.9229 112.729 9.86149 112.729C4.80009 112.729 0.699219 111.408 0.699219 109.78C0.699219 108.151 4.80183 106.828 9.86149 106.828C14.9211 106.828 19.0255 108.149 19.0255 109.78Z" fill="url(#paint17_radial_13293_4409)"/>
<path fill-rule="evenodd" clip-rule="evenodd" d="M11.09 109.463C11.0674 109.477 10.9493 109.553 10.6557 109.713C10.4212 109.844 10.2406 109.936 10.1781 109.969C9.17065 110.486 8.1927 110.831 7.9009 110.771C7.6091 110.71 8.1198 110.253 9.03864 109.715L9.94704 109.917C10.0148 109.884 10.2023 109.793 10.4403 109.662C10.7217 109.508 10.845 109.427 10.8659 109.413L9.98351 109.211C10.9371 108.746 11.7986 108.452 12.0574 108.521C12.3162 108.59 11.9011 108.978 11.0882 109.472L11.09 109.463ZM9.89141 109.189L9.08901 109.006L10.3656 108.345L9.1706 108.062L5.36328 109.96L6.70075 110.246L8.11632 109.511L8.94306 109.696C7.9009 110.305 7.34509 110.838 7.72721 110.919C8.10933 111 9.26098 110.598 10.3987 110.019L12.9172 110.579L13.7544 110.072L11.3036 109.513C12.212 108.956 12.6445 108.499 12.3144 108.421C11.9844 108.344 10.9753 108.666 9.89319 109.192L9.89141 109.189Z" fill="#F5AC1B"/>
<path d="M62.6624 117.66H45.3047V119.88H62.6624V117.66Z" fill="#F0B637"/>
<path d="M62.6623 119.87C62.6623 121.414 58.7766 122.665 53.9827 122.665C49.1888 122.665 45.3047 121.414 45.3047 119.87C45.3047 118.326 49.1905 117.076 53.9827 117.076C58.7749 117.076 62.6623 118.328 62.6623 119.87Z" fill="#F0B637"/>
<path d="M53.9844 120.498C58.778 120.498 62.664 119.247 62.664 117.704C62.664 116.161 58.778 114.91 53.9844 114.91C49.1907 114.91 45.3047 116.161 45.3047 117.704C45.3047 119.247 49.1907 120.498 53.9844 120.498Z" fill="#FFD000"/>
<path d="M53.9844 120.498C58.778 120.498 62.664 119.247 62.664 117.704C62.664 116.161 58.778 114.91 53.9844 114.91C49.1907 114.91 45.3047 116.161 45.3047 117.704C45.3047 119.247 49.1907 120.498 53.9844 120.498Z" fill="url(#paint18_radial_13293_4409)"/>
<path d="M62.6624 114.197H45.3047V116.418H62.6624V114.197Z" fill="#F0B637"/>
<path d="M53.9844 119.201C58.778 119.201 62.664 117.95 62.664 116.407C62.664 114.864 58.778 113.613 53.9844 113.613C49.1907 113.613 45.3047 114.864 45.3047 116.407C45.3047 117.95 49.1907 119.201 53.9844 119.201Z" fill="#F0B637"/>
<path d="M62.6623 114.245C62.6623 115.789 58.7766 117.038 53.9827 117.038C49.1888 117.038 45.3047 115.789 45.3047 114.245C45.3047 112.701 49.1905 111.449 53.9827 111.449C58.7749 111.449 62.6623 112.701 62.6623 114.245Z" fill="#FFD000"/>
<path d="M62.6623 114.245C62.6623 115.789 58.7766 117.038 53.9827 117.038C49.1888 117.038 45.3047 115.789 45.3047 114.245C45.3047 112.701 49.1905 111.449 53.9827 111.449C58.7749 111.449 62.6623 112.701 62.6623 114.245Z" fill="url(#paint19_radial_13293_4409)"/>
<path d="M62.6624 110.896H45.3047V113.117H62.6624V110.896Z" fill="#F0B637"/>
<path d="M62.6623 113.106C62.6623 114.648 58.7766 115.9 53.9827 115.9C49.1888 115.9 45.3047 114.648 45.3047 113.106C45.3047 111.564 49.1905 110.311 53.9827 110.311C58.7749 110.311 62.6623 111.562 62.6623 113.106Z" fill="#F0B637"/>
<path d="M62.6623 110.942C62.6623 112.484 58.7766 113.736 53.9827 113.736C49.1888 113.736 45.3047 112.484 45.3047 110.942C45.3047 109.4 49.1905 108.146 53.9827 108.146C58.7749 108.146 62.6623 109.398 62.6623 110.942Z" fill="#FFD000"/>
<path d="M62.6623 110.942C62.6623 112.484 58.7766 113.736 53.9827 113.736C49.1888 113.736 45.3047 112.484 45.3047 110.942C45.3047 109.4 49.1905 108.146 53.9827 108.146C58.7749 108.146 62.6623 109.398 62.6623 110.942Z" fill="url(#paint20_radial_13293_4409)"/>
<path fill-rule="evenodd" clip-rule="evenodd" d="M55.1467 110.643C55.1253 110.656 55.0134 110.728 54.7354 110.88C54.5133 111.004 54.3422 111.091 54.283 111.122C53.3288 111.612 52.4025 111.939 52.1262 111.881C51.8498 111.824 52.3335 111.391 53.2038 110.882L54.0642 111.073C54.1283 111.042 54.306 110.955 54.5313 110.831C54.7979 110.686 54.9147 110.609 54.9344 110.596L54.0987 110.404C55.0019 109.963 55.8178 109.686 56.063 109.751C56.3081 109.816 55.9149 110.184 55.145 110.651L55.1467 110.643ZM54.0115 110.383L53.2515 110.21L54.4606 109.584L53.3288 109.316L49.7227 111.114L50.9894 111.385L52.3302 110.689L53.1132 110.864C52.1262 111.44 51.5997 111.945 51.9616 112.022C52.3236 112.099 53.4143 111.718 54.4919 111.169L56.8773 111.7L57.6703 111.22L55.349 110.69C56.2094 110.163 56.619 109.73 56.3064 109.656C55.9939 109.583 55.0381 109.888 54.0131 110.387L54.0115 110.383Z" fill="#F5AC1B"/>
<path d="M126.196 115.891H109.66V118.006H126.196V115.891Z" fill="#F0B637"/>
<path d="M117.929 120.657C122.496 120.657 126.198 119.465 126.198 117.996C126.198 116.526 122.496 115.334 117.929 115.334C113.362 115.334 109.66 116.526 109.66 117.996C109.66 119.465 113.362 120.657 117.929 120.657Z" fill="#F0B637"/>
<path d="M126.196 115.942C126.196 117.412 122.494 118.604 117.927 118.604C113.36 118.604 109.66 117.412 109.66 115.942C109.66 114.473 113.362 113.279 117.927 113.279C122.493 113.279 126.196 114.464 126.196 115.942Z" fill="#FFD000"/>
<path d="M126.196 115.942C126.196 117.412 122.494 118.604 117.927 118.604C113.36 118.604 109.66 117.412 109.66 115.942C109.66 114.473 113.362 113.279 117.927 113.279C122.493 113.279 126.196 114.464 126.196 115.942Z" fill="url(#paint21_radial_13293_4409)"/>
<path d="M126.196 112.746H109.66V114.861H126.196V112.746Z" fill="#F0B637"/>
<path d="M126.196 114.853C126.196 116.324 122.494 117.516 117.927 117.516C113.36 117.516 109.66 116.324 109.66 114.853C109.66 113.382 113.362 112.191 117.927 112.191C122.493 112.191 126.196 113.381 126.196 114.853Z" fill="#F0B637"/>
<path d="M126.196 112.79C126.196 114.259 122.494 115.452 117.927 115.452C113.36 115.452 109.66 114.259 109.66 112.79C109.66 111.321 113.362 110.127 117.927 110.127C122.493 110.127 126.196 111.319 126.196 112.79Z" fill="#FFD000"/>
<path d="M126.196 112.79C126.196 114.259 122.494 115.452 117.927 115.452C113.36 115.452 109.66 114.259 109.66 112.79C109.66 111.321 113.362 110.127 117.927 110.127C122.493 110.127 126.196 111.319 126.196 112.79Z" fill="url(#paint22_radial_13293_4409)"/>
<path d="M126.196 109.559H109.66V111.674H126.196V109.559Z" fill="#F0B637"/>
<path d="M126.196 111.663C126.196 113.134 122.494 114.327 117.927 114.327C113.36 114.327 109.66 113.134 109.66 111.663C109.66 110.193 113.362 109.002 117.927 109.002C122.493 109.002 126.196 110.194 126.196 111.663Z" fill="#F0B637"/>
<path d="M117.929 112.262C122.496 112.262 126.198 111.071 126.198 109.601C126.198 108.131 122.496 106.939 117.929 106.939C113.362 106.939 109.66 108.131 109.66 109.601C109.66 111.071 113.362 112.262 117.929 112.262Z" fill="#FFD000"/>
<path d="M117.929 112.262C122.496 112.262 126.198 111.071 126.198 109.601C126.198 108.131 122.496 106.939 117.929 106.939C113.362 106.939 109.66 108.131 109.66 109.601C109.66 111.071 113.362 112.262 117.929 112.262Z" fill="url(#paint23_radial_13293_4409)"/>
<path d="M126.196 106.412H109.66V108.527H126.196V106.412Z" fill="#F0B637"/>
<path d="M126.196 108.517C126.196 109.988 122.494 111.18 117.927 111.18C113.36 111.18 109.66 109.988 109.66 108.517C109.66 107.046 113.362 105.855 117.927 105.855C122.493 105.855 126.196 107.048 126.196 108.517Z" fill="#F0B637"/>
<path d="M117.929 109.116C122.496 109.116 126.198 107.924 126.198 106.454C126.198 104.985 122.496 103.793 117.929 103.793C113.362 103.793 109.66 104.985 109.66 106.454C109.66 107.924 113.362 109.116 117.929 109.116Z" fill="#FFD000"/>
<path d="M117.929 109.116C122.496 109.116 126.198 107.924 126.198 106.454C126.198 104.985 122.496 103.793 117.929 103.793C113.362 103.793 109.66 104.985 109.66 106.454C109.66 107.924 113.362 109.116 117.929 109.116Z" fill="url(#paint24_radial_13293_4409)"/>
<path d="M126.196 103.115H109.66V105.23H126.196V103.115Z" fill="#F0B637"/>
<path d="M117.929 107.88C122.496 107.88 126.198 106.688 126.198 105.218C126.198 103.748 122.496 102.557 117.929 102.557C113.362 102.557 109.66 103.748 109.66 105.218C109.66 106.688 113.362 107.88 117.929 107.88Z" fill="#F0B637"/>
<path d="M126.196 103.157C126.196 104.628 122.494 105.819 117.927 105.819C113.36 105.819 109.66 104.628 109.66 103.157C109.66 101.686 113.362 100.494 117.927 100.494C122.493 100.494 126.196 101.686 126.196 103.157Z" fill="#FFD000"/>
<path d="M126.196 103.157C126.196 104.628 122.494 105.819 117.927 105.819C113.36 105.819 109.66 104.628 109.66 103.157C109.66 101.686 113.362 100.494 117.927 100.494C122.493 100.494 126.196 101.686 126.196 103.157Z" fill="url(#paint25_radial_13293_4409)"/>
<path d="M126.196 99.9688H109.66V102.084H126.196V99.9688Z" fill="#F0B637"/>
<path d="M126.196 102.075C126.196 103.544 122.494 104.737 117.927 104.737C113.36 104.737 109.66 103.544 109.66 102.075C109.66 100.606 113.362 99.4121 117.927 99.4121C122.493 99.4121 126.196 100.604 126.196 102.075Z" fill="#F0B637"/>
<path d="M126.196 100.013C126.196 101.482 122.494 102.674 117.927 102.674C113.36 102.674 109.66 101.482 109.66 100.013C109.66 98.5434 113.362 97.3496 117.927 97.3496C122.493 97.3496 126.196 98.5418 126.196 100.013Z" fill="#FFD000"/>
<path d="M126.196 100.013C126.196 101.482 122.494 102.674 117.927 102.674C113.36 102.674 109.66 101.482 109.66 100.013C109.66 98.5434 113.362 97.3496 117.927 97.3496C122.493 97.3496 126.196 98.5418 126.196 100.013Z" fill="url(#paint26_radial_13293_4409)"/>
<path fill-rule="evenodd" clip-rule="evenodd" d="M119.038 99.7286C119.018 99.7411 118.911 99.8096 118.647 99.9543C118.435 100.073 118.272 100.155 118.216 100.185C117.307 100.652 116.424 100.963 116.161 100.908C115.898 100.854 116.358 100.441 117.187 99.9559L118.007 100.138C118.068 100.108 118.237 100.026 118.452 99.9077C118.706 99.7691 118.817 99.6959 118.836 99.6835L118.04 99.5014C118.9 99.0811 119.678 98.8165 119.911 98.8788C120.145 98.9411 119.77 99.2913 119.037 99.7364L119.038 99.7286ZM117.957 99.4812L117.233 99.3162L118.385 98.72L117.306 98.4648L113.871 100.177L115.078 100.435L116.355 99.7722L117.101 99.9388C116.161 100.488 115.659 100.969 116.004 101.042C116.349 101.115 117.388 100.753 118.415 100.23L120.687 100.736L121.442 100.278L119.231 99.7738C120.051 99.271 120.441 98.8586 120.143 98.7885C119.845 98.7185 118.935 99.0096 117.958 99.4843L117.957 99.4812Z" fill="#F5AC1B"/>
<path d="M92.9485 122.798C97.5152 122.798 101.217 121.606 101.217 120.136C101.217 118.666 97.5152 117.475 92.9485 117.475C88.3817 117.475 84.6797 118.666 84.6797 120.136C84.6797 121.606 88.3817 122.798 92.9485 122.798Z" fill="#FFD000"/>
<path d="M92.9485 122.798C97.5152 122.798 101.217 121.606 101.217 120.136C101.217 118.666 97.5152 117.475 92.9485 117.475C88.3817 117.475 84.6797 118.666 84.6797 120.136C84.6797 121.606 88.3817 122.798 92.9485 122.798Z" fill="url(#paint27_radial_13293_4409)"/>
<path d="M101.216 116.947H84.6797V119.062H101.216V116.947Z" fill="#F0B637"/>
<path d="M101.216 119.052C101.216 120.523 97.5138 121.715 92.9469 121.715C88.3799 121.715 84.6797 120.523 84.6797 119.052C84.6797 117.581 88.3815 116.391 92.9469 116.391C97.5123 116.391 101.216 117.583 101.216 119.052Z" fill="#F0B637"/>
<path d="M92.9485 119.651C97.5152 119.651 101.217 118.46 101.217 116.99C101.217 115.52 97.5152 114.328 92.9485 114.328C88.3817 114.328 84.6797 115.52 84.6797 116.99C84.6797 118.46 88.3817 119.651 92.9485 119.651Z" fill="#FFD000"/>
<path d="M92.9485 119.651C97.5152 119.651 101.217 118.46 101.217 116.99C101.217 115.52 97.5152 114.328 92.9485 114.328C88.3817 114.328 84.6797 115.52 84.6797 116.99C84.6797 118.46 88.3817 119.651 92.9485 119.651Z" fill="url(#paint28_radial_13293_4409)"/>
<path d="M101.216 113.65H84.6797V115.766H101.216V113.65Z" fill="#F0B637"/>
<path d="M92.9485 118.415C97.5152 118.415 101.217 117.223 101.217 115.753C101.217 114.283 97.5152 113.092 92.9485 113.092C88.3817 113.092 84.6797 114.283 84.6797 115.753C84.6797 117.223 88.3817 118.415 92.9485 118.415Z" fill="#F0B637"/>
<path d="M101.216 113.694C101.216 115.165 97.5138 116.356 92.9469 116.356C88.3799 116.356 84.6797 115.165 84.6797 113.694C84.6797 112.223 88.3815 111.031 92.9469 111.031C97.5123 111.031 101.216 112.223 101.216 113.694Z" fill="#FFD000"/>
<path d="M101.216 113.694C101.216 115.165 97.5138 116.356 92.9469 116.356C88.3799 116.356 84.6797 115.165 84.6797 113.694C84.6797 112.223 88.3815 111.031 92.9469 111.031C97.5123 111.031 101.216 112.223 101.216 113.694Z" fill="url(#paint29_radial_13293_4409)"/>
<path d="M101.216 110.504H84.6797V112.619H101.216V110.504Z" fill="#F0B637"/>
<path d="M101.216 112.61C101.216 114.08 97.5138 115.272 92.9469 115.272C88.3799 115.272 84.6797 114.08 84.6797 112.61C84.6797 111.141 88.3815 109.947 92.9469 109.947C97.5123 109.947 101.216 111.139 101.216 112.61Z" fill="#F0B637"/>
<path d="M101.216 110.548C101.216 112.017 97.5138 113.209 92.9469 113.209C88.3799 113.209 84.6797 112.017 84.6797 110.548C84.6797 109.079 88.3815 107.885 92.9469 107.885C97.5123 107.885 101.216 109.077 101.216 110.548Z" fill="#FFD000"/>
<path d="M101.216 110.548C101.216 112.017 97.5138 113.209 92.9469 113.209C88.3799 113.209 84.6797 112.017 84.6797 110.548C84.6797 109.079 88.3815 107.885 92.9469 107.885C97.5123 107.885 101.216 109.077 101.216 110.548Z" fill="url(#paint30_radial_13293_4409)"/>
<path fill-rule="evenodd" clip-rule="evenodd" d="M94.0579 110.264C94.0375 110.276 93.9309 110.345 93.666 110.489C93.4545 110.608 93.2915 110.69 93.2351 110.72C92.3261 111.187 91.4436 111.498 91.1803 111.444C90.917 111.389 91.3779 110.977 92.2069 110.491L93.0266 110.673C93.0877 110.644 93.257 110.561 93.4717 110.443C93.7256 110.304 93.8369 110.231 93.8557 110.219L93.0595 110.037C93.9199 109.616 94.6973 109.352 94.9308 109.414C95.1643 109.476 94.7897 109.826 94.0562 110.272L94.0579 110.264ZM92.9764 110.016L92.2524 109.851L93.4042 109.255L92.326 109L88.8906 110.712L90.0974 110.97L91.3747 110.307L92.1207 110.474C91.1803 111.023 90.6788 111.504 91.0236 111.577C91.3684 111.651 92.4076 111.288 93.4341 110.765L95.7066 111.271L96.462 110.813L94.2506 110.309C95.0703 109.806 95.4605 109.394 95.1627 109.324C94.865 109.254 93.9544 109.545 92.978 110.019L92.9764 110.016Z" fill="#F5AC1B"/>
<path d="M78.7742 119.735C78.7742 121.205 75.0724 122.397 70.5055 122.397C65.9385 122.397 62.2383 121.205 62.2383 119.735C62.2383 118.266 65.9401 117.072 70.5055 117.072C75.0709 117.072 78.7742 118.257 78.7742 119.735Z" fill="#FFD000"/>
<path d="M78.7742 119.735C78.7742 121.205 75.0724 122.397 70.5055 122.397C65.9385 122.397 62.2383 121.205 62.2383 119.735C62.2383 118.266 65.9401 117.072 70.5055 117.072C75.0709 117.072 78.7742 118.257 78.7742 119.735Z" fill="url(#paint31_radial_13293_4409)"/>
<path d="M78.7742 116.539H62.2383V118.654H78.7742V116.539Z" fill="#F0B637"/>
<path d="M78.7742 118.646C78.7742 120.117 75.0724 121.309 70.5055 121.309C65.9385 121.309 62.2383 120.117 62.2383 118.646C62.2383 117.175 65.9401 115.984 70.5055 115.984C75.0709 115.984 78.7742 117.174 78.7742 118.646Z" fill="#F0B637"/>
<path d="M78.7742 116.583C78.7742 118.052 75.0724 119.245 70.5055 119.245C65.9385 119.245 62.2383 118.052 62.2383 116.583C62.2383 115.114 65.9401 113.92 70.5055 113.92C75.0709 113.92 78.7742 115.112 78.7742 116.583Z" fill="#FFD000"/>
<path d="M78.7742 116.583C78.7742 118.052 75.0724 119.245 70.5055 119.245C65.9385 119.245 62.2383 118.052 62.2383 116.583C62.2383 115.114 65.9401 113.92 70.5055 113.92C75.0709 113.92 78.7742 115.112 78.7742 116.583Z" fill="url(#paint32_radial_13293_4409)"/>
<path d="M78.7742 113.352H62.2383V115.467H78.7742V113.352Z" fill="#F0B637"/>
<path d="M78.7742 115.456C78.7742 116.927 75.0724 118.12 70.5055 118.12C65.9385 118.12 62.2383 116.927 62.2383 115.456C62.2383 113.986 65.9401 112.795 70.5055 112.795C75.0709 112.795 78.7742 113.987 78.7742 115.456Z" fill="#F0B637"/>
<path d="M70.507 116.055C75.0738 116.055 78.7758 114.864 78.7758 113.394C78.7758 111.924 75.0738 110.732 70.507 110.732C65.9403 110.732 62.2383 111.924 62.2383 113.394C62.2383 114.864 65.9403 116.055 70.507 116.055Z" fill="#FFD000"/>
<path d="M70.507 116.055C75.0738 116.055 78.7758 114.864 78.7758 113.394C78.7758 111.924 75.0738 110.732 70.507 110.732C65.9403 110.732 62.2383 111.924 62.2383 113.394C62.2383 114.864 65.9403 116.055 70.507 116.055Z" fill="url(#paint33_radial_13293_4409)"/>
<path d="M78.7742 110.205H62.2383V112.32H78.7742V110.205Z" fill="#F0B637"/>
<path d="M78.7742 112.31C78.7742 113.781 75.0724 114.973 70.5055 114.973C65.9385 114.973 62.2383 113.781 62.2383 112.31C62.2383 110.839 65.9401 109.648 70.5055 109.648C75.0709 109.648 78.7742 110.841 78.7742 112.31Z" fill="#F0B637"/>
<path d="M70.507 112.909C75.0738 112.909 78.7758 111.717 78.7758 110.247C78.7758 108.778 75.0738 107.586 70.507 107.586C65.9403 107.586 62.2383 108.778 62.2383 110.247C62.2383 111.717 65.9403 112.909 70.507 112.909Z" fill="#FFD000"/>
<path d="M70.507 112.909C75.0738 112.909 78.7758 111.717 78.7758 110.247C78.7758 108.778 75.0738 107.586 70.507 107.586C65.9403 107.586 62.2383 108.778 62.2383 110.247C62.2383 111.717 65.9403 112.909 70.507 112.909Z" fill="url(#paint34_radial_13293_4409)"/>
<path d="M78.7742 106.908H62.2383V109.023H78.7742V106.908Z" fill="#F0B637"/>
<path d="M70.507 111.673C75.0738 111.673 78.7758 110.481 78.7758 109.011C78.7758 107.541 75.0738 106.35 70.507 106.35C65.9403 106.35 62.2383 107.541 62.2383 109.011C62.2383 110.481 65.9403 111.673 70.507 111.673Z" fill="#F0B637"/>
<path d="M78.7742 106.952C78.7742 108.423 75.0724 109.614 70.5055 109.614C65.9385 109.614 62.2383 108.423 62.2383 106.952C62.2383 105.481 65.9401 104.289 70.5055 104.289C75.0709 104.289 78.7742 105.481 78.7742 106.952Z" fill="#FFD000"/>
<path d="M78.7742 106.952C78.7742 108.423 75.0724 109.614 70.5055 109.614C65.9385 109.614 62.2383 108.423 62.2383 106.952C62.2383 105.481 65.9401 104.289 70.5055 104.289C75.0709 104.289 78.7742 105.481 78.7742 106.952Z" fill="url(#paint35_radial_13293_4409)"/>
<path d="M78.7742 103.762H62.2383V105.877H78.7742V103.762Z" fill="#F0B637"/>
<path d="M78.7742 105.868C78.7742 107.337 75.0724 108.53 70.5055 108.53C65.9385 108.53 62.2383 107.337 62.2383 105.868C62.2383 104.399 65.9401 103.205 70.5055 103.205C75.0709 103.205 78.7742 104.397 78.7742 105.868Z" fill="#F0B637"/>
<path d="M78.7742 103.806C78.7742 105.275 75.0724 106.467 70.5055 106.467C65.9385 106.467 62.2383 105.275 62.2383 103.806C62.2383 102.336 65.9401 101.143 70.5055 101.143C75.0709 101.143 78.7742 102.335 78.7742 103.806Z" fill="#FFD000"/>
<path d="M78.7742 103.806C78.7742 105.275 75.0724 106.467 70.5055 106.467C65.9385 106.467 62.2383 105.275 62.2383 103.806C62.2383 102.336 65.9401 101.143 70.5055 101.143C75.0709 101.143 78.7742 102.335 78.7742 103.806Z" fill="url(#paint36_radial_13293_4409)"/>
<path fill-rule="evenodd" clip-rule="evenodd" d="M71.6164 103.522C71.5961 103.534 71.4895 103.603 71.2246 103.747C71.0131 103.866 70.8501 103.948 70.7936 103.978C69.8846 104.445 69.0022 104.756 68.7389 104.701C68.4756 104.647 68.9365 104.234 69.7655 103.749L70.5852 103.931C70.6463 103.901 70.8155 103.819 71.0303 103.701C71.2842 103.562 71.3955 103.489 71.4143 103.476L70.6181 103.294C71.4785 102.874 72.2559 102.61 72.4894 102.672C72.7229 102.734 72.3483 103.084 71.6148 103.529L71.6164 103.522ZM70.535 103.274L69.811 103.109L70.9628 102.513L69.8846 102.258L66.4492 103.97L67.656 104.228L68.9333 103.565L69.6793 103.732C68.7389 104.281 68.2374 104.762 68.5822 104.835C68.927 104.908 69.9661 104.546 70.9927 104.023L73.2652 104.529L74.0206 104.071L71.8092 103.567C72.6289 103.064 73.0191 102.652 72.7213 102.581C72.4235 102.511 71.513 102.803 70.5366 103.277L70.535 103.274Z" fill="#F5AC1B"/>
<path d="M90.6297 120.513C90.6297 121.984 86.9279 123.176 82.3609 123.176C77.794 123.176 74.0938 121.984 74.0938 120.513C74.0938 119.042 77.7956 117.852 82.3609 117.852C86.9263 117.852 90.6297 119.044 90.6297 120.513Z" fill="#F0B637"/>
<path d="M82.3625 121.112C86.9292 121.112 90.6313 119.921 90.6313 118.451C90.6313 116.981 86.9292 115.789 82.3625 115.789C77.7958 115.789 74.0938 116.981 74.0938 118.451C74.0938 119.921 77.7958 121.112 82.3625 121.112Z" fill="#FFD000"/>
<path d="M82.3625 121.112C86.9292 121.112 90.6313 119.921 90.6313 118.451C90.6313 116.981 86.9292 115.789 82.3625 115.789C77.7958 115.789 74.0938 116.981 74.0938 118.451C74.0938 119.921 77.7958 121.112 82.3625 121.112Z" fill="url(#paint37_radial_13293_4409)"/>
<path d="M90.6297 115.262H74.0938V117.377H90.6297V115.262Z" fill="#F0B637"/>
<path d="M90.6297 117.367C90.6297 118.837 86.9279 120.03 82.3609 120.03C77.794 120.03 74.0938 118.837 74.0938 117.367C74.0938 115.896 77.7956 114.705 82.3609 114.705C86.9263 114.705 90.6297 115.897 90.6297 117.367Z" fill="#F0B637"/>
<path d="M82.3625 117.966C86.9292 117.966 90.6313 116.774 90.6313 115.304C90.6313 113.834 86.9292 112.643 82.3625 112.643C77.7958 112.643 74.0938 113.834 74.0938 115.304C74.0938 116.774 77.7958 117.966 82.3625 117.966Z" fill="#FFD000"/>
<path d="M82.3625 117.966C86.9292 117.966 90.6313 116.774 90.6313 115.304C90.6313 113.834 86.9292 112.643 82.3625 112.643C77.7958 112.643 74.0938 113.834 74.0938 115.304C74.0938 116.774 77.7958 117.966 82.3625 117.966Z" fill="url(#paint38_radial_13293_4409)"/>
<path d="M90.6297 111.965H74.0938V114.08H90.6297V111.965Z" fill="#F0B637"/>
<path d="M82.3625 116.729C86.9292 116.729 90.6313 115.538 90.6313 114.068C90.6313 112.598 86.9292 111.406 82.3625 111.406C77.7958 111.406 74.0938 112.598 74.0938 114.068C74.0938 115.538 77.7958 116.729 82.3625 116.729Z" fill="#F0B637"/>
<path d="M90.6297 112.007C90.6297 113.478 86.9279 114.668 82.3609 114.668C77.794 114.668 74.0938 113.478 74.0938 112.007C74.0938 110.536 77.7956 109.344 82.3609 109.344C86.9263 109.344 90.6297 110.536 90.6297 112.007Z" fill="#FFD000"/>
<path d="M90.6297 112.007C90.6297 113.478 86.9279 114.668 82.3609 114.668C77.794 114.668 74.0938 113.478 74.0938 112.007C74.0938 110.536 77.7956 109.344 82.3609 109.344C86.9263 109.344 90.6297 110.536 90.6297 112.007Z" fill="url(#paint39_radial_13293_4409)"/>
<path d="M90.6297 108.818H74.0938V110.934H90.6297V108.818Z" fill="#F0B637"/>
<path d="M90.6297 110.925C90.6297 112.394 86.9279 113.586 82.3609 113.586C77.794 113.586 74.0938 112.394 74.0938 110.925C74.0938 109.455 77.7956 108.262 82.3609 108.262C86.9263 108.262 90.6297 109.454 90.6297 110.925Z" fill="#F0B637"/>
<path d="M90.6297 108.862C90.6297 110.332 86.9279 111.524 82.3609 111.524C77.794 111.524 74.0938 110.332 74.0938 108.862C74.0938 107.393 77.7956 106.199 82.3609 106.199C86.9263 106.199 90.6297 107.391 90.6297 108.862Z" fill="#FFD000"/>
<path d="M90.6297 108.862C90.6297 110.332 86.9279 111.524 82.3609 111.524C77.794 111.524 74.0938 110.332 74.0938 108.862C74.0938 107.393 77.7956 106.199 82.3609 106.199C86.9263 106.199 90.6297 107.391 90.6297 108.862Z" fill="url(#paint40_radial_13293_4409)"/>
<path fill-rule="evenodd" clip-rule="evenodd" d="M83.4719 108.578C83.4515 108.591 83.345 108.659 83.0801 108.804C82.8685 108.922 82.7055 109.005 82.6491 109.034C81.7401 109.501 80.8577 109.813 80.5944 109.758C80.3311 109.704 80.7919 109.291 81.621 108.805L82.4407 108.988C82.5018 108.958 82.671 108.876 82.8857 108.757C83.1396 108.619 83.2509 108.546 83.2697 108.533L82.4736 108.351C83.334 107.931 84.1113 107.666 84.3448 107.728C84.5784 107.791 84.2038 108.141 83.4703 108.586L83.4719 108.578ZM82.3905 108.331L81.6665 108.166L82.8183 107.57L81.7401 107.314L78.3047 109.027L79.5115 109.285L80.7888 108.622L81.5347 108.788C80.5944 109.338 80.0929 109.819 80.4377 109.892C80.7825 109.965 81.8216 109.602 82.8482 109.079L85.1207 109.585L85.876 109.128L83.6647 108.623C84.4843 108.121 84.8746 107.708 84.5768 107.638C84.279 107.568 83.3685 107.859 82.3921 108.334L82.3905 108.331Z" fill="#F5AC1B"/>
<path d="M46.9577 117.877H27.5234V120.363H46.9577V117.877Z" fill="#F0B637"/>
<path d="M37.2415 123.479C42.6086 123.479 46.9595 122.078 46.9595 120.351C46.9595 118.623 42.6086 117.223 37.2415 117.223C31.8744 117.223 27.5234 118.623 27.5234 120.351C27.5234 122.078 31.8744 123.479 37.2415 123.479Z" fill="#F0B637"/>
<path d="M46.9576 117.936C46.9576 119.663 42.607 121.064 37.2396 121.064C31.8722 121.064 27.5234 119.663 27.5234 117.936C27.5234 116.21 31.8741 114.807 37.2396 114.807C42.6052 114.807 46.9576 116.199 46.9576 117.936Z" fill="#FFD000"/>
<path d="M46.9576 117.936C46.9576 119.663 42.607 121.064 37.2396 121.064C31.8722 121.064 27.5234 119.663 27.5234 117.936C27.5234 116.21 31.8741 114.807 37.2396 114.807C42.6052 114.807 46.9576 116.199 46.9576 117.936Z" fill="url(#paint41_radial_13293_4409)"/>
<path d="M46.9577 114.18H27.5234V116.666H46.9577V114.18Z" fill="#F0B637"/>
<path d="M46.9576 116.657C46.9576 118.386 42.607 119.787 37.2396 119.787C31.8722 119.787 27.5234 118.386 27.5234 116.657C27.5234 114.929 31.8741 113.529 37.2396 113.529C42.6052 113.529 46.9576 114.927 46.9576 116.657Z" fill="#F0B637"/>
<path d="M46.9576 114.231C46.9576 115.958 42.607 117.359 37.2396 117.359C31.8722 117.359 27.5234 115.958 27.5234 114.231C27.5234 112.505 31.8741 111.102 37.2396 111.102C42.6052 111.102 46.9576 112.503 46.9576 114.231Z" fill="#FFD000"/>
<path d="M46.9576 114.231C46.9576 115.958 42.607 117.359 37.2396 117.359C31.8722 117.359 27.5234 115.958 27.5234 114.231C27.5234 112.505 31.8741 111.102 37.2396 111.102C42.6052 111.102 46.9576 112.503 46.9576 114.231Z" fill="url(#paint42_radial_13293_4409)"/>
<path d="M46.9577 110.434H27.5234V112.92H46.9577V110.434Z" fill="#F0B637"/>
<path d="M46.9576 112.907C46.9576 114.636 42.607 116.037 37.2396 116.037C31.8722 116.037 27.5234 114.636 27.5234 112.907C27.5234 111.179 31.8741 109.779 37.2396 109.779C42.6052 109.779 46.9576 111.181 46.9576 112.907Z" fill="#F0B637"/>
<path d="M37.2415 113.611C42.6086 113.611 46.9595 112.211 46.9595 110.483C46.9595 108.756 42.6086 107.355 37.2415 107.355C31.8744 107.355 27.5234 108.756 27.5234 110.483C27.5234 112.211 31.8744 113.611 37.2415 113.611Z" fill="#FFD000"/>
<path d="M37.2415 113.611C42.6086 113.611 46.9595 112.211 46.9595 110.483C46.9595 108.756 42.6086 107.355 37.2415 107.355C31.8744 107.355 27.5234 108.756 27.5234 110.483C27.5234 112.211 31.8744 113.611 37.2415 113.611Z" fill="url(#paint43_radial_13293_4409)"/>
<path d="M46.9577 106.736H27.5234V109.222H46.9577V106.736Z" fill="#F0B637"/>
<path d="M46.9576 109.21C46.9576 110.939 42.607 112.34 37.2396 112.34C31.8722 112.34 27.5234 110.939 27.5234 109.21C27.5234 107.481 31.8741 106.082 37.2396 106.082C42.6052 106.082 46.9576 107.483 46.9576 109.21Z" fill="#F0B637"/>
<path d="M37.2415 109.914C42.6086 109.914 46.9595 108.514 46.9595 106.786C46.9595 105.059 42.6086 103.658 37.2415 103.658C31.8744 103.658 27.5234 105.059 27.5234 106.786C27.5234 108.514 31.8744 109.914 37.2415 109.914Z" fill="#FFD000"/>
<path d="M37.2415 109.914C42.6086 109.914 46.9595 108.514 46.9595 106.786C46.9595 105.059 42.6086 103.658 37.2415 103.658C31.8744 103.658 27.5234 105.059 27.5234 106.786C27.5234 108.514 31.8744 109.914 37.2415 109.914Z" fill="url(#paint44_radial_13293_4409)"/>
<path d="M45.2624 103.377H25.8281V105.863H45.2624V103.377Z" fill="#F0B637"/>
<path d="M35.5462 108.979C40.9133 108.979 45.2642 107.578 45.2642 105.851C45.2642 104.123 40.9133 102.723 35.5462 102.723C30.179 102.723 25.8281 104.123 25.8281 105.851C25.8281 107.578 30.179 108.979 35.5462 108.979Z" fill="#F0B637"/>
<path d="M45.2623 103.429C45.2623 105.157 40.9117 106.557 35.5443 106.557C30.1769 106.557 25.8281 105.157 25.8281 103.429C25.8281 101.7 30.1788 100.299 35.5443 100.299C40.9099 100.299 45.2623 101.7 45.2623 103.429Z" fill="#FFD000"/>
<path d="M45.2623 103.429C45.2623 105.157 40.9117 106.557 35.5443 106.557C30.1769 106.557 25.8281 105.157 25.8281 103.429C25.8281 101.7 30.1788 100.299 35.5443 100.299C40.9099 100.299 45.2623 101.7 45.2623 103.429Z" fill="url(#paint45_radial_13293_4409)"/>
<path d="M50.3444 100.006H30.9102V102.492H50.3444V100.006Z" fill="#F0B637"/>
<path d="M50.3443 102.481C50.3443 104.208 45.9937 105.609 40.6264 105.609C35.259 105.609 30.9102 104.208 30.9102 102.481C30.9102 100.755 35.2608 99.3516 40.6264 99.3516C45.9919 99.3516 50.3443 100.753 50.3443 102.481Z" fill="#F0B637"/>
<path d="M50.3443 100.058C50.3443 101.784 45.9937 103.186 40.6264 103.186C35.259 103.186 30.9102 101.784 30.9102 100.058C30.9102 98.3307 35.2608 96.9277 40.6264 96.9277C45.9919 96.9277 50.3443 98.3289 50.3443 100.058Z" fill="#FFD000"/>
<path d="M50.3443 100.058C50.3443 101.784 45.9937 103.186 40.6264 103.186C35.259 103.186 30.9102 101.784 30.9102 100.058C30.9102 98.3307 35.2608 96.9277 40.6264 96.9277C45.9919 96.9277 50.3443 98.3289 50.3443 100.058Z" fill="url(#paint46_radial_13293_4409)"/>
<path fill-rule="evenodd" clip-rule="evenodd" d="M41.9323 99.7216C41.9083 99.7362 41.7831 99.8168 41.4718 99.9869C41.2231 100.126 41.0316 100.223 40.9653 100.258C39.8969 100.806 38.8599 101.172 38.5504 101.108C38.241 101.044 38.7826 100.559 39.7569 99.9887L40.7203 100.203C40.7921 100.168 40.991 100.071 41.2433 99.932C41.5417 99.7692 41.6725 99.6832 41.6947 99.6686L40.7589 99.4545C41.7702 98.9606 42.6837 98.6497 42.9582 98.7228C43.2326 98.796 42.7924 99.2076 41.9304 99.7308L41.9323 99.7216ZM40.6613 99.4308L39.8104 99.2369L41.1641 98.5363L39.8969 98.2363L35.8594 100.248L37.2777 100.552L38.7789 99.7729L39.6556 99.9686C38.5504 100.614 37.961 101.18 38.3662 101.265C38.7714 101.351 39.9927 100.925 41.1992 100.311L43.87 100.905L44.7578 100.367L42.1588 99.7747C43.1222 99.1838 43.5808 98.6991 43.2308 98.6167C42.8808 98.5344 41.8107 98.8765 40.6632 99.4344L40.6613 99.4308Z" fill="#F5AC1B"/>
<path d="M117.944 119.795C117.944 121.312 114.135 122.542 109.436 122.542C104.737 122.542 100.93 121.312 100.93 119.795C100.93 118.279 104.739 117.051 109.436 117.051C114.133 117.051 117.944 118.28 117.944 119.795Z" fill="#FFD000"/>
<path d="M117.944 119.795C117.944 121.312 114.135 122.542 109.436 122.542C104.737 122.542 100.93 121.312 100.93 119.795C100.93 118.279 104.739 117.051 109.436 117.051C114.133 117.051 117.944 118.28 117.944 119.795Z" fill="url(#paint47_radial_13293_4409)"/>
<path d="M117.944 116.465H100.93V118.646H117.944V116.465Z" fill="#F0B637"/>
<path d="M117.944 118.635C117.944 120.152 114.135 121.38 109.436 121.38C104.737 121.38 100.93 120.152 100.93 118.635C100.93 117.119 104.739 115.891 109.436 115.891C114.133 115.891 117.944 117.119 117.944 118.635Z" fill="#F0B637"/>
<path d="M109.438 119.253C114.136 119.253 117.945 118.024 117.945 116.508C117.945 114.992 114.136 113.764 109.438 113.764C104.739 113.764 100.93 114.992 100.93 116.508C100.93 118.024 104.739 119.253 109.438 119.253Z" fill="#FFD000"/>
<path d="M109.438 119.253C114.136 119.253 117.945 118.024 117.945 116.508C117.945 114.992 114.136 113.764 109.438 113.764C104.739 113.764 100.93 114.992 100.93 116.508C100.93 118.024 104.739 119.253 109.438 119.253Z" fill="url(#paint48_radial_13293_4409)"/>
<path d="M117.944 113.221H100.93V115.402H117.944V113.221Z" fill="#F0B637"/>
<path d="M117.944 115.391C117.944 116.908 114.135 118.136 109.436 118.136C104.737 118.136 100.93 116.908 100.93 115.391C100.93 113.874 104.739 112.646 109.436 112.646C114.133 112.646 117.944 113.873 117.944 115.391Z" fill="#F0B637"/>
<path d="M109.438 116.009C114.136 116.009 117.945 114.78 117.945 113.264C117.945 111.748 114.136 110.52 109.438 110.52C104.739 110.52 100.93 111.748 100.93 113.264C100.93 114.78 104.739 116.009 109.438 116.009Z" fill="#FFD000"/>
<path d="M109.438 116.009C114.136 116.009 117.945 114.78 117.945 113.264C117.945 111.748 114.136 110.52 109.438 110.52C104.739 110.52 100.93 111.748 100.93 113.264C100.93 114.78 104.739 116.009 109.438 116.009Z" fill="url(#paint49_radial_13293_4409)"/>
<path d="M117.944 109.82H100.93V112.002H117.944V109.82Z" fill="#F0B637"/>
<path d="M109.438 114.733C114.136 114.733 117.945 113.505 117.945 111.989C117.945 110.473 114.136 109.244 109.438 109.244C104.739 109.244 100.93 110.473 100.93 111.989C100.93 113.505 104.739 114.733 109.438 114.733Z" fill="#F0B637"/>
<path d="M117.944 109.859C117.944 111.375 114.135 112.604 109.436 112.604C104.737 112.604 100.93 111.375 100.93 109.859C100.93 108.344 104.739 107.113 109.436 107.113C114.133 107.113 117.944 108.348 117.944 109.859Z" fill="#FFD000"/>
<path d="M117.944 109.859C117.944 111.375 114.135 112.604 109.436 112.604C104.737 112.604 100.93 111.375 100.93 109.859C100.93 108.344 104.739 107.113 109.436 107.113C114.133 107.113 117.944 108.348 117.944 109.859Z" fill="url(#paint50_radial_13293_4409)"/>
<path d="M115.241 107.115H98.2266V109.296H115.241V107.115Z" fill="#F0B637"/>
<path d="M115.241 109.285C115.241 110.8 111.432 112.03 106.734 112.03C102.037 112.03 98.2266 110.8 98.2266 109.285C98.2266 107.77 102.035 106.539 106.734 106.539C111.433 106.539 115.241 107.773 115.241 109.285Z" fill="#F0B637"/>
<path d="M115.241 107.158C115.241 108.675 111.432 109.903 106.734 109.903C102.037 109.903 98.2266 108.675 98.2266 107.158C98.2266 105.642 102.035 104.412 106.734 104.412C111.433 104.412 115.241 105.642 115.241 107.158Z" fill="#FFD000"/>
<path d="M115.241 107.158C115.241 108.675 111.432 109.903 106.734 109.903C102.037 109.903 98.2266 108.675 98.2266 107.158C98.2266 105.642 102.035 104.412 106.734 104.412C111.433 104.412 115.241 105.642 115.241 107.158Z" fill="url(#paint51_radial_13293_4409)"/>
<path fill-rule="evenodd" clip-rule="evenodd" d="M107.54 106.99C107.488 106.99 107.217 106.98 106.622 106.95C106.151 106.927 105.816 106.906 105.705 106.898C103.931 106.784 102.709 106.624 102.83 106.515C102.951 106.406 104.308 106.38 106.039 106.438L105.776 106.8C105.89 106.808 106.222 106.832 106.69 106.855C107.251 106.882 107.538 106.889 107.59 106.89L107.78 106.521C109.525 106.629 110.836 106.788 110.817 106.903C110.797 107.019 109.393 107.054 107.538 106.988L107.54 106.99ZM107.801 106.486L107.962 106.182L110.317 106.292L110.417 105.86L104.415 105.592L104 105.999L106.285 106.105L106.069 106.402C104.118 106.337 102.557 106.381 102.399 106.519C102.241 106.658 103.613 106.861 105.64 107.001L104.702 108.285L106.814 108.401L107.495 107.086C109.615 107.16 111.236 107.105 111.254 106.951C111.271 106.797 109.773 106.606 107.806 106.486H107.801Z" fill="#F5AC1B"/>
<path d="M64.2487 97.1346C68.0472 97.1346 71.1264 94.0697 71.1264 90.289C71.1264 86.5083 68.0472 83.4434 64.2487 83.4434C60.4503 83.4434 57.3711 86.5083 57.3711 90.289C57.3711 94.0697 60.4503 97.1346 64.2487 97.1346Z" fill="#F1F3F6"/>
<path d="M64.247 95.9703C67.3995 95.9703 69.955 93.4266 69.955 90.2888C69.955 87.1511 67.3995 84.6074 64.247 84.6074C61.0946 84.6074 58.5391 87.1511 58.5391 90.2888C58.5391 93.4266 61.0946 95.9703 64.247 95.9703Z" fill="#C17272"/>
<path d="M64.5377 90.6396C64.5025 90.7126 64.4519 90.7771 64.3895 90.8289C64.327 90.8806 64.2541 90.9182 64.1758 90.9392C64.0975 90.9602 64.0157 90.9641 63.9359 90.9506C63.8561 90.937 63.7802 90.9064 63.7135 90.8608L61.35 89.2233C61.3366 89.2119 61.3274 89.1964 61.3237 89.1792C61.3201 89.162 61.3222 89.1441 61.3298 89.1282C61.3373 89.1122 61.3499 89.0992 61.3656 89.0911C61.3813 89.0831 61.3991 89.0804 61.4165 89.0834L64.187 89.865C64.2647 89.8874 64.3366 89.9264 64.3977 89.9792C64.4588 90.032 64.5077 90.0975 64.541 90.1711C64.5743 90.2447 64.5913 90.3246 64.5907 90.4055C64.5902 90.4864 64.5721 90.5662 64.5377 90.6396Z" fill="#F1F3F6"/>
<path d="M64.4765 90.6085C64.5859 90.3783 64.4881 90.1039 64.2581 89.9956C64.028 89.8872 63.7529 89.986 63.6434 90.2161C63.534 90.4462 63.6318 90.7206 63.8618 90.829C64.0919 90.9374 64.367 90.8386 64.4765 90.6085Z" fill="#F1F3F6"/>
<path d="M60.2866 89.9629H58.9766V90.6149H60.2866V89.9629Z" fill="#F1F3F6"/>
<path d="M69.4428 89.9629H68.1328V90.6149H69.4428V89.9629Z" fill="#F1F3F6"/>
<path d="M64.5781 86.4231V85.1191H63.9231V86.4231H64.5781Z" fill="#F1F3F6"/>
<path d="M64.5781 95.4582V94.1543H63.9231V95.4582H64.5781Z" fill="#F1F3F6"/>
<path d="M81.1823 97.1346C84.9807 97.1346 88.06 94.0697 88.06 90.289C88.06 86.5083 84.9807 83.4434 81.1823 83.4434C77.3839 83.4434 74.3047 86.5083 74.3047 90.289C74.3047 94.0697 77.3839 97.1346 81.1823 97.1346Z" fill="#F1F3F6"/>
<path d="M81.1806 95.9703C84.3331 95.9703 86.8886 93.4266 86.8886 90.2888C86.8886 87.1511 84.3331 84.6074 81.1806 84.6074C78.0282 84.6074 75.4727 87.1511 75.4727 90.2888C75.4727 93.4266 78.0282 95.9703 81.1806 95.9703Z" fill="#508E83"/>
<path d="M80.6327 90.6887C80.578 90.6289 80.5368 90.558 80.5121 90.4809C80.4873 90.4039 80.4796 90.3225 80.4894 90.2424C80.4992 90.1623 80.5263 90.0853 80.5688 90.0168C80.6113 89.9482 80.6683 89.8897 80.7358 89.8453L83.1472 88.2784C83.1628 88.2703 83.1807 88.2676 83.1981 88.2707C83.2154 88.2738 83.2314 88.2824 83.2433 88.2954C83.2553 88.3083 83.2627 88.3248 83.2644 88.3423C83.266 88.3598 83.2619 88.3773 83.2525 88.3922L81.4857 90.6555C81.4357 90.7188 81.3724 90.7705 81.3003 90.8071C81.2282 90.8437 81.1489 90.8643 81.0679 90.8674C80.9869 90.8706 80.906 90.8563 80.8309 90.8254C80.7558 90.7946 80.6882 90.7479 80.6327 90.6887Z" fill="#F1F3F6"/>
<path d="M80.6829 90.6422C80.8562 90.8295 81.1484 90.8422 81.3356 90.6705C81.5228 90.4989 81.534 90.208 81.3607 90.0207C81.1874 89.8334 80.8951 89.8208 80.708 89.9924C80.5208 90.164 80.5096 90.455 80.6829 90.6422Z" fill="#F1F3F6"/>
<path d="M77.2202 89.9629H75.9102V90.6149H77.2202V89.9629Z" fill="#F1F3F6"/>
<path d="M86.3764 89.9629H85.0664V90.6149H86.3764V89.9629Z" fill="#F1F3F6"/>
<path d="M81.5117 86.4231V85.1191H80.8567V86.4231H81.5117Z" fill="#F1F3F6"/>
<path d="M81.5117 95.4582V94.1543H80.8567V95.4582H81.5117Z" fill="#F1F3F6"/>
<circle cx="75" cy="118" r="1.99998" transform="rotate(-180 75 118)" fill="#C17272"/>
<path d="M92.1053 82.1994C92.1958 82.3279 92.2594 82.4198 92.2959 82.475H92.3029C92.3533 82.3986 92.4163 82.3072 92.4921 82.2008L92.7438 81.8466C92.7488 81.8396 92.7554 81.834 92.7631 81.8301C92.7707 81.8262 92.7792 81.8242 92.7878 81.8242H93.0513C93.061 81.824 93.0706 81.8265 93.079 81.8314C93.0873 81.8363 93.0942 81.8434 93.0987 81.8519C93.1033 81.8605 93.1053 81.8701 93.1047 81.8797C93.1041 81.8894 93.1007 81.8986 93.0951 81.9065L92.524 82.6916C92.5175 82.7004 92.5141 82.711 92.5141 82.7219C92.5141 82.7327 92.5175 82.7433 92.524 82.7521L93.1222 83.5672C93.1279 83.575 93.1312 83.5843 93.1319 83.5939C93.1325 83.6036 93.1305 83.6132 93.126 83.6218C93.1215 83.6303 93.1147 83.6375 93.1063 83.6424C93.098 83.6473 93.0884 83.6499 93.0787 83.6497H92.821C92.8124 83.6497 92.804 83.6477 92.7963 83.6438C92.7887 83.6399 92.7821 83.6343 92.7771 83.6273L92.5002 83.2417C92.4283 83.1417 92.3619 83.0471 92.3012 82.958H92.2956C92.2321 83.0508 92.1657 83.1453 92.0967 83.2417L91.8198 83.6273C91.8147 83.6343 91.8081 83.6399 91.8005 83.6438C91.7929 83.6477 91.7844 83.6497 91.7758 83.6497H91.5183C91.5086 83.6499 91.499 83.6474 91.4906 83.6425C91.4822 83.6376 91.4754 83.6304 91.4708 83.6219C91.4663 83.6133 91.4643 83.6036 91.465 83.594C91.4657 83.5843 91.4691 83.575 91.4747 83.5672L92.073 82.7521C92.0794 82.7433 92.0829 82.7327 92.0829 82.7219C92.0829 82.711 92.0794 82.7004 92.073 82.6916L91.5019 81.9065C91.4962 81.8986 91.4929 81.8894 91.4923 81.8797C91.4916 81.8701 91.4937 81.8605 91.4982 81.8519C91.5028 81.8434 91.5096 81.8363 91.518 81.8314C91.5264 81.8265 91.536 81.824 91.5457 81.8242H91.8092C91.8178 81.8242 91.8262 81.8262 91.8339 81.8301C91.8416 81.834 91.8482 81.8397 91.8532 81.8466L92.1053 82.1994Z" fill="white"/>
<path d="M95.7388 82.3727C95.7388 82.5 95.7026 82.608 95.6303 82.6967C95.5579 82.7854 95.4459 82.8511 95.2943 82.8938V82.8992L95.7906 83.5669C95.7963 83.5748 95.7997 83.5841 95.8004 83.5937C95.8012 83.6034 95.7991 83.6131 95.7946 83.6217C95.7901 83.6303 95.7833 83.6374 95.7749 83.6424C95.7665 83.6474 95.7569 83.6499 95.7472 83.6497H95.4681C95.4596 83.6497 95.4511 83.6477 95.4435 83.6438C95.4359 83.64 95.4293 83.6344 95.4243 83.6275L94.9462 82.9652C94.9412 82.9583 94.9346 82.9526 94.927 82.9488C94.9194 82.9449 94.911 82.9429 94.9024 82.9429H94.7484C94.7343 82.9428 94.7208 82.9482 94.7107 82.958C94.7007 82.9678 94.6949 82.9811 94.6948 82.9951V83.5975C94.6946 83.6115 94.6888 83.6249 94.6788 83.6347C94.6687 83.6444 94.6552 83.6499 94.6411 83.6497H94.4052C94.3911 83.6499 94.3776 83.6444 94.3675 83.6347C94.3575 83.6249 94.3517 83.6115 94.3516 83.5975V81.8763C94.3516 81.8694 94.3531 81.8625 94.3558 81.8562C94.3586 81.8498 94.3626 81.8441 94.3675 81.8392C94.3725 81.8344 94.3784 81.8306 94.3849 81.828C94.3913 81.8254 94.3982 81.8242 94.4052 81.8242H94.922C95.0101 81.8238 95.0981 81.8291 95.1855 81.8399C95.2566 81.848 95.3266 81.8638 95.3943 81.887C95.5045 81.9279 95.5895 81.9886 95.6494 82.0691C95.7093 82.1497 95.7391 82.2509 95.7388 82.3727ZM94.8643 82.6633C94.931 82.6639 94.9977 82.6605 95.064 82.653C95.1111 82.6479 95.1573 82.6376 95.202 82.6223C95.271 82.5966 95.3189 82.5618 95.3457 82.5179C95.3729 82.4719 95.3867 82.4192 95.3857 82.3658C95.3866 82.3204 95.3757 82.2755 95.3541 82.2355C95.333 82.1978 95.2973 82.168 95.2469 82.1461C95.2075 82.1298 95.166 82.1191 95.1236 82.1141C95.0627 82.1066 95.0014 82.1032 94.94 82.1038H94.7484C94.7343 82.1037 94.7208 82.1091 94.7107 82.1189C94.7007 82.1287 94.6949 82.1421 94.6948 82.156V82.6111C94.6949 82.6251 94.7007 82.6385 94.7107 82.6483C94.7208 82.658 94.7343 82.6635 94.7484 82.6633H94.8643Z" fill="white"/>
<path d="M97.4242 83.37H98.2391C98.2461 83.3699 98.253 83.3712 98.2595 83.3737C98.2659 83.3763 98.2718 83.3801 98.2768 83.385C98.2818 83.3898 98.2858 83.3956 98.2885 83.402C98.2912 83.4084 98.2927 83.4152 98.2927 83.4222V83.5975C98.2927 83.6044 98.2912 83.6113 98.2885 83.6177C98.2858 83.624 98.2818 83.6298 98.2768 83.6347C98.2718 83.6395 98.2659 83.6433 98.2595 83.6459C98.253 83.6485 98.2461 83.6498 98.2391 83.6497H97.0808C97.0739 83.6498 97.067 83.6485 97.0605 83.6459C97.0541 83.6433 97.0482 83.6395 97.0432 83.6346C97.0383 83.6298 97.0343 83.624 97.0316 83.6176C97.0288 83.6113 97.0274 83.6044 97.0273 83.5975V81.8763C97.0274 81.8694 97.0288 81.8625 97.0316 81.8562C97.0343 81.8498 97.0383 81.844 97.0432 81.8392C97.0482 81.8344 97.0541 81.8306 97.0605 81.828C97.067 81.8254 97.0739 81.8241 97.0808 81.8242H98.1887C98.1957 81.8241 98.2026 81.8254 98.209 81.828C98.2155 81.8306 98.2214 81.8344 98.2264 81.8392C98.2313 81.844 98.2353 81.8498 98.2381 81.8562C98.2408 81.8625 98.2423 81.8694 98.2423 81.8763V82.0516C98.2423 82.0586 98.2408 82.0654 98.2381 82.0718C98.2354 82.0782 98.2314 82.084 98.2264 82.0888C98.2214 82.0936 98.2155 82.0975 98.2091 82.1001C98.2026 82.1026 98.1957 82.1039 98.1887 82.1038H97.4242C97.4172 82.1038 97.4103 82.1051 97.4038 82.1076C97.3974 82.1102 97.3915 82.1141 97.3865 82.1189C97.3816 82.1237 97.3776 82.1295 97.3749 82.1359C97.3722 82.1423 97.3707 82.1491 97.3707 82.156V82.5237C97.3707 82.5306 97.3721 82.5375 97.3749 82.5438C97.3776 82.5502 97.3815 82.556 97.3865 82.5608C97.3915 82.5657 97.3974 82.5695 97.4038 82.5721C97.4103 82.5747 97.4172 82.576 97.4242 82.5759H98.0654C98.0724 82.5758 98.0793 82.5771 98.0858 82.5797C98.0922 82.5823 98.0981 82.5861 98.1031 82.591C98.108 82.5958 98.112 82.6016 98.1147 82.6079C98.1174 82.6143 98.1189 82.6212 98.1189 82.6281V82.8034C98.1189 82.8103 98.1174 82.8172 98.1147 82.8236C98.112 82.8299 98.108 82.8357 98.1031 82.8405C98.0981 82.8454 98.0922 82.8492 98.0858 82.8518C98.0793 82.8544 98.0724 82.8557 98.0654 82.8556H97.4242C97.4172 82.8555 97.4103 82.8568 97.4038 82.8594C97.3974 82.862 97.3915 82.8658 97.3865 82.8707C97.3816 82.8755 97.3776 82.8813 97.3749 82.8877C97.3722 82.894 97.3707 82.9009 97.3707 82.9078V83.3178C97.3707 83.3247 97.3722 83.3315 97.3749 83.3379C97.3776 83.3443 97.3816 83.35 97.3865 83.3549C97.3915 83.3597 97.3974 83.3636 97.4038 83.3661C97.4103 83.3687 97.4172 83.37 97.4242 83.37Z" fill="white"/>
<path d="M100.148 82.1994C100.238 82.3279 100.302 82.4198 100.338 82.475H100.345C100.396 82.3986 100.459 82.3072 100.535 82.2008L100.786 81.8466C100.791 81.8397 100.798 81.834 100.806 81.8301C100.813 81.8262 100.822 81.8242 100.83 81.8242H101.094C101.104 81.824 101.113 81.8265 101.122 81.8314C101.13 81.8363 101.137 81.8434 101.141 81.8519C101.146 81.8605 101.148 81.8701 101.147 81.8797C101.147 81.8894 101.143 81.8986 101.138 81.9065L100.567 82.6916C100.56 82.7004 100.557 82.711 100.557 82.7219C100.557 82.7327 100.56 82.7433 100.567 82.7521L101.165 83.5672C101.171 83.575 101.174 83.5843 101.175 83.594C101.175 83.6036 101.173 83.6133 101.169 83.6219C101.164 83.6304 101.157 83.6376 101.149 83.6425C101.141 83.6474 101.131 83.6499 101.121 83.6497H100.864C100.855 83.6497 100.847 83.6477 100.839 83.6438C100.832 83.6399 100.825 83.6343 100.82 83.6273L100.543 83.2417C100.471 83.1417 100.405 83.0471 100.344 82.958H100.338C100.275 83.0508 100.209 83.1453 100.139 83.2417L99.8626 83.6273C99.8576 83.6343 99.851 83.6399 99.8433 83.6438C99.8357 83.6477 99.8272 83.6497 99.8187 83.6497H99.5611C99.5514 83.6499 99.5419 83.6473 99.5335 83.6424C99.5252 83.6375 99.5183 83.6303 99.5138 83.6218C99.5093 83.6132 99.5073 83.6036 99.5079 83.5939C99.5086 83.5843 99.5119 83.575 99.5176 83.5672L100.116 82.7521C100.122 82.7433 100.126 82.7327 100.126 82.7219C100.126 82.711 100.122 82.7004 100.116 82.6916L99.5447 81.9065C99.5391 81.8986 99.5358 81.8894 99.5351 81.8797C99.5345 81.8701 99.5365 81.8605 99.5411 81.8519C99.5456 81.8434 99.5525 81.8363 99.5609 81.8314C99.5692 81.8265 99.5788 81.824 99.5885 81.8242H99.852C99.8606 81.8242 99.8691 81.8262 99.8767 81.8301C99.8844 81.834 99.891 81.8397 99.8961 81.8466L100.148 82.1994Z" fill="white"/>
</g>
<defs>
<radialGradient id="paint0_radial_13293_4409" cx="0" cy="0" r="1" gradientUnits="userSpaceOnUse" gradientTransform="translate(130.739 118.167) scale(7.23971 7.03521)">
<stop stop-color="#FFD95B"/>
<stop offset="0.37" stop-color="#FFD857"/>
<stop offset="0.73" stop-color="#FFD44B"/>
<stop offset="1" stop-color="#FFD03D"/>
</radialGradient>
<radialGradient id="paint1_radial_13293_4409" cx="0" cy="0" r="1" gradientUnits="userSpaceOnUse" gradientTransform="translate(130.739 114.368) scale(7.23971 7.0352)">
<stop stop-color="#FFD95B"/>
<stop offset="0.37" stop-color="#FFD857"/>
<stop offset="0.73" stop-color="#FFD44B"/>
<stop offset="1" stop-color="#FFD03D"/>
</radialGradient>
<radialGradient id="paint2_radial_13293_4409" cx="0" cy="0" r="1" gradientUnits="userSpaceOnUse" gradientTransform="translate(130.739 110.741) scale(7.23971 7.0352)">
<stop stop-color="#FFD95B"/>
<stop offset="0.37" stop-color="#FFD857"/>
<stop offset="0.73" stop-color="#FFD44B"/>
<stop offset="1" stop-color="#FFD03D"/>
</radialGradient>
<radialGradient id="paint3_radial_13293_4409" cx="0" cy="0" r="1" gradientUnits="userSpaceOnUse" gradientTransform="translate(130.739 107.067) scale(7.23971 7.03521)">
<stop stop-color="#FFD95B"/>
<stop offset="0.37" stop-color="#FFD857"/>
<stop offset="0.73" stop-color="#FFD44B"/>
<stop offset="1" stop-color="#FFD03D"/>
</radialGradient>
<radialGradient id="paint4_radial_13293_4409" cx="0" cy="0" r="1" gradientUnits="userSpaceOnUse" gradientTransform="translate(21.5946 120.534) scale(7.23971 7.03521)">
<stop stop-color="#FFD95B"/>
<stop offset="0.37" stop-color="#FFD857"/>
<stop offset="0.73" stop-color="#FFD44B"/>
<stop offset="1" stop-color="#FFD03D"/>
</radialGradient>
<radialGradient id="paint5_radial_13293_4409" cx="0" cy="0" r="1" gradientUnits="userSpaceOnUse" gradientTransform="translate(21.5946 117.069) scale(7.23971 7.0352)">
<stop stop-color="#FFD95B"/>
<stop offset="0.37" stop-color="#FFD857"/>
<stop offset="0.73" stop-color="#FFD44B"/>
<stop offset="1" stop-color="#FFD03D"/>
</radialGradient>
<radialGradient id="paint6_radial_13293_4409" cx="0" cy="0" r="1" gradientUnits="userSpaceOnUse" gradientTransform="translate(21.5946 113.444) scale(7.23971 7.0353)">
<stop stop-color="#FFD95B"/>
<stop offset="0.37" stop-color="#FFD857"/>
<stop offset="0.73" stop-color="#FFD44B"/>
<stop offset="1" stop-color="#FFD03D"/>
</radialGradient>
<radialGradient id="paint7_radial_13293_4409" cx="0" cy="0" r="1" gradientUnits="userSpaceOnUse" gradientTransform="translate(21.5946 109.77) scale(7.23971 7.03521)">
<stop stop-color="#FFD95B"/>
<stop offset="0.37" stop-color="#FFD857"/>
<stop offset="0.73" stop-color="#FFD44B"/>
<stop offset="1" stop-color="#FFD03D"/>
</radialGradient>
<radialGradient id="paint8_radial_13293_4409" cx="0" cy="0" r="1" gradientUnits="userSpaceOnUse" gradientTransform="translate(21.5946 106.145) scale(7.23971 7.03521)">
<stop stop-color="#FFD95B"/>
<stop offset="0.37" stop-color="#FFD857"/>
<stop offset="0.73" stop-color="#FFD44B"/>
<stop offset="1" stop-color="#FFD03D"/>
</radialGradient>
<radialGradient id="paint9_radial_13293_4409" cx="0" cy="0" r="1" gradientUnits="userSpaceOnUse" gradientTransform="translate(21.5946 102.346) scale(7.23971 7.0352)">
<stop stop-color="#FFD95B"/>
<stop offset="0.37" stop-color="#FFD857"/>
<stop offset="0.73" stop-color="#FFD44B"/>
<stop offset="1" stop-color="#FFD03D"/>
</radialGradient>
<radialGradient id="paint10_radial_13293_4409" cx="0" cy="0" r="1" gradientUnits="userSpaceOnUse" gradientTransform="translate(21.5946 98.7197) scale(7.23971 7.0352)">
<stop stop-color="#FFD95B"/>
<stop offset="0.37" stop-color="#FFD857"/>
<stop offset="0.73" stop-color="#FFD44B"/>
<stop offset="1" stop-color="#FFD03D"/>
</radialGradient>
<radialGradient id="paint11_radial_13293_4409" cx="0" cy="0" r="1" gradientUnits="userSpaceOnUse" gradientTransform="translate(21.5946 95.0459) scale(7.23971 7.03521)">
<stop stop-color="#FFD95B"/>
<stop offset="0.37" stop-color="#FFD857"/>
<stop offset="0.73" stop-color="#FFD44B"/>
<stop offset="1" stop-color="#FFD03D"/>
</radialGradient>
<radialGradient id="paint12_radial_13293_4409" cx="0" cy="0" r="1" gradientTransform="matrix(10.3918 -14.6047 14.6277 10.3805 124.689 58.2855)" gradientUnits="userSpaceOnUse">
<stop stop-color="#FFD95B"/>
<stop offset="0.27" stop-color="#FFCE4D"/>
<stop offset="0.64" stop-color="#FFC341"/>
<stop offset="1" stop-color="#FFC03D"/>
</radialGradient>
<radialGradient id="paint13_radial_13293_4409" cx="0" cy="0" r="1" gradientTransform="matrix(24.7198 -34.7414 34.7963 24.6931 142.822 60.4928)" gradientUnits="userSpaceOnUse">
<stop stop-color="#FFD95B"/>
<stop offset="0.27" stop-color="#FFCE4D"/>
<stop offset="0.64" stop-color="#FFC341"/>
<stop offset="1" stop-color="#FFC03D"/>
</radialGradient>
<radialGradient id="paint14_radial_13293_4409" cx="0" cy="0" r="1" gradientUnits="userSpaceOnUse" gradientTransform="translate(9.86322 120.405) scale(6.81221 6.76528)">
<stop stop-color="#FFD95B"/>
<stop offset="0.37" stop-color="#FFD857"/>
<stop offset="0.73" stop-color="#FFD44B"/>
<stop offset="1" stop-color="#FFD03D"/>
</radialGradient>
<radialGradient id="paint15_radial_13293_4409" cx="0" cy="0" r="1" gradientUnits="userSpaceOnUse" gradientTransform="translate(9.86322 116.918) scale(6.81221 6.76528)">
<stop stop-color="#FFD95B"/>
<stop offset="0.37" stop-color="#FFD857"/>
<stop offset="0.73" stop-color="#FFD44B"/>
<stop offset="1" stop-color="#FFD03D"/>
</radialGradient>
<radialGradient id="paint16_radial_13293_4409" cx="0" cy="0" r="1" gradientUnits="userSpaceOnUse" gradientTransform="translate(9.86147 113.266) scale(6.8122 6.76528)">
<stop stop-color="#FFD95B"/>
<stop offset="0.37" stop-color="#FFD857"/>
<stop offset="0.73" stop-color="#FFD44B"/>
<stop offset="1" stop-color="#FFD03D"/>
</radialGradient>
<radialGradient id="paint17_radial_13293_4409" cx="0" cy="0" r="1" gradientUnits="userSpaceOnUse" gradientTransform="translate(9.86147 109.78) scale(6.8122 6.76528)">
<stop stop-color="#FFD95B"/>
<stop offset="0.37" stop-color="#FFD857"/>
<stop offset="0.73" stop-color="#FFD44B"/>
<stop offset="1" stop-color="#FFD03D"/>
</radialGradient>
<radialGradient id="paint18_radial_13293_4409" cx="0" cy="0" r="1" gradientUnits="userSpaceOnUse" gradientTransform="translate(53.9844 117.704) scale(6.45217 6.40772)">
<stop stop-color="#FFD95B"/>
<stop offset="0.37" stop-color="#FFD857"/>
<stop offset="0.73" stop-color="#FFD44B"/>
<stop offset="1" stop-color="#FFD03D"/>
</radialGradient>
<radialGradient id="paint19_radial_13293_4409" cx="0" cy="0" r="1" gradientUnits="userSpaceOnUse" gradientTransform="translate(53.9827 114.245) scale(6.45216 6.40771)">
<stop stop-color="#FFD95B"/>
<stop offset="0.37" stop-color="#FFD857"/>
<stop offset="0.73" stop-color="#FFD44B"/>
<stop offset="1" stop-color="#FFD03D"/>
</radialGradient>
<radialGradient id="paint20_radial_13293_4409" cx="0" cy="0" r="1" gradientUnits="userSpaceOnUse" gradientTransform="translate(53.9827 110.942) scale(6.45216 6.40771)">
<stop stop-color="#FFD95B"/>
<stop offset="0.37" stop-color="#FFD857"/>
<stop offset="0.73" stop-color="#FFD44B"/>
<stop offset="1" stop-color="#FFD03D"/>
</radialGradient>
<radialGradient id="paint21_radial_13293_4409" cx="0" cy="0" r="1" gradientUnits="userSpaceOnUse" gradientTransform="translate(117.927 115.935) scale(6.14671 6.10437)">
<stop stop-color="#FFD95B"/>
<stop offset="0.37" stop-color="#FFD857"/>
<stop offset="0.73" stop-color="#FFD44B"/>
<stop offset="1" stop-color="#FFD03D"/>
</radialGradient>
<radialGradient id="paint22_radial_13293_4409" cx="0" cy="0" r="1" gradientUnits="userSpaceOnUse" gradientTransform="translate(117.927 112.79) scale(6.14671 6.10437)">
<stop stop-color="#FFD95B"/>
<stop offset="0.37" stop-color="#FFD857"/>
<stop offset="0.73" stop-color="#FFD44B"/>
<stop offset="1" stop-color="#FFD03D"/>
</radialGradient>
<radialGradient id="paint23_radial_13293_4409" cx="0" cy="0" r="1" gradientUnits="userSpaceOnUse" gradientTransform="translate(117.929 109.601) scale(6.14672 6.10438)">
<stop stop-color="#FFD95B"/>
<stop offset="0.37" stop-color="#FFD857"/>
<stop offset="0.73" stop-color="#FFD44B"/>
<stop offset="1" stop-color="#FFD03D"/>
</radialGradient>
<radialGradient id="paint24_radial_13293_4409" cx="0" cy="0" r="1" gradientUnits="userSpaceOnUse" gradientTransform="translate(117.929 106.454) scale(6.14672 6.10438)">
<stop stop-color="#FFD95B"/>
<stop offset="0.37" stop-color="#FFD857"/>
<stop offset="0.73" stop-color="#FFD44B"/>
<stop offset="1" stop-color="#FFD03D"/>
</radialGradient>
<radialGradient id="paint25_radial_13293_4409" cx="0" cy="0" r="1" gradientUnits="userSpaceOnUse" gradientTransform="translate(117.927 103.157) scale(6.14671 6.10437)">
<stop stop-color="#FFD95B"/>
<stop offset="0.37" stop-color="#FFD857"/>
<stop offset="0.73" stop-color="#FFD44B"/>
<stop offset="1" stop-color="#FFD03D"/>
</radialGradient>
<radialGradient id="paint26_radial_13293_4409" cx="0" cy="0" r="1" gradientUnits="userSpaceOnUse" gradientTransform="translate(117.927 100.013) scale(6.14671 6.10437)">
<stop stop-color="#FFD95B"/>
<stop offset="0.37" stop-color="#FFD857"/>
<stop offset="0.73" stop-color="#FFD44B"/>
<stop offset="1" stop-color="#FFD03D"/>
</radialGradient>
<radialGradient id="paint27_radial_13293_4409" cx="0" cy="0" r="1" gradientUnits="userSpaceOnUse" gradientTransform="translate(92.9485 120.136) scale(6.14672 6.10438)">
<stop stop-color="#FFD95B"/>
<stop offset="0.37" stop-color="#FFD857"/>
<stop offset="0.73" stop-color="#FFD44B"/>
<stop offset="1" stop-color="#FFD03D"/>
</radialGradient>
<radialGradient id="paint28_radial_13293_4409" cx="0" cy="0" r="1" gradientUnits="userSpaceOnUse" gradientTransform="translate(92.9485 116.99) scale(6.14672 6.10438)">
<stop stop-color="#FFD95B"/>
<stop offset="0.37" stop-color="#FFD857"/>
<stop offset="0.73" stop-color="#FFD44B"/>
<stop offset="1" stop-color="#FFD03D"/>
</radialGradient>
<radialGradient id="paint29_radial_13293_4409" cx="0" cy="0" r="1" gradientUnits="userSpaceOnUse" gradientTransform="translate(92.9469 113.694) scale(6.14671 6.10437)">
<stop stop-color="#FFD95B"/>
<stop offset="0.37" stop-color="#FFD857"/>
<stop offset="0.73" stop-color="#FFD44B"/>
<stop offset="1" stop-color="#FFD03D"/>
</radialGradient>
<radialGradient id="paint30_radial_13293_4409" cx="0" cy="0" r="1" gradientUnits="userSpaceOnUse" gradientTransform="translate(92.9469 110.548) scale(6.14671 6.10437)">
<stop stop-color="#FFD95B"/>
<stop offset="0.37" stop-color="#FFD857"/>
<stop offset="0.73" stop-color="#FFD44B"/>
<stop offset="1" stop-color="#FFD03D"/>
</radialGradient>
<radialGradient id="paint31_radial_13293_4409" cx="0" cy="0" r="1" gradientUnits="userSpaceOnUse" gradientTransform="translate(70.5055 119.728) scale(6.14671 6.10437)">
<stop stop-color="#FFD95B"/>
<stop offset="0.37" stop-color="#FFD857"/>
<stop offset="0.73" stop-color="#FFD44B"/>
<stop offset="1" stop-color="#FFD03D"/>
</radialGradient>
<radialGradient id="paint32_radial_13293_4409" cx="0" cy="0" r="1" gradientUnits="userSpaceOnUse" gradientTransform="translate(70.5055 116.583) scale(6.14671 6.10437)">
<stop stop-color="#FFD95B"/>
<stop offset="0.37" stop-color="#FFD857"/>
<stop offset="0.73" stop-color="#FFD44B"/>
<stop offset="1" stop-color="#FFD03D"/>
</radialGradient>
<radialGradient id="paint33_radial_13293_4409" cx="0" cy="0" r="1" gradientUnits="userSpaceOnUse" gradientTransform="translate(70.507 113.394) scale(6.14672 6.10438)">
<stop stop-color="#FFD95B"/>
<stop offset="0.37" stop-color="#FFD857"/>
<stop offset="0.73" stop-color="#FFD44B"/>
<stop offset="1" stop-color="#FFD03D"/>
</radialGradient>
<radialGradient id="paint34_radial_13293_4409" cx="0" cy="0" r="1" gradientUnits="userSpaceOnUse" gradientTransform="translate(70.507 110.247) scale(6.14672 6.10438)">
<stop stop-color="#FFD95B"/>
<stop offset="0.37" stop-color="#FFD857"/>
<stop offset="0.73" stop-color="#FFD44B"/>
<stop offset="1" stop-color="#FFD03D"/>
</radialGradient>
<radialGradient id="paint35_radial_13293_4409" cx="0" cy="0" r="1" gradientUnits="userSpaceOnUse" gradientTransform="translate(70.5055 106.952) scale(6.14671 6.10437)">
<stop stop-color="#FFD95B"/>
<stop offset="0.37" stop-color="#FFD857"/>
<stop offset="0.73" stop-color="#FFD44B"/>
<stop offset="1" stop-color="#FFD03D"/>
</radialGradient>
<radialGradient id="paint36_radial_13293_4409" cx="0" cy="0" r="1" gradientUnits="userSpaceOnUse" gradientTransform="translate(70.5055 103.806) scale(6.14671 6.10437)">
<stop stop-color="#FFD95B"/>
<stop offset="0.37" stop-color="#FFD857"/>
<stop offset="0.73" stop-color="#FFD44B"/>
<stop offset="1" stop-color="#FFD03D"/>
</radialGradient>
<radialGradient id="paint37_radial_13293_4409" cx="0" cy="0" r="1" gradientUnits="userSpaceOnUse" gradientTransform="translate(82.3625 118.451) scale(6.14672 6.10438)">
<stop stop-color="#FFD95B"/>
<stop offset="0.37" stop-color="#FFD857"/>
<stop offset="0.73" stop-color="#FFD44B"/>
<stop offset="1" stop-color="#FFD03D"/>
</radialGradient>
<radialGradient id="paint38_radial_13293_4409" cx="0" cy="0" r="1" gradientUnits="userSpaceOnUse" gradientTransform="translate(82.3625 115.304) scale(6.14672 6.10438)">
<stop stop-color="#FFD95B"/>
<stop offset="0.37" stop-color="#FFD857"/>
<stop offset="0.73" stop-color="#FFD44B"/>
<stop offset="1" stop-color="#FFD03D"/>
</radialGradient>
<radialGradient id="paint39_radial_13293_4409" cx="0" cy="0" r="1" gradientUnits="userSpaceOnUse" gradientTransform="translate(82.3609 112.007) scale(6.14671 6.10437)">
<stop stop-color="#FFD95B"/>
<stop offset="0.37" stop-color="#FFD857"/>
<stop offset="0.73" stop-color="#FFD44B"/>
<stop offset="1" stop-color="#FFD03D"/>
</radialGradient>
<radialGradient id="paint40_radial_13293_4409" cx="0" cy="0" r="1" gradientUnits="userSpaceOnUse" gradientTransform="translate(82.3609 108.862) scale(6.14671 6.10437)">
<stop stop-color="#FFD95B"/>
<stop offset="0.37" stop-color="#FFD857"/>
<stop offset="0.73" stop-color="#FFD44B"/>
<stop offset="1" stop-color="#FFD03D"/>
</radialGradient>
<radialGradient id="paint41_radial_13293_4409" cx="0" cy="0" r="1" gradientUnits="userSpaceOnUse" gradientTransform="translate(37.2396 117.927) scale(7.22405 7.17429)">
<stop stop-color="#FFD95B"/>
<stop offset="0.37" stop-color="#FFD857"/>
<stop offset="0.73" stop-color="#FFD44B"/>
<stop offset="1" stop-color="#FFD03D"/>
</radialGradient>
<radialGradient id="paint42_radial_13293_4409" cx="0" cy="0" r="1" gradientUnits="userSpaceOnUse" gradientTransform="translate(37.2396 114.231) scale(7.22405 7.17429)">
<stop stop-color="#FFD95B"/>
<stop offset="0.37" stop-color="#FFD857"/>
<stop offset="0.73" stop-color="#FFD44B"/>
<stop offset="1" stop-color="#FFD03D"/>
</radialGradient>
<radialGradient id="paint43_radial_13293_4409" cx="0" cy="0" r="1" gradientUnits="userSpaceOnUse" gradientTransform="translate(37.2415 110.483) scale(7.22406 7.1743)">
<stop stop-color="#FFD95B"/>
<stop offset="0.37" stop-color="#FFD857"/>
<stop offset="0.73" stop-color="#FFD44B"/>
<stop offset="1" stop-color="#FFD03D"/>
</radialGradient>
<radialGradient id="paint44_radial_13293_4409" cx="0" cy="0" r="1" gradientUnits="userSpaceOnUse" gradientTransform="translate(37.2415 106.786) scale(7.22406 7.1743)">
<stop stop-color="#FFD95B"/>
<stop offset="0.37" stop-color="#FFD857"/>
<stop offset="0.73" stop-color="#FFD44B"/>
<stop offset="1" stop-color="#FFD03D"/>
</radialGradient>
<radialGradient id="paint45_radial_13293_4409" cx="0" cy="0" r="1" gradientUnits="userSpaceOnUse" gradientTransform="translate(35.5443 103.429) scale(7.22405 7.17429)">
<stop stop-color="#FFD95B"/>
<stop offset="0.37" stop-color="#FFD857"/>
<stop offset="0.73" stop-color="#FFD44B"/>
<stop offset="1" stop-color="#FFD03D"/>
</radialGradient>
<radialGradient id="paint46_radial_13293_4409" cx="0" cy="0" r="1" gradientUnits="userSpaceOnUse" gradientTransform="translate(40.6263 100.058) scale(7.22405 7.17429)">
<stop stop-color="#FFD95B"/>
<stop offset="0.37" stop-color="#FFD857"/>
<stop offset="0.73" stop-color="#FFD44B"/>
<stop offset="1" stop-color="#FFD03D"/>
</radialGradient>
<radialGradient id="paint47_radial_13293_4409" cx="0" cy="0" r="1" gradientUnits="userSpaceOnUse" gradientTransform="translate(109.436 119.795) scale(6.32441 6.29499)">
<stop stop-color="#FFD95B"/>
<stop offset="0.37" stop-color="#FFD857"/>
<stop offset="0.73" stop-color="#FFD44B"/>
<stop offset="1" stop-color="#FFD03D"/>
</radialGradient>
<radialGradient id="paint48_radial_13293_4409" cx="0" cy="0" r="1" gradientUnits="userSpaceOnUse" gradientTransform="translate(109.438 116.508) scale(6.32442 6.295)">
<stop stop-color="#FFD95B"/>
<stop offset="0.37" stop-color="#FFD857"/>
<stop offset="0.73" stop-color="#FFD44B"/>
<stop offset="1" stop-color="#FFD03D"/>
</radialGradient>
<radialGradient id="paint49_radial_13293_4409" cx="0" cy="0" r="1" gradientUnits="userSpaceOnUse" gradientTransform="translate(109.438 113.264) scale(6.32442 6.295)">
<stop stop-color="#FFD95B"/>
<stop offset="0.37" stop-color="#FFD857"/>
<stop offset="0.73" stop-color="#FFD44B"/>
<stop offset="1" stop-color="#FFD03D"/>
</radialGradient>
<radialGradient id="paint50_radial_13293_4409" cx="0" cy="0" r="1" gradientUnits="userSpaceOnUse" gradientTransform="translate(109.436 109.864) scale(6.32441 6.29499)">
<stop stop-color="#FFD95B"/>
<stop offset="0.37" stop-color="#FFD857"/>
<stop offset="0.73" stop-color="#FFD44B"/>
<stop offset="1" stop-color="#FFD03D"/>
</radialGradient>
<radialGradient id="paint51_radial_13293_4409" cx="0" cy="0" r="1" gradientUnits="userSpaceOnUse" gradientTransform="translate(106.734 107.158) scale(6.32441 6.29499)">
<stop stop-color="#FFD95B"/>
<stop offset="0.37" stop-color="#FFD857"/>
<stop offset="0.73" stop-color="#FFD44B"/>
<stop offset="1" stop-color="#FFD03D"/>
</radialGradient>
<clipPath id="clip0_13293_4409">
<rect width="152" height="118" fill="white"/>
</clipPath>
<clipPath id="clip1_13293_4409">
<rect width="22.6111" height="21.642" fill="white" transform="translate(126.355 47.7305) rotate(4.72838)"/>
</clipPath>
</defs>
</svg>
