<svg width="56" height="46" viewBox="0 0 56 45.5" fill="none" xmlns="http://www.w3.org/2000/svg">
  <!-- Bank building -->
  <g>
    <path d="M54.7091 42.9551H1.70285V43.719H54.7091V42.9551Z" fill="#C9E5FF"/>
    <path d="M55.2544 43.716H1.16076V44.4773H55.2544V43.716Z" fill="#A6D4FF"/>
    <path d="M56 44.4803H0.414933V45.2442H56V44.4803Z" fill="#89C3FA"/>
    <path d="M52.5126 13.7977H2.93942V42.9526H52.5126V13.7977Z" fill="#89C3FA"/>
    <path d="M55.8807 14.3534H0L28.4488 0L55.8807 14.3534Z" fill="#C9E5FF"/>
    <path d="M8.48237 12.439L47.3985 12.3553L28.4272 2.53716L8.48237 12.439Z" fill="#6CA9E3"/>
    <path d="M54.6928 14.3532H1.45878V15.5814H54.6928V14.3532Z" fill="#89C3FA"/>
    <path d="M10.6572 13.7977H5.41271V15.682H10.6572V13.7977Z" fill="#C9E5FF"/>
    <path d="M9.47747 15.6817H6.58676V42.9523H9.47747V15.6817Z" fill="#C9E5FF"/>
    <path d="M21.9867 13.7977H16.7422V15.682H21.9867V13.7977Z" fill="#C9E5FF"/>
    <path d="M20.8097 15.6817H17.919V42.9523H20.8097V15.6817Z" fill="#C9E5FF"/>
    <path d="M39.7974 13.7977H34.553V15.682H39.7974V13.7977Z" fill="#C9E5FF"/>
    <path d="M38.6205 15.6817H35.7297V42.9523H38.6205V15.6817Z" fill="#C9E5FF"/>
    <path d="M50.468 13.7977H45.2235V15.682H50.468V13.7977Z" fill="#C9E5FF"/>
    <path d="M49.2886 15.6817H46.3979V42.9523H49.2886V15.6817Z" fill="#C9E5FF"/>
    <path d="M27.4916 31.7683H28.1315C28.9752 31.7683 29.7842 32.1019 30.3808 32.6957C30.9773 33.2896 31.3124 34.095 31.3124 34.9348V42.9551H24.1155V35.1265C24.1155 34.2351 24.4712 33.3803 25.1043 32.75C25.7374 32.1197 26.5962 31.7656 27.4916 31.7656V31.7683Z" fill="#6CA9E3"/>
    <path d="M23.5406 20.7483H23.8416C24.2393 20.7483 24.6207 20.9055 24.902 21.1855C25.1832 21.4655 25.3412 21.8452 25.3412 22.2411V26.0204H21.9461V22.3329C21.9461 22.1246 21.9874 21.9183 22.0675 21.7259C22.1477 21.5334 22.2652 21.3586 22.4133 21.2114C22.5614 21.0643 22.7372 20.9476 22.9306 20.8681C23.1241 20.7886 23.3313 20.7479 23.5406 20.7483Z" fill="#6CA9E3"/>
    <path d="M13.5939 20.7483H13.8949C14.2926 20.7483 14.6741 20.9055 14.9553 21.1855C15.2365 21.4655 15.3945 21.8452 15.3945 22.2411V26.0204H11.9994V22.3329C11.9994 22.1246 12.0407 21.9183 12.1209 21.7259C12.201 21.5334 12.3185 21.3586 12.4666 21.2114C12.6147 21.0643 12.7905 20.9476 12.9839 20.8681C13.1774 20.7886 13.3847 20.7479 13.5939 20.7483Z" fill="#6CA9E3"/>
    <path d="M13.594 32.0811H13.895C14.2927 32.0811 14.6741 32.2383 14.9553 32.5183C15.2366 32.7983 15.3946 33.178 15.3946 33.5739V37.3532H11.9995V33.6684C11.9991 33.4598 12.0401 33.2533 12.1201 33.0605C12.2001 32.8678 12.3176 32.6926 12.4657 32.5452C12.6138 32.3977 12.7897 32.2808 12.9834 32.2012C13.177 32.1215 13.3845 32.0807 13.594 32.0811Z" fill="#6CA9E3"/>
    <path d="M42.4033 20.7483H42.7043C43.1016 20.749 43.4823 20.9066 43.763 21.1865C44.0436 21.4663 44.2012 21.8456 44.2012 22.2411V26.0204H40.8116V22.3329C40.8116 21.9126 40.9793 21.5096 41.2778 21.2124C41.5763 20.9152 41.9812 20.7483 42.4033 20.7483Z" fill="#6CA9E3"/>
    <path d="M42.4033 32.0811H42.7043C43.1021 32.0811 43.4835 32.2383 43.7647 32.5183C44.0459 32.7983 44.2039 33.178 44.2039 33.5739V37.3532H40.8116V33.6684C40.8112 33.4601 40.8521 33.2537 40.9319 33.0611C41.0118 32.8686 41.129 32.6936 41.2768 32.5461C41.4247 32.3987 41.6003 32.2817 41.7936 32.2019C41.9869 32.1221 42.1941 32.0811 42.4033 32.0811Z" fill="#6CA9E3"/>
    <path d="M32.1259 20.7483H32.4269C32.8253 20.7483 33.2074 20.9058 33.4891 21.1863C33.7709 21.4668 33.9292 21.8472 33.9292 22.2438V26.0231H30.5341V22.3329C30.5341 21.9126 30.7018 21.5096 31.0003 21.2124C31.2988 20.9152 31.7037 20.7483 32.1259 20.7483Z" fill="#6CA9E3"/>
  </g>
  <!-- Badge rings + $ -->
  <circle cx="28" cy="24.76" r="14.7803" fill="#6CA9E3"/>
  <circle cx="28" cy="24.76" r="13.6118" fill="#01D183"/>
  <g transform="translate(23.555 15.49)">
    <path d="M7.85359 8.89614C7.19303 8.18866 6.29194 7.80045 5.3159 7.80045H3.57298C2.75556 7.80045 2.0915 7.11655 2.0915 6.27664C2.0915 5.85397 2.24139 5.47302 2.52026 5.19909C2.80436 4.9034 3.15294 4.75283 3.55556 4.75283H5.3159C5.92244 4.75283 6.48715 5.16281 6.69281 5.75601C6.89673 6.32018 7.4841 6.6068 8.04357 6.40363C8.57168 6.18775 8.85054 5.5619 8.66405 5.00499C8.17429 3.60816 6.91242 2.65215 5.4902 2.57959V1.08844C5.4902 0.487982 5.02135 0 4.44444 0C3.86754 0 3.39869 0.487982 3.39869 1.08844V2.56145C2.50632 2.60499 1.68017 2.98231 1.05272 3.63537C0.36427 4.35193 0 5.26621 0 6.27664C0 8.32653 1.60349 9.99546 3.57298 9.99546H5.33333C5.73943 9.99546 6.10545 10.1515 6.36863 10.4417C6.64575 10.7302 6.79739 11.1129 6.79739 11.5193C6.79739 12.3737 6.15425 13.0431 5.33333 13.0431H3.57298C2.94379 13.0431 2.40349 12.6585 2.19608 12.0544C1.98519 11.4921 1.37865 11.2109 0.847059 11.4286C0.306754 11.6481 0.0366013 12.2794 0.244009 12.8272C0.733769 14.224 1.96078 15.1456 3.40044 15.2145V16.6893C3.40044 17.2898 3.86928 17.7778 4.44619 17.7778C5.02309 17.7778 5.49194 17.2898 5.49194 16.6893V15.2163C7.37952 15.1202 8.88889 13.4912 8.88889 11.5011C8.88889 10.498 8.52113 9.57279 7.85359 8.89614Z" fill="white"/>
  </g>
</svg>
