<svg preserveAspectRatio="none" width="100%" height="100%" overflow="visible" style="display: block;" viewBox="0 0 672 556" fill="none" xmlns="http://www.w3.org/2000/svg">
<g id="Group 98138">
<ellipse id="Ellipse 2518" opacity="0.5" cx="336" cy="278" rx="336" ry="278" fill="var(--fill-0, #081B68)"/>
<g id="gfx_simpnl">
<mask id="mask0_0_109" style="mask-type:alpha" maskUnits="userSpaceOnUse" x="142" y="-41" width="354" height="306">
<path id="Ellipse 2603" d="M339.66 264.96C395.91 264.96 441.509 219.231 441.509 162.821H485.04C492.96 120.737 504.048 36.5713 485.04 36.5713C466.032 36.5713 235.835 -40.3564 142.112 -40.3564V162.821L208.565 191.273L256.217 221.401C274.637 247.741 305.144 264.96 339.66 264.96Z" fill="var(--fill-0, #D9D9D9)"/>
</mask>
<g mask="url(#mask0_0_109)">
<ellipse id="Ellipse 2602" cx="339.661" cy="162.821" rx="101.849" ry="102.14" fill="var(--fill-0, #1E276A)" fill-opacity="0.75"/>
<g id="Group 9606">
<path id="Vector" d="M300.086 121.064H231.379V122.054H300.086V121.064Z" fill="var(--fill-0, #C9E5FF)"/>
<path id="Vector_2" d="M300.793 122.049H230.676V123.036H300.793V122.049Z" fill="var(--fill-0, #A6D4FF)"/>
<path id="Vector_3" d="M301.76 123.04H229.71V124.03H301.76V123.04Z" fill="var(--fill-0, #89C3FA)"/>
<path id="Vector_4" d="M297.239 83.2696H232.982V121.061H297.239V83.2696Z" fill="var(--fill-0, #89C3FA)"/>
<path id="Vector_5" d="M301.605 83.9896H229.172L266.048 65.3846L301.605 83.9896Z" fill="var(--fill-0, #C9E5FF)"/>
<path id="Vector_6" d="M240.167 81.508L290.61 81.3996L266.02 68.6731L240.167 81.508Z" fill="var(--fill-0, #6CA9E3)"/>
<path id="Vector_7" d="M300.065 83.989H231.063V85.5811H300.065V83.989Z" fill="var(--fill-0, #89C3FA)"/>
<path id="Vector_8" d="M242.986 83.2696H236.188V85.712H242.986V83.2696Z" fill="var(--fill-0, #C9E5FF)"/>
<path id="Vector_9" d="M241.457 85.7114H237.71V121.06H241.457V85.7114Z" fill="var(--fill-0, #C9E5FF)"/>
<path id="Vector_10" d="M257.671 83.2696H250.873V85.712H257.671V83.2696Z" fill="var(--fill-0, #C9E5FF)"/>
<path id="Vector_11" d="M256.146 85.7114H252.399V121.06H256.146V85.7114Z" fill="var(--fill-0, #C9E5FF)"/>
<path id="Vector_12" d="M280.758 83.2696H273.96V85.712H280.758V83.2696Z" fill="var(--fill-0, #C9E5FF)"/>
<path id="Vector_13" d="M279.232 85.7114H275.485V121.06H279.232V85.7114Z" fill="var(--fill-0, #C9E5FF)"/>
<path id="Vector_14" d="M294.589 83.2696H287.791V85.712H294.589V83.2696Z" fill="var(--fill-0, #C9E5FF)"/>
<path id="Vector_15" d="M293.06 85.7114H289.313V121.06H293.06V85.7114Z" fill="var(--fill-0, #C9E5FF)"/>
<path id="Vector_16" d="M264.807 106.563H265.636C266.73 106.563 267.779 106.995 268.552 107.765C269.325 108.535 269.76 109.579 269.76 110.668V121.064H260.431V110.916C260.431 109.761 260.892 108.652 261.712 107.835C262.533 107.018 263.646 106.56 264.807 106.56V106.563Z" fill="var(--fill-0, #6CA9E3)"/>
<path id="Vector_17" d="M259.685 92.2786H260.076C260.591 92.2786 261.086 92.4824 261.45 92.8453C261.815 93.2082 262.019 93.7004 262.019 94.2136V99.1124H257.619V94.3326C257.619 94.0625 257.672 93.7951 257.776 93.5457C257.88 93.2963 258.032 93.0697 258.224 92.8789C258.416 92.6881 258.644 92.5369 258.895 92.4339C259.145 92.3309 259.414 92.2781 259.685 92.2786V92.2786Z" fill="var(--fill-0, #6CA9E3)"/>
<path id="Vector_18" d="M246.793 92.2786H247.183C247.698 92.2786 248.193 92.4824 248.557 92.8453C248.922 93.2082 249.127 93.7004 249.127 94.2136V99.1124H244.726V94.3326C244.726 94.0625 244.779 93.7951 244.883 93.5457C244.987 93.2963 245.139 93.0697 245.331 92.8789C245.523 92.6881 245.751 92.5369 246.002 92.4339C246.253 92.3309 246.521 92.2781 246.793 92.2786V92.2786Z" fill="var(--fill-0, #6CA9E3)"/>
<path id="Vector_19" d="M246.793 106.968H247.183C247.698 106.968 248.193 107.172 248.557 107.535C248.922 107.898 249.127 108.39 249.127 108.903V113.802H244.726V109.026C244.725 108.755 244.778 108.488 244.882 108.238C244.986 107.988 245.138 107.761 245.33 107.57C245.522 107.379 245.75 107.227 246.001 107.124C246.252 107.021 246.521 106.968 246.793 106.968V106.968Z" fill="var(--fill-0, #6CA9E3)"/>
<path id="Vector_20" d="M284.136 92.2785H284.526C285.041 92.2795 285.534 92.4838 285.898 92.8465C286.262 93.2093 286.466 93.701 286.466 94.2136V99.1124H282.072V94.3326C282.072 93.7878 282.29 93.2654 282.677 92.8802C283.064 92.495 283.588 92.2785 284.136 92.2785V92.2785Z" fill="var(--fill-0, #6CA9E3)"/>
<path id="Vector_21" d="M284.136 106.968H284.526C285.041 106.968 285.536 107.172 285.9 107.535C286.265 107.898 286.469 108.39 286.469 108.903V113.802H282.072V109.026C282.072 108.756 282.125 108.488 282.228 108.239C282.332 107.989 282.484 107.762 282.675 107.571C282.867 107.38 283.095 107.228 283.345 107.125C283.596 107.022 283.864 106.968 284.136 106.968V106.968Z" fill="var(--fill-0, #6CA9E3)"/>
<path id="Vector_22" d="M270.814 92.2785H271.204C271.721 92.2785 272.216 92.4828 272.581 92.8463C272.946 93.2099 273.151 93.703 273.151 94.2171V99.1159H268.751V94.3326C268.751 93.7878 268.968 93.2654 269.355 92.8802C269.742 92.495 270.267 92.2785 270.814 92.2785V92.2785Z" fill="var(--fill-0, #6CA9E3)"/>
</g>
<g id="Group 98140">
<ellipse id="Ellipse 2493" cx="1.04691" cy="1.04856" rx="1.04691" ry="1.04856" transform="matrix(-0.997468 -0.0711222 -0.0711222 0.997468 359.128 180.241)" fill="var(--fill-0, white)"/>
<g id="Group 98133">
<path id="Vector 2151" d="M288.197 359.18L287.431 332.355L269.402 331.321L268.019 358.339L288.197 359.18Z" fill="var(--fill-0, #775146)"/>
<path id="Vector 2153" d="M269.437 355.306C278.905 358.578 286.834 355.132 289.615 353L302.564 370.433L292.501 381.676C275.203 398.951 251.224 404.971 247.277 403.134C242.475 400.899 242.693 397.656 244.042 395.616L264.218 363.036C263.03 358.14 267.202 355.843 269.437 355.306Z" fill="var(--fill-0, #2B4596)"/>
<path id="Vector 2152" d="M268.681 353.55C278.149 356.822 286.078 353.376 288.859 351.244L298.326 364.352L289.129 375.579C273.19 394.554 250.572 400.971 245.985 398.609C242.315 396.719 244.101 395.416 245.006 393.964L263.463 361.28C262.274 356.384 266.446 354.087 268.681 353.55Z" fill="var(--fill-0, #192B77)"/>
<g id="Group 98130">
<path id="Vector_23" d="M257.146 370.08C259.95 371.181 262.61 372.615 265.07 374.353" stroke="var(--stroke-0, #294599)" stroke-width="1.04" stroke-miterlimit="10" stroke-linecap="round"/>
<path id="Vector_24" d="M254.309 375.197C256.651 376.178 258.874 377.42 260.938 378.9" stroke="var(--stroke-0, #294599)" stroke-width="1.04" stroke-miterlimit="10" stroke-linecap="round"/>
<path id="Vector_25" d="M251.429 379.754C253.526 380.758 255.546 381.917 257.471 383.221" stroke="var(--stroke-0, #294599)" stroke-width="1.04" stroke-miterlimit="10" stroke-linecap="round"/>
</g>
</g>
<g id="Group 98134">
<path id="Vector 2151_2" d="M355.511 370.444L345.78 345.434L328.452 350.515L336.222 376.428L355.511 370.444Z" fill="var(--fill-0, #775146)"/>
<path id="Vector 2153_2" d="M336.54 373.094C346.557 372.996 352.868 367.087 354.772 364.145L372.823 376.217L367.121 390.186C356.628 412.268 336.064 425.99 331.729 425.586C326.455 425.093 325.571 421.966 326.157 419.591L334.22 382.127C331.456 377.915 334.615 374.35 336.54 373.094Z" fill="var(--fill-0, #2B4596)"/>
<path id="Vector 2152_2" d="M335.238 371.694C345.255 371.596 351.566 365.688 353.469 362.746L366.789 371.914L361.896 385.578C353.255 408.803 334.106 422.443 328.992 421.759C324.9 421.211 326.145 419.384 326.51 417.712L332.918 380.728C330.154 376.515 333.313 372.95 335.238 371.694Z" fill="var(--fill-0, #192C78)"/>
<g id="Group 98130_2">
<path id="Vector_26" d="M329.924 391.139C332.935 391.234 335.922 391.692 338.823 392.503" stroke="var(--stroke-0, #294599)" stroke-width="1.04" stroke-miterlimit="10" stroke-linecap="round"/>
<path id="Vector_27" d="M328.97 396.911C331.505 397.049 334.017 397.472 336.457 398.173" stroke="var(--stroke-0, #294599)" stroke-width="1.04" stroke-miterlimit="10" stroke-linecap="round"/>
<path id="Vector_28" d="M327.79 402.171C330.102 402.412 332.393 402.826 334.644 403.408" stroke="var(--stroke-0, #294599)" stroke-width="1.04" stroke-miterlimit="10" stroke-linecap="round"/>
</g>
</g>
<path id="Vector 2170" d="M273.737 228.444C281.208 223.532 368.853 223.407 368.853 223.407L381.54 282.048C381.54 282.048 376.602 285.9 360.748 285.865C344.895 285.83 299.288 267.036 299.288 267.036L294.508 347.406L264.399 347.739C264.399 347.739 256.908 247.991 261.855 239.609C266.803 231.227 266.265 233.357 273.737 228.444Z" fill="var(--fill-0, #0E1548)"/>
<path id="Vector 2171" d="M275.489 228.187C284.983 225.06 368.852 223.407 368.852 223.407L372.754 242.81C372.754 242.81 381.187 254.862 365.334 254.827C349.481 254.792 290.505 254.827 290.505 254.827L286.825 346.859L264.399 347.74C264.399 347.74 257.891 258.04 260.591 247.093C262.603 238.935 265.995 231.314 275.489 228.187Z" fill="var(--fill-0, #080D2D)"/>
<path id="Vector 2172" d="M275.489 228.187C265.995 231.314 262.603 238.935 260.591 247.093C257.891 258.04 264.399 347.74 264.399 347.74" stroke="var(--stroke-0, #273894)" stroke-width="0.75"/>
<path id="Vector 2160" d="M283.275 159.432C285.013 163.662 288.033 165.767 288.033 165.767L283.739 179.055L273.262 175.67C269.173 174.349 259.251 166.627 256.07 162.495C252.89 158.363 248.409 151.27 247.528 147.881C246.648 144.492 245.708 143.906 247.646 142.275C249.585 140.643 253.426 142.731 253.426 142.731C253.426 142.731 259.763 148.448 265.227 151.625C270.692 154.802 270.107 155.177 272.838 154.084C275.569 152.991 276.149 140.659 279.07 139.164C281.992 137.67 282.29 141.616 282.29 141.616C282.29 141.616 280.546 147.015 281.024 151.649C281.502 156.283 281.538 155.202 283.275 159.432Z" fill="var(--fill-0, #CC7E67)"/>
<path id="Vector 2169" d="M314.965 267.262C318.783 264.429 360.481 229.992 360.481 229.992L393.584 218.338L407.361 257.869C407.361 257.869 406.818 275.008 380.658 282.573C354.498 290.139 347.987 294.622 347.987 294.622L355.001 358.054L328.384 363.098C328.384 363.098 303.389 295.983 303.389 285.611C303.389 275.239 311.147 270.094 314.965 267.262Z" fill="var(--fill-0, #080D2D)"/>
<path id="Vector 2166" d="M333.487 223.934C333.487 223.934 372.754 230.864 388.558 240.334C399.057 246.625 400.551 251.378 400.551 251.378C403.811 255.336 405.35 260.225 405.35 260.225C405.35 260.225 410.22 255.452 410.461 251.692L418.781 172.682C418.781 172.682 427.443 157.123 423.636 150.274C419.828 143.424 399.408 133.594 399.408 133.594C399.408 133.594 384.369 130.247 372.74 129.201C361.111 128.154 350.612 134.802 350.612 134.802C350.612 134.802 340.787 164.406 340.217 190.724L333.487 223.934Z" fill="var(--fill-0, #7A51B7)"/>
<path id="Vector 2173" d="M346.771 138.508C352.618 130.962 362.876 130.004 366.07 129.106L356.256 185.518C347.839 191.836 334.523 205.397 328.216 207.651C321.91 209.904 313.779 206.621 313.779 206.621L277.697 179.916L286.149 163.144L321.601 180.151C325.466 173.831 341.544 145.255 346.771 138.508Z" fill="var(--fill-0, #7A51B7)"/>
<path id="Vector_29" d="M414.013 275.258C416.056 275.669 419.745 275.635 422.803 275.51L422.739 284.165C422.721 284.641 422.714 285.626 422.723 286.892C422.745 291.118 423.012 298.575 423.635 300.929C424.439 303.979 426.576 302.503 426.545 300.666C426.515 299.254 427.351 290.23 427.733 286.171L427.915 286.143C427.908 289.997 428.14 298.789 428.829 301.379C429.632 304.43 431.77 302.954 431.738 301.117C431.712 299.531 432.756 288.4 433.047 285.396L433.184 285.375C433.204 289.54 433.425 297.388 434.09 299.78C434.899 302.835 437.036 301.359 437.005 299.523C436.973 298.314 437.58 291.525 437.997 287.046C438.399 290.68 438.967 294.878 439.524 296.453C440.488 299.181 442.328 297.666 442.166 296.003C442.049 294.854 442.114 288.174 442.168 284.078L442.913 273.631L444.155 256.219L431.56 258.263L426.637 258.831L426.003 267.714C423.287 268.734 416.781 271.259 415.071 271.646C412.248 272.283 410.107 274.463 414.013 275.258Z" fill="var(--fill-0, #CC7E67)"/>
<path id="Vector 2167" d="M429.883 156.94C424.752 148.586 415.177 142.536 411.031 140.555L392.797 164.193C408.371 177.852 423.58 201.237 426.309 217.462C428.599 231.077 427.043 254.431 425.979 264.406L447.079 268.251C448.862 260.097 454.197 240.363 452.02 219.647C449.299 193.753 436.297 167.382 429.883 156.94Z" fill="var(--fill-0, #7A51B7)"/>
<path id="Vector 2174" d="M333.931 223.115C339.502 200.061 347.445 168.667 351.011 158.249" stroke="var(--stroke-0, #A571F3)" stroke-width="0.75"/>
<path id="Vector 2168" d="M426.309 217.463C424.505 206.733 417.243 192.873 408.026 180.764" stroke="var(--stroke-0, #A571F3)" stroke-width="0.75"/>
<g id="Group 98137">
<path id="Vector_30" d="M402.907 60.9992C405.075 61.4884 407.139 62.2891 409.027 63.3719C426.617 73.4288 418.417 100.462 407.697 114.555C401.769 122.353 395.321 122.062 385.907 124.311C369.339 128.267 364.04 111.013 364.042 97.7673C364.053 87.9208 367.795 77.8759 374.989 70.6367C382.182 63.3975 392.996 58.767 402.907 60.9992Z" fill="var(--fill-0, #CC7E67)"/>
<path id="Vector 2176" d="M402.803 81.5292C402.015 74.0416 405.43 69.8709 407.236 68.7215L412.163 64.2881C416.103 62.6587 424.872 63.8257 428.418 81.5292C431.965 99.2326 417.795 105.935 417.795 105.935L412.163 100.248C409.371 97.1282 403.591 89.0167 402.803 81.5292Z" fill="var(--fill-0, #9B4420)"/>
<path id="Vector_31" d="M411.596 102.523C411.596 102.523 405.102 122.181 405.453 126.22C405.804 130.258 405.453 138.51 405.453 138.51C405.453 138.51 400.406 145.324 394.29 146.377C388.174 147.429 379.276 148.906 374.2 146.377C369.124 143.847 369.286 140.899 370.476 138.51C371.666 136.121 377.186 131.33 377.186 131.33L384.257 96.9632L411.592 102.522L411.596 102.523Z" fill="var(--fill-0, #CC7E67)"/>
<path id="Vector_32" d="M377.223 131.588L378.272 124.297C378.272 124.297 391.969 129.313 405.071 117.365C405.071 117.365 397.22 131.027 377.223 131.588Z" fill="var(--fill-0, #BA725C)"/>
<path id="Vector_33" d="M373.257 110.343C372.441 109.455 371.915 108.282 371.851 106.963C371.765 105.194 374.369 107.477 377.233 107.904C380.097 108.331 381.572 107.465 381.815 108.138C382.426 109.843 379.991 111.519 378.67 111.89C376.617 112.472 374.567 111.77 373.257 110.343Z" fill="var(--fill-0, white)"/>
<path id="Vector_34" d="M384.055 101.978L384.059 101.978C385.155 102.04 386.093 101.201 386.155 100.105L386.284 97.7851C386.346 96.6891 385.507 95.7508 384.41 95.6893L384.406 95.689C383.31 95.6275 382.372 96.4661 382.31 97.5621L382.181 99.8821C382.119 100.978 382.958 101.916 384.055 101.978Z" fill="var(--fill-0, black)"/>
<path id="Vector_35" d="M371.466 99.9092L371.47 99.9094C372.566 99.9709 373.505 99.1323 373.566 98.0364L373.696 95.7163C373.757 94.6204 372.918 93.682 371.822 93.6205L371.818 93.6203C370.721 93.5588 369.783 94.3974 369.722 95.4934L369.592 97.8134C369.531 98.9094 370.37 99.8477 371.466 99.9092Z" fill="var(--fill-0, black)"/>
<path id="Vector_36" d="M404.325 109.909C405.4 111.073 406.769 111.945 408.294 112.435C409.82 112.925 411.446 113.016 413.01 112.7C414.557 112.284 415.971 111.506 417.129 110.434C418.287 109.361 419.154 108.027 419.655 106.547C420.568 103.875 420.128 100.635 418.187 98.742C416.246 96.8486 412.462 96.5996 410.474 98.629L404.325 109.909Z" fill="var(--fill-0, #CC7E67)"/>
</g>
<path id="Vector 2175" d="M404.651 81.3424C373.518 88.0418 353.913 66.7286 350.957 58.1902C352.763 58.1902 364.166 59.1754 374.109 58.6828C384.052 58.1902 382.177 54.7443 398.74 51.7863C415.302 48.8284 424.847 70.9978 421.892 79.372L404.651 81.3424Z" fill="var(--fill-0, #9B4420)"/>
<path id="Vector 2176_2" d="M409.422 79.8781C381.199 94.6273 356.625 79.3057 351.502 71.8629C353.243 71.3818 364.496 69.2943 373.949 66.1713C383.402 63.0483 380.676 60.2264 395.853 52.964C411.029 45.7016 433.313 66.1712 428.879 85.2449L409.422 79.8781Z" fill="var(--fill-0, #9B4420)"/>
<path id="Vector_37" d="M373.068 89.3315C372.031 89.1447 370.962 89.2059 369.96 89.546C369.719 89.6277 369.532 89.8797 369.613 90.1424C369.687 90.3828 369.949 90.5773 370.206 90.4896C370.428 90.4161 370.65 90.3529 370.882 90.3057C371.003 90.2787 371.127 90.2589 371.249 90.2422C371.165 90.2527 371.294 90.2377 371.308 90.2349C371.37 90.2286 371.433 90.2222 371.494 90.219C371.727 90.2027 371.96 90.1997 372.192 90.2102C372.301 90.2169 372.41 90.2235 372.517 90.2365C372.533 90.2408 372.722 90.2628 372.618 90.2477C372.679 90.2579 372.74 90.2681 372.801 90.2783C373.051 90.3239 373.338 90.211 373.4 89.9376C373.456 89.6997 373.332 89.3846 373.063 89.3369L373.068 89.3315Z" fill="var(--fill-0, black)"/>
<path id="Vector_38" d="M385.353 92.0908C385.414 92.1018 385.475 92.1128 385.536 92.1238C385.436 92.1035 385.619 92.143 385.634 92.1474C385.74 92.1715 385.845 92.202 385.95 92.2326C386.172 92.3012 386.393 92.3828 386.604 92.4766C386.66 92.5004 386.717 92.5274 386.773 92.5544C386.777 92.5546 386.908 92.623 386.827 92.5811C386.936 92.6414 387.045 92.7017 387.151 92.765C387.349 92.8873 387.541 93.0222 387.725 93.1664C387.924 93.3247 388.267 93.2552 388.4 93.0396C388.547 92.8023 388.489 92.5302 388.274 92.361C387.446 91.7025 386.461 91.2872 385.422 91.1097C385.172 91.0684 384.91 91.3137 384.902 91.5613C384.894 91.8481 385.081 92.0382 385.35 92.0841L385.353 92.0908Z" fill="var(--fill-0, black)"/>
<path id="Vector_39" opacity="0.15" d="M363.705 97.827C363.704 106.833 366.153 117.693 372.93 122.478C367.087 111.763 368.387 92.9916 377.298 74.6295C381.466 66.041 386.735 58.7052 392.394 53.1204C387.919 54.2539 385.429 55.3875 383.336 56.3407C380.63 57.5728 378.586 58.5033 373.773 58.7418C366.195 59.1172 357.769 58.6343 353.39 58.3833C352.023 58.3049 351.05 58.2492 350.62 58.2492C351.647 61.2155 354.683 65.7236 359.514 70.0634C357.299 70.575 355.349 70.9954 353.87 71.3142C352.531 71.6028 351.579 71.8082 351.165 71.9226C353.316 75.0481 358.898 79.5631 366.739 82.657C364.735 87.4821 363.711 92.6816 363.705 97.827Z" fill="var(--fill-0, white)"/>
<g id="Vector_40">
<path fill-rule="evenodd" clip-rule="evenodd" d="M373.246 164.352C373.738 164.476 374.145 164.656 374.466 164.891C374.793 165.128 375.017 165.418 375.138 165.763C375.259 166.108 375.264 166.503 375.151 166.948L375.117 167.082C375.003 167.533 374.809 167.878 374.535 168.116C374.266 168.356 373.934 168.504 373.54 168.558C373.514 168.561 373.487 168.565 373.461 168.567L374.468 171.645C374.505 171.752 374.409 171.856 374.299 171.829L373.237 171.56C373.19 171.548 373.152 171.513 373.137 171.467L372.192 168.448L370.737 168.081L370.097 170.613C370.078 170.689 370 170.735 369.924 170.715L369.009 170.484C368.933 170.465 368.887 170.388 368.906 170.312L370.547 163.816C370.566 163.74 370.644 163.694 370.72 163.714L373.246 164.352ZM370.979 167.12L372.578 167.524C372.796 167.579 372.995 167.582 373.174 167.533C373.359 167.484 373.516 167.391 373.646 167.252C373.777 167.113 373.868 166.941 373.92 166.735C373.973 166.523 373.976 166.325 373.927 166.141C373.878 165.957 373.784 165.8 373.645 165.67C373.51 165.541 373.334 165.449 373.116 165.394L371.518 164.99L370.979 167.12Z" fill="var(--fill-0, #60389C)"/>
<path d="M385.553 167.739C385.629 167.759 385.675 167.836 385.656 167.912L385.448 168.736C385.429 168.812 385.351 168.858 385.275 168.839L382.437 168.122L382.022 169.761L384.696 170.437C384.772 170.456 384.818 170.533 384.799 170.61L384.591 171.433C384.571 171.509 384.494 171.556 384.418 171.536L381.745 170.861L381.302 172.611L384.214 173.346C384.291 173.366 384.337 173.443 384.318 173.519L384.087 174.433C384.068 174.509 383.99 174.555 383.914 174.536L379.864 173.513C379.787 173.493 379.741 173.416 379.76 173.34L381.403 166.837C381.423 166.761 381.5 166.715 381.576 166.735L385.553 167.739Z" fill="var(--fill-0, #60389C)"/>
<path d="M392.226 170.044C392.273 170.056 392.311 170.091 392.326 170.137L393.18 172.673L393.379 172.723L395.331 170.896C395.367 170.863 395.417 170.85 395.464 170.862L396.527 171.131C396.637 171.159 396.672 171.298 396.589 171.374L393.901 173.909L395.27 177.797C395.31 177.904 395.213 178.011 395.102 177.983L393.994 177.704C393.948 177.692 393.911 177.658 393.895 177.614L392.892 174.65L392.694 174.6L390.477 176.748C390.442 176.781 390.392 176.793 390.345 176.782L389.281 176.513C389.171 176.485 389.136 176.346 389.22 176.27L392.243 173.44L390.937 169.946C390.9 169.839 390.996 169.734 391.106 169.761L392.226 170.044Z" fill="var(--fill-0, #60389C)"/>
<path d="M360.851 161.085C360.898 161.097 360.936 161.131 360.951 161.177L361.805 163.714L362.003 163.764L363.956 161.937C363.991 161.904 364.041 161.891 364.088 161.903L365.152 162.171C365.262 162.199 365.297 162.338 365.213 162.414L362.526 164.95L363.895 168.837C363.934 168.945 363.837 169.052 363.726 169.024L362.619 168.744C362.573 168.732 362.536 168.699 362.52 168.654L361.517 165.69L361.318 165.64L359.102 167.788C359.067 167.821 359.017 167.834 358.97 167.822L357.906 167.553C357.796 167.525 357.761 167.387 357.844 167.31L360.868 164.481L359.562 160.986C359.525 160.879 359.621 160.774 359.731 160.802L360.851 161.085Z" fill="var(--fill-0, #60389C)"/>
</g>
</g>
</g>
</g>
</g>
</svg>
