<svg width="56" height="46" viewBox="0 0 56 45.5" fill="none" xmlns="http://www.w3.org/2000/svg">
  <!-- Bank building -->
  <g>
    <path d="M54.7091 42.9551H1.70285V43.719H54.7091V42.9551Z" fill="#C9E5FF"/>
    <path d="M55.2544 43.716H1.16076V44.4773H55.2544V43.716Z" fill="#A6D4FF"/>
    <path d="M56 44.4803H0.414933V45.2442H56V44.4803Z" fill="#89C3FA"/>
    <path d="M52.5126 13.7977H2.93942V42.9526H52.5126V13.7977Z" fill="#89C3FA"/>
    <path d="M55.8807 14.3534H0L28.4488 0L55.8807 14.3534Z" fill="#C9E5FF"/>
    <path d="M8.48237 12.439L47.3985 12.3553L28.4272 2.53716L8.48237 12.439Z" fill="#6CA9E3"/>
    <path d="M54.6928 14.3532H1.45878V15.5814H54.6928V14.3532Z" fill="#89C3FA"/>
    <path d="M10.6572 13.7977H5.41271V15.682H10.6572V13.7977Z" fill="#C9E5FF"/>
    <path d="M9.47747 15.6817H6.58676V42.9523H9.47747V15.6817Z" fill="#C9E5FF"/>
    <path d="M21.9867 13.7977H16.7422V15.682H21.9867V13.7977Z" fill="#C9E5FF"/>
    <path d="M20.8097 15.6817H17.919V42.9523H20.8097V15.6817Z" fill="#C9E5FF"/>
    <path d="M39.7974 13.7977H34.553V15.682H39.7974V13.7977Z" fill="#C9E5FF"/>
    <path d="M38.6205 15.6817H35.7297V42.9523H38.6205V15.6817Z" fill="#C9E5FF"/>
    <path d="M50.468 13.7977H45.2235V15.682H50.468V13.7977Z" fill="#C9E5FF"/>
    <path d="M49.2886 15.6817H46.3979V42.9523H49.2886V15.6817Z" fill="#C9E5FF"/>
    <path d="M27.4916 31.7683H28.1315C28.9752 31.7683 29.7842 32.1019 30.3808 32.6957C30.9773 33.2896 31.3124 34.095 31.3124 34.9348V42.9551H24.1155V35.1265C24.1155 34.2351 24.4712 33.3803 25.1043 32.75C25.7374 32.1197 26.5962 31.7656 27.4916 31.7656V31.7683Z" fill="#6CA9E3"/>
    <path d="M23.5406 20.7483H23.8416C24.2393 20.7483 24.6207 20.9055 24.902 21.1855C25.1832 21.4655 25.3412 21.8452 25.3412 22.2411V26.0204H21.9461V22.3329C21.9461 22.1246 21.9874 21.9183 22.0675 21.7259C22.1477 21.5334 22.2652 21.3586 22.4133 21.2114C22.5614 21.0643 22.7372 20.9476 22.9306 20.8681C23.1241 20.7886 23.3313 20.7479 23.5406 20.7483Z" fill="#6CA9E3"/>
    <path d="M13.5939 20.7483H13.8949C14.2926 20.7483 14.6741 20.9055 14.9553 21.1855C15.2365 21.4655 15.3945 21.8452 15.3945 22.2411V26.0204H11.9994V22.3329C11.9994 22.1246 12.0407 21.9183 12.1209 21.7259C12.201 21.5334 12.3185 21.3586 12.4666 21.2114C12.6147 21.0643 12.7905 20.9476 12.9839 20.8681C13.1774 20.7886 13.3847 20.7479 13.5939 20.7483Z" fill="#6CA9E3"/>
    <path d="M13.594 32.0811H13.895C14.2927 32.0811 14.6741 32.2383 14.9553 32.5183C15.2366 32.7983 15.3946 33.178 15.3946 33.5739V37.3532H11.9995V33.6684C11.9991 33.4598 12.0401 33.2533 12.1201 33.0605C12.2001 32.8678 12.3176 32.6926 12.4657 32.5452C12.6138 32.3977 12.7897 32.2808 12.9834 32.2012C13.177 32.1215 13.3845 32.0807 13.594 32.0811Z" fill="#6CA9E3"/>
    <path d="M42.4033 20.7483H42.7043C43.1016 20.749 43.4823 20.9066 43.763 21.1865C44.0436 21.4663 44.2012 21.8456 44.2012 22.2411V26.0204H40.8116V22.3329C40.8116 21.9126 40.9793 21.5096 41.2778 21.2124C41.5763 20.9152 41.9812 20.7483 42.4033 20.7483Z" fill="#6CA9E3"/>
    <path d="M42.4033 32.0811H42.7043C43.1021 32.0811 43.4835 32.2383 43.7647 32.5183C44.0459 32.7983 44.2039 33.178 44.2039 33.5739V37.3532H40.8116V33.6684C40.8112 33.4601 40.8521 33.2537 40.9319 33.0611C41.0118 32.8686 41.129 32.6936 41.2768 32.5461C41.4247 32.3987 41.6003 32.2817 41.7936 32.2019C41.9869 32.1221 42.1941 32.0811 42.4033 32.0811Z" fill="#6CA9E3"/>
    <path d="M32.1259 20.7483H32.4269C32.8253 20.7483 33.2074 20.9058 33.4891 21.1863C33.7709 21.4668 33.9292 21.8472 33.9292 22.2438V26.0231H30.5341V22.3329C30.5341 21.9126 30.7018 21.5096 31.0003 21.2124C31.2988 20.9152 31.7037 20.7483 32.1259 20.7483Z" fill="#6CA9E3"/>
  </g>
  <!-- Badge rings + NT$ -->
  <circle cx="28" cy="24.26" r="14.7803" fill="#6CA9E3"/>
  <circle cx="28" cy="24.26" r="13.6118" fill="url(#illuBankTwdGrad)"/>
  <g transform="translate(18.14 19.53)">
    <path d="M0 8.53327V1.33327H1.13076L4.9121 6.68327V1.33327H6.04276V8.53327H4.9121L1.13076 3.17827V8.53327H0Z" fill="white"/>
    <path d="M9.44602 8.53327V2.31827H6.89135V1.33327H13.1153V2.31827H10.5607V8.53327H9.44602Z" fill="white"/>
    <path d="M16.3068 9.46662V8.25012H17.4214V9.46662H16.3068ZM16.3068 1.22152V0H17.4214V1.22152H16.3068ZM16.9201 8.58384C16.3868 8.58384 15.9103 8.49142 15.4908 8.3066C15.0712 8.12177 14.7263 7.85993 14.4561 7.52108C14.1894 7.1788 14.0152 6.77492 13.9334 6.30943L15.0374 6.14C15.1441 6.57811 15.3717 6.92723 15.7201 7.18736C16.0685 7.44407 16.4863 7.57242 16.9734 7.57242C17.457 7.57242 17.8499 7.46118 18.1521 7.2387C18.4579 7.01622 18.6108 6.73214 18.6108 6.38644C18.6108 6.14 18.5325 5.93977 18.3761 5.78575C18.2232 5.63172 17.9725 5.50166 17.6241 5.39556L15.8214 4.86161C14.7548 4.54329 14.2214 3.9272 14.2214 3.01333C14.2214 2.58206 14.3281 2.20727 14.5414 1.88896C14.7583 1.57064 15.0623 1.32421 15.4534 1.14965C15.8445 0.975086 16.3014 0.887806 16.8241 0.887806C17.3254 0.894652 17.7699 0.983643 18.1574 1.15478C18.5485 1.32592 18.8721 1.57235 19.1281 1.89409C19.3877 2.21583 19.5672 2.6026 19.6668 3.0544L18.5308 3.2495C18.481 2.98595 18.3761 2.7532 18.2161 2.55126C18.0597 2.34932 17.8605 2.19187 17.6188 2.07892C17.3805 1.96597 17.1121 1.90778 16.8134 1.90436C16.5325 1.89751 16.2801 1.9403 16.0561 2.03271C15.8357 2.1217 15.6597 2.24835 15.5281 2.41264C15.4001 2.57351 15.3361 2.75662 15.3361 2.96199C15.3361 3.18789 15.4268 3.37956 15.6081 3.53701C15.7894 3.69445 16.0757 3.82965 16.4668 3.9426L17.8801 4.33793C18.5272 4.52276 18.9948 4.77091 19.2828 5.08237C19.5708 5.39384 19.7148 5.808 19.7148 6.32483C19.7148 6.77663 19.5974 7.17196 19.3628 7.51081C19.1317 7.84624 18.8063 8.10979 18.3868 8.30146C17.9672 8.48971 17.4783 8.58384 16.9201 8.58384Z" fill="white"/>
  </g>
  <defs>
    <linearGradient id="illuBankTwdGrad" x1="22.33" y1="16.89" x2="33.67" y2="36.17" gradientUnits="userSpaceOnUse">
      <stop stop-color="#1F4C99"/>
      <stop offset="1" stop-color="#5DAAF1"/>
    </linearGradient>
  </defs>
</svg>
