<svg preserveAspectRatio="none" width="100%" height="100%" overflow="visible" style="display: block;" viewBox="0 0 84 80" fill="none" xmlns="http://www.w3.org/2000/svg">
<g id="Vector" opacity="0.2">
<path d="M64.6452 38.6473C53.9558 38.6473 45.2903 29.9958 45.2903 19.3236C45.2903 8.65149 53.9558 0 64.6452 0C75.3345 0 84 8.65149 84 19.3236C84 29.9958 75.3345 38.6473 64.6452 38.6473Z" fill="#0184FF"/>
<path d="M19.3548 79.9998C8.66545 79.9998 0 71.3483 0 60.6762C0 50.004 8.66545 41.3525 19.3548 41.3525C30.0442 41.3525 38.7097 50.004 38.7097 60.6762C38.7097 71.3483 30.0442 79.9998 19.3548 79.9998Z" fill="#0184FF"/>
<path d="M1.4018 0.000174554C0.884499 0.000174554 0.625435 0.624605 0.99122 0.989801L37.7184 37.6578C38.0842 38.023 38.7097 37.7644 38.7097 37.2479V0.579884C38.7097 0.259718 38.4497 0.000174554 38.129 0.000174554H1.4018Z" fill="#0184FF"/>
<path d="M82.5984 80C83.1157 80 83.3748 79.3756 83.009 79.0104L46.2818 42.3423C45.916 41.9771 45.2905 42.2358 45.2905 42.7523V79.4203C45.2905 79.7405 45.5505 80 45.8712 80H82.5984Z" fill="#0184FF"/>
</g>
</svg>
