<svg preserveAspectRatio="none" width="100%" height="100%" overflow="visible" style="display: block;" viewBox="0 0 455.237 455.36" fill="none" xmlns="http://www.w3.org/2000/svg">
<g id="Group 7863">
<path id="Vector" d="M308.242 190.836L314.722 199.943L315.97 199.693L316.475 194.005L316.908 187.694L316.165 183.964L314.166 183.486L311.402 186.25L306.484 187.858L308.242 190.836Z" fill="var(--fill-0, #202326)"/>
<path id="Vector_2" d="M441.835 150.852C441.511 149.941 441.147 149.053 440.806 148.147C439.581 144.882 438.287 141.631 436.908 138.393C436.288 136.936 435.655 135.497 435.004 134.058C434.526 132.997 434.103 131.927 433.602 130.87C432.363 128.229 431.07 125.625 429.74 123.052C429.608 122.792 429.463 122.546 429.33 122.291C427.227 118.262 425.014 114.327 422.705 110.479C422.559 110.234 422.418 109.983 422.268 109.737C419.791 105.639 417.191 101.655 414.49 97.7658C414.427 97.6747 414.372 97.5837 414.308 97.4971C397.246 72.9669 375.889 52.5941 351.769 36.9206C351.632 36.8295 351.496 36.743 351.359 36.6565C347.434 34.1156 343.436 31.6976 339.37 29.4072C339.033 29.2159 338.691 29.0338 338.35 28.8471C334.374 26.634 330.34 24.5302 326.246 22.5631C325.845 22.3627 325.436 22.1851 325.035 21.9939C320.896 20.0358 316.711 18.1825 312.462 16.4749C312.198 16.3702 311.934 16.2791 311.67 16.1744C307.344 14.4577 302.973 12.8639 298.551 11.4159C298.387 11.3612 298.228 11.302 298.064 11.2474C293.478 9.75381 288.847 8.41961 284.171 7.22201C284.016 7.18103 283.87 7.12638 283.711 7.08996C283.711 7.08996 283.706 7.09451 283.706 7.09906C265.424 2.42707 246.517 0 227.433 0C226.067 0 224.692 0.0865184 223.321 0.109286C222.424 0.122947 221.522 0.154822 220.63 0.182144C212.984 0.414378 205.33 1.03367 197.671 2.04912C196.537 2.19939 195.407 2.34055 194.278 2.50903C192.129 2.82779 189.98 3.17386 187.835 3.55636C186.337 3.82047 184.852 4.12101 183.368 4.41699C180.667 4.95432 177.967 5.53262 175.276 6.17013C172.963 6.71656 170.659 7.28121 168.373 7.89594C166.893 8.29666 165.413 8.72925 163.933 9.16184C161.574 9.84944 159.234 10.578 156.907 11.3385C155.787 11.7073 154.666 12.0534 153.546 12.4404C150.099 13.6289 146.688 14.8994 143.31 16.2427C142.563 16.5432 141.821 16.8665 141.069 17.1716C138.1 18.392 135.163 19.6761 132.254 21.0194C131.762 21.2425 131.265 21.4338 130.774 21.666C130.464 21.8117 130.168 21.9757 129.858 22.1259C126.716 23.6241 123.597 25.1632 120.528 26.8025C119.936 27.1167 119.367 27.4582 118.779 27.777C116.425 29.0565 114.094 30.3725 111.785 31.7386C110.383 32.5673 109.003 33.4189 107.623 34.2704C106.248 35.1265 104.877 35.9917 103.525 36.8751C101.899 37.9315 100.278 38.9879 98.6844 40.0808C97.924 40.6045 97.1817 41.1463 96.4258 41.6791C90.0963 46.1325 84.0446 50.8728 78.2843 55.8727C77.8881 56.2188 77.4874 56.5603 77.0958 56.9063C75.1378 58.6322 73.207 60.3807 71.3173 62.1612C71.0851 62.3798 70.8574 62.6075 70.6251 62.826C64.751 68.4178 59.2184 74.2874 54.0273 80.4075C53.5992 80.9129 53.1666 81.4047 52.7432 81.9147C51.3224 83.6223 49.9427 85.3481 48.5721 87.0922C47.8754 87.9801 47.1787 88.8772 46.4956 89.7788C45.2661 91.3908 44.0549 93.0073 42.8755 94.6511C42.0559 95.7895 41.2635 96.9507 40.4621 98.1073C39.4193 99.6146 38.3674 101.113 37.3611 102.643C35.6763 105.202 34.0415 107.797 32.4569 110.438C31.7875 111.554 31.1636 112.693 30.517 113.822C29.4743 115.63 28.436 117.437 27.4388 119.282C26.774 120.516 26.1365 121.754 25.4944 122.997C24.57 124.782 23.6639 126.581 22.7805 128.398C22.1794 129.646 21.5829 130.893 21.0046 132.155C20.1303 134.053 19.2833 135.971 18.4545 137.897C17.9582 139.076 17.4482 140.251 16.961 141.435C16.7788 141.877 16.583 142.305 16.4009 142.746C16.4282 142.714 16.4601 142.678 16.4919 142.646C9.361 160.36 4.44767 178.943 1.92042 197.95C1.92042 197.95 1.91586 197.95 1.91131 197.95C1.81569 198.66 1.77926 199.37 1.69274 200.081C1.27381 203.469 0.909519 206.87 0.640857 210.281C0.563445 211.26 0.536124 212.234 0.472373 213.213C0.262908 216.437 0.0989781 219.666 0.0261205 222.908C0.00790607 223.828 0.0215669 224.747 0.0124597 225.667C-0.0194155 228.964 0.00790607 232.261 0.117192 235.567C0.144514 236.405 0.194604 237.238 0.231032 238.076C0.381301 241.455 0.604428 244.829 0.909519 248.217C0.977823 248.973 1.05523 249.724 1.13265 250.48C1.47417 253.9 1.89765 257.315 2.39855 260.73C2.50328 261.454 2.61257 262.183 2.72641 262.911C3.25462 266.281 3.86481 269.646 4.54785 273.007C4.70722 273.781 4.85749 274.555 5.02142 275.324C5.70901 278.535 6.48313 281.74 7.31643 284.937C7.55322 285.848 7.77635 286.758 8.0268 287.665C8.82823 290.597 9.71618 293.511 10.6406 296.426C11.0049 297.578 11.3509 298.739 11.738 299.886C12.5941 302.436 13.5321 304.964 14.4838 307.5C15.0302 308.953 15.5493 310.419 16.1231 311.858C16.9928 314.039 17.9445 316.202 18.8871 318.37C19.6294 320.077 20.3397 321.794 21.123 323.479C21.2778 323.816 21.4098 324.162 21.5692 324.503C22.9626 327.468 24.4243 330.377 25.9316 333.251C26.2458 333.856 26.5827 334.453 26.9015 335.054C28.5681 338.173 30.2939 341.233 32.0835 344.248C32.2884 344.589 32.4842 344.94 32.6891 345.286C34.8293 348.838 37.056 352.312 39.3601 355.714C39.3647 355.718 39.3647 355.723 39.3692 355.727C82.3461 419.036 153.692 455.36 227.743 455.36C260.173 455.36 293.11 448.402 324.402 433.694C431.584 383.327 481.15 260.088 441.835 150.852ZM320.527 425.452C291.151 439.254 259.937 446.253 227.743 446.253C160.663 446.253 97.8283 415.056 56.8551 363.919C56.2722 362.385 55.6893 360.855 55.1065 359.32C57.6155 359.621 60.1291 359.917 62.6336 360.217C64.0088 359.794 65.3839 359.379 66.7546 358.96C67.2327 355.978 67.7108 352.986 68.189 349.994C67.8292 346.415 67.474 342.827 67.1143 339.243C66.454 337.513 65.7983 335.778 65.1381 334.043C66.0351 333.446 66.9367 332.85 67.8292 332.249C68.2482 330.573 68.6671 328.902 69.0815 327.226C70.3975 326.334 71.7134 325.432 73.0249 324.54C73.207 321.493 73.3846 318.442 73.5622 315.396C72.7835 313.661 72.0094 311.926 71.2308 310.191C69.5004 309.24 67.7655 308.283 66.0306 307.327C64.2956 304.34 62.5653 301.348 60.8303 298.361C58.4989 297.05 56.172 295.734 53.8406 294.418C51.0902 292.746 48.3444 291.075 45.594 289.395C44.0367 286.59 42.4839 283.78 40.9311 280.966C38.6634 278.102 36.3912 275.229 34.1235 272.364C34.1235 269.614 34.1235 266.868 34.1235 264.113C33.3448 261.604 32.5661 259.091 31.7875 256.586C29.6382 253.299 27.4889 250.015 25.335 246.728C23.7823 242.839 22.2249 238.959 20.6767 235.075C20.0802 231.132 19.4791 227.193 18.8826 223.24C18.2223 220.677 17.5666 218.104 16.9109 215.536C14.839 211.119 12.7671 206.702 10.6952 202.28C11.6697 194.088 13.1177 185.974 14.9893 177.973L17.4892 185.054L21.1366 190.463L23.9553 191.993L20.7814 185.054L18.4409 176.844L18.327 169.08L18.0219 166.512C23.6274 147.304 31.8239 128.885 42.452 111.841C44.2097 110.534 45.9674 109.232 47.7251 107.925C49.9199 105.889 52.1193 103.849 54.3096 101.809C57.5654 100.557 60.8212 99.3004 64.0771 98.0481C65.8803 97.3013 67.6835 96.5591 69.4867 95.8123C69.6825 97.0645 69.8784 98.3259 70.0742 99.5781C71.8774 99.6146 73.6806 99.6555 75.4838 99.692C78.0703 98.8313 80.6613 97.9662 83.2477 97.1055C80.8571 96.2449 78.4619 95.3797 76.0758 94.5236C77.6422 93.1075 79.2087 91.7004 80.7751 90.2842C82.0319 88.991 83.2887 87.6978 84.5409 86.4C83.99 85.0294 83.4435 83.6542 82.8971 82.2881C84.3816 82.1287 85.8751 81.9739 87.3642 81.8145C89.049 83.3855 90.7338 84.9474 92.4187 86.5184C94.1809 86.4774 95.9432 86.4364 97.71 86.4C99.3219 86.3226 100.925 86.2452 102.537 86.1678C103.712 84.0868 104.886 82.0103 106.061 79.9339C106.885 76.9923 107.705 74.0506 108.529 71.109C112.373 66.4052 116.216 61.7013 120.059 56.9929C117.35 57.6987 114.649 58.409 111.945 59.1103C113.939 56.6013 115.943 54.0922 117.937 51.5877C119.312 49.3929 120.683 47.1935 122.053 44.9987C119.781 46.0232 117.504 47.0387 115.232 48.0587C111.94 50.5677 108.648 53.0813 105.355 55.5858C102.801 56.7606 100.255 57.94 97.7054 59.1103C94.1399 60.5265 90.5745 61.9335 86.9999 63.3497C90.3331 60.4855 93.6664 57.6213 96.995 54.7616C97.8511 53.3864 98.6981 52.0112 99.5496 50.6406C108.142 44.4295 117.277 38.7785 126.944 33.7649C128.488 33.9425 130.031 34.1201 131.58 34.2977C131.78 35.9416 131.971 37.59 132.172 39.2384C130.919 41.3922 129.658 43.5461 128.406 45.7045C127.386 47.5077 126.37 49.3109 125.35 51.1142C128.21 51.1551 131.074 51.1961 133.934 51.228C136.994 49.6206 140.049 48.0132 143.109 46.4057C146.638 44.7619 150.167 43.1089 153.696 41.4651C156.829 40.0899 159.967 38.7193 163.104 37.3486C161.888 36.6428 160.673 35.937 159.457 35.2312C159.338 34.0154 159.22 32.8041 159.106 31.5838C160.436 30.0583 161.77 28.5283 163.104 26.9983C163.805 25.4683 164.516 23.9383 165.222 22.4083C166.278 23.3509 167.339 24.2889 168.395 25.2315C168.901 24.5667 169.416 23.8973 169.926 23.2325C171.141 23.6241 172.353 24.0202 173.573 24.4119C175.731 24.6077 177.881 24.8035 180.039 24.9993C178.591 26.9209 177.138 28.8425 175.69 30.7641C174.866 31.7067 174.047 32.6448 173.218 33.5874C171.574 35.55 169.925 37.508 168.277 39.4661C165.654 41.7429 163.027 44.0151 160.399 46.2873C158.678 46.8383 156.952 47.3848 155.226 47.9358C153.423 49.7754 151.62 51.6196 149.817 53.4638C148.014 54.4019 146.21 55.3445 144.407 56.2871C142.526 58.1677 140.646 60.0483 138.765 61.929C137.864 63.418 136.962 64.907 136.056 66.396C136.529 66.8696 136.998 67.3386 137.472 67.8122C137.121 68.9461 136.766 70.0845 136.416 71.2183C137.577 71.8148 138.738 72.4114 139.899 73.0033C141.115 71.9833 142.331 70.9679 143.546 69.9479C145.231 68.8914 146.916 67.8304 148.601 66.774C150.595 65.5536 152.604 64.3424 154.598 63.1266C156.716 62.8898 158.833 62.653 160.95 62.4208C163.505 61.5601 166.046 60.6949 168.596 59.8343C169.889 59.0101 171.182 58.1905 172.485 57.3663C173.773 57.6759 175.067 57.9947 176.364 58.3043C179.62 57.7988 182.876 57.2843 186.127 56.7743C187.42 55.8772 188.714 54.9711 190.011 54.0694C191.582 52.462 193.149 50.8546 194.715 49.2472C196.988 47.1298 199.264 45.0123 201.537 42.8949C202.83 41.4787 204.123 40.0717 205.421 38.6555C207.147 37.0481 208.872 35.4407 210.598 33.8332C211.969 33.2868 213.344 32.7358 214.71 32.1894C213.831 30.5091 212.966 28.8288 212.105 27.1395C213.868 28.0411 215.63 28.9427 217.397 29.8488C220.571 30.3543 223.749 30.8689 226.923 31.3743C229.983 31.2969 233.038 31.2195 236.098 31.1375C239.942 30.4727 243.785 29.8079 247.624 29.143C248.603 27.8908 249.586 26.634 250.565 25.3818C252.724 25.9282 254.877 26.4746 257.036 27.0256C258.056 26.9437 259.071 26.8708 260.096 26.7888C259.896 25.1814 259.7 23.574 259.504 21.9666C260.756 21.1424 262.013 20.3182 263.27 19.494C265.109 18.8291 266.954 18.1598 268.798 17.4995C270.952 17.5769 273.11 17.6543 275.268 17.7317C275.373 16.7846 275.492 15.8329 275.601 14.8812C275.428 14.7309 275.25 14.5806 275.077 14.4304C279.239 15.3684 283.365 16.4339 287.454 17.6088C287.295 18.2736 287.131 18.943 286.971 19.6124C285.892 18.9749 284.808 18.3419 283.729 17.7044C281.634 18.1507 279.535 18.5924 277.441 19.0386C278.014 20.6278 278.584 22.2125 279.157 23.8017C281.73 26.4382 284.303 29.0747 286.871 31.7113C286.775 33.897 286.684 36.0918 286.584 38.2821C288.392 39.7074 290.204 41.1418 292.012 42.5671C290.678 44.7573 289.344 46.9476 288.009 49.1379C288.866 49.2973 289.726 49.4567 290.582 49.6115C291.375 50.5313 292.171 51.4511 292.959 52.3755C290.673 53.0403 288.387 53.7052 286.101 54.37C285.305 56.3098 284.512 58.2497 283.72 60.1804C282.928 60.786 282.131 61.3916 281.343 61.9927C280.136 62.8169 278.93 63.6411 277.723 64.4653C276.767 63.7367 275.815 63.0082 274.863 62.2796C274.098 61.674 273.338 61.0683 272.573 60.4673C271.243 60.0574 269.909 59.6431 268.575 59.2332C266.576 59.0739 264.572 58.919 262.573 58.7597C261.526 58.6003 260.478 58.4455 259.431 58.2861C258.825 58.1905 258.224 58.0948 257.623 57.9992C256.927 57.3617 256.225 56.7288 255.529 56.0912C254.317 56.0912 253.115 56.0912 251.909 56.0912C250.574 56.3462 249.24 56.5967 247.906 56.8517C246.449 57.2342 244.982 57.6167 243.525 57.9992C242.505 59.2651 241.494 60.5401 240.474 61.806C239.837 63.2358 239.204 64.6657 238.571 66.091C237.774 67.1702 236.977 68.2539 236.189 69.3331C234.951 70.6354 233.712 71.9378 232.474 73.2356C231.299 74.0006 230.124 74.761 228.949 75.526C227.679 77.015 226.408 78.5086 225.138 79.9977C223.767 81.2362 222.406 82.4748 221.04 83.7134C220.821 84.9201 220.593 86.1268 220.375 87.3335C220.47 88.2852 220.562 89.2369 220.662 90.1932C220.917 91.113 221.167 92.0328 221.422 92.9526C221.868 93.7131 222.31 94.4781 222.756 95.2386C223.421 95.5892 224.091 95.9353 224.755 96.2859C225.898 95.744 227.041 95.2067 228.184 94.6694C228.248 93.8725 228.312 93.0801 228.376 92.2878C229.901 91.9417 231.426 91.5911 232.947 91.245C233.016 91.8142 233.075 92.3834 233.139 92.9572C233.84 94.2276 234.541 95.4981 235.238 96.7686C235.775 97.6565 236.312 98.549 236.854 99.437C236.759 99.9743 236.663 100.516 236.567 101.053C236.631 101.85 236.69 102.643 236.754 103.435C237.865 103.594 238.976 103.749 240.087 103.909C240.752 103.335 241.422 102.766 242.086 102.192C243.229 101.4 244.372 100.603 245.515 99.8104C245.169 98.7949 244.819 97.7795 244.472 96.764C244.345 95.744 244.217 94.7331 244.09 93.7131C245.77 93.0164 247.455 92.3151 249.14 91.6184C248.534 90.6986 247.929 89.7788 247.328 88.859C246.185 88.1941 245.042 87.5248 243.899 86.8599C243.967 84.829 244.026 82.7936 244.09 80.7627C245.456 79.6516 246.822 78.5405 248.184 77.4294C248.598 76.1954 249.012 74.9523 249.418 73.7137C250.023 72.7301 250.629 71.7465 251.23 70.7629C252.687 70.7948 254.153 70.8313 255.611 70.8586C255.834 71.9378 256.057 73.017 256.275 74.0962C255.041 75.0798 253.798 76.0679 252.56 77.0469C252.182 78.2582 251.799 79.4603 251.417 80.667C252.059 82.1925 252.687 83.7179 253.325 85.2434C253.93 86.1313 254.531 87.0239 255.132 87.9118C256.849 87.8162 258.566 87.7206 260.278 87.6249C261.134 86.737 261.99 85.8445 262.846 84.9611C264.786 85.4028 266.726 85.8445 268.657 86.2907C268.625 86.7689 268.593 87.247 268.561 87.7206C267.801 88.1349 267.036 88.5448 266.275 88.9546C264.686 89.5283 263.101 90.0975 261.508 90.6713C260.365 90.9582 259.222 91.245 258.079 91.5274C257.509 92.5428 256.936 93.5583 256.366 94.5737C256.776 95.0473 257.191 95.5254 257.601 95.999C256.872 96.2586 256.143 96.509 255.41 96.764C255.638 98.2576 255.856 99.7466 256.075 101.24C256.649 102.192 257.218 103.144 257.792 104.1C256.458 104.988 255.123 105.88 253.789 106.768C252.992 106.955 252.2 107.146 251.408 107.337C250.907 106.891 250.392 106.45 249.887 106.003C249.504 106.258 249.126 106.509 248.744 106.768C247.947 107.306 247.155 107.843 246.362 108.385C245.506 108.795 244.65 109.214 243.794 109.619C243.48 110.316 243.156 111.017 242.838 111.718C242.109 111.076 241.381 110.448 240.652 109.81C240.178 109.05 239.7 108.285 239.222 107.524C238.653 108.093 238.079 108.667 237.51 109.241C235.953 109.113 234.395 108.981 232.843 108.858C232.305 108.002 231.759 107.142 231.222 106.286C231.536 105.243 231.859 104.191 232.173 103.144C232.588 102.224 233.002 101.304 233.412 100.384C232.742 99.4005 232.078 98.4124 231.408 97.4334C230.675 98.0709 229.947 98.7038 229.218 99.3368C228.457 100.193 227.692 101.053 226.932 101.91C227.406 103.526 227.884 105.147 228.357 106.768C228.421 107.875 228.485 108.986 228.549 110.102C227.597 110.448 226.641 110.798 225.689 111.144C224.482 111.144 223.28 111.144 222.073 111.144C221.34 111.65 220.612 112.164 219.878 112.665C219.241 113.713 218.613 114.764 217.975 115.812C217.119 116.54 216.258 117.269 215.407 118.002C213.913 118.539 212.42 119.081 210.931 119.619C210.835 120.379 210.735 121.139 210.644 121.904C209.533 122.537 208.422 123.17 207.315 123.808C207.219 124.254 207.124 124.7 207.028 125.142C205.412 124.951 203.791 124.764 202.174 124.573C201.983 125.301 201.792 126.03 201.6 126.759C200.995 126.986 200.394 127.209 199.793 127.423C198.581 126.982 197.379 126.535 196.172 126.094C195.125 126.631 194.073 127.173 193.03 127.71C193.504 128.248 193.982 128.789 194.456 129.327C196.077 129.928 197.698 130.534 199.314 131.135C199.538 132.118 199.761 133.102 199.979 134.085C200.553 134.655 201.122 135.233 201.696 135.802C201.537 136.467 201.377 137.132 201.218 137.796C200.931 139.673 200.649 141.544 200.362 143.42C199.697 144.181 199.028 144.946 198.363 145.706C196.678 145.77 194.998 145.834 193.313 145.897C190.745 145.387 188.167 144.877 185.599 144.367C184.042 144.527 182.484 144.686 180.932 144.845C180.044 145.988 179.151 147.131 178.263 148.279C177.029 149.895 175.786 151.517 174.552 153.133C174.711 154.531 174.866 155.924 175.026 157.322C174.675 158.561 174.329 159.8 173.978 161.038C174.393 162.368 174.807 163.706 175.217 165.041C175.945 165.769 176.674 166.498 177.403 167.226C178.769 167.577 180.139 167.923 181.496 168.274C181.533 169.417 181.564 170.56 181.592 171.707C182.166 172.053 182.735 172.399 183.309 172.75C184.483 172.213 185.658 171.675 186.828 171.133C189.433 171.102 192.038 171.074 194.642 171.042C195.248 170.66 195.849 170.277 196.45 169.895C197.498 169.166 198.545 168.438 199.592 167.709C200.198 167.067 200.803 166.439 201.4 165.801C200.954 164.622 200.517 163.451 200.07 162.277C200.289 161.102 200.517 159.927 200.735 158.757C201.878 157.454 203.021 156.152 204.169 154.85C205.689 154.344 207.215 153.834 208.74 153.324C209.533 152.118 210.33 150.911 211.117 149.709C211.277 148.88 211.436 148.056 211.591 147.232C212.893 146.913 214.196 146.594 215.498 146.275C216.8 146.69 218.098 147.104 219.4 147.514C221.513 146.712 223.622 145.916 225.734 145.123C227.278 144.659 228.822 144.203 230.365 143.734C231.19 144.094 232.009 144.454 232.833 144.814C233.193 145.665 233.553 146.512 233.913 147.364C234.946 148.438 235.971 149.522 237.005 150.606C237.924 151.503 238.853 152.409 239.778 153.306C241.171 153.898 242.555 154.49 243.944 155.082C245.101 155.697 246.262 156.316 247.419 156.935C248.27 157.6 249.117 158.269 249.969 158.934C250.506 159.836 251.043 160.738 251.585 161.639C251.508 162.436 251.43 163.233 251.353 164.03C251.066 164.599 250.788 165.164 250.501 165.728C250.838 166.266 251.166 166.807 251.508 167.345C251.972 166.88 252.432 166.42 252.897 165.956C253.434 165.209 253.976 164.467 254.518 163.72C254.75 163.228 254.982 162.741 255.21 162.249C254.923 161.767 254.641 161.275 254.358 160.788C253.921 160.35 253.484 159.913 253.047 159.476C253.306 159.089 253.561 158.707 253.816 158.32C254.026 158.014 254.231 157.7 254.436 157.391C255.155 157.86 255.875 158.32 256.599 158.784C256.908 159.221 257.218 159.658 257.523 160.095C257.937 159.786 258.347 159.476 258.757 159.171C258.01 158.397 257.268 157.627 256.521 156.853C255.597 156.211 254.668 155.569 253.744 154.923C252.819 154.23 251.89 153.534 250.966 152.842C250.483 152.869 249.987 152.892 249.504 152.919C248.471 152.609 247.446 152.304 246.417 151.995C245.77 151.17 245.128 150.351 244.486 149.522C243.917 148.443 243.352 147.364 242.788 146.284C241.963 145.897 241.144 145.51 240.32 145.123C239.832 144.254 239.341 143.375 238.853 142.505C239.004 142.168 239.158 141.836 239.318 141.499C239.058 140.989 238.803 140.465 238.548 139.955C238.853 139.568 239.163 139.181 239.473 138.794C240.347 138.589 241.221 138.384 242.091 138.179C242.815 138.689 243.534 139.208 244.258 139.723C244.823 140.465 245.388 141.212 245.957 141.958C246.572 142.755 247.191 143.552 247.806 144.345C248.498 144.914 249.195 145.478 249.887 146.043C250.711 146.33 251.531 146.612 252.359 146.895C252.796 147.436 253.229 147.978 253.671 148.516C255.11 148.848 256.553 149.18 257.988 149.517C258.762 150.656 259.531 151.781 260.305 152.914C260.046 153.843 259.791 154.768 259.531 155.688C260.228 156.412 260.925 157.131 261.617 157.855C262.669 158.652 263.725 159.453 264.777 160.246C266.17 160.451 267.555 160.656 268.944 160.86C269.435 161.762 269.923 162.664 270.41 163.565C272.29 164.39 274.167 165.209 276.043 166.033C276.375 165.291 276.712 164.544 277.049 163.793C275.888 162.996 274.731 162.199 273.575 161.407C273.11 160.605 272.646 159.809 272.181 159.016C271.876 158.269 271.566 157.523 271.257 156.78C272.108 155.801 272.955 154.827 273.807 153.848C275.018 153.743 276.22 153.638 277.431 153.538C278.515 153.538 279.594 153.538 280.674 153.538C281.803 153.074 282.937 152.609 284.071 152.149C284.562 151.63 285.059 151.116 285.551 150.606C284.517 148.538 283.483 146.476 282.45 144.404C284.148 143.671 285.842 142.933 287.54 142.195C289.749 140.574 291.967 138.949 294.18 137.327C295.801 137.478 297.426 137.623 299.047 137.774C300.377 136.74 301.702 135.706 303.032 134.673C305.022 134.818 307.012 134.964 309.006 135.119C311.069 136.08 313.136 137.036 315.204 137.992C316.752 138.953 318.305 139.914 319.853 140.875C319.853 142.2 319.853 143.525 319.853 144.859C318.601 145.369 317.344 145.893 316.092 146.407C314.393 146.772 312.695 147.145 311.001 147.514C309.229 146.849 307.462 146.184 305.691 145.519C303.624 145.369 301.561 145.223 299.494 145.078C298.241 146.18 296.985 147.286 295.732 148.393C294.262 148.839 292.782 149.276 291.306 149.727C289.753 150.537 288.205 151.343 286.657 152.159C284.886 152.969 283.119 153.78 281.348 154.59C281.493 156.066 281.639 157.541 281.789 159.016C283.342 160.496 284.89 161.967 286.438 163.447C288.06 165.369 289.685 167.281 291.306 169.203C292.709 168.834 294.107 168.465 295.514 168.096C296.024 167.213 296.547 166.325 297.062 165.437C298.023 166.179 298.979 166.917 299.94 167.654C301.934 167.358 303.924 167.058 305.914 166.771C306.579 165.883 307.244 164.995 307.909 164.112C309.976 164.257 312.039 164.408 314.106 164.558C313.929 165.715 313.756 166.871 313.582 168.028C313.514 171.079 313.455 174.125 313.391 177.176C313.646 179.271 313.897 181.365 314.152 183.46C314.817 183.619 315.486 183.779 316.151 183.938C316.656 185.842 317.171 187.75 317.676 189.657C317.389 190.796 317.102 191.943 316.82 193.082C316.979 194.771 317.139 196.461 317.298 198.15C318.036 198.664 318.774 199.184 319.511 199.698C321.059 201.542 322.608 203.391 324.16 205.235C325.486 207.152 326.815 209.069 328.14 210.987C329.101 211.578 330.062 212.17 331.018 212.758C332.129 215.048 333.231 217.339 334.338 219.625C335.444 221.246 336.551 222.871 337.657 224.488C339.128 225.08 340.604 225.667 342.083 226.264C342.899 227.735 343.705 229.21 344.515 230.69C346.214 232.461 347.912 234.228 349.606 236.004C351.833 241.427 354.059 246.855 356.286 252.288C360.125 249.483 363.959 246.682 367.793 243.873C370.894 240.926 373.986 237.971 377.087 235.025C378.121 233.987 379.15 232.958 380.188 231.924C380.334 230.376 380.479 228.828 380.63 227.275C382.037 225.95 383.43 224.625 384.837 223.295C385.798 222.407 386.754 221.519 387.715 220.64C388.084 218.869 388.453 217.097 388.822 215.326C389.705 214.588 390.593 213.851 391.476 213.118C390.962 211.565 390.443 210.017 389.924 208.468C390.666 206.624 391.399 204.775 392.137 202.931C392.433 201.383 392.729 199.83 393.02 198.282C391.472 197.175 389.919 196.069 388.371 194.962C387.191 195.186 386.007 195.413 384.833 195.627C383.872 194.962 382.916 194.298 381.955 193.633C380.994 191.424 380.038 189.202 379.077 186.994C378.412 189.202 377.747 191.424 377.082 193.633C376.345 195.035 375.607 196.433 374.869 197.84C373.617 198.505 372.36 199.165 371.113 199.83C370.37 199.539 369.633 199.243 368.9 198.947C368.822 197.986 368.749 197.03 368.677 196.069C368.308 194.817 367.939 193.564 367.57 192.308C367.055 192.676 366.536 193.05 366.022 193.414C366.022 194.452 366.022 195.481 366.022 196.515C365.357 195.7 364.692 194.894 364.027 194.079C362.994 192.831 361.96 191.57 360.926 190.322C359.082 188.624 357.238 186.925 355.394 185.231C355.102 183.756 354.802 182.281 354.51 180.805C355.835 180.063 357.165 179.325 358.495 178.588C360.116 180.209 361.741 181.834 363.362 183.455C364.027 184.416 364.688 185.377 365.352 186.338C366.24 186.26 367.128 186.188 368.007 186.115C369.337 186.852 370.666 187.586 371.992 188.323C372.875 188.323 373.763 188.323 374.646 188.323C375.83 186.852 377.01 185.377 378.189 183.897C378.922 183.824 379.664 183.751 380.402 183.674C381.135 185.227 381.873 186.775 382.611 188.323C385.561 187.44 388.512 186.556 391.463 185.673C393.525 184.562 395.593 183.455 397.656 182.353C399.063 181.47 400.461 180.582 401.863 179.699C402.013 179.621 402.155 179.548 402.309 179.471C403.78 180.878 405.26 182.276 406.735 183.679C408.284 184.193 409.836 184.717 411.385 185.231C412.487 184.343 413.593 183.455 414.7 182.572C416.175 184.125 417.65 185.678 419.13 187.221C420.902 191.351 422.669 195.482 424.44 199.612C426.061 202.64 427.687 205.663 429.308 208.687C431.152 211.934 432.996 215.18 434.84 218.427C435.874 221.596 436.908 224.77 437.941 227.944C438.388 224.702 438.825 221.455 439.271 218.209C439.121 213.04 438.98 207.872 438.825 202.717C437.718 200.572 436.612 198.437 435.505 196.301C436.02 192.758 436.539 189.211 437.053 185.678C436.461 181.32 435.869 176.967 435.282 172.618C435.059 170.186 434.836 167.75 434.617 165.314C435.022 164.103 435.428 162.891 435.828 161.68C468.482 264.473 420.715 378.368 320.527 425.452Z" fill="var(--fill-0, #202326)"/>
<path id="Vector_3" d="M192.691 71.8325L190.811 67.247L187.523 67.0148L183.521 66.5412L179.172 65.9492L177.054 67.716L178.229 69.8334L176.699 72.306L178.698 73.9499L183.402 74.5373L187.755 73.3625L192.691 71.8325Z" fill="var(--fill-0, #202326)"/>
<path id="Vector_4" d="M184.522 115.499L188.771 114.419L191.471 113.645L193.402 111.022L194.399 108.09L195.793 106.473L193.939 102.994L190.702 102.457L188.848 105.622L186.84 106.391L186.453 109.174L185.219 110.103L184.987 111.482L183.598 112.571L183.293 114.961L184.522 115.499Z" fill="var(--fill-0, #202326)"/>
<path id="Vector_5" d="M193.172 121.523L195.945 120.362L197.489 120.822L200.266 119.437H204.979L209.838 118.973L211.227 117.734L210.303 116.113L212.384 114.187L209.993 112.256L208.222 109.633L207.06 106.928L205.517 105.162L205.366 103.381L203.358 101.605L203.668 99.5243L205.672 98.0581L206.059 95.2804L205.904 91.8105L196.874 92.5027L195.795 96.7466L196.414 100.376L197.338 103.768L199.884 105.776L201.505 108.864L199.269 110.558H197.721L197.876 113.645L196.1 114.497L195.335 115.813L196.646 117.507L193.172 121.523Z" fill="var(--fill-0, #202326)"/>
<path id="Vector_6" d="M350.592 381.268L356.945 378.44L360.351 373.035L365.883 363.272L370.114 355.039L374.467 346.924L373.998 335.518L370.82 341.278H369.763L368.352 343.869L364.704 348.336L360.474 351.86L356.476 354.096L355.765 356.683L354.235 358.568L354.946 362.684L354.122 365.863L351.886 368.094L349.418 371.505L347.537 374.214L348.593 375.976L347.414 378.8L350.592 381.268Z" fill="var(--fill-0, #202326)"/>
<path id="Vector_7" d="M265.064 417.852L259.668 414.478L260.337 411.777L255.952 403.344L253.261 403.007L249.882 388.845L240.775 375.012L241.79 365.904L249.545 356.123L246.175 348.701L247.523 343.642L242.123 335.209L230.652 320.027L234.705 305.187L230.315 298.443L218.849 298.775L215.138 297.095L210.416 290.347L190.517 294.053L186.132 296.417L179.72 293.721L163.865 296.417L148.014 281.913L136.885 274.491L127.777 271.121L133.506 252.565L138.906 239.747L137.217 226.592L140.928 217.821L146.329 213.773L147.335 208.382L154.42 201.97L166.902 195.9L170.613 183.414L177.362 179.371L182.758 174.312L187.48 177.007L193.217 178.36L200.293 175.318L208.394 171.953H220.197L228.294 173.301L232.679 170.938L237.738 172.285L234.363 182.067L237.401 184.767L249.882 189.489L254.946 193.2L264.053 196.237L268.097 193.874L267.09 189.489L269.449 186.115L281.93 188.815L295.76 190.163L301.493 189.489L308.241 190.837L320.385 211.414L324.771 218.163L328.814 220.859L333.199 232.666L338.263 236.373L342.985 244.132L349.392 249.196L357.151 256.277L359.847 259.988L363.221 256.955L367.943 256.277L370.981 252.565L379.077 246.828V260.325L371.991 279.213L359.847 297.095L346.355 314.294L343.322 325.76L345.339 338.92L346.018 354.434L337.247 362.193L328.477 367.594L323.081 372.985L324.434 381.423L322.066 385.808L311.948 390.863L310.6 396.942L303.856 402.333L292.385 411.777L281.93 416.836L271.475 421.226L265.064 417.852Z" fill="var(--fill-0, #202326)"/>
<path id="Vector_8" d="M250.214 166.561L246.157 168.054L242.815 168.555L242.387 170.331L247.154 172.039L249.645 172.895L251.421 170.937L250.588 169.051" fill="var(--fill-0, #202326)"/>
<path id="Vector_9" d="M296.747 175.387L299.593 174.389L302.225 172.896L305.354 170.332V171.402L304.429 172.541L304.001 173.893L304.57 174.53L305.354 175.81L304.356 176.666L302.794 177.376L301.05 178.515H296.747L295.75 177.376" fill="var(--fill-0, #202326)"/>
<path id="Vector_10" d="M227.111 154.9L226.25 156.225L226.678 157.551L228.044 158.643V157.628L228.436 155.756" fill="var(--fill-0, #202326)"/>
</g>
</svg>
