<svg preserveAspectRatio="none" width="100%" height="100%" overflow="visible" style="display: block;" viewBox="0 0 14.1667 16.6667" fill="none" xmlns="http://www.w3.org/2000/svg">
<g id="Vector">
<path d="M12.6111 16.2778L12.4902 16.141C12.5296 16.1861 12.57 16.2317 12.6111 16.2778Z" fill="var(--fill-0, #FAD75A)"/>
<path fill-rule="evenodd" clip-rule="evenodd" d="M8.95062 0H5.21605C2.3396 0 0 2.38173 0 5.30997V8.86021C0 11.7884 2.3396 14.1702 5.21605 14.1702H8.54833C10.5982 14.1702 11.0348 14.4202 11.9946 15.5607L12.0026 15.5702C12.1494 15.7446 12.3114 15.9371 12.4902 16.141C12.4902 16.141 12.4902 16.141 12.4902 16.141C12.7895 16.4653 13.0095 16.6667 13.4461 16.6667C13.8828 16.6667 14.1227 16.3351 14.1625 15.9018L14.1667 15.9004V5.30997C14.1667 2.38173 11.8271 0 8.95062 0ZM5.2625 3.87711C5.66481 3.4476 6.28067 3.15106 7.13146 3.15106C8.15408 3.15106 8.7672 3.53871 9.10768 4.0448C9.43205 4.52693 9.47039 5.06032 9.47039 5.29994C9.47039 5.80247 9.26393 6.22155 8.99586 6.56514C8.7309 6.90476 8.3897 7.19096 8.08712 7.43125L8.08246 7.43495C7.87761 7.59196 7.78921 7.70771 7.75035 7.77865C7.71592 7.84154 7.71302 7.88181 7.71302 7.9158V8.24563C7.71302 8.65105 7.37524 8.9501 7.00172 8.9501C6.6282 8.9501 6.29041 8.65105 6.29041 8.24563V7.9158C6.29041 7.30242 6.62252 6.77822 7.19098 6.32972L7.19238 6.32862C7.43981 6.13547 7.6588 5.95277 7.81603 5.76691C7.97355 5.58072 8.03599 5.42985 8.03599 5.29994C8.03599 4.99452 7.95513 4.8359 7.84973 4.74369C7.73341 4.64194 7.51859 4.56 7.13146 4.56C6.56268 4.56 6.33772 4.77252 6.23731 4.92693C6.12745 5.09589 6.12079 5.26811 6.12079 5.26811L6.12077 5.26675V5.51603C6.12077 5.92146 5.78299 6.2205 5.40947 6.2205C5.03595 6.2205 4.69817 5.92146 4.69817 5.51603V5.26582C4.69817 4.8275 4.86784 4.29845 5.2625 3.87711ZM6.16679 10.625C6.16679 10.1084 6.59548 9.72167 7.08432 9.72167C7.57316 9.72167 8.00184 10.1084 8.00184 10.625C8.00184 11.1416 7.57316 11.5283 7.08432 11.5283C6.59548 11.5283 6.16679 11.1416 6.16679 10.625Z" fill="var(--fill-0, #FAD75A)"/>
</g>
</svg>
