<svg width="32" height="32" viewBox="0 0 32 32" fill="none" xmlns="http://www.w3.org/2000/svg">
<mask id="mask0_7825_39704" style="mask-type:alpha" maskUnits="userSpaceOnUse" x="2" y="2" width="28" height="28">
<path fill-rule="evenodd" clip-rule="evenodd" d="M16 2.66699C8.6364 2.66699 2.66663 8.63677 2.66663 16.0003C2.66663 23.3639 8.6364 29.3337 16 29.3337C23.3635 29.3337 29.3333 23.3639 29.3333 16.0003C29.3333 8.63677 23.3635 2.66699 16 2.66699Z" fill="#FE264D"/>
</mask>
<g mask="url(#mask0_7825_39704)">
<path fill-rule="evenodd" clip-rule="evenodd" d="M16 -2.66699C7.16373 -2.66699 0 4.49674 0 13.333C0 22.1693 7.16373 29.333 16 29.333C24.8363 29.333 32 22.1693 32 13.333C32 4.49674 24.8363 -2.66699 16 -2.66699Z" fill="url(#paint0_linear_7825_39704)"/>
</g>
<path d="M6.40002 19.9998L6.40002 12.7998H7.53069L11.312 18.1498V12.7998L12.4427 12.7998V19.9998H11.312L7.53069 14.6448L7.53069 19.9998H6.40002Z" fill="white"/>
<path d="M15.8459 19.9998L15.8459 13.7848H13.2913V12.7998H19.5153V13.7848H16.9606V19.9998H15.8459Z" fill="white"/>
<path d="M22.7067 20.9334V19.7169H23.8214V20.9334H22.7067ZM22.7067 12.6883V11.4668H23.8214V12.6883H22.7067ZM23.32 20.0506C22.7867 20.0506 22.3103 19.9582 21.8907 19.7734C21.4712 19.5886 21.1263 19.3267 20.856 18.9879C20.5894 18.6456 20.4152 18.2417 20.3334 17.7762L21.4374 17.6068C21.544 18.0449 21.7716 18.394 22.12 18.6542C22.4685 18.9109 22.8863 19.0392 23.3734 19.0392C23.8569 19.0392 24.2498 18.928 24.552 18.7055C24.8578 18.483 25.0107 18.1989 25.0107 17.8532C25.0107 17.6068 24.9325 17.4066 24.776 17.2525C24.6232 17.0985 24.3725 16.9685 24.024 16.8624L22.2214 16.3284C21.1547 16.0101 20.6214 15.394 20.6214 14.4801C20.6214 14.0489 20.728 13.6741 20.9414 13.3558C21.1583 13.0374 21.4623 12.791 21.8534 12.6164C22.2445 12.4419 22.7014 12.3546 23.224 12.3546C23.7254 12.3614 24.1698 12.4504 24.5574 12.6216C24.9485 12.7927 25.272 13.0392 25.528 13.3609C25.7876 13.6826 25.9672 14.0694 26.0667 14.5212L24.9307 14.7163C24.8809 14.4527 24.776 14.22 24.616 14.0181C24.4596 13.8161 24.2605 13.6587 24.0187 13.5457C23.7805 13.4328 23.512 13.3746 23.2134 13.3712C22.9325 13.3643 22.68 13.4071 22.456 13.4995C22.2356 13.5885 22.0596 13.7151 21.928 13.8794C21.8 14.0403 21.736 14.2234 21.736 14.4288C21.736 14.6547 21.8267 14.8464 22.008 15.0038C22.1894 15.1613 22.4756 15.2964 22.8667 15.4094L24.28 15.8047C24.9272 15.9896 25.3947 16.2377 25.6827 16.5492C25.9707 16.8606 26.1147 17.2748 26.1147 17.7916C26.1147 18.2434 25.9974 18.6388 25.7627 18.9776C25.5316 19.313 25.2063 19.5766 24.7867 19.7683C24.3672 19.9565 23.8783 20.0506 23.32 20.0506Z" fill="white"/>
<defs>
<linearGradient id="paint0_linear_7825_39704" x1="9.33333" y1="4.66634" x2="22.6667" y2="27.333" gradientUnits="userSpaceOnUse">
<stop stop-color="#1F4C99"/>
<stop offset="1" stop-color="#5DAAF1"/>
</linearGradient>
</defs>
</svg>
