<svg width="32" height="32" viewBox="0 0 32 32" fill="none" xmlns="http://www.w3.org/2000/svg">
<path fill-rule="evenodd" clip-rule="evenodd" d="M16 2.66699C8.6364 2.66699 2.66663 8.63677 2.66663 16.0003C2.66663 23.3639 8.6364 29.3337 16 29.3337C23.3635 29.3337 29.3333 23.3639 29.3333 16.0003C29.3333 8.63677 23.3635 2.66699 16 2.66699Z" fill="#01D183"/>
<path d="M19.4091 16.0075C18.7486 15.3 17.8475 14.9118 16.8714 14.9118H15.1285C14.3111 14.9118 13.647 14.2279 13.647 13.388C13.647 12.9653 13.7969 12.5843 14.0758 12.3104C14.3599 12.0147 14.7085 11.8642 15.1111 11.8642H16.8714C17.478 11.8642 18.0427 12.2741 18.2484 12.8673C18.4523 13.4315 19.0396 13.7181 19.5991 13.515C20.1272 13.2991 20.4061 12.6732 20.2196 12.1163C19.7298 10.7195 18.468 9.76348 17.0457 9.69092V8.19976C17.0457 7.59931 16.5769 7.11133 16 7.11133C15.4231 7.11133 14.9542 7.59931 14.9542 8.19976V9.67278C14.0619 9.71632 13.2357 10.0936 12.6083 10.7467C11.9198 11.4633 11.5555 12.3775 11.5555 13.388C11.5555 15.4379 13.159 17.1068 15.1285 17.1068H16.8889C17.295 17.1068 17.661 17.2628 17.9242 17.5531C18.2013 17.8415 18.3529 18.2243 18.3529 18.6306C18.3529 19.485 17.7098 20.1544 16.8889 20.1544H15.1285C14.4993 20.1544 13.959 19.7698 13.7516 19.1657C13.5407 18.6034 12.9342 18.3222 12.4026 18.5399C11.8623 18.7594 11.5921 19.3907 11.7996 19.9385C12.2893 21.3354 13.5163 22.2569 14.956 22.3258V23.8007C14.956 24.4011 15.4248 24.8891 16.0017 24.8891C16.5786 24.8891 17.0475 24.4011 17.0475 23.8007V22.3277C18.9351 22.2315 20.4444 20.6025 20.4444 18.6125C20.4444 17.6093 20.0767 16.6841 19.4091 16.0075Z" fill="white"/>
</svg>
