<svg width="32" height="32" viewBox="0 0 32 32" fill="none" xmlns="http://www.w3.org/2000/svg">
<path d="M16 29.3337C23.3889 29.3337 29.3333 23.3893 29.3333 16.0003C29.3333 8.61139 23.3889 2.66699 16 2.66699C8.61103 2.66699 2.66663 8.61139 2.66663 16.0003C2.66663 23.3893 8.61103 29.3337 16 29.3337Z" fill="#2775CA"/>
<path d="M19.6667 18.113C19.6667 16.1686 18.5001 15.5019 16.1668 15.2242C14.5001 15.0019 14.1668 14.5575 14.1668 13.7796C14.1668 13.0018 14.7224 12.5019 15.8334 12.5019C16.8334 12.5019 17.389 12.8352 17.6668 13.6686C17.7224 13.8352 17.889 13.9463 18.0557 13.9463H18.9445C19.1667 13.9463 19.3334 13.7796 19.3334 13.5575V13.5019C19.1112 12.2796 18.1112 11.3352 16.8334 11.2242V9.89082C16.8334 9.66856 16.6668 9.50189 16.389 9.44629H15.5557C15.3335 9.44629 15.1668 9.61296 15.1112 9.89082V11.1686C13.4445 11.3908 12.3891 12.5019 12.3891 13.8908C12.3891 15.7242 13.5001 16.4463 15.8334 16.7242C17.389 17.0019 17.889 17.3352 17.889 18.2242C17.889 19.1131 17.1112 19.7242 16.0557 19.7242C14.6112 19.7242 14.1112 19.113 13.9445 18.2796C13.8891 18.0575 13.7224 17.9463 13.5557 17.9463H12.6112C12.3891 17.9463 12.2224 18.113 12.2224 18.3352V18.3908C12.4445 19.7796 13.3335 20.7796 15.1668 21.0575V22.3908C15.1668 22.613 15.3335 22.7796 15.6112 22.8352H16.4445C16.6668 22.8352 16.8334 22.6686 16.889 22.3908V21.0575C18.5557 20.7796 19.6667 19.613 19.6667 18.113V18.113Z" fill="white"/>
<path d="M13.1674 23.9415C8.83409 22.3861 6.61182 17.5527 8.22302 13.2749C9.05636 10.9415 10.8897 9.1638 13.1674 8.33047C13.3897 8.2194 13.5008 8.05273 13.5008 7.77487V6.99713C13.5008 6.77487 13.3897 6.6082 13.1674 6.55273C13.1118 6.55273 13.0008 6.55273 12.9452 6.6082C7.66742 8.27487 4.77849 13.8861 6.44516 19.1638C7.44516 22.2749 9.83409 24.6638 12.9452 25.6638C13.1674 25.7749 13.3897 25.6638 13.4452 25.4415C13.5008 25.3861 13.5008 25.3305 13.5008 25.2194V24.4415C13.5008 24.2749 13.3341 24.0527 13.1674 23.9415ZM19.0564 6.6082C18.8341 6.49713 18.6118 6.6082 18.5564 6.83047C18.5008 6.88607 18.5008 6.94153 18.5008 7.05273V7.83047C18.5008 8.05273 18.6674 8.27487 18.8341 8.38607C23.1674 9.94153 25.3897 14.7749 23.7785 19.0527C22.9452 21.3861 21.1118 23.1638 18.8341 23.9971C18.6118 24.1082 18.5008 24.2749 18.5008 24.5527V25.3305C18.5008 25.5527 18.6118 25.7194 18.8341 25.7749C18.8897 25.7749 19.0008 25.7749 19.0564 25.7194C24.3341 24.0527 27.223 18.4415 25.5564 13.1638C24.5564 9.99713 22.1118 7.6082 19.0564 6.6082V6.6082Z" fill="white"/>
</svg>
