<svg width="32" height="32" viewBox="0 0 32 32" fill="none" xmlns="http://www.w3.org/2000/svg">
<path fill-rule="evenodd" clip-rule="evenodd" d="M16 2.66699C8.6364 2.66699 2.66663 8.63677 2.66663 16.0003C2.66663 23.3639 8.6364 29.3337 16 29.3337C23.3635 29.3337 29.3333 23.3639 29.3333 16.0003C29.3333 8.63677 23.3635 2.66699 16 2.66699Z" fill="#009393"/>
<path fill-rule="evenodd" clip-rule="evenodd" d="M17.5823 17.6117C17.494 17.6179 17.0373 17.6432 16.0186 17.6432C15.2084 17.6432 14.6331 17.6206 14.4313 17.6117C11.3002 17.4835 8.96303 16.9763 8.96303 16.369C8.96303 15.7618 11.3002 15.2552 14.4313 15.125V17.1065C14.6361 17.1203 15.2224 17.1525 16.0326 17.1525C17.0049 17.1525 17.4917 17.1148 17.5794 17.1072V15.1264C20.7039 15.2559 23.0359 15.7631 23.0359 16.369C23.0359 16.9749 20.7046 17.4822 17.5794 17.611L17.5823 17.6117ZM17.5823 14.9215V13.1483H21.9428V10.4443H10.0708V13.1483H14.4306V14.9208C10.8869 15.0722 8.22205 15.7254 8.22205 16.5082C8.22205 17.2909 10.8869 17.9434 14.4306 18.0956V23.7777H17.5816V18.0935C21.1171 17.9421 23.7776 17.2896 23.7776 16.5075C23.7776 15.7254 21.1193 15.0729 17.5816 14.9208L17.5823 14.9215Z" fill="white"/>
</svg>
