<svg width="24" height="24" viewBox="0 0 24 24" fill="none" xmlns="http://www.w3.org/2000/svg">
<path d="M15.9894 9.30311C15.9894 9.30311 15.5002 8.79748 14.8154 8.79748H9.14848C8.47993 8.79748 7.99075 9.30311 7.99075 9.30311C7.99075 9.30311 3.81641 12.9942 3.81641 17.3089C3.81641 19.7696 5.61007 21 6.80041 21H17.196C18.3864 21 20.18 19.7696 20.18 17.3089C20.1637 12.9942 15.9894 9.30311 15.9894 9.30311Z" fill="white"/>
<path d="M15.7174 3.7643C15.6412 3.73803 15.5649 3.71176 15.4633 3.71176H13.5571C12.7946 2.81857 11.473 2.76603 10.6088 3.55414C10.558 3.60668 10.5072 3.65922 10.4564 3.71176H8.55017C8.16894 3.71176 7.86395 4.02701 7.86395 4.42106C7.86395 4.49987 7.88936 4.60495 7.91478 4.68376L8.55017 6.57523H8.601L8.55017 6.6015C8.55017 6.6015 8.7535 7.17944 9.05849 7.17944H14.9804C15.2599 7.17944 15.4887 6.6015 15.4887 6.6015L15.2853 6.57523H15.5141L16.1241 4.68376C16.2511 4.31598 16.0732 3.92192 15.7174 3.7643Z" fill="white"/>
</svg>
