<svg width="24" height="24" viewBox="0 0 24 24" fill="none" xmlns="http://www.w3.org/2000/svg">
<path d="M9.23074 12.5156C5.60273 12.5156 3 14.3024 3 16.5234V17.4141C3 18.2156 3.58707 18.75 4.38461 18.75H14.0769C14.8744 18.75 15.4615 18.2156 15.4615 17.4141V16.5234C15.4615 14.3024 12.8588 12.5156 9.23074 12.5156Z" fill="white"/>
<path d="M12.688 7.85479C12.688 9.69933 11.1731 11.1946 9.30449 11.1946C7.43585 11.1946 5.92102 9.69933 5.92102 7.85479C5.92102 6.01024 7.43585 4.51495 9.30449 4.51495C11.1731 4.51495 12.688 6.01024 12.688 7.85479Z" fill="white"/>
<path fill-rule="evenodd" clip-rule="evenodd" d="M17.5385 16.5085C17.5385 14.7493 16.5414 13.5083 14.7691 12.6177C18.5769 13.0165 21 14.5287 21 16.5085L20.9999 17.3991C20.9999 18.2007 20.4683 18.7351 19.6708 18.7351H17.1922C17.3794 18.3127 17.5384 17.8552 17.5384 17.3991L17.5385 16.5085Z" fill="white"/>
<path d="M14.6485 11.1797C16.5172 11.1797 18.032 9.68439 18.032 7.83984C18.032 5.9953 16.5172 4.5 14.6485 4.5C14.2171 4.5 13.8046 4.5797 13.4252 4.725C14.0898 5.58414 14.4873 6.66136 14.4873 7.83984C14.4873 9.01833 14.0898 10.0955 13.4252 10.9547C13.8046 11.1 14.2171 11.1797 14.6485 11.1797Z" fill="white"/>
</svg>
