<svg width="24" height="24" viewBox="0 0 24 24" fill="none" xmlns="http://www.w3.org/2000/svg">
<path fill-rule="evenodd" clip-rule="evenodd" d="M2 7.68186C2 6.20071 3.20071 5 4.68186 5H13.8449C15.326 5 16.5268 6.20071 16.5268 7.68186V9.69326H13.3979C12.2871 9.69326 11.3865 10.5938 11.3865 11.7047C11.3865 12.8155 12.2871 13.7161 13.3979 13.7161H16.5268V15.7275C16.5268 17.2086 15.326 18.4093 13.8449 18.4093H4.68186C3.20071 18.4093 2 17.2086 2 15.7275V7.68186ZM7.08051 16.3979C6.7161 16.3979 6.42069 16.1025 6.42069 15.7381V15.4782C5.77091 15.3692 5.23247 15.1154 4.80537 14.7168C4.54544 14.4743 4.34567 14.1926 4.20607 13.8718C4.0533 13.5207 4.32208 13.1581 4.70075 13.1016C5.04905 13.0498 5.36528 13.2835 5.55954 13.5772C5.66998 13.7442 5.80919 13.889 5.97716 14.0117C6.313 14.257 6.71638 14.3796 7.18729 14.3796C7.63994 14.3796 8.01229 14.2791 8.30432 14.0781C8.59636 13.8771 8.74238 13.6251 8.74238 13.3219C8.74238 13.1107 8.67302 12.9369 8.5343 12.8007C8.39559 12.6644 8.17291 12.552 7.86627 12.4634L5.96621 11.9116C4.86013 11.5948 4.30708 10.968 4.30708 10.0312C4.30708 9.45894 4.49508 8.98715 4.87108 8.61584C5.25072 8.24113 5.76726 8.00949 6.42069 7.92092V7.67122C6.42069 7.30681 6.7161 7.0114 7.08051 7.0114C7.44492 7.0114 7.74033 7.30681 7.74033 7.67122V7.94647C8.3244 8.05207 8.80991 8.28371 9.19686 8.64139C9.41877 8.8446 9.60061 9.08189 9.7424 9.35326C9.92366 9.70017 9.66682 10.0872 9.28095 10.1528C8.92513 10.2133 8.60029 9.96372 8.38264 9.6758C8.30037 9.56696 8.20125 9.46913 8.0853 9.3823C7.79326 9.15747 7.43917 9.03995 7.02302 9.02973C6.62512 9.02292 6.2911 9.10978 6.02097 9.29032C5.75084 9.47087 5.61577 9.6974 5.61577 9.96991C5.61577 10.1743 5.70155 10.348 5.87313 10.4911C6.04835 10.6308 6.32396 10.7517 6.69995 10.8539L8.11815 11.2371C8.80078 11.4245 9.29177 11.6766 9.59111 11.9934C9.89409 12.3068 10.0456 12.7223 10.0456 13.2401C10.0456 13.8397 9.83569 14.3404 9.41589 14.7424C8.99973 15.1443 8.44122 15.3947 7.74033 15.4935V15.7381C7.74033 16.1025 7.44492 16.3979 7.08051 16.3979Z" fill="white"/>
<path fill-rule="evenodd" clip-rule="evenodd" d="M18.8533 8.57848L21.748 11.1759C22.084 11.4774 22.084 11.9663 21.748 12.2678L18.8533 14.8652C18.5173 15.1668 17.9724 15.1668 17.6364 14.8652C17.3004 14.5637 17.3004 14.0748 17.6364 13.7733L19.0621 12.494H13.5879C13.1127 12.494 12.7275 12.1483 12.7275 11.7218C12.7275 11.2954 13.1127 10.9497 13.5879 10.9497H19.0621L17.6364 9.67043C17.3004 9.36889 17.3004 8.88001 17.6364 8.57848C17.9724 8.27694 18.5173 8.27694 18.8533 8.57848Z" fill="white"/>
</svg>
