<svg width="24" height="24" viewBox="0 0 24 24" fill="none" xmlns="http://www.w3.org/2000/svg">
<path fill-rule="evenodd" clip-rule="evenodd" d="M20.9618 9.05163C19.7982 9.47555 18.9673 10.5917 18.9673 11.902C18.9673 13.3994 20.0526 14.6433 21.4795 14.8901C21.7812 14.9457 22 15.1834 22 15.4902L22 16.2941C22 17.6802 20.8763 18.8039 19.4902 18.8039H4.5098C3.12368 18.8039 2 17.6802 2 16.2941V15.4902C2 15.1834 2.25097 14.94 2.55274 14.8844C3.96371 14.6246 5.03268 13.3881 5.03268 11.902C5.03268 10.4158 3.96371 9.17936 2.55274 8.91953C2.25097 8.86396 2 8.62054 2 8.3137V7.5098C2 6.12368 3.12368 5 4.5098 5H19.4902C20.8763 5 22 6.12368 22 7.5098L22 8.3137L22 8.31504C21.9993 8.62125 21.7486 8.86404 21.4473 8.91953C21.2803 8.95028 21.1181 8.99472 20.9618 9.05163ZM12.8889 8.42432V7.36622C12.8889 6.8753 12.4909 6.47734 12 6.47734C11.5091 6.47734 11.1111 6.8753 11.1111 7.36622V8.42432C11.1111 8.91524 11.5091 9.3132 12 9.3132C12.4909 9.3132 12.8889 8.91524 12.8889 8.42432ZM12.8889 11.3729V12.431C12.8889 12.9219 12.4909 13.3199 12 13.3199C11.5091 13.3199 11.1111 12.9219 11.1111 12.431V11.3729C11.1111 10.882 11.5091 10.484 12 10.484C12.4909 10.484 12.8889 10.882 12.8889 11.3729ZM12.8889 16.4377V15.3796C12.8889 14.8887 12.4909 14.4907 12 14.4907C11.5091 14.4907 11.1111 14.8887 11.1111 15.3796V16.4377C11.1111 16.9286 11.5091 17.3266 12 17.3266C12.4909 17.3266 12.8889 16.9286 12.8889 16.4377Z" fill="white"/>
</svg>
