<svg width="24" height="24" viewBox="0 0 24 24" fill="none" xmlns="http://www.w3.org/2000/svg">
<path d="M17.3529 20.58L17.2249 20.4323C17.2667 20.4809 17.3094 20.5302 17.3529 20.58Z" fill="white"/>
<path fill-rule="evenodd" clip-rule="evenodd" d="M13.4771 3H9.52287C6.47722 3 4 5.57227 4 8.73477V12.569C4 15.7315 6.47722 18.3038 9.52287 18.3038H13.0512C15.2217 18.3038 15.684 18.5738 16.7001 19.8056L16.7086 19.8158C16.8641 20.0042 17.0356 20.212 17.2249 20.4323C17.5418 20.7825 17.7748 21 18.2371 21C18.6994 21 18.9535 20.6419 18.9956 20.1739L19 20.1724V8.73477C19 5.57227 16.5228 3 13.4771 3ZM9.57206 7.18728C9.99804 6.72341 10.6501 6.40314 11.551 6.40314C12.6337 6.40314 13.2829 6.8218 13.6434 7.36838C13.9869 7.88909 14.0275 8.46514 14.0275 8.72393C14.0275 9.26667 13.8089 9.71928 13.525 10.0904C13.2445 10.4571 12.8832 10.7662 12.5628 11.0258L12.5579 11.0297C12.341 11.1993 12.2474 11.3243 12.2063 11.4009C12.1698 11.4689 12.1667 11.5124 12.1667 11.5491V11.9053C12.1667 12.3431 11.8091 12.6661 11.4136 12.6661C11.0181 12.6661 10.6604 12.3431 10.6604 11.9053V11.5491C10.6604 10.8866 11.0121 10.3205 11.614 9.8361L11.6155 9.83491C11.8774 9.6263 12.1093 9.42899 12.2758 9.22827C12.4426 9.02718 12.5087 8.86423 12.5087 8.72393C12.5087 8.39409 12.4231 8.22277 12.3115 8.12319C12.1883 8.0133 11.9609 7.9248 11.551 7.9248C10.9487 7.9248 10.7105 8.15432 10.6042 8.32109C10.4879 8.50356 10.4808 8.68956 10.4808 8.68956L10.4808 8.68809V8.95731C10.4808 9.39517 10.1232 9.71814 9.72767 9.71814C9.33218 9.71814 8.97453 9.39517 8.97453 8.95731V8.68708C8.97453 8.21371 9.15418 7.64233 9.57206 7.18728ZM10.5295 14.475C10.5295 13.917 10.9834 13.4994 11.501 13.4994C12.0186 13.4994 12.4725 13.917 12.4725 14.475C12.4725 15.033 12.0186 15.4506 11.501 15.4506C10.9834 15.4506 10.5295 15.033 10.5295 14.475Z" fill="white"/>
</svg>
