<svg width="24" height="24" viewBox="0 0 24 24" fill="none" xmlns="http://www.w3.org/2000/svg">
<path d="M15.0539 12.9926C11.2222 12.9926 8.16631 15.001 8.16631 17.4974V18.4984C8.16631 19.3994 8.72777 20 9.57008 20H20.5962C21.4385 20 21.9999 19.3994 21.9999 18.4984L22 17.4974C22 15.001 18.8856 12.9926 15.0539 12.9926Z" fill="white"/>
<path d="M18.6273 7.75394C18.6273 9.82718 17.0274 11.5079 15.0539 11.5079C13.0804 11.5079 11.4805 9.82718 11.4805 7.75394C11.4805 5.68069 13.0804 4 15.0539 4C17.0274 4 18.6273 5.68069 18.6273 7.75394Z" fill="white"/>
<path d="M9.49454 9.19699C9.7372 9.19699 9.93574 9.44682 9.93574 9.75218V10.7611C9.93574 11.0665 9.7372 11.3163 9.49454 11.3163H5.41339L2.44119 11.3163C2.19854 11.3163 2 11.0665 2 10.7611L2 9.75218C2 9.44682 2.19854 9.19699 2.44119 9.19699L9.49454 9.19699Z" fill="white"/>
<path d="M6.95854 14.0288C6.95854 14.2884 6.72497 14.5007 6.43948 14.5007H5.49624C5.21075 14.5007 4.97718 14.2884 4.97718 14.0288L4.97718 9.66355V6.48443C4.97718 6.22488 5.21075 6.01252 5.49624 6.01252H6.43948C6.72497 6.01252 6.95854 6.22488 6.95854 6.48443V14.0288Z" fill="white"/>
</svg>
