<svg width="24" height="24" viewBox="0 0 24 24" fill="none" xmlns="http://www.w3.org/2000/svg">
<path d="M20.374 4.25669C18.0623 6.61726 13.6123 10.4801 7.08105 13.243C5.22939 14.0263 3.54243 14.6407 2.02344 15.1219L1.60156 13.787C3.07757 13.3193 4.72269 12.7206 6.53516 11.954C12.8493 9.28299 17.1508 5.54642 19.374 3.27622L20.374 4.25669Z" fill="white"/>
<path d="M20.37 5.09253C21.3748 5.09253 22.1893 4.27798 22.1893 3.27319C22.1893 2.2684 21.3748 1.45386 20.37 1.45386C19.3652 1.45386 18.5507 2.2684 18.5507 3.27319C18.5507 4.27798 19.3652 5.09253 20.37 5.09253Z" fill="white"/>
<path d="M11.717 16.7438C13.1806 16.7438 14.367 16.395 14.367 15.9648V15.0597H9.06706V15.9648C9.06706 16.395 10.2535 16.7438 11.717 16.7438Z" fill="white"/>
<path d="M14.367 15.0259C14.367 15.4561 13.1806 15.8049 11.717 15.8049C10.2535 15.8049 9.06706 15.4561 9.06706 15.0259C9.06706 14.5957 10.2535 14.2469 11.717 14.2469C13.1806 14.2469 14.367 14.5957 14.367 15.0259Z" fill="white"/>
<path d="M11.717 18.174C13.1806 18.174 14.367 17.8252 14.367 17.395V16.4899H14.3646C14.3043 16.9044 13.142 17.235 11.717 17.235C10.2921 17.235 9.12981 16.9044 9.06952 16.4899H9.06706V17.395C9.06706 17.8252 10.2535 18.174 11.717 18.174Z" fill="white"/>
<path d="M11.717 19.6041C13.1806 19.6041 14.367 19.2553 14.367 18.8251V17.92H14.3646C14.3043 18.3345 13.142 18.6652 11.717 18.6652C10.2921 18.6652 9.12981 18.3345 9.06952 17.92H9.06706V18.8251C9.06706 19.2553 10.2535 19.6041 11.717 19.6041Z" fill="white"/>
<path d="M11.717 21.0342C13.1806 21.0342 14.367 20.6854 14.367 20.2552V19.3502H14.3646C14.3043 19.7647 13.142 20.0953 11.717 20.0953C10.2921 20.0953 9.12981 19.7647 9.06952 19.3502H9.06706V20.2552C9.06706 20.6854 10.2535 21.0342 11.717 21.0342Z" fill="white"/>
<path d="M11.717 22.4644C13.1806 22.4644 14.367 22.1157 14.367 21.6855V20.7804H14.3646C14.3043 21.1949 13.142 21.5255 11.717 21.5255C10.2921 21.5255 9.12981 21.1949 9.06952 20.7804H9.06706V21.6855C9.06706 22.1157 10.2535 22.4644 11.717 22.4644Z" fill="white"/>
<path d="M18.865 12.5353C20.3286 12.5353 21.515 12.1866 21.515 11.7564V10.8513H16.215V11.7564C16.215 12.1866 17.4015 12.5353 18.865 12.5353Z" fill="white"/>
<path d="M21.515 10.8174C21.515 11.2477 20.3286 11.5964 18.865 11.5964C17.4015 11.5964 16.215 11.2477 16.215 10.8174C16.215 10.3872 17.4015 10.0385 18.865 10.0385C20.3286 10.0385 21.515 10.3872 21.515 10.8174Z" fill="white"/>
<path d="M18.865 13.9655C20.3286 13.9655 21.515 13.6167 21.515 13.1865V12.2815H21.5126C21.4523 12.696 20.29 13.0266 18.865 13.0266C17.4401 13.0266 16.2778 12.696 16.2175 12.2815H16.215V13.1865C16.215 13.6167 17.4015 13.9655 18.865 13.9655Z" fill="white"/>
<path d="M18.865 15.3956C20.3286 15.3956 21.515 15.0469 21.515 14.6166V13.7116H21.5126C21.4523 14.1261 20.29 14.4567 18.865 14.4567C17.4401 14.4567 16.2778 14.1261 16.2175 13.7116H16.215V14.6166C16.215 15.0469 17.4015 15.3956 18.865 15.3956Z" fill="white"/>
<path d="M18.865 16.8257C20.3286 16.8257 21.515 16.477 21.515 16.0468V15.1417H21.5126C21.4523 15.5562 20.29 15.8868 18.865 15.8868C17.4401 15.8868 16.2778 15.5562 16.2175 15.1417H16.215V16.0468C16.215 16.477 17.4015 16.8257 18.865 16.8257Z" fill="white"/>
<path d="M18.865 18.256C20.3286 18.256 21.515 17.9072 21.515 17.477V16.5719H21.5126C21.4523 16.9864 20.29 17.3171 18.865 17.3171C17.4401 17.3171 16.2778 16.9864 16.2175 16.5719H16.215V17.477C16.215 17.9072 17.4015 18.256 18.865 18.256Z" fill="white"/>
<path d="M18.865 19.6859C20.3286 19.6859 21.515 19.3371 21.515 18.9069V18.0018H21.5126C21.4523 18.4163 20.29 18.7469 18.865 18.7469C17.4401 18.7469 16.2778 18.4163 16.2175 18.0018H16.215V18.9069C16.215 19.3371 17.4015 19.6859 18.865 19.6859Z" fill="white"/>
<path d="M18.865 21.116C20.3286 21.116 21.515 20.7672 21.515 20.337V19.4319H21.5126C21.4523 19.8464 20.29 20.1771 18.865 20.1771C17.4401 20.1771 16.2778 19.8464 16.2175 19.4319H16.215V20.337C16.215 20.7672 17.4015 21.116 18.865 21.116Z" fill="white"/>
<path d="M18.865 22.5462C20.3286 22.5462 21.515 22.1975 21.515 21.7672V20.8622H21.5126C21.4523 21.2767 20.29 21.6073 18.865 21.6073C17.4401 21.6073 16.2778 21.2767 16.2175 20.8622H16.215V21.7672C16.215 22.1975 17.4015 22.5462 18.865 22.5462Z" fill="white"/>
<path d="M4.56924 19.6041C6.03279 19.6041 7.21922 19.2554 7.21922 18.8252V17.9201H1.91926V18.8252C1.91926 19.2554 3.1057 19.6041 4.56924 19.6041Z" fill="white"/>
<path d="M7.21922 17.8862C7.21922 18.3165 6.03279 18.6652 4.56924 18.6652C3.1057 18.6652 1.91926 18.3165 1.91926 17.8862C1.91926 17.456 3.1057 17.1073 4.56924 17.1073C6.03279 17.1073 7.21922 17.456 7.21922 17.8862Z" fill="white"/>
<path d="M4.56924 21.0343C6.03279 21.0343 7.21922 20.6856 7.21922 20.2553V19.3503H7.21677C7.15648 19.7648 5.9942 20.0954 4.56924 20.0954C3.14428 20.0954 1.98201 19.7648 1.92172 19.3503H1.91926V20.2553C1.91926 20.6856 3.1057 21.0343 4.56924 21.0343Z" fill="white"/>
<path d="M4.56924 22.4644C6.03279 22.4644 7.21922 22.1157 7.21922 21.6855V20.7804H7.21677C7.15648 21.1949 5.9942 21.5255 4.56924 21.5255C3.14428 21.5255 1.98201 21.1949 1.92172 20.7804H1.91926V21.6855C1.91926 22.1157 3.1057 22.4644 4.56924 22.4644Z" fill="white"/>
</svg>
