<svg width="24" height="24" viewBox="0 0 24 24" fill="none" xmlns="http://www.w3.org/2000/svg">
<path d="M3.07633 10.1297C3.026 10.0458 3.00607 9.94713 3.01991 9.85028L3.87586 3.85858C3.94624 3.36593 4.36816 3 4.86581 3H8.99805L8.51842 10.6741C7.03416 12.3177 4.28024 12.1362 3.07633 10.1297Z" fill="white"/>
<path d="M9.51854 10.6722L9.99805 3H13.998L14.4776 10.6731C13.1254 12.0407 10.8704 12.0404 9.51854 10.6722Z" fill="white"/>
<path d="M15.4776 10.6729C16.9616 12.3177 19.7165 12.1367 20.9207 10.1297C20.971 10.0458 20.991 9.94713 20.9771 9.85028L20.1212 3.85858C20.0508 3.36593 19.6289 3 19.1312 3H14.998L15.4776 10.6729Z" fill="white"/>
<path d="M19.9985 12.2676V18C19.9985 19.6569 18.6554 21 16.9985 21H14.998C14.4458 21 13.998 20.5523 13.998 20V18C13.998 17.4477 13.5503 17 12.998 17H10.998C10.4458 17 9.99805 17.4477 9.99805 18V20C9.99805 20.5523 9.55033 21 8.99805 21H6.99852C5.34166 21 3.99852 19.6569 3.99852 18V12.2676C5.49566 13.4811 7.83765 13.2413 8.99852 11.5C10.4257 13.6407 13.5714 13.6407 14.9985 11.5C16.1594 13.2413 18.5014 13.4811 19.9985 12.2676Z" fill="white"/>
</svg>
