<svg width="24" height="24" viewBox="0 0 24 24" fill="none" xmlns="http://www.w3.org/2000/svg">
<path d="M18.0827 11.5444C18.9302 10.8687 19.4575 9.84556 19.4575 8.66795C19.4575 6.64093 17.8379 5 15.8229 5C15.0131 5 14.241 5.28958 13.6195 5.7722C15.2579 6.42857 16.4067 8.03089 16.4067 9.92278C16.4067 11.3127 15.7852 12.5483 14.8059 13.3591C17.2353 14.1313 18.8549 15.8687 18.8549 17.9923V18.166H20.2108C21.2465 18.166 21.9998 17.4131 21.9998 16.3707V15.5405C22.0187 13.668 20.4368 12.1429 18.0827 11.5444Z" fill="white"/>
<path d="M7.61201 9.92278C7.61201 8.01158 8.81727 6.37066 10.4933 5.73359C9.87187 5.27027 9.11859 5 8.3088 5C6.31258 5 4.67418 6.64093 4.67418 8.66795C4.67418 9.80695 5.20148 10.8494 6.0301 11.5058C3.61957 12.1042 2 13.6293 2 15.5405V16.3707C2 17.4131 2.75329 18.166 3.78906 18.166H5.01316V17.9923C5.01316 15.8301 6.67039 14.0734 9.15625 13.3205C8.21464 12.5097 7.61201 11.2741 7.61201 9.92278Z" fill="white"/>
<path d="M14.3728 14.7297C13.6572 14.5174 12.8285 14.3822 11.9434 14.3822C11.1148 14.3822 10.3427 14.4981 9.64589 14.6911C7.68734 15.251 6.42558 16.5251 6.42558 17.9923V18.8031C6.42558 19.5174 6.95288 20 7.64967 20H16.2183C16.9151 20 17.4424 19.5174 17.4424 18.8031V17.9923C17.4613 16.5444 16.256 15.3089 14.3728 14.7297Z" fill="white"/>
<path d="M9.02442 9.92278C9.02442 11.2162 9.83421 12.3166 10.983 12.7413C11.3031 12.8571 11.6609 12.9344 12.0187 12.9344C12.3766 12.9344 12.7344 12.8571 13.0545 12.7413C14.2033 12.3166 15.0131 11.2162 15.0131 9.92278C15.0131 8.4749 13.9961 7.25869 12.6402 6.96911C12.4331 6.9305 12.2447 6.9112 12.0187 6.9112C11.8493 6.9112 11.6798 6.9305 11.5291 6.94981C10.0979 7.18147 9.02442 8.41699 9.02442 9.92278Z" fill="white"/>
</svg>
