<svg width="24" height="24" viewBox="0 0 24 24" fill="none" xmlns="http://www.w3.org/2000/svg">
<path d="M11.5849 19.7915C11.5849 19.8757 11.5501 19.9536 11.4868 20.0099L9.47119 21.9127C9.40789 21.9688 9.33201 22 9.25281 22C9.1674 22 9.08515 21.9657 9.02185 21.9033L5.08882 17.845C5.02869 17.7826 4.99704 17.7047 5.00022 17.6205C5.0034 17.5394 5.03823 17.4583 5.09835 17.4021L7.11396 15.5025C7.24374 15.3808 7.44305 15.3871 7.5633 15.5119L11.4997 19.5701C11.5567 19.6324 11.5881 19.7104 11.5849 19.7915Z" fill="white"/>
<path d="M19.6341 6.63415C19.6341 9.19351 17.5594 11.2683 15 11.2683C12.4406 11.2683 10.3659 9.19351 10.3659 6.63415C10.3659 4.07478 12.4406 2 15 2C17.5594 2 19.6341 4.07478 19.6341 6.63415Z" fill="white"/>
<path fill-rule="evenodd" clip-rule="evenodd" d="M19.6594 14.9363C19.8446 14.7478 19.9488 14.4985 19.9517 14.2278C19.9546 13.954 19.8563 13.7016 19.6739 13.5132C19.3149 13.133 18.736 13.121 18.3656 13.4828L17.1171 14.6044C16.9029 14.8051 15.8962 15.4146 15.6098 15.4146H14.1463C13.9443 15.4146 13.7805 15.2508 13.7805 15.0488C13.7805 14.8467 13.9443 14.6829 14.1463 14.6829H14.8014C15.2439 14.6829 15.6098 14.3171 15.6098 13.9512C15.6098 13.6179 15.36 13.2195 14.8014 13.2195H11.298C10.4878 13.2195 10.1809 13.6192 9.75835 14.0236L8.65854 15.1031L11.9512 18.3415C12.0142 18.3168 12.0673 18.2435 12.1223 18.1675C12.1963 18.0654 12.2738 17.9584 12.3834 17.9584H15.7307C16.3037 17.9584 16.8479 17.7303 17.2618 17.3138L19.6594 14.9363Z" fill="white"/>
</svg>
