<svg width="24" height="24" viewBox="0 0 24 24" fill="none" xmlns="http://www.w3.org/2000/svg">
<path fill-rule="evenodd" clip-rule="evenodd" d="M1.37109 13.8816C1.37109 13.647 1.56126 13.4569 1.79583 13.4569H9.28516C9.22048 13.6936 9.18595 13.9429 9.18595 14.2002C9.18595 14.4575 9.22048 14.7067 9.28516 14.9435H1.79583C1.56126 14.9435 1.37109 14.7533 1.37109 14.5187V13.8816ZM10.0068 16.1865L8.37637 20.0729C8.23516 20.3553 8.44052 20.6875 8.75626 20.6875H15.2434C15.5592 20.6875 15.7645 20.3553 15.6233 20.0729L13.9929 16.1865C13.4835 16.6977 12.7786 17.0141 11.9998 17.0141C11.2211 17.0141 10.5162 16.6977 10.0068 16.1865ZM22.2039 14.9435H14.7145C14.7792 14.7067 14.8137 14.4575 14.8137 14.2002C14.8137 13.9429 14.7792 13.6936 14.7145 13.4569H22.2039C22.4384 13.4569 22.6286 13.647 22.6286 13.8816V14.5187C22.6286 14.7533 22.4384 14.9435 22.2039 14.9435Z" fill="white"/>
<path d="M13.5673 13.4569C13.2889 12.8709 12.6917 12.4658 11.9998 12.4658C11.308 12.4658 10.7108 12.8709 10.4324 13.4569C10.3254 13.6822 10.2655 13.9342 10.2655 14.2002C10.2655 14.4662 10.3254 14.7182 10.4324 14.9435C10.4964 15.0782 10.5773 15.2034 10.6723 15.3164C10.9905 15.6943 11.4671 15.9345 11.9998 15.9345C12.5326 15.9345 13.0092 15.6943 13.3273 15.3164C13.4224 15.2034 13.5033 15.0782 13.5673 14.9435C13.6743 14.7182 13.7342 14.4662 13.7342 14.2002C13.7342 13.9342 13.6743 13.6822 13.5673 13.4569Z" fill="white"/>
<path d="M18.5821 5.3208C16.9719 5.3208 15.6216 6.44017 15.2618 7.94154C15.1996 8.19695 15.1641 8.46347 15.1641 8.73664C15.1641 9.00982 15.1996 9.27634 15.2618 9.53175C15.6216 11.0331 16.9719 12.1525 18.5821 12.1525C20.4655 12.1525 21.998 10.62 21.998 8.73664C21.998 6.85327 20.4655 5.3208 18.5821 5.3208ZM19.8792 10.4224C19.6726 10.6222 19.4017 10.7577 19.0752 10.8244L19.0241 10.8355V10.8888C19.0174 11.1331 18.8131 11.3307 18.5688 11.3307C18.3245 11.3307 18.1157 11.1286 18.1157 10.8777V10.8244L18.0646 10.8132C17.7604 10.7422 17.5005 10.6067 17.2917 10.4113C17.1452 10.2736 17.0297 10.1114 16.9497 9.9293C16.9031 9.82047 16.9075 9.70054 16.9653 9.59838C17.0297 9.48067 17.1518 9.39849 17.2917 9.3785C17.314 9.37406 17.3362 9.37406 17.3584 9.37406C17.5405 9.37406 17.7204 9.48289 17.8492 9.67611C17.9003 9.75385 17.9669 9.8227 18.0447 9.88044C18.2068 9.99815 18.3956 10.0559 18.6265 10.0559C18.8442 10.0559 19.0241 10.0093 19.1596 9.91376C19.2862 9.82714 19.3461 9.72275 19.3461 9.59838C19.3461 9.51398 19.3195 9.44735 19.2662 9.39627C19.2062 9.3363 19.1018 9.28522 18.9552 9.24302L17.9469 8.94986C17.1585 8.72332 16.9919 8.22804 16.9919 7.8527C16.9919 7.52178 17.103 7.24416 17.3228 7.02872C17.5094 6.84438 17.7581 6.71779 18.0602 6.6556L18.1113 6.6445V6.59119C18.1179 6.34689 18.3201 6.147 18.5666 6.147C18.8131 6.147 19.0197 6.35133 19.0197 6.60896V6.66004L19.0685 6.67337C19.3373 6.74222 19.5705 6.86437 19.757 7.03983C19.8836 7.15532 19.988 7.2908 20.068 7.44626C20.1235 7.55287 20.1257 7.67724 20.0724 7.78607C20.0124 7.90822 19.8903 7.99706 19.7504 8.01927C19.5505 8.05259 19.3395 7.94598 19.1751 7.72611C19.1374 7.67724 19.0907 7.6306 19.0396 7.59063C18.8997 7.48402 18.7354 7.4285 18.5355 7.42405C18.3534 7.42183 18.1935 7.45737 18.0624 7.54399C17.9492 7.6195 17.8936 7.71056 17.8936 7.81939C17.8936 7.86825 17.9047 7.94154 17.9936 8.01705C18.0491 8.06147 18.1624 8.12588 18.3911 8.18807L19.1418 8.39017C19.526 8.49678 19.797 8.6367 19.9724 8.82104C20.1501 9.00538 20.2412 9.25191 20.2412 9.55174C20.2412 9.89821 20.119 10.1914 19.8747 10.4224H19.8792Z" fill="white"/>
<path d="M5.41806 5.3208C3.80786 5.3208 2.45752 6.44017 2.09772 7.94154C2.03554 8.19695 2 8.46347 2 8.73664C2 9.00982 2.03554 9.27634 2.09772 9.53175C2.45752 11.0331 3.80786 12.1525 5.41806 12.1525C7.30144 12.1525 8.83391 10.62 8.83391 8.73664C8.83391 6.85327 7.30144 5.3208 5.41806 5.3208ZM6.71511 10.4224C6.50856 10.6222 6.2376 10.7577 5.91112 10.8244L5.86004 10.8355V10.8888C5.85337 11.1331 5.64904 11.3307 5.40474 11.3307C5.16043 11.3307 4.95166 11.1286 4.95166 10.8777V10.8244L4.90058 10.8132C4.59631 10.7422 4.33645 10.6067 4.12768 10.4113C3.9811 10.2736 3.86561 10.1114 3.78566 9.9293C3.73901 9.82047 3.74346 9.70054 3.8012 9.59838C3.86561 9.48067 3.98776 9.39849 4.12768 9.3785C4.14989 9.37406 4.1721 9.37406 4.19431 9.37406C4.37643 9.37406 4.55633 9.48289 4.68515 9.67611C4.73623 9.75385 4.80286 9.8227 4.88059 9.88044C5.04272 9.99815 5.2315 10.0559 5.46248 10.0559C5.68014 10.0559 5.86004 10.0093 5.99551 9.91376C6.12211 9.82714 6.18208 9.72275 6.18208 9.59838C6.18208 9.51398 6.15542 9.44735 6.10212 9.39627C6.04215 9.3363 5.93777 9.28522 5.79119 9.24302L4.78287 8.94986C3.99443 8.72332 3.82785 8.22804 3.82785 7.8527C3.82785 7.52178 3.9389 7.24416 4.15878 7.02872C4.34534 6.84438 4.59409 6.71779 4.89614 6.6556L4.94722 6.6445V6.59119C4.95388 6.34689 5.15599 6.147 5.40252 6.147C5.64904 6.147 5.85559 6.35133 5.85559 6.60896V6.66004L5.90445 6.67337C6.17319 6.74222 6.40639 6.86437 6.59295 7.03983C6.71955 7.15532 6.82393 7.2908 6.90389 7.44626C6.95941 7.55287 6.96163 7.67724 6.90833 7.78607C6.84836 7.90822 6.72621 7.99706 6.58629 8.01927C6.3864 8.05259 6.17541 7.94598 6.01106 7.72611C5.9733 7.67724 5.92666 7.6306 5.87558 7.59063C5.73566 7.48402 5.57131 7.4285 5.37142 7.42405C5.1893 7.42183 5.02939 7.45737 4.89836 7.54399C4.78509 7.6195 4.72956 7.71056 4.72956 7.81939C4.72956 7.86825 4.74067 7.94154 4.82951 8.01705C4.88503 8.06147 4.9983 8.12588 5.22706 8.18807L5.97775 8.39017C6.36197 8.49678 6.63293 8.6367 6.80839 8.82104C6.98606 9.00538 7.07712 9.25191 7.07712 9.55174C7.07712 9.89821 6.95497 10.1914 6.71066 10.4224H6.71511Z" fill="white"/>
</svg>
