<svg width="24" height="24" viewBox="0 0 24 24" fill="none" xmlns="http://www.w3.org/2000/svg">
<path d="M3.11012 18.6233H4.12925V20.5187C4.12925 20.9209 4.4583 21.25 4.86047 21.25C5.26264 21.25 5.59169 20.9209 5.59169 20.5187V18.6233H6.61082C7.01299 18.6233 7.34203 18.2943 7.34203 17.8921V14.9663C7.34203 14.5641 7.01299 14.2351 6.61082 14.2351H5.59169V12.294C5.59169 11.8918 5.26264 11.5627 4.86047 11.5627C4.4583 11.5627 4.12925 11.8918 4.12925 12.294V14.2351H3.11012C2.70795 14.2351 2.37891 14.5641 2.37891 14.9663V17.8921C2.37891 18.2989 2.70338 18.6233 3.11012 18.6233Z" fill="white"/>
<path d="M10.2507 17.5453H11.2699V19.4407C11.2699 19.8429 11.5989 20.1719 12.0011 20.1719C12.4033 20.1719 12.7323 19.8429 12.7323 19.4407V17.5453H13.7514C14.1536 17.5453 14.4827 17.2162 14.4827 16.8141V11.9298C14.4827 11.5277 14.1536 11.1986 13.7514 11.1986H12.7323V9.25294C12.7323 8.85078 12.4033 8.52173 12.0011 8.52173C11.5989 8.52173 11.2699 8.85078 11.2699 9.25294V11.194H10.2507C9.84858 11.194 9.51953 11.5231 9.51953 11.9253V16.8095C9.51953 17.2162 9.84858 17.5453 10.2507 17.5453Z" fill="white"/>
<path d="M17.3914 14.702H18.4105V16.5974C18.4105 16.9996 18.7396 17.3286 19.1417 17.3286C19.5439 17.3286 19.8729 16.9996 19.8729 16.5974V14.702H20.8921C21.2942 14.702 21.6233 14.373 21.6233 13.9708V6.15353C21.6233 5.75136 21.2942 5.42231 20.8921 5.42231H19.8729V3.48122C19.8729 3.07905 19.5439 2.75 19.1417 2.75C18.7396 2.75 18.4105 3.07905 18.4105 3.48122V5.42231H17.3914C16.9892 5.42231 16.6602 5.75136 16.6602 6.15353V13.9754C16.6602 14.3775 16.9892 14.702 17.3914 14.702Z" fill="white"/>
</svg>
