<svg width="24" height="24" viewBox="0 0 24 24" fill="none" xmlns="http://www.w3.org/2000/svg">
<path fill-rule="evenodd" clip-rule="evenodd" d="M13.8216 2.40576H10.1792C8.94197 2.40576 7.97665 2.40576 7.2018 2.46906C6.41431 2.5334 5.77088 2.66611 5.1909 2.96163C4.23127 3.45058 3.45107 4.23078 2.96212 5.19041C2.6666 5.77039 2.53389 6.41382 2.46955 7.20131C2.40624 7.97616 2.40625 8.94149 2.40625 10.1787V13.8211C2.40625 15.0583 2.40624 16.0236 2.46955 16.7985C2.53389 17.586 2.6666 18.2294 2.96212 18.8094C3.45107 19.769 4.23127 20.5492 5.1909 21.0382C5.77088 21.3337 6.41431 21.4664 7.2018 21.5307C7.97666 21.594 8.94201 21.594 10.1793 21.594H13.8215C15.0588 21.594 16.0241 21.594 16.799 21.5307C17.5865 21.4664 18.2299 21.3337 18.8099 21.0382C19.7695 20.5492 20.5497 19.769 21.0387 18.8094C21.3342 18.2294 21.4669 17.586 21.5312 16.7985C21.5945 16.0236 21.5945 15.0583 21.5945 13.821V10.1788C21.5945 8.94152 21.5945 7.97617 21.5312 7.20131C21.4669 6.41382 21.3342 5.77039 21.0387 5.19041C20.5497 4.23078 19.7695 3.45058 18.8099 2.96163C18.2299 2.66611 17.5865 2.5334 16.799 2.46906C16.0241 2.40576 15.0588 2.40576 13.8216 2.40576ZM12.7225 12.1829L16.3502 8.16143L17.761 9.43408L12.7225 15.0194L10.5559 12.6177L7.65044 15.8386L6.23965 14.566L10.5559 9.78116L12.7225 12.1829Z" fill="white"/>
</svg>
