<svg width="24" height="24" viewBox="0 0 24 24" fill="none" xmlns="http://www.w3.org/2000/svg">
<path d="M12 3C11.2742 3 10.5774 3.0871 9.90968 3.24677C7.71774 3.76935 5.83065 5.09032 4.59677 6.89032C3.59516 8.34194 3 10.0984 3 12C3 16.9645 7.03548 21 12 21C16.9645 21 21 16.9645 21 12C21 7.03548 16.9645 3 12 3ZM15.7161 18.0242C15.6435 18.6048 14.8163 18.8952 14.6421 18.271C14.3371 17.1242 13.5243 17.4579 13.5534 16.3839C13.5824 15.5708 11.913 16.2097 11.4776 15.5565C11.0421 14.9177 12.2469 14.2935 11.5937 13.4952C10.9405 12.6968 9.63387 13.8 8.06613 13.2629C7.36935 13.0161 6.70161 12.4499 6.2371 11.8839C5.6129 11.129 5.39516 10.229 5.13387 9.3C5.10484 9.2129 5.09032 9.11129 5.06129 9.02419C5.85968 7.18065 7.35484 5.71452 9.22742 4.97419C9.57581 5.45323 10.6935 5.22097 11.4048 5.29355C11.7677 5.32258 12.029 5.43871 12.0435 5.75806C12.0435 5.81613 12.029 5.90323 12 5.99032C11.7823 6.58548 10.9694 7.63064 11.4774 8.02258C11.8548 8.3129 12.1161 7.76129 12.3339 8.58871C12.4355 8.96613 12.479 9.75 12.0582 10.0258C11.6516 10.2871 10.6355 9.24194 9.3871 9.82258C8.70484 10.1565 8.60323 11.7242 9.54677 11.8113C10.0984 11.8548 10.5339 10.7661 11.0565 11.2887C11.4774 11.7097 11.8403 12.8565 12.8274 12.9C13.6984 12.9435 15.3677 12.4065 16.471 13.9306C17.1242 14.8597 15.9194 15.6 15.7016 16.4856C15.5129 17.2113 15.7742 17.5887 15.7161 18.0242Z" fill="white"/>
</svg>
