<svg width="24" height="24" viewBox="0 0 24 24" fill="none" xmlns="http://www.w3.org/2000/svg">
<path d="M21.5924 8.90298C19.7157 10.7797 16.6729 10.7797 14.7962 8.90298C12.9195 7.02626 12.9195 3.98349 14.7962 2.10676C16.6729 0.230038 19.7157 0.230038 21.5924 2.10676C23.4692 3.98349 23.4692 7.02626 21.5924 8.90298Z" fill="white"/>
<path d="M9.20376 21.8933C7.32704 23.77 4.28427 23.77 2.40754 21.8933C0.530819 20.0166 0.530819 16.9738 2.40754 15.0971C4.28427 13.2203 7.32704 13.2203 9.20376 15.0971C11.0805 16.9738 11.0805 20.0166 9.20376 21.8933Z" fill="white"/>
<path fill-rule="evenodd" clip-rule="evenodd" d="M2.18966 7.42753L3.6268 6.72423L5.08387 9.70167L8.53397 7.87327L9.2832 9.28701L4.37306 11.8892L2.18966 7.42753Z" fill="white"/>
<path fill-rule="evenodd" clip-rule="evenodd" d="M4.25012 9.84139C5.0425 6.27501 7.65392 3.40747 11.0483 2.24248L11.5677 3.75583C8.69354 4.74227 6.4821 7.17255 5.81203 10.1884L4.25012 9.84139Z" fill="white"/>
<path fill-rule="evenodd" clip-rule="evenodd" d="M21.8105 16.571L20.3734 17.2743L18.9163 14.2968L15.4662 16.1252L14.717 14.7115L19.6271 12.1093L21.8105 16.571Z" fill="white"/>
<path fill-rule="evenodd" clip-rule="evenodd" d="M19.7501 14.1571C18.9577 17.7235 16.3463 20.591 12.9519 21.756L12.4325 20.2427C15.3067 19.2562 17.5181 16.8259 18.1882 13.8101L19.7501 14.1571Z" fill="white"/>
</svg>
