<svg width="24" height="24" viewBox="0 0 24 24" fill="none" xmlns="http://www.w3.org/2000/svg">
<path fill-rule="evenodd" clip-rule="evenodd" d="M2.65842 15.8467C2.65837 16.7332 2.65832 17.497 2.74056 18.1087C2.82869 18.7642 3.02743 19.3925 3.53709 19.9022C4.04675 20.4119 4.6751 20.6106 5.33061 20.6987C5.94227 20.781 6.70608 20.7809 7.59256 20.7809L20.7883 20.7809V8.98424H2.74056L2.65842 15.8467ZM17.2971 16.172C18.0195 16.172 18.6052 15.5863 18.6052 14.8639C18.6052 14.1414 18.0195 13.5558 17.2971 13.5558C16.5746 13.5558 15.989 14.1414 15.989 14.8639C15.989 15.5863 16.5746 16.172 17.2971 16.172Z" fill="white"/>
<path fill-rule="evenodd" clip-rule="evenodd" d="M15.4805 9.75023C15.4328 9.75021 15.3844 9.75019 15.3352 9.75019L15.3352 7.95019C16.4436 7.95016 16.799 7.94045 17.064 7.86039C17.7381 7.65669 18.2653 7.12862 18.4678 6.45411C18.5468 6.19101 18.5564 5.83891 18.5547 4.74996L5.45078 4.75006C4.56712 4.75007 3.85078 5.46641 3.85078 6.35007C3.85078 7.23373 4.56713 7.95008 5.45079 7.95008H12.4508V9.75008H5.45079C3.57302 9.75008 2.05078 8.22784 2.05078 6.35007C2.05078 4.47231 3.573 2.95008 5.45076 2.95006L20.3516 2.94995L20.3546 4.72213C20.3547 4.77129 20.3548 4.8197 20.3549 4.86741C20.3569 5.7689 20.3583 6.41709 20.1918 6.97179C19.8156 8.22444 18.8366 9.20514 17.5846 9.58345C17.0302 9.75097 16.382 9.75066 15.4805 9.75023Z" fill="white"/>
<path fill-rule="evenodd" clip-rule="evenodd" d="M2.0533 6.46645C2.05331 6.44231 2.05333 6.41789 2.05333 6.39316H3.85333C3.85333 6.85768 3.85698 6.96987 3.87103 7.04725C3.95293 7.49818 4.30583 7.85107 4.75675 7.93297C4.83414 7.94703 4.94632 7.95068 5.41084 7.95068H21.8533V21.6257L6.89283 21.6257C6.00169 21.6257 5.24375 21.6258 4.63886 21.5444C3.99443 21.4578 3.3907 21.2643 2.90272 20.7763C2.41473 20.2883 2.22122 19.6846 2.13457 19.0401C2.05325 18.4352 2.05328 17.6773 2.05332 16.7862L2.05333 6.60547C2.05324 6.5602 2.05327 6.51389 2.0533 6.46645ZM3.85333 9.53413V16.7257C3.85333 17.6939 3.85524 18.3296 3.91852 18.8003C3.97833 19.2451 4.07771 19.4057 4.17551 19.5035C4.27331 19.6013 4.43388 19.7007 4.8787 19.7605C5.34942 19.8238 5.98507 19.8257 6.95332 19.8257H20.0533V9.75068H5.41084C5.38612 9.75068 5.36169 9.75069 5.33755 9.75071C4.98517 9.75092 4.69445 9.7511 4.43509 9.704C4.23295 9.66728 4.03828 9.60991 3.85333 9.53413Z" fill="white"/>
</svg>
