<svg width="24" height="24" viewBox="0 0 24 24" fill="none" xmlns="http://www.w3.org/2000/svg">
<path fill-rule="evenodd" clip-rule="evenodd" d="M11.9976 5.85985C8.65314 5.85985 5.94192 8.57107 5.94192 11.9155C5.94192 13.3519 6.44199 14.6714 7.27754 15.7096C8.14339 14.6777 10.0556 13.9618 12.0351 13.9618C13.9854 13.9618 15.8705 14.6568 16.7538 15.6643C17.5676 14.6332 18.0533 13.3311 18.0533 11.9155C18.0533 8.57107 15.3421 5.85985 11.9976 5.85985ZM12.0351 12.9902C13.4164 12.9902 14.5361 11.8904 14.5361 10.5338C14.5361 9.17719 13.4164 8.07743 12.0351 8.07743C10.6538 8.07743 9.53404 9.17719 9.53404 10.5338C9.53404 11.8904 10.6538 12.9902 12.0351 12.9902Z" fill="white"/>
<path fill-rule="evenodd" clip-rule="evenodd" d="M3 12C3 7.02944 7.02944 3 12 3C16.9706 3 21 7.02944 21 12C21 16.9706 16.9706 21 12 21C7.02944 21 3 16.9706 3 12ZM12 4.22295C7.70485 4.22295 4.22295 7.70485 4.22295 12C4.22295 16.2951 7.70485 19.777 12 19.777C16.2951 19.777 19.777 16.2951 19.777 12C19.777 7.70485 16.2951 4.22295 12 4.22295Z" fill="white"/>
</svg>
