<svg width="24" height="24" viewBox="0 0 24 24" fill="none" xmlns="http://www.w3.org/2000/svg">
<path d="M12.6663 3.34222C12.4503 3.11407 12.1681 3 11.8859 3C11.6037 3 11.3214 3.11407 11.1055 3.34222L7.36298 7.29585C6.93106 7.75214 6.93106 8.49102 7.36298 8.94471C7.7949 9.39841 8.49432 9.401 8.92379 8.94471L10.7815 6.98216L10.7815 15.5661C10.7815 16.2116 11.2748 16.7327 11.8859 16.7327C12.497 16.7327 12.9902 16.2116 12.9902 15.5661L12.9902 6.98475L14.848 8.94472C15.2799 9.401 15.9793 9.401 16.4088 8.94472C16.8407 8.48843 16.8407 7.74955 16.4088 7.29585L12.6663 3.34222Z" fill="white"/>
<path d="M19.6011 18.8406H4.17067C3.5229 18.8406 3 19.3229 3 19.9203C3 20.5177 3.5229 21 4.17067 21H19.6011C20.2489 21 20.7718 20.5177 20.7718 19.9203C20.7718 19.3229 20.2489 18.8406 19.6011 18.8406Z" fill="white"/>
</svg>
