<svg width="24" height="24" viewBox="0 0 24 24" fill="none" xmlns="http://www.w3.org/2000/svg">
<path d="M20.5506 20.5653C18.8303 22.2856 16.0411 22.2856 14.3208 20.5653C12.6004 18.845 12.6004 16.0557 14.3208 14.3354C16.0411 12.6151 18.8303 12.6151 20.5506 14.3354C22.271 16.0557 22.271 18.845 20.5506 20.5653Z" fill="white"/>
<path d="M9.67636 9.6644C7.95603 11.3847 5.16683 11.3847 3.4465 9.6644C1.72617 7.94407 1.72617 5.15486 3.4465 3.43453C5.16683 1.7142 7.95603 1.7142 9.67636 3.43453C11.3967 5.15486 11.3967 7.94407 9.67636 9.6644Z" fill="white"/>
<path fill-rule="evenodd" clip-rule="evenodd" d="M20.8366 9.23624H19.0366L19.0366 6.23435L4.69634 20.5746L3.42355 19.3019L17.7638 4.96156L14.762 4.96156V3.16156H20.8366V9.23624Z" fill="white"/>
</svg>
