<svg width="24" height="24" viewBox="0 0 24 24" fill="none" xmlns="http://www.w3.org/2000/svg">
<path d="M11.1055 16.3905C11.3215 16.6187 11.6037 16.7327 11.886 16.7327C12.1682 16.7327 12.4504 16.6187 12.6664 16.3905L16.4089 12.4369C16.8408 11.9806 16.8408 11.2417 16.4089 10.788C15.9769 10.3343 15.2775 10.3317 14.848 10.788L12.9903 12.7506V4.16665C12.9903 3.5211 12.497 3 11.886 3C11.2749 3 10.7816 3.5211 10.7816 4.16665V12.748L8.92385 10.788C8.49193 10.3317 7.79251 10.3317 7.36305 10.788C6.93112 11.2443 6.93112 11.9832 7.36305 12.4369L11.1055 16.3905Z" fill="white"/>
<path d="M19.6011 18.8406H4.17067C3.5229 18.8406 3 19.3229 3 19.9203C3 20.5177 3.5229 21 4.17067 21H19.6011C20.2489 21 20.7718 20.5177 20.7718 19.9203C20.7718 19.3229 20.2489 18.8406 19.6011 18.8406Z" fill="white"/>
</svg>
